<svg id="Layer_1" data-name="Layer 1" xmlns="http://www.w3.org/2000/svg" viewBox="0 0 1200 300"><defs><style>.cls-1{fill:#f1f3f4;}.cls-2,.cls-3{fill:#ed1c24;}.cls-10,.cls-2,.cls-4,.cls-7,.cls-8,.cls-9{fill-rule:evenodd;}.cls-4,.cls-5{fill:#0095da;}.cls-6,.cls-7{fill:#243a76;}.cls-8{fill:#797a7d;}.cls-10,.cls-11,.cls-9{fill:#fff;}.cls-10{stroke:#fff;stroke-miterlimit:22.93;stroke-width:0.9px;}</style></defs><title>material management</title><rect class="cls-1" width="1200" height="300"/><path class="cls-2" d="M817.92,202a19,19,0,1,0-19-19A19.07,19.07,0,0,0,817.92,202Z"/><circle class="cls-3" cx="991.49" cy="98.31" r="4.02"/><path class="cls-2" d="M1107.87,104.79a41,41,0,0,0-36.14,45.85c2.47,20.85,22,39.19,46.06,35.82,21.17-3,38.6-21.76,35.53-46.16a39.24,39.24,0,0,0-5-15C1140,111.42,1126,103,1107.87,104.79Z"/><path class="cls-2" d="M674.35,79.42a34.78,34.78,0,1,0-34.78-34.78A34.84,34.84,0,0,0,674.35,79.42Z"/><path class="cls-2" d="M631,139.59a10.07,10.07,0,1,0-10.07-10.07A10.09,10.09,0,0,0,631,139.59Z"/><path class="cls-2" d="M1079.09,217.83a9.65,9.65,0,1,0-9.65-9.65A9.67,9.67,0,0,0,1079.09,217.83Z"/><path class="cls-2" d="M916.39,255.43a5.36,5.36,0,1,0-5.36-5.36A5.37,5.37,0,0,0,916.39,255.43Z"/><path class="cls-2" d="M715,245.15a15.41,15.41,0,1,0-15.41-15.41A15.44,15.44,0,0,0,715,245.15Z"/><path class="cls-2" d="M607.4,205.52a19,19,0,1,0-19-19A19.07,19.07,0,0,0,607.4,205.52Z"/><path class="cls-2" d="M586.14,110.57a5.36,5.36,0,1,0-5.36-5.36A5.37,5.37,0,0,0,586.14,110.57Z"/><path class="cls-4" d="M991.48,279.38a56.29,56.29,0,1,0-56.29-56.29A56.4,56.4,0,0,0,991.48,279.38Z"/><circle class="cls-5" cx="785.71" cy="142" r="3.22"/><path class="cls-4" d="M873,54.77a4.69,4.69,0,1,0-4.69-4.69A4.7,4.7,0,0,0,873,54.77Z"/><path class="cls-4" d="M712.66,186.92a46.24,46.24,0,1,0-46.24-46.24A46.33,46.33,0,0,0,712.66,186.92Z"/><path class="cls-4" d="M1014.28,81.61a37.39,37.39,0,1,0-37.39-37.39A37.46,37.46,0,0,0,1014.28,81.61Z"/><path class="cls-4" d="M659.14,276.74a13.6,13.6,0,1,0-13.6-13.6A13.63,13.63,0,0,0,659.14,276.74Z"/><path class="cls-4" d="M1080.51,87.35a5.36,5.36,0,1,0-5.36-5.36A5.37,5.37,0,0,0,1080.51,87.35Z"/><circle class="cls-5" cx="1071.38" cy="259.65" r="4.69"/><circle class="cls-5" cx="575.19" cy="145.49" r="3.22"/><path class="cls-4" d="M615.36,48.24A5.36,5.36,0,1,0,610,42.88,5.37,5.37,0,0,0,615.36,48.24Z"/><circle class="cls-6" cx="1051.59" cy="168.06" r="3.22"/><circle class="cls-6" cx="660.51" cy="101.67" r="3.22"/><path class="cls-7" d="M745.73,60.47a7.17,7.17,0,1,0-7.17-7.17A7.18,7.18,0,0,0,745.73,60.47Z"/><path class="cls-8" d="M901.46,228.27a80.21,80.21,0,1,0-80.21-80.21A80.36,80.36,0,0,0,901.46,228.27Z"/><path class="cls-7" d="M820.26,126.55a36.18,36.18,0,1,0-36.19-36.18A36.25,36.25,0,0,0,820.26,126.55Z"/><circle class="cls-6" cx="795.85" cy="28.62" r="3.22"/><path class="cls-7" d="M658.65,206.47a7.71,7.71,0,1,0-7.71-7.71A7.72,7.72,0,0,0,658.65,206.47Z"/><path class="cls-7" d="M939.66,47A7.71,7.71,0,1,0,932,39.26,7.72,7.72,0,0,0,939.66,47Z"/><circle class="cls-6" cx="1080.51" cy="37.86" r="3.22"/><path class="cls-7" d="M770.62,191.72a4.76,4.76,0,1,0-4.76-4.76A4.77,4.77,0,0,0,770.62,191.72Z"/><path class="cls-7" d="M1029.35,143a14.07,14.07,0,1,0-14.07-14.07A14.1,14.1,0,0,0,1029.35,143Z"/><circle class="cls-6" cx="1150.38" cy="199.62" r="3.22"/><path class="cls-7" d="M1142.35,287a32.16,32.16,0,1,0-32.16-32.17A32.23,32.23,0,0,0,1142.35,287Z"/><path class="cls-7" d="M1145.85,85.46a36.25,36.25,0,1,0-36.25-36.25A36.32,36.32,0,0,0,1145.85,85.46Z"/><circle class="cls-6" cx="820.44" cy="242.55" r="3.35"/><path class="cls-7" d="M866.18,277.47a11.79,11.79,0,1,0-11.79-11.79A11.82,11.82,0,0,0,866.18,277.47Z"/><path class="cls-7" d="M754.63,293.17A40.21,40.21,0,1,0,714.43,253,40.28,40.28,0,0,0,754.63,293.17Z"/><path class="cls-9" d="M876.1,136c.21.63.35,1.35.53,2l1.57,6.05c2,8,4.26,16.21,6.31,24.25.17.67.35,1.35.52,2,.49,2,.58,1.59,3.48,1.59h28c3.07,0,3.25.36,3.73-1.41,1.43-5.36,2.8-10.76,4.19-16.14.69-2.68,1.42-5.38,2.1-8.07.34-1.36,1.28-3.35-.58-3.37-8.46-.06-17.07,0-25.54,0-6.79,0-13.61,0-20.42,0-.41-1.29-2-7.86-2.19-8.39s-.8-.59-1.54-.59h-8.47a1,1,0,1,0-.19,2c2.79.09,5.67,0,8.47,0Zm34.55,15.92,0-6.95h14.15c-.09.55-.31,1.22-.45,1.78L923,151.88Zm-28.29,0-1.79-6.93h14.15v6.94Zm14.39,5.44v-3.4h.3c1.11,0,10.07-.08,11.56,0v6.94H896.75v-3.56Zm0-12.17v-.21H908.6v6.93H896.75v-6.74Zm0,24.69,0-6.94H908.6v6.93Zm13.9-9v-7h11.83l-1.82,6.95Zm-25.95,0-1.79-7h11.81l0,7Zm25.94,9v-6.94h9.49l-1.79,6.93Zm-23.62,0-1.78-6.92h9.48v6.94Z"/><path class="cls-9" d="M913.83,174.91a5.76,5.76,0,1,0,6.27,5.16,5.74,5.74,0,0,0-6.27-5.16Zm-3.17,5.4a3.72,3.72,0,0,1,6.79-1.76,3.73,3.73,0,0,1-1.94,5.63,4,4,0,0,1-2.55-.06l-.94-.57a1.6,1.6,0,0,1-.19-.23c-.6-.71-.5-.23-1-1.58A3.65,3.65,0,0,1,910.66,180.32Z"/><path class="cls-9" d="M890.57,174.9a5.76,5.76,0,1,0,.89,11.49,5.76,5.76,0,0,0-.89-11.49Zm-.11,2.07a3.72,3.72,0,1,1-3.16,4.2,3.73,3.73,0,0,1,3.16-4.2Z"/><path class="cls-9" d="M895.23,126.47a7.5,7.5,0,1,1,.13,2.47,7.76,7.76,0,0,1-.13-2.47Zm6.47-.13c-.95,0-2,0-3,0-.66,0-2-.22-2,1s1.32,1,2,1c1,0,2,0,2.94,0,.11,1-.09,3.86.08,4.33a1,1,0,0,0,.91.62c1.67,0,.65-2.94,1-5h2.94c.95,0,2,.11,2-1s-1.39-1-2-1h-3c0-1,0-2,0-3s.09-2-1-2-1,1-1,2,0,2,0,3Zm-8,3.92a9.26,9.26,0,0,0,2.58,4,9.6,9.6,0,0,0,8.48,2.24A9.45,9.45,0,1,0,899,118.6a10.38,10.38,0,0,0-1.47.77,9.51,9.51,0,0,0-4.24,6.84A8.91,8.91,0,0,0,893.71,130.25Z"/><path class="cls-9" d="M886.94,112.2a5.25,5.25,0,1,1-5.25,5.25,5.25,5.25,0,0,1,5.25-5.25Zm0,2a3.2,3.2,0,1,0,3.2,3.2A3.2,3.2,0,0,0,886.94,114.25Z"/><path class="cls-9" d="M887.64,133.59a3.89,3.89,0,1,1-3.89,3.89,3.89,3.89,0,0,1,3.89-3.89Zm0,1.51a2.37,2.37,0,1,0,2.37,2.37A2.37,2.37,0,0,0,887.64,135.11Z"/><path class="cls-9" d="M919.93,131.53a3.89,3.89,0,1,1-3.89,3.89,3.89,3.89,0,0,1,3.89-3.89Zm0,1.51a2.37,2.37,0,1,0,2.37,2.37A2.37,2.37,0,0,0,919.93,133Z"/><path class="cls-9" d="M911.19,109.71a3.53,3.53,0,1,1-3.53,3.53,3.53,3.53,0,0,1,3.53-3.53Zm0,1.37a2.15,2.15,0,1,0,2.15,2.15A2.15,2.15,0,0,0,911.19,111.08Z"/><path class="cls-9" d="M1133,236a3.67,3.67,0,0,1,2.6,1.08h0a3.68,3.68,0,0,1,0,5.21h0a3.68,3.68,0,0,1-5.21,0h0A3.69,3.69,0,0,1,1133,236Zm1.15,2.54a1.62,1.62,0,0,0-2.29,2.29h0a1.62,1.62,0,0,0,2.29-2.29Z"/><path class="cls-9" d="M1142.21,266.4a3.67,3.67,0,0,1,2.6,1.08h0a3.68,3.68,0,0,1,0,5.21h0a3.68,3.68,0,0,1-5.21,0h0a3.69,3.69,0,0,1,2.61-6.29Zm1.15,2.54a1.62,1.62,0,0,0-2.29,2.29h0a1.62,1.62,0,0,0,2.29-2.29Z"/><path class="cls-9" d="M1151.6,252.32a3.67,3.67,0,0,1,2.6,1.08h0a3.68,3.68,0,0,1,0,5.21h0a3.68,3.68,0,0,1-5.21,0h0a3.69,3.69,0,0,1,2.61-6.29Z"/><path class="cls-9" d="M1132.72,252.32a3.67,3.67,0,0,1,2.6,1.08h0a3.68,3.68,0,0,1,0,5.21h0a3.68,3.68,0,0,1-5.21,0h0a3.69,3.69,0,0,1,2.61-6.29Z"/><polygon class="cls-9" points="1133.07 260.51 1133.07 260.52 1133.08 260.51 1137.12 264.56 1135.87 265.81 1134.04 263.97 1134.04 269.15 1137.02 269.15 1137.02 271.23 1133 271.23 1131.96 271.23 1131.96 270.19 1131.96 264.12 1130.28 265.81 1129.03 264.56 1133.07 260.51"/><polygon class="cls-9" points="1151.62 260.51 1151.62 260.52 1151.62 260.51 1147.57 264.56 1148.82 265.81 1150.66 263.97 1150.66 269.15 1147.67 269.15 1147.67 271.23 1151.69 271.23 1152.73 271.23 1152.73 270.19 1152.73 264.12 1154.41 265.81 1155.66 264.56 1151.62 260.51"/><polygon class="cls-9" points="1133.07 244.01 1133.07 244.01 1133.08 244.01 1137.12 248.06 1135.87 249.3 1134.04 247.47 1134.04 251.35 1131.97 251.35 1131.97 247.62 1130.28 249.3 1129.03 248.06 1133.07 244.01"/><polygon class="cls-9" points="1101.56 146.07 1102.49 146.14 1115.09 146.13 1115.6 146.13 1115.6 137.96 1115.61 137.33 1114.85 137.33 1102.12 137.33 1101.56 137.37 1101.56 146.07"/><path class="cls-9" d="M1093.82,138.6c-.11.66-.4,1.5-.55,2.26a20.5,20.5,0,0,0,3.17,15.51A20,20,0,0,0,1110.2,165c-.19-4.21.79-2.18-3.75-4.06a17.45,17.45,0,0,1-10.31-12.66c-.65-3.24-.32-5.17.32-8.25l2.24,1.14-1.62-5.48-4.3,1.2a3.75,3.75,0,0,0-1.28.47Z"/><path class="cls-9" d="M1129.78,139.07c.07,1.2,1.39,3.5.75,8.16a17.37,17.37,0,0,1-2.41,6.73c-2.23,3.64-6.53,7.11-10.71,7.8l-.1-3a20.94,20.94,0,0,0-2,2.07,18.39,18.39,0,0,0-1.93,2.1c.52.86,2.74,2.46,3.53,3.46.3.38.23.35.66.54l-.07-2.15c3.5-1.21,4.33-1.09,7.71-3.45a20.47,20.47,0,0,0,7.72-21.58c-.2-.77-.52-1.48-.67-2.2A17.47,17.47,0,0,0,1129.78,139.07Z"/><path class="cls-9" d="M1097.23,132.28a14.39,14.39,0,0,0,2.54,1.41l2.35-2.28a17.48,17.48,0,0,1,20.69-1.17,11.77,11.77,0,0,1,2.57,2.16,14.53,14.53,0,0,1-2.18,1.33,10.69,10.69,0,0,0,2.75.77,27.79,27.79,0,0,0,2.86.64l1.36-5.63c-.85.36-1.43.94-2.26,1.28a15.48,15.48,0,0,0-2.94-2.6c-7.74-5.42-17.51-4.83-24.94,1.13A19.78,19.78,0,0,0,1097.23,132.28Z"/><path class="cls-9" d="M1118.1,142.19h3.51l2.18,3.47h-5.71v-3.48Zm-1.57,4.91-14.11.05,0,3.68.72,0c.38-.88.33-1.35.94-2a2.88,2.88,0,0,1,4,0c.87.92.5,1.23,1,2,.66-.27-.07-1.2,1.49-2.32a3,3,0,0,1,3-.15c1.39.74,1.26,1.75,1.52,2.32.18.41.55.24,1.67.25l2,0c.32-3.24,3.37-3.65,5-2,.74.75.59,1,.87,2.09h1.24a30.38,30.38,0,0,0,0-3.53c0-1.76.21-1.66-.63-2.93-1-1.48-1.88-3-2.83-4.45h-5.76Z"/><path class="cls-9" d="M1120.79,148.79c-3.07,1.19-1.09,5.55,1.7,4.35S1123.6,147.7,1120.79,148.79Z"/><path class="cls-9" d="M1111.71,148.7a2.34,2.34,0,1,0,1,4.56,2.4,2.4,0,0,0,1.71-2.9A2.3,2.3,0,0,0,1111.71,148.7Z"/><path class="cls-9" d="M1105.64,148.69a2.34,2.34,0,1,0,2.69,1.72A2.3,2.3,0,0,0,1105.64,148.69Z"/><path class="cls-9" d="M1116.65,139.23l5.34.06c-.47-.9-3.9-2.32-5.35-1.87Z"/><path class="cls-9" d="M1130,46.15l12,4.7,3.48-4.28-10.43-4.05c-.27-.15-.08,0-.21-.14,1.51-.42,10.42-3.69,11-3.62l5.5,1.85c1.85.6,3.67,1.23,5.36,1.79l-10.62,4.18c.17.36,3,3.74,3.48,4.23.6-.13,5.08-1.94,6-2.31,1.42-.57,4.86-1.79,6-2.33a35.57,35.57,0,0,0-2.81-3.17c-1-1.26-2-1.35-4-2l-9-3c-.36,0-7.85,2.61-9,3-.78.24-1.39.48-2.18.75a2.86,2.86,0,0,0-1.79,1.26c-.47.55-1,1-1.45,1.6S1130.44,45.58,1130,46.15Z"/><path class="cls-9" d="M1146.1,60.73c.35,0,10.74-4.69,11.87-5.26V48.29c-.48,0-5.26,2-6.37,2.39a19.22,19.22,0,0,1-2.17.8c-.45-.48-3.06-3.79-3.34-3.9Z"/><path class="cls-9" d="M1142.17,51.48c-1-.41-8-3.2-8.48-3.19v7.12c.23.21,11.24,5.17,11.87,5.32V52.49c-.38,0-.1.13,0-.32l0-4.57C1145,47.94,1142.83,51.06,1142.17,51.48Z"/><path class="cls-9" d="M1161.81,64.85a.79.79,0,1,1,.75,1.4c-1,.47-1.72-1-.75-1.4Zm-5-3.64a22.41,22.41,0,0,0,1.65,1.66c.44.45,1.23,1.17,1.65,1.68-.32,1.3-.12,2.26.76,2.84a2.28,2.28,0,0,0,3.17-3.17,2.33,2.33,0,0,0-2.85-.76c-.59-.55-1.07-1.09-1.67-1.66s-1.23-1.35-1.66-1.65A3.5,3.5,0,0,0,1156.79,61.21Z"/><path class="cls-9" d="M1145.42,25.46a.79.79,0,1,1,.81,1.35.79.79,0,0,1-.81-1.35Zm-.34,2.85,0,4.72h1.46V28.32c.85-.57,1.69-1,1.51-2.52a2.27,2.27,0,1,0-4.14,1.58C1144.34,28,1144.57,27.89,1145.08,28.32Z"/><path class="cls-9" d="M1145.57,71.6c1-.48,1.47,1,.63,1.41a.78.78,0,1,1-.63-1.41Zm-.47-1.49a2.38,2.38,0,0,0-1.5,2.52,2.27,2.27,0,0,0,4.47.1,2.44,2.44,0,0,0-.33-1.68c-.36-.57-.56-.53-1.14-.94l0-4.72-1.45,0Z"/><path class="cls-9" d="M1168.74,48.44a.79.79,0,0,1,.44,1.52.79.79,0,1,1-.44-1.52Zm-2,0-4.73,0v1.45h4.73c.42.58.86,1.77,2.62,1.49a2.27,2.27,0,1,0-1.69-4.12C1167,47.75,1167,48.11,1166.74,48.45Z"/><path class="cls-9" d="M1121.94,49.32a.81.81,0,1,1,1.6-.19.81.81,0,0,1-1.6.19Zm3,.64,4.71,0V48.48h-4.73c-.38-.58-.38-.75-.88-1.11a2.27,2.27,0,1,0-1.74,4.07C1123.85,51.67,1124.38,50.83,1124.95,50Z"/><path class="cls-9" d="M1129.18,64.86a.78.78,0,1,1,.71,1.38.82.82,0,0,1-1.1-.3,1,1,0,0,1,0-.72c.14-.41.17-.25.41-.37ZM1127.89,67a1.59,1.59,0,0,0,1,.75,2.16,2.16,0,0,0,1.16,0c.38-.13.18-.05.34-.2a1.75,1.75,0,0,0,1.21-1.08,2.41,2.41,0,0,0,0-1.92c.56-.7,2.78-2.63,3.29-3.36a3.57,3.57,0,0,0-1-1l-3.36,3.29c-1.29-.32-2.13-.21-2.8.7C1126.88,65.29,1127.3,66.78,1127.89,67Z"/><path class="cls-9" d="M1130,32.21c.71.84,0,1.85-1.08,1.28-.5-1-.09-1.62,1.08-1.28Zm-2.78.54a2.29,2.29,0,0,0,1,2,2.54,2.54,0,0,0,2.32.22c.59.52,1.1,1.11,1.67,1.67s1.11,1.19,1.67,1.65l1-1c-.44-.65-2.55-2.54-3.31-3.39.57-2-.6-3.11-1.45-3.14A2.19,2.19,0,0,0,1127.25,32.75Z"/><path class="cls-9" d="M1161.58,30.76a2.12,2.12,0,0,0-1.61,2.66c.13.56.13.47-.26.88l-2.9,2.94a4,4,0,0,0,1,1l2.91-3c.36-.2.16-.23.49-.3a2.31,2.31,0,0,0,2.65-.66l.21-.25a1.43,1.43,0,0,0,.18-.34,2.26,2.26,0,0,0,0-1.61,1.12,1.12,0,0,0-.44-.65c-.07-.13.06,0-.16-.22a1.5,1.5,0,0,0-.28-.24,1.14,1.14,0,0,0-.66-.26,1.49,1.49,0,0,0-1-.05l-.08,0-.08,0Zm-.07,2.6c0-.18,0-.18-.09-.08-.26-1.49,1.2-1.4,1.47-.79A.81.81,0,0,1,1161.51,33.36Z"/><path class="cls-9" d="M748,235.24c.16-.08,10.22-.1,10.46,0a.49.49,0,0,1,0,.87c-.13.06-10.24.13-10.52,0a.47.47,0,0,1,0-.87Zm5-6c1.57-.37,1.95,2,.55,2.33a1.2,1.2,0,1,1-.55-2.33Zm8.94,5.62c0-.49.2-.89-.13-1.31s-.63-.35-1.19-.35h-3c-1.59,0-1.21.35-1.38-1.64a5.15,5.15,0,0,0-.54-2.49,2.82,2.82,0,0,0-4.22-.71c-1.22.93-1.08,2.91-1.27,4.8a33.54,33.54,0,0,1-3.66,0c-2.3,0-1.92.28-1.93,1.65-1.27,0-4-.16-5,.17-3.21,1-2.42,4.71-2.42,7.84v25.57c0,2,.09,2.92,1.26,3.91s2.48.82,4.29.82h20.49c1.61,0,3.43.22,4.64-.55a3.63,3.63,0,0,0,1.62-3.43H768a2.37,2.37,0,0,1-.53,1.82,2.09,2.09,0,0,1-1.53.72c-1.49.06-3.12,0-4.63,0H742.79c-1.51,0-3,.26-3.82-.77s-.46-2.87-.46-4.21V239A2.56,2.56,0,0,1,739,237a2.06,2.06,0,0,1,1.47-.77c1.26-.09,3.26-.05,4.55,0,.22.2.33.45.57.7a5.07,5.07,0,0,0,.67.62c1.72,1.26,4.47.81,7,.81,3.78,0,6.24.71,8.15-2.12a42.89,42.89,0,0,1,5,0c1.88.38,1.65,2.27,1.65,3.42,0,2.17-.11,8.41,0,10.09l1.39,0c.1-1.79,0-3.84,0-5.66s0-3.75,0-5.62a3.51,3.51,0,0,0-2.17-3.42C766.13,234.65,763.26,234.85,761.87,234.83Z"/><path class="cls-9" d="M767.89,254.86a5,5,0,1,1-4.09,5.66,5,5,0,0,1,4.09-5.66Zm-4.3-1.09a2.69,2.69,0,0,0-1,1c-.89,0-1.93-.51-2.84-.6a29.09,29.09,0,0,0-1.36,3.42l2.39,1.47,0,1.53-2.4,1.5a34.84,34.84,0,0,0,1.43,3.39l2.79-.65c1.2,1.13,1.11,1,.94,1.62a18.27,18.27,0,0,0-.5,2.24c.87.24,2.69,1.18,3.47,1.33a14.24,14.24,0,0,1,1.48-2.42h1.54A22.67,22.67,0,0,0,771,270c.43,0,2.77-1.14,3.42-1.39l-.65-2.77a4.24,4.24,0,0,0,1-1.08,25.23,25.23,0,0,1,2.81.6l1.38-3.42-2.37-1.39v-1.68l2.37-1.47L777.55,254l-2.73.66a7.58,7.58,0,0,0-1.17-1l.63-2.8-3.43-1.33-1.4,2.38-1.66,0a17.34,17.34,0,0,0-1.47-2.39l-2.52,1.06-.84.4Z"/><path class="cls-9" d="M744.84,245.67c.52,0,1.05-.79,1.69-1.2l0,1.6h-4.05V242l4.08,0v1.41a5.7,5.7,0,0,0-.74.61,6,6,0,0,1-.79.63l-.74-1.15c-.13-.21-.25-.47-.45-.54a.38.38,0,0,0-.53.34,4.78,4.78,0,0,0,.7,1.25,3.54,3.54,0,0,0,.87,1.13Zm2.46-3.07c0-.72.11-1.38-.87-1.38h-3.95c-.66,0-.82.3-.82.94v3.79c0,.59.23.9.82.9h3.95c1.13,0,.89-.93.87-2.5,0-1,.37-.83,1.44-1.86.32-.3.59-.47.89-.78s0-.94-.49-.64A18.62,18.62,0,0,1,747.3,242.6Z"/><path class="cls-9" d="M742.45,260.82h4.07c.09,1.12.11,1.33-.41,1.72a9.44,9.44,0,0,1-1.12.93c-.24-.4-.5-.79-.77-1.2-.15-.23-.27-.45-.48-.5a.38.38,0,0,0-.47.4,9,9,0,0,0,1.56,2.32c.54,0,1.18-.92,1.69-1.19l0,1.6-4.07,0v-4.06Zm4.86,1.9c0-.31,2.25-2,2.42-2.26s0-.76-.45-.62c-.22.07-.44.35-.64.53l-.65.56a3,3,0,0,1-.67.51c0-.81.06-1.39-.88-1.39h-3.95c-.63,0-.82.32-.82.93v3.79c0,.61.21.91.84.91h3.93C747.6,265.68,747.31,264.53,747.31,262.72Z"/><path class="cls-9" d="M746.53,253.89v1.6h-4.06l0-4.05c1.21-.08,2.81,0,4.09,0,0,.85.18,1.27-.39,1.69a11.42,11.42,0,0,1-1.15,1,17.6,17.6,0,0,0-1.05-1.59.39.39,0,0,0-.66.31,3.27,3.27,0,0,0,.48.86c1.24,1.88.86,1.82,2.35.57l.41-.31Zm1.84-1.73a1.37,1.37,0,0,1,.06-.87l-.06,0c-.41.15-.64.61-1.05.8-.07-1.84-.15-1.39-4.53-1.41-1.39,0-1.13.58-1.13,1.85,0,4.17-.34,3.79,2,3.79s3.58.42,3.61-.91-.23-2,.34-2.51C747.88,252.64,748.22,252.46,748.37,252.16Z"/><path class="cls-9" d="M750.9,246c-.45.16-.5.86.39.86,2,0,12.44.06,12.72,0s.59-.87-.42-.87C761.6,245.94,751.15,245.9,750.9,246Z"/><path class="cls-9" d="M758,264.79c-1.5-.09-4.31,0-6,0-.55,0-1.52-.17-1.36.57.11.51,1.19.33,1.74.33h6Z"/><path class="cls-9" d="M757.29,256.26c.25-.13.38-.62.44-.89-1.27-.08-4,0-5.52,0-.48,0-1.4-.15-1.56.26-.3.75.67.64,1.18.64Z"/><path class="cls-9" d="M748.37,251.24l.06,0a1.37,1.37,0,0,0-.06.87l.84-.63c.22-.19.72-.54.6-.88C749.57,249.91,748.52,250.92,748.37,251.24Z"/><path class="cls-9" d="M813.22,73a11.52,11.52,0,1,1-10.31,12.62A11.49,11.49,0,0,1,813.22,73Zm-.64,18.22h3.86V86.08h-3.85v5.08Zm-5.37,0,3.86,0v-7h-3.85v7Zm10.76,0h3.78c.18-.55,0-7.64.05-8.86l-3.86,0,0,8.81Zm.65-11.37a1.91,1.91,0,1,0,1.76-3.3,2,2,0,0,0-1.44.18,2.09,2.09,0,0,0-.89,2.41c-.39.27-.74.49-1.14.77l-1.09.78c-.23-.08-.37-.25-.69-.36a1.8,1.8,0,0,0-2.18.78l-1.86-.63a2.63,2.63,0,0,0-.42-1.39,1.92,1.92,0,0,0-3.33.54c-.76,2.35,2.49,3.43,3.37,1.66l1.86.64c.12.85.06,1,.6,1.56a1.89,1.89,0,0,0,3-.34,2.12,2.12,0,0,0,.17-1.74c.57-.3,1.83-1.34,2.32-1.56Zm8.49,13.61c.14-.3.5-.77.7-1.11a15.12,15.12,0,0,0,1.62-3.87,15.5,15.5,0,0,0-4.05-15l-.91-.86a15.32,15.32,0,0,0-4.61-2.72,15.58,15.58,0,1,0,1,28.72,13.23,13.23,0,0,0,1.21-.62c.28-.16.86-.57,1.09-.65l5.2,6.25c1.26,1.6,3,3.51,4.18,5l1.88,2.27c.35.4.47.75,1.15,1s1-.14,1.37-.49l4.12-4.12c.37-.37.81-.65.47-1.49-.24-.59-1.5-1.52-2.12-2Z"/><path class="cls-9" d="M674.27,57.82a4.2,4.2,0,0,0-.55,2.94,5.3,5.3,0,0,0,1.22,2.34c.58.67.69.61.69,1.11s0,1.17,0,1.76c2.92,0,5.84,0,8.75,0,2,0,3.23.36,3.3-1.12l.61-12.45c.07-1.38.44-7.48.38-8.31H669.16l.45,9.18c1.12,0,2.25,0,3.37,0,3.1,0,2.64-.47,2.64,2.28,0,.85-.17.79-.58,1.23a5,5,0,0,0-.77,1ZM670.08,39c.23.35.32.14.26-.15-.42.05-.15,0-.26.15Zm.51,22.26c-.13.1-.24.21-.43.14A.33.33,0,0,1,670,61c.1-.33.68-.35.62.28Zm12.76-34.85v1l.71,0v-1.2l-.72.21Zm6.92,3.78,1.46.59.17-.52-1.43-.51a.69.69,0,0,0-.19.45Zm-12.92-3.85a1.75,1.75,0,0,0,.52-.42c.2-.21.35-.28.51-.49L678,24.21l-.68,2.16Zm-7.59,16.94h1.68a12.37,12.37,0,0,0-1-.92c-.18-.18-.3-.23-.49-.42a1.77,1.77,0,0,0-.54-.42l.33,1.76Zm20.85-5.26c.34-.45,1.7-3.37,2.19-4.3a1.3,1.3,0,0,0-.1-1.63,25.69,25.69,0,0,0-2.09,5.93Zm-5.31,5.24.27,0H687l.79-2a6.71,6.71,0,0,0-1.54-.62l-.95,2.64Zm-3.47-11.72h3.78a7.4,7.4,0,0,1-1-1.47,10.46,10.46,0,0,1-.54-1.89h-.74a6.2,6.2,0,0,1-1,2.61l-.4.51c-.14.16-.06,0-.17.24Zm-.76,2.06h5.34V32.33h-5.34v1.31ZM669,35.26l2.56,2.24-1.35-7.18L669.4,30c.49,2.34.8,3.37-.39,5.29Zm8.56,8.06h.89v-11h-.86l0,11Zm1.66,0,1.07,0v-11h-1.06v11Zm-3.51,0h1.08v-11h-1.06l0,11Zm-6.82-16.5a2.49,2.49,0,0,1,4.93-.63,2.49,2.49,0,0,1-4.93.63Zm1.86-3.45a3.21,3.21,0,1,1-2.54,3.74,3.19,3.19,0,0,1,2.54-3.74ZM658.4,31.16c3.24-.64,4.12,4.27.94,4.88a2.49,2.49,0,0,1-.94-4.88Zm.12-.75c-4.31.55-3.47,6.92.8,6.37A3.21,3.21,0,0,0,662,33.17a3.18,3.18,0,0,0-3.53-2.75Zm17.34,1.09c.2-1,.63-2.17.91-3.15.11-.38.08-.45.32-.66s1.29-1.23,1.56-1.38l1.5,5.19ZM670,60.06c1.45-.36,1.77,1.8.55,2.12a1.1,1.1,0,1,1-.55-2.12ZM669,63.54v-5c0-.81-.08-1.21.39-1.72.64-.69,2.21-.54,2.21,1.16v5.54ZM686.25,39.8l3.16-9,2.58.95-3.62,8.93-2.12-.83Zm-15.16-.48a.91.91,0,1,1-1.73-.59.91.91,0,0,1,1.73.59Zm-8.36-4.76.09-.87c.53.41.53.53,1.11,1,1.56,1.3,2.64,1.63,4.48,1.09l.44.36c.62.49,1.83,1.68,2.46,2.16a4,4,0,0,1,.36.34l.83.71c.38.29,2.11,1.95,2.44,2.12v1.84c-2.91,0-1.79.29-3.23-.8a2.06,2.06,0,0,1-.33-.3L665.49,37c-.25-.25-.4-.34-.7-.63l-.67-.59c-.46-.38-1-.8-1.38-1.23Zm18.49,8.74-.16-8.9h5.35c0,3,.15,2.27-.78,4.85-.58,1.62.23.23-.44,2.07-.88,2.44-.29,2-2.39,2l-.22-7.34c-.17-.23-.49-.34-.66,0a2.35,2.35,0,0,0,0,1l.16,6.4-.81,0Zm-9,20.93a20.33,20.33,0,0,1-3.11.08c-1.1,0-.91.09-.91-2.33V58.83c0-1.12,0-2,.63-2.59A2.07,2.07,0,0,1,672.33,58a53.63,53.63,0,0,1-.1,6.24ZM665.69,66c0-.48-.12-1.62.12-1.92s.58-.65.87-1.09c2.61-3.86-.62-6.55-.92-7.06a5.07,5.07,0,0,1,0-1.87h9.13a13.15,13.15,0,0,1,0,1.71A8.78,8.78,0,0,0,673,59.1,5.1,5.1,0,0,0,674,63.17c1,1.44.9.21.84,2.8Z"/><path class="cls-9" d="M711.58,147.92a4.47,4.47,0,0,1-2.46,4.43v3.11c1.76.1,3.81,0,5.6,0h16.84a10.8,10.8,0,0,0,2.64-.13c2.79-.81,2.2-4.11,2.2-6.28,0-1.5.1-10.63,0-11.28H719.78c-.62,2.94-2.52,2.57-4.88,2.57-1.84,0-3.34.31-4.4-1.2a4.13,4.13,0,0,1-.51-1.38h-6.28a10.22,10.22,0,0,0,.22,1.27,7.44,7.44,0,0,1,0,1.52,7,7,0,0,1-.68,2.45,53.56,53.56,0,0,1-3.28,4.62c-.38.5,0,.6-.09,1.32a3.56,3.56,0,0,1-1.15,2l-1.44,1.72c-.4.48-.47.32-.46,1.16,0,.53,0,1.07,0,1.6h8.32v-3.11a4.46,4.46,0,1,1,6.41-4.45Zm-13.11-15.4c-1.68.59-2.36,4.2-.68,3.64,1.46-.49,2.39-4.24.68-3.64Zm-10.71,0c-1.28.49.37,4.21,1.73,3.66s-.41-4.16-1.73-3.66ZM699.34,136l.54-.84a5.44,5.44,0,0,1,2.16,2.49,5.58,5.58,0,0,1,.21,4,9.84,9.84,0,0,1-1.77,2.9l-2,2.68a2.36,2.36,0,0,1-.82-.59,11.93,11.93,0,0,1,.85-1.19c1.66-2.21,3.51-4,2.53-7a4.76,4.76,0,0,0-.7-1.35,6.29,6.29,0,0,0-1-1Zm-11.08,11.23a4.47,4.47,0,0,1-.51-.66c-1-1.31-2.86-3.56-3.28-4.94a5.71,5.71,0,0,1,.21-4,5.55,5.55,0,0,1,2.16-2.49,4.7,4.7,0,0,1,.51.86,7.6,7.6,0,0,0-1,1.07,5.1,5.1,0,0,0-.58,4.76,4.75,4.75,0,0,0,.76,1.29c.33.41.51.72.84,1.14l1.71,2.33a3.8,3.8,0,0,1-.79.62Zm20.66,3.61a3.34,3.34,0,0,1-2,.54,3,3,0,1,1,2.2-5.27,2.91,2.91,0,0,1,.74,3.54,3.53,3.53,0,0,1-.94,1.2Zm3.58-15.45a38.49,38.49,0,0,1,5,0c1.21.46.84,2.61.62,2.94a1.32,1.32,0,0,1-.74.52,37.45,37.45,0,0,1-5,0c-.78-.27-.85-.86-.85-1.78s.2-1.44,1-1.66Zm-19.63,22.25,1,0c.2,2.32.11,2.14,3.39,2.14.86,0,7.83.06,8.36,0,.88-.16,1-.91,1-1.87,0-1.85,0-3.73,0-5.58h1v6.62c-.08,2.39-2.65,1.92-4.71,1.92h-6.64c-2.57,0-3.58,0-3.46-3.16Zm.49-9.82v-10l5.74,0a3.55,3.55,0,0,1,.58,3.37,4.88,4.88,0,0,1-.8,1.34c-.29.42-.6.8-.91,1.22-1.91,2.64-1.06,1.55-2.3,2-1,.38-1.81,1.75-2.3,2Zm12.16-22h1.8c0-.89-.25-3.26,2.05-3.41h10.92c2.54.09,2.1,2.73,2.21,3.34l1.78.08a8.08,8.08,0,0,0-.32-3.35,3.34,3.34,0,0,0-1.94-1.7c-.93-.33-5.75-.17-7.11-.17s-6.13-.16-7.11.17c-2.56.88-2.29,3.15-2.28,5.07Zm-12.83,30.89c-.9,0-1.31-.13-1.32-1.09,0-1.54.26-2.66-.39-3.36a21.74,21.74,0,0,1-2.65-3.37c-.07-.66.47-1,1-1.36,1.32-.94,1.29-.38,2.8,1.12.33.33.67,1.08,1.44.91.48-.1,1-.86,1.25-1.13l1.22-1.23c.85-.5,2.25,1.09,2.27,1.13a.92.92,0,0,1,0,.9,5.94,5.94,0,0,1-.54.65l-1.65,2c-.46.55-.74.64-.74,1.62,0,3.49.32,3.23-2.7,3.23Zm.66-20.51c0-1.27,0-2.56,0-3.83s-.15-2.5.41-3.42c1.24-2,3.27-1.57,6-1.57h30.28c2.66,0,4.85-.4,6,1.63.68,1.23.34,5.47.38,7.2H719.8l-.15-.36c-.77-2.31-2.77-2-4.75-2-1.69,0-3.3-.31-4.35,1.12a6.75,6.75,0,0,0-.56,1.23l-7,0a7.72,7.72,0,0,0-2.12-2.16c0-1.23-.08-2.09-.85-2.64a2.32,2.32,0,0,0-2.63,0,4.59,4.59,0,0,0-1.53,1.87,4.15,4.15,0,0,0-.34,2.91Zm31.81,4.19a7,7,0,0,1,2.66.17c.68.44.4,1.55.45,2.49.13,2.21,3.45.09,3.76,2a6,6,0,0,1-.19,2.69c-.47.63-1.47.39-2.4.43-2.32.09-.15,3.37-2,3.76a7.21,7.21,0,0,1-2.66-.14c-.72-.44-.44-1.58-.49-2.47-.05-1.07-.72-1.14-1.78-1.14s-1.81,0-2-.85a5.41,5.41,0,0,1,.2-2.72c.55-.65,1.44-.38,2.42-.43C725.41,144.06,723.22,140.79,725.16,140.4Z"/><path class="cls-10" d="M1010,54.16c.94,0,1.87,0,2.81,0s2,.19,2.07-.78-1-.91-1.91-.91h-2.86c-1.35,0-1.24.09-1.68,1.15s-2.29,5.75-2.55,6.05L1004,55.06c-1.67-4-.66-1.8-3.64-3a4.79,4.79,0,0,1-2.84-3.66c-.14-1-.06-11.81-.06-13.09,0-2.17-.29-4.15.78-5.83a4.89,4.89,0,0,1,4.48-2.13h19.71c1.85,0,4.52-.26,6.06.48a4.73,4.73,0,0,1,2.68,3.91c.15,1.89-.2,12.31.1,13,.22.51,1.61,1,1.6-.85V34c0-2.27.06-3.76-1.09-5.45a6.3,6.3,0,0,0-3.91-2.69,40.27,40.27,0,0,0-6.39-.16h-13.11c-2.82,0-7-.46-9.15.73a9.73,9.73,0,0,0-1,.66A6.57,6.57,0,0,0,996.1,30a7.89,7.89,0,0,0-.37,3V46.08c0,2.59,0,3.5,1.22,5.41a6.41,6.41,0,0,0,4,2.56c1,.18.61-.28,1.47,1.79l1.9,4.62c.25.59.69,2,1.11,2.23,1.06.57,1.39-.88,1.63-1.47l1.92-4.68A25.1,25.1,0,0,0,1010,54.16Z"/><path class="cls-10" d="M1025.25,58.86c.24-.42,1.05-.78,1-1.49-.1-.86-1.08-.82-1.53-.39s-2.36,2.16-2.38,2.7.72,1.17,1,1.48.82.84,1.27,1.27,1.44.57,1.59-.31-.74-1-1-1.58a8,8,0,0,0,6.84-4.55,8.2,8.2,0,0,0-1.21-8.69,5.68,5.68,0,0,0-.72-.63.85.85,0,0,0-1,.33.89.89,0,0,0,.1,1.08,3.86,3.86,0,0,1,.69.74A6.3,6.3,0,0,1,1025.25,58.86Z"/><path class="cls-10" d="M1024.44,44.62A8,8,0,0,0,1017,54a7.83,7.83,0,0,0,.72,2.15c.27.55,1.29,2.15,1.88,2.34a.84.84,0,0,0,1-.3c.43-.67-.16-1.09-.78-1.84a6.27,6.27,0,0,1,4.62-10c-.3.35-1.11.84-.95,1.58s1,.75,1.52.25,2.37-2.14,2.36-2.71-.83-1.16-1.1-1.43L1025,42.75c-.49-.5-1.33-.55-1.51.25S1024.2,44.16,1024.44,44.62Z"/><path class="cls-10" d="M1004.88,33.39a.86.86,0,0,0-.23,1.58c.46.21,12.2.09,13.61.09,1.1,0,4.65.15,5.47,0a.85.85,0,0,0,.15-1.58c-.38-.18-14.34-.08-16.27-.08C1007,33.38,1005.31,33.3,1004.88,33.39Z"/><path class="cls-10" d="M1004.87,37.89a.83.83,0,0,0-.18,1.57c.4.17,12.29.08,13.64.08.91,0,4.84.12,5.42,0a.85.85,0,0,0,.11-1.57c-.42-.17-12.27-.08-13.64-.08C1009.35,37.85,1005.38,37.74,1004.87,37.89Z"/><path class="cls-10" d="M1004.73,42.39a.84.84,0,0,0,.4,1.62l9.41,0c.76-.23.92-1.61-.42-1.65S1005,42.29,1004.73,42.39Z"/><path class="cls-7" d="M0,239.17H595.49a7.34,7.34,0,0,1,7.32,7.32V268.7a7.34,7.34,0,0,1-7.32,7.32H0Z"/><circle class="cls-11" cx="414.17" cy="257.82" r="11.8"/><path class="cls-7" d="M411.79,264.62a8.85,8.85,0,0,0,8.91-8.91c0-.14,0-.27,0-.41a6.37,6.37,0,0,0,1.56-1.62,6.2,6.2,0,0,1-1.8.49,3.14,3.14,0,0,0,1.38-1.73,6.32,6.32,0,0,1-2,.76,3.13,3.13,0,0,0-5.42,2.14,3.09,3.09,0,0,0,.08.71,8.9,8.9,0,0,1-6.46-3.27,3.14,3.14,0,0,0,1,4.18,3.12,3.12,0,0,1-1.42-.39s0,0,0,0a3.14,3.14,0,0,0,2.51,3.07,3.16,3.16,0,0,1-.83.11,3.11,3.11,0,0,1-.59-.06,3.13,3.13,0,0,0,2.93,2.18,6.33,6.33,0,0,1-4.64,1.3A8.88,8.88,0,0,0,411.79,264.62Z"/><path class="cls-11" d="M448.44,254.89a10,10,0,0,1-.07,1.19,7.64,7.64,0,0,1-.23,1.18,5.71,5.71,0,0,1-.43,1.08,3.64,3.64,0,0,1-.65.89,2.84,2.84,0,0,1-.89.6A3,3,0,0,1,445,260a2.49,2.49,0,0,1-.65-.08,1.81,1.81,0,0,1-.53-.24,1.35,1.35,0,0,1-.39-.4,1.53,1.53,0,0,1-.22-.56,6.61,6.61,0,0,1-.66.58,4,4,0,0,1-.63.4,2.75,2.75,0,0,1-.6.22,2.68,2.68,0,0,1-1.22,0,1.67,1.67,0,0,1-.5-.21,1.43,1.43,0,0,1-.37-.35A2,2,0,0,1,439,259a2.39,2.39,0,0,1-.15-.56,4.8,4.8,0,0,1,0-.67,6.77,6.77,0,0,1,.06-.84,7.1,7.1,0,0,1,.2-1,5.38,5.38,0,0,1,.38-1,3.57,3.57,0,0,1,.59-.86,2.81,2.81,0,0,1,.84-.62,2.59,2.59,0,0,1,1.14-.23,2.11,2.11,0,0,1,.52.06,1.81,1.81,0,0,1,.48.2,2.41,2.41,0,0,1,.44.34,4.7,4.7,0,0,1,.44.49l.15-.75a.28.28,0,0,1,.15-.18,1.11,1.11,0,0,1,.44-.06l.26,0,.17,0a.18.18,0,0,1,.08.07.14.14,0,0,1,0,.1l-.76,3.93a1.65,1.65,0,0,0,.07,1.1.82.82,0,0,0,.78.35,1.17,1.17,0,0,0,.63-.18,1.72,1.72,0,0,0,.5-.47,2.91,2.91,0,0,0,.36-.7,6.22,6.22,0,0,0,.24-.84,7.79,7.79,0,0,0,.14-.9q0-.46,0-.89a4.9,4.9,0,0,0-.2-1.41,2.88,2.88,0,0,0-.69-1.18,3.4,3.4,0,0,0-1.3-.81,5.92,5.92,0,0,0-2-.3,6.62,6.62,0,0,0-1.79.22,5.22,5.22,0,0,0-1.38.6,4.57,4.57,0,0,0-1,.88A5.64,5.64,0,0,0,438,254a6.61,6.61,0,0,0-.47,1.14,9.16,9.16,0,0,0-.27,1.13,9.43,9.43,0,0,0-.12,1q0,.48,0,.81a6.46,6.46,0,0,0,.22,1.73,3.2,3.2,0,0,0,.76,1.36,3.54,3.54,0,0,0,1.44.89,7,7,0,0,0,2.28.32,8,8,0,0,0,1.13-.07q.5-.07.88-.15l.6-.15a1.32,1.32,0,0,1,.32-.07.14.14,0,0,1,.09,0,.19.19,0,0,1,.06.09.7.7,0,0,1,0,.16q0,.1,0,.24c0,.08,0,.15,0,.2a.67.67,0,0,1,0,.14.45.45,0,0,1,0,.12.35.35,0,0,1-.08.09,1.29,1.29,0,0,1-.29.13,5.32,5.32,0,0,1-.66.17c-.28.06-.6.11-1,.15a11.41,11.41,0,0,1-1.22.06,8.48,8.48,0,0,1-2.7-.37,4.56,4.56,0,0,1-1.8-1.08,4.07,4.07,0,0,1-1-1.68,7.33,7.33,0,0,1-.31-2.19c0-.3,0-.64,0-1A10.48,10.48,0,0,1,436,256a9.92,9.92,0,0,1,.37-1.33,7.66,7.66,0,0,1,.62-1.33,6.83,6.83,0,0,1,.92-1.22,5.67,5.67,0,0,1,1.28-1,6.64,6.64,0,0,1,1.69-.68,8.58,8.58,0,0,1,2.16-.25,7.75,7.75,0,0,1,2.42.34,4.56,4.56,0,0,1,1.69,1,3.78,3.78,0,0,1,1,1.5A5.69,5.69,0,0,1,448.44,254.89Zm-5,.55a3.3,3.3,0,0,0-.67-.84,1.16,1.16,0,0,0-.78-.29,1.23,1.23,0,0,0-.65.18,1.8,1.8,0,0,0-.5.45,2.87,2.87,0,0,0-.36.63,4.93,4.93,0,0,0-.24.72,5.22,5.22,0,0,0-.13.71,5.66,5.66,0,0,0,0,.61,1.76,1.76,0,0,0,.23,1,.85.85,0,0,0,.76.34,1.28,1.28,0,0,0,.42-.07,2.19,2.19,0,0,0,.45-.22,3.68,3.68,0,0,0,.51-.39q.27-.24.59-.58Z"/><path class="cls-11" d="M458.19,253.65a3.9,3.9,0,0,1-.27,1.49,3.15,3.15,0,0,1-.78,1.14,3.49,3.49,0,0,1-1.25.73,5.39,5.39,0,0,1-1.76.26h-1.25v4a.19.19,0,0,1,0,.12.25.25,0,0,1-.12.08l-.22.05-.35,0-.35,0-.23-.05a.22.22,0,0,1-.12-.08.21.21,0,0,1,0-.12V251a.59.59,0,0,1,.18-.49.62.62,0,0,1,.4-.14h2.36q.36,0,.69,0a6.58,6.58,0,0,1,.78.13,3.21,3.21,0,0,1,.91.37,2.9,2.9,0,0,1,.79.66,2.84,2.84,0,0,1,.5.91A3.53,3.53,0,0,1,458.19,253.65Zm-1.55.12a2.3,2.3,0,0,0-.25-1.13,1.75,1.75,0,0,0-.62-.67,2.09,2.09,0,0,0-.77-.28,5.3,5.3,0,0,0-.77-.06h-1.36v4.43h1.32a3.07,3.07,0,0,0,1.11-.17,2.08,2.08,0,0,0,.74-.47,2,2,0,0,0,.45-.73A2.68,2.68,0,0,0,456.64,253.77Z"/><path class="cls-11" d="M461.9,261.24a.21.21,0,0,1,0,.12.23.23,0,0,1-.12.08l-.23.05-.35,0-.35,0-.23-.05a.22.22,0,0,1-.12-.08.21.21,0,0,1,0-.12v-10.6a.19.19,0,0,1,0-.12.25.25,0,0,1,.13-.08l.23-.05.34,0,.35,0,.23.05a.23.23,0,0,1,.12.08.21.21,0,0,1,0,.12Z"/><path class="cls-11" d="M472.21,259.9c0,.09,0,.17,0,.24a1,1,0,0,1,0,.18.62.62,0,0,1-.06.14.78.78,0,0,1-.12.14,2.56,2.56,0,0,1-.36.26,4.31,4.31,0,0,1-.68.34,5.65,5.65,0,0,1-.93.28,5.34,5.34,0,0,1-1.15.12,5.05,5.05,0,0,1-1.94-.36,3.92,3.92,0,0,1-1.48-1.06,4.83,4.83,0,0,1-.94-1.73,8.68,8.68,0,0,1,0-4.82,5.33,5.33,0,0,1,1-1.82,4.25,4.25,0,0,1,1.53-1.14,4.85,4.85,0,0,1,2-.39,4.79,4.79,0,0,1,.93.09,5.94,5.94,0,0,1,.84.23,3.8,3.8,0,0,1,.68.32,2.34,2.34,0,0,1,.41.29,1,1,0,0,1,.15.18.57.57,0,0,1,.06.14,1.36,1.36,0,0,1,0,.19,2.31,2.31,0,0,1,0,.26,2.05,2.05,0,0,1,0,.29.8.8,0,0,1-.05.2.3.3,0,0,1-.08.12.18.18,0,0,1-.12,0,.64.64,0,0,1-.33-.17,5.54,5.54,0,0,0-.55-.37,4.51,4.51,0,0,0-.82-.37,3.59,3.59,0,0,0-1.16-.17,3,3,0,0,0-1.34.29,2.84,2.84,0,0,0-1,.87,4.25,4.25,0,0,0-.67,1.4,7.67,7.67,0,0,0,0,3.74,3.86,3.86,0,0,0,.65,1.35,2.73,2.73,0,0,0,1,.82,3.37,3.37,0,0,0,1.4.28,3.7,3.7,0,0,0,1.15-.16,4.5,4.5,0,0,0,.84-.36,6.54,6.54,0,0,0,.57-.36.68.68,0,0,1,.35-.16l.1,0a.18.18,0,0,1,.07.1.87.87,0,0,1,0,.2C472.21,259.66,472.21,259.76,472.21,259.9Z"/><path class="cls-11" d="M486.17,261.24a.21.21,0,0,1,0,.12.23.23,0,0,1-.12.08l-.22.05-.36,0-.35,0-.23-.05a.23.23,0,0,1-.12-.08.21.21,0,0,1,0-.12v-9.62h0l-3.89,9.66a.29.29,0,0,1-.07.1.38.38,0,0,1-.14.07l-.21,0h-.29l-.31,0-.21,0a.38.38,0,0,1-.13-.07.23.23,0,0,1-.06-.09l-3.72-9.66h0v9.62a.21.21,0,0,1,0,.12.23.23,0,0,1-.12.08l-.23.05-.36,0-.35,0-.22-.05a.21.21,0,0,1-.11-.08.23.23,0,0,1,0-.12V251.08a.62.62,0,0,1,.19-.51.66.66,0,0,1,.42-.15h.9a2,2,0,0,1,.49.05,1.07,1.07,0,0,1,.36.16.94.94,0,0,1,.26.28,2,2,0,0,1,.18.4l3.16,8h0l3.29-8a2.36,2.36,0,0,1,.21-.44,1.13,1.13,0,0,1,.25-.29.85.85,0,0,1,.3-.15,1.4,1.4,0,0,1,.38,0h.95a.79.79,0,0,1,.25,0,.5.5,0,0,1,.2.12.61.61,0,0,1,.13.2.79.79,0,0,1,.05.3Z"/><path class="cls-11" d="M496,251a2,2,0,0,1,0,.28.6.6,0,0,1-.06.19.27.27,0,0,1-.09.11.23.23,0,0,1-.12,0h-3.11v9.58a.21.21,0,0,1,0,.12.22.22,0,0,1-.12.08l-.23.05-.35,0-.35,0-.23-.05a.23.23,0,0,1-.12-.08.21.21,0,0,1,0-.12v-9.58h-3.11a.23.23,0,0,1-.12,0,.24.24,0,0,1-.09-.11.78.78,0,0,1-.06-.19,1.62,1.62,0,0,1,0-.28,1.7,1.7,0,0,1,0-.29.86.86,0,0,1,.06-.2.22.22,0,0,1,.21-.14h7.68a.23.23,0,0,1,.12,0,.26.26,0,0,1,.09.11.66.66,0,0,1,.06.2A2.06,2.06,0,0,1,496,251Z"/><path class="cls-11" d="M499.09,261.24a.21.21,0,0,1,0,.12.23.23,0,0,1-.12.08l-.23.05-.35,0-.35,0-.23-.05a.22.22,0,0,1-.12-.08.21.21,0,0,1,0-.12v-10.6a.19.19,0,0,1,0-.12.25.25,0,0,1,.13-.08l.23-.05.34,0,.35,0,.23.05a.23.23,0,0,1,.12.08.21.21,0,0,1,0,.12Z"/><path class="cls-11" d="M509.3,264a1,1,0,0,1-.07.44.23.23,0,0,1-.21.14H500.8a.24.24,0,0,1-.22-.13.87.87,0,0,1-.08-.43,1,1,0,0,1,.08-.43.24.24,0,0,1,.22-.15H509a.23.23,0,0,1,.21.14A1,1,0,0,1,509.3,264Z"/><path class="cls-11" d="M520,255.81a8.57,8.57,0,0,1-.32,2.42,5.05,5.05,0,0,1-.94,1.83,4.11,4.11,0,0,1-1.57,1.16,5.58,5.58,0,0,1-2.21.41,5.69,5.69,0,0,1-2.16-.37,3.79,3.79,0,0,1-1.5-1.08,4.6,4.6,0,0,1-.88-1.76,9.09,9.09,0,0,1-.29-2.42,8.33,8.33,0,0,1,.32-2.37,4.94,4.94,0,0,1,.95-1.81,4.2,4.2,0,0,1,1.58-1.15,6.28,6.28,0,0,1,4.34,0,3.84,3.84,0,0,1,1.51,1.07,4.54,4.54,0,0,1,.9,1.74A8.72,8.72,0,0,1,520,255.81Zm-1.55.1a8.64,8.64,0,0,0-.17-1.75,4,4,0,0,0-.55-1.4,2.67,2.67,0,0,0-1-.93,3.47,3.47,0,0,0-1.6-.33,3.27,3.27,0,0,0-1.6.36,3,3,0,0,0-1.05,1,4,4,0,0,0-.58,1.4,7.85,7.85,0,0,0-.17,1.68,9.26,9.26,0,0,0,.16,1.79,4,4,0,0,0,.55,1.41,2.61,2.61,0,0,0,1,.92,3.53,3.53,0,0,0,1.62.33,3.35,3.35,0,0,0,1.62-.36,2.92,2.92,0,0,0,1.06-1,4.09,4.09,0,0,0,.57-1.41A8.16,8.16,0,0,0,518.44,255.91Z"/><path class="cls-11" d="M533.67,261.24a.19.19,0,0,1,0,.12.26.26,0,0,1-.12.08l-.22.05-.35,0-.34,0a.88.88,0,0,1-.22-.05.23.23,0,0,1-.11-.08.21.21,0,0,1,0-.12v-6.73H528.8v6.73a.19.19,0,0,1,0,.12.27.27,0,0,1-.12.08l-.22.05-.34,0-.34,0-.22-.05a.26.26,0,0,1-.12-.08.19.19,0,0,1,0-.12v-6.73h-3.45v6.73a.19.19,0,0,1,0,.12.27.27,0,0,1-.12.08l-.22.05-.34,0-.34,0-.22-.05a.27.27,0,0,1-.12-.08.19.19,0,0,1,0-.12v-6.73h-1.08a.22.22,0,0,1-.2-.14,1.05,1.05,0,0,1-.07-.44,1.81,1.81,0,0,1,0-.27.66.66,0,0,1,.05-.18.22.22,0,0,1,.09-.1.23.23,0,0,1,.12,0h1.08v-.73a5.26,5.26,0,0,1,.15-1.36,2.42,2.42,0,0,1,.46-.93,1.83,1.83,0,0,1,.76-.54,3.33,3.33,0,0,1,1.72-.11,2.89,2.89,0,0,1,.41.12.59.59,0,0,1,.18.11.41.41,0,0,1,.09.13.7.7,0,0,1,0,.2,2.5,2.5,0,0,1,0,.28,1.33,1.33,0,0,1,0,.4.16.16,0,0,1-.15.12.41.41,0,0,1-.16,0l-.23-.08-.31-.09a1.83,1.83,0,0,0-.39,0,1,1,0,0,0-.89.44,2.86,2.86,0,0,0-.26,1.39v.74h3.45v-.83a5.12,5.12,0,0,1,.16-1.36,2.53,2.53,0,0,1,.46-.93,1.77,1.77,0,0,1,.75-.54,2.8,2.8,0,0,1,1-.17l.38,0,.34.05.26.07a.42.42,0,0,1,.16.08l.07.09a.62.62,0,0,1,0,.12.8.8,0,0,1,0,.17c0,.07,0,.15,0,.25a1.29,1.29,0,0,1,0,.39.16.16,0,0,1-.15.12l-.14,0-.18-.06-.27-.06a2.15,2.15,0,0,0-.39,0,.89.89,0,0,0-.84.44,2.91,2.91,0,0,0-.25,1.39v.84h4.43a.4.4,0,0,1,.44.44Zm.15-10.27a1.76,1.76,0,0,1,0,.4.53.53,0,0,1-.14.26.56.56,0,0,1-.26.14,1.7,1.7,0,0,1-.42,0,1.66,1.66,0,0,1-.41,0,.51.51,0,0,1-.41-.4,1.59,1.59,0,0,1,0-.4,1.54,1.54,0,0,1,0-.4.63.63,0,0,1,.14-.26.51.51,0,0,1,.26-.14,1.83,1.83,0,0,1,.41,0,1.88,1.88,0,0,1,.42,0,.5.5,0,0,1,.26.14.59.59,0,0,1,.14.26A1.71,1.71,0,0,1,533.83,251Z"/><path class="cls-11" d="M541.79,260.08c0,.1,0,.18,0,.25a.9.9,0,0,1,0,.18.62.62,0,0,1-.05.13.85.85,0,0,1-.14.16,2.18,2.18,0,0,1-.36.26,3.53,3.53,0,0,1-.58.28,4.24,4.24,0,0,1-.7.2,3.83,3.83,0,0,1-.78.08,3.7,3.7,0,0,1-1.47-.27,2.77,2.77,0,0,1-1.07-.8,3.61,3.61,0,0,1-.66-1.29,6.22,6.22,0,0,1-.23-1.76,6.07,6.07,0,0,1,.28-2,3.66,3.66,0,0,1,.76-1.34,3,3,0,0,1,1.14-.77,3.89,3.89,0,0,1,1.41-.25,3.64,3.64,0,0,1,.71.07,3.9,3.9,0,0,1,.64.18,2.85,2.85,0,0,1,.52.26,2.1,2.1,0,0,1,.33.25,1.11,1.11,0,0,1,.14.16.6.6,0,0,1,.06.14.86.86,0,0,1,0,.18c0,.07,0,.15,0,.26a1,1,0,0,1-.08.47.22.22,0,0,1-.19.13.49.49,0,0,1-.29-.14,4.84,4.84,0,0,0-.42-.31,3.25,3.25,0,0,0-.62-.31,2.37,2.37,0,0,0-.86-.14,1.78,1.78,0,0,0-1.56.78,4,4,0,0,0-.54,2.27,5.37,5.37,0,0,0,.14,1.3,2.7,2.7,0,0,0,.41.94,1.71,1.71,0,0,0,.67.56,2.13,2.13,0,0,0,.91.18,2.2,2.2,0,0,0,.85-.15,3.55,3.55,0,0,0,.64-.34l.45-.33a.54.54,0,0,1,.29-.15.16.16,0,0,1,.1,0,.26.26,0,0,1,.07.12.86.86,0,0,1,0,.2C541.79,259.86,541.79,260,541.79,260.08Z"/><path class="cls-11" d="M545.23,251a.93.93,0,0,1-.19.67,1,1,0,0,1-.69.18,1,1,0,0,1-.68-.17.91.91,0,0,1-.18-.66.93.93,0,0,1,.19-.67,1,1,0,0,1,.69-.18,1,1,0,0,1,.68.18A.91.91,0,0,1,545.23,251Zm-.16,10.28a.19.19,0,0,1,0,.12.27.27,0,0,1-.11.08.81.81,0,0,1-.21.05l-.35,0-.34,0-.22-.05a.23.23,0,0,1-.11-.08.21.21,0,0,1,0-.12v-7.68a.22.22,0,0,1,0-.11.23.23,0,0,1,.11-.09l.22-.05.34,0,.35,0a.81.81,0,0,1,.21.05.26.26,0,0,1,.11.09.2.2,0,0,1,0,.11Z"/><path class="cls-11" d="M553.46,261.25a.18.18,0,0,1-.07.15.47.47,0,0,1-.19.08,1.75,1.75,0,0,1-.35,0,1.9,1.9,0,0,1-.35,0,.41.41,0,0,1-.19-.08.19.19,0,0,1-.06-.15v-.77a3.78,3.78,0,0,1-1.12.84,3,3,0,0,1-1.31.3,3.57,3.57,0,0,1-1.1-.16,2.36,2.36,0,0,1-.84-.46,2,2,0,0,1-.54-.73,2.43,2.43,0,0,1-.19-1,2.29,2.29,0,0,1,.26-1.13,2.21,2.21,0,0,1,.76-.79,3.75,3.75,0,0,1,1.21-.47,7.51,7.51,0,0,1,1.61-.16h1.06v-.6a3,3,0,0,0-.09-.79,1.35,1.35,0,0,0-.3-.57,1.31,1.31,0,0,0-.54-.34,2.55,2.55,0,0,0-.82-.12,3.28,3.28,0,0,0-.93.12,5,5,0,0,0-.73.27l-.52.27a.72.72,0,0,1-.31.12.21.21,0,0,1-.12,0,.29.29,0,0,1-.09-.1.52.52,0,0,1-.06-.17,1.45,1.45,0,0,1,0-.23,1.49,1.49,0,0,1,0-.34.49.49,0,0,1,.15-.24,1.84,1.84,0,0,1,.4-.26,4.3,4.3,0,0,1,.65-.27,5.77,5.77,0,0,1,.8-.21,4.82,4.82,0,0,1,.88-.08,4.62,4.62,0,0,1,1.41.19,2.28,2.28,0,0,1,.94.55,2.13,2.13,0,0,1,.52.9,4.37,4.37,0,0,1,.16,1.25Zm-1.4-3.51h-1.2a4.54,4.54,0,0,0-1,.1,2.07,2.07,0,0,0-.71.29,1.2,1.2,0,0,0-.41.46,1.38,1.38,0,0,0-.13.62,1.24,1.24,0,0,0,.38,1,1.5,1.5,0,0,0,1.06.35,2,2,0,0,0,1-.28,4.43,4.43,0,0,0,1-.86Z"/><path class="cls-11" d="M557.46,261.24a.19.19,0,0,1,0,.12.27.27,0,0,1-.11.08.81.81,0,0,1-.21.05l-.35,0-.34,0-.22-.05a.23.23,0,0,1-.11-.08.21.21,0,0,1,0-.12v-11.4a.23.23,0,0,1,0-.12.23.23,0,0,1,.11-.09l.22-.05.34,0,.35,0a.81.81,0,0,1,.21.05.26.26,0,0,1,.11.09.21.21,0,0,1,0,.12Z"/><circle class="cls-11" cx="50.33" cy="257.6" r="11.8"/><path class="cls-7" d="M42,257.6A8.37,8.37,0,1,1,50.33,266,8.36,8.36,0,0,1,42,257.6ZM57.59,257h0a7.24,7.24,0,0,0-1.5-3.87.18.18,0,0,0-.17,0l-.61.25-1,.36a15.71,15.71,0,0,1,.5,3.28Zm-14.49,1.13h0a.19.19,0,0,0,0,0A7.18,7.18,0,0,0,44.58,262a.19.19,0,0,0,.17,0l1-.39.64-.23a15.59,15.59,0,0,1-.5-3.28Zm11.71,0h0a15.73,15.73,0,0,1-.5,3.27l1.75.65a7.27,7.27,0,0,0,1.54-3.92Zm-8.53-4.46h0l-1.55-.59a.19.19,0,0,0-.16.08c-.28.47-.59.93-.83,1.42a7.45,7.45,0,0,0-.65,2.42h2.74l.45-3.32Zm7,7.48h0a16.17,16.17,0,0,0,.44-3H50.9v2.76l2.34.27ZM47.42,254h0a16.13,16.13,0,0,0-.44,3h2.78v-2.76L47.42,254Zm6.26,3h0a15.34,15.34,0,0,0-.44-3l-2.34.29V257ZM47,258.16h0a15.8,15.8,0,0,0,.44,3l2.33-.28v-2.74Zm.84-5.26h0a7.05,7.05,0,0,0,1.94.21v-2.66a4.44,4.44,0,0,0-1.94,2.45Zm3.08,11.85h0a4.49,4.49,0,0,0,2-2.49l-2-.23v2.72Zm-1.14,0h0V262l-2,.22a4.49,4.49,0,0,0,2,2.48Zm1.14-14.3h0v2.7l2-.22a4.49,4.49,0,0,0-2-2.48Zm4.3,1.8h0a6.42,6.42,0,0,0-2.14-1.32L54,252.7l1.21-.45Zm-7.6,12h0l-.93-1.77-1.2.45a6.38,6.38,0,0,0,2.14,1.32Zm5.47,0h0A6.8,6.8,0,0,0,55.21,263l-1.14-.39a.17.17,0,0,0-.15.08,9.4,9.4,0,0,1-.85,1.63ZM47.6,250.89h0a6,6,0,0,0-2.14,1.37l1.13.35c.1,0,.13,0,.17-.1A8.4,8.4,0,0,1,47.6,250.89Z"/><path class="cls-11" d="M82.51,253.48a.72.72,0,0,1,0,.14,1.78,1.78,0,0,1-.06.21l-2.26,7.3a.36.36,0,0,1-.08.15.37.37,0,0,1-.15.09,1.08,1.08,0,0,1-.27,0h-.43l-.44,0-.29-.05a.34.34,0,0,1-.16-.09.39.39,0,0,1-.08-.14l-1.61-5.57,0-.08,0,.08-1.49,5.57a.36.36,0,0,1-.08.15.37.37,0,0,1-.17.09,1.3,1.3,0,0,1-.29,0h-.43l-.43,0-.27-.05a.34.34,0,0,1-.16-.09.39.39,0,0,1-.08-.14L71,253.84a1.69,1.69,0,0,1-.06-.21.72.72,0,0,1,0-.14.2.2,0,0,1,0-.12.24.24,0,0,1,.12-.08.81.81,0,0,1,.22,0H72l.22,0a.22.22,0,0,1,.11.09.66.66,0,0,1,.06.13l1.85,6.33,0,.08,0-.08L76,253.5a.37.37,0,0,1,.06-.13.25.25,0,0,1,.12-.09l.21,0H77l.21,0a.23.23,0,0,1,.11.08.39.39,0,0,1,.05.12l1.83,6.35,0,.08v-.08l1.83-6.33a.37.37,0,0,1,.06-.13.24.24,0,0,1,.12-.09l.22,0h.69a.57.57,0,0,1,.2,0,.25.25,0,0,1,.1.08A.21.21,0,0,1,82.51,253.48Z"/><path class="cls-11" d="M95.07,253.48a.72.72,0,0,1,0,.14,1.78,1.78,0,0,1-.06.21l-2.26,7.3a.36.36,0,0,1-.08.15.37.37,0,0,1-.15.09,1.08,1.08,0,0,1-.27,0H91.8l-.44,0-.29-.05a.34.34,0,0,1-.16-.09.39.39,0,0,1-.08-.14l-1.61-5.57,0-.08,0,.08-1.49,5.57a.36.36,0,0,1-.08.15.37.37,0,0,1-.17.09,1.3,1.3,0,0,1-.29,0h-.43l-.43,0-.27-.05a.34.34,0,0,1-.16-.09.39.39,0,0,1-.08-.14l-2.25-7.3a1.69,1.69,0,0,1-.06-.21.72.72,0,0,1,0-.14.2.2,0,0,1,0-.12.24.24,0,0,1,.12-.08.81.81,0,0,1,.22,0h.72l.22,0a.22.22,0,0,1,.11.09.66.66,0,0,1,.06.13l1.85,6.33,0,.08,0-.08,1.7-6.33a.37.37,0,0,1,.06-.13.25.25,0,0,1,.12-.09l.21,0h.68l.21,0a.23.23,0,0,1,.11.08.39.39,0,0,1,.05.12l1.83,6.35,0,.08v-.08l1.83-6.33a.37.37,0,0,1,.06-.13.24.24,0,0,1,.12-.09l.22,0h.69a.57.57,0,0,1,.2,0,.25.25,0,0,1,.1.08A.21.21,0,0,1,95.07,253.48Z"/><path class="cls-11" d="M107.64,253.48a.72.72,0,0,1,0,.14,1.78,1.78,0,0,1-.06.21l-2.26,7.3a.36.36,0,0,1-.08.15.37.37,0,0,1-.15.09,1.08,1.08,0,0,1-.27,0h-.43l-.44,0-.29-.05a.34.34,0,0,1-.16-.09.39.39,0,0,1-.08-.14l-1.61-5.57,0-.08,0,.08-1.49,5.57a.36.36,0,0,1-.08.15.37.37,0,0,1-.17.09,1.3,1.3,0,0,1-.29,0H99.3l-.43,0-.27-.05a.34.34,0,0,1-.16-.09.39.39,0,0,1-.08-.14l-2.25-7.3a1.69,1.69,0,0,1-.06-.21.72.72,0,0,1,0-.14.2.2,0,0,1,0-.12.24.24,0,0,1,.12-.08.81.81,0,0,1,.22,0h.72l.22,0a.22.22,0,0,1,.11.09.66.66,0,0,1,.06.13l1.85,6.33,0,.08,0-.08,1.7-6.33a.37.37,0,0,1,.06-.13.25.25,0,0,1,.12-.09l.21,0h.68l.21,0a.23.23,0,0,1,.11.08.39.39,0,0,1,.05.12l1.83,6.35,0,.08v-.08l1.83-6.33a.37.37,0,0,1,.06-.13.24.24,0,0,1,.12-.09l.22,0h.69a.57.57,0,0,1,.2,0,.25.25,0,0,1,.1.08A.21.21,0,0,1,107.64,253.48Z"/><path class="cls-11" d="M110.09,260.46a1.17,1.17,0,0,1-.2.81,1,1,0,0,1-.73.2,1,1,0,0,1-.71-.2,1.14,1.14,0,0,1-.2-.79,1.17,1.17,0,0,1,.2-.81,1,1,0,0,1,.73-.2,1,1,0,0,1,.71.2A1.14,1.14,0,0,1,110.09,260.46Z"/><path class="cls-11" d="M119.75,257.22a6.93,6.93,0,0,1-.22,1.81,4,4,0,0,1-.64,1.36,2.87,2.87,0,0,1-1,.86,3.22,3.22,0,0,1-1.43.3,2.74,2.74,0,0,1-.63-.07,2.43,2.43,0,0,1-.57-.21,3.33,3.33,0,0,1-.55-.37c-.18-.15-.38-.32-.58-.52v3.84a.21.21,0,0,1,0,.12.25.25,0,0,1-.11.09.77.77,0,0,1-.21.05l-.35,0-.34,0a.84.84,0,0,1-.22-.05.22.22,0,0,1-.11-.09.23.23,0,0,1,0-.12V253.5a.26.26,0,0,1,0-.12.21.21,0,0,1,.1-.08.65.65,0,0,1,.2,0h.58a.64.64,0,0,1,.19,0,.23.23,0,0,1,.11.08.23.23,0,0,1,0,.12v1a8.18,8.18,0,0,1,.67-.62,4,4,0,0,1,.65-.44,3,3,0,0,1,.67-.26,3.2,3.2,0,0,1,2.16.23,2.7,2.7,0,0,1,1,.89,4,4,0,0,1,.54,1.31A7.09,7.09,0,0,1,119.75,257.22Zm-1.46.16a7.05,7.05,0,0,0-.09-1.14,3.29,3.29,0,0,0-.31-1,1.83,1.83,0,0,0-.59-.68,1.58,1.58,0,0,0-.92-.26,1.86,1.86,0,0,0-.54.08,2.23,2.23,0,0,0-.54.26,3.77,3.77,0,0,0-.58.46,7,7,0,0,0-.64.7v3.06A6.08,6.08,0,0,0,115.2,260a1.85,1.85,0,0,0,1.1.38,1.61,1.61,0,0,0,.91-.26,1.93,1.93,0,0,0,.62-.68,3.41,3.41,0,0,0,.35-1A5.13,5.13,0,0,0,118.29,257.38Z"/><path class="cls-11" d="M123.44,250.9a.93.93,0,0,1-.19.67,1,1,0,0,1-.69.18,1,1,0,0,1-.68-.17.91.91,0,0,1-.18-.66.93.93,0,0,1,.19-.67,1,1,0,0,1,.69-.18,1,1,0,0,1,.68.18A.91.91,0,0,1,123.44,250.9Zm-.16,10.28a.19.19,0,0,1,0,.12.27.27,0,0,1-.11.08.81.81,0,0,1-.21.05l-.35,0-.34,0-.22-.05a.23.23,0,0,1-.11-.08.21.21,0,0,1,0-.12V253.5a.22.22,0,0,1,0-.11.23.23,0,0,1,.11-.09l.22-.05.34,0,.35,0a.81.81,0,0,1,.21.05.26.26,0,0,1,.11.09.2.2,0,0,1,0,.11Z"/><path class="cls-11" d="M131.41,260c0,.1,0,.18,0,.25a.9.9,0,0,1,0,.18.62.62,0,0,1-.05.13.85.85,0,0,1-.14.16,2.18,2.18,0,0,1-.36.26,3.53,3.53,0,0,1-.58.28,4.24,4.24,0,0,1-.7.2,3.83,3.83,0,0,1-.78.08,3.7,3.7,0,0,1-1.47-.27,2.77,2.77,0,0,1-1.07-.8,3.61,3.61,0,0,1-.66-1.29,6.22,6.22,0,0,1-.23-1.76,6.07,6.07,0,0,1,.28-2,3.66,3.66,0,0,1,.76-1.34,3,3,0,0,1,1.14-.77,3.89,3.89,0,0,1,1.41-.25,3.64,3.64,0,0,1,.71.07,3.9,3.9,0,0,1,.64.18,2.85,2.85,0,0,1,.52.26,2.1,2.1,0,0,1,.33.25,1.11,1.11,0,0,1,.14.16.6.6,0,0,1,.06.14.86.86,0,0,1,0,.18c0,.07,0,.15,0,.26a1,1,0,0,1-.08.47.22.22,0,0,1-.19.13.49.49,0,0,1-.29-.14,4.84,4.84,0,0,0-.42-.31,3.25,3.25,0,0,0-.62-.31,2.37,2.37,0,0,0-.86-.14,1.78,1.78,0,0,0-1.56.78,4,4,0,0,0-.54,2.27,5.37,5.37,0,0,0,.14,1.3,2.7,2.7,0,0,0,.41.94,1.71,1.71,0,0,0,.67.56,2.13,2.13,0,0,0,.91.18,2.2,2.2,0,0,0,.85-.15,3.55,3.55,0,0,0,.64-.34l.45-.33a.54.54,0,0,1,.29-.15.16.16,0,0,1,.1,0,.26.26,0,0,1,.07.12.86.86,0,0,1,0,.2C131.4,259.8,131.41,259.89,131.41,260Z"/><path class="cls-11" d="M135.09,260.46a1.17,1.17,0,0,1-.2.81,1,1,0,0,1-.73.2,1,1,0,0,1-.71-.2,1.14,1.14,0,0,1-.2-.79,1.17,1.17,0,0,1,.2-.81,1,1,0,0,1,.73-.2,1,1,0,0,1,.71.2A1.14,1.14,0,0,1,135.09,260.46Z"/><path class="cls-11" d="M144.24,257a.59.59,0,0,1-.17.47.58.58,0,0,1-.38.14h-5.06a4.73,4.73,0,0,0,.13,1.15,2.22,2.22,0,0,0,.43.88,1.94,1.94,0,0,0,.78.56,3.11,3.11,0,0,0,1.18.2,4.82,4.82,0,0,0,1-.09,5.89,5.89,0,0,0,.74-.2l.51-.2a.85.85,0,0,1,.3-.09.2.2,0,0,1,.11,0,.19.19,0,0,1,.07.09.63.63,0,0,1,0,.17,2.3,2.3,0,0,1,0,.26c0,.07,0,.14,0,.19s0,.1,0,.15a.37.37,0,0,1,0,.12l-.08.1a1.26,1.26,0,0,1-.28.15,4,4,0,0,1-.6.21,8.22,8.22,0,0,1-.85.18,6.25,6.25,0,0,1-1,.08,4.75,4.75,0,0,1-1.66-.26,3.08,3.08,0,0,1-1.2-.79,3.35,3.35,0,0,1-.73-1.31,6.08,6.08,0,0,1-.25-1.83,5.77,5.77,0,0,1,.26-1.78,3.77,3.77,0,0,1,.74-1.34,3.22,3.22,0,0,1,1.17-.84,3.82,3.82,0,0,1,1.53-.29,3.7,3.7,0,0,1,1.54.29,2.92,2.92,0,0,1,1,.78,3.15,3.15,0,0,1,.6,1.15,5.05,5.05,0,0,1,.19,1.41Zm-1.42-.42a2.57,2.57,0,0,0-.49-1.74,1.88,1.88,0,0,0-1.54-.63,2,2,0,0,0-.92.2,2,2,0,0,0-.66.52,2.38,2.38,0,0,0-.41.75,3.17,3.17,0,0,0-.16.9Z"/><path class="cls-11" d="M153,261.18a.24.24,0,0,1,0,.12.2.2,0,0,1-.1.08l-.19,0-.29,0-.3,0-.2,0a.22.22,0,0,1-.11-.08.21.21,0,0,1,0-.12v-1a5.17,5.17,0,0,1-1.26,1,2.86,2.86,0,0,1-1.43.37,3,3,0,0,1-1.44-.33,2.72,2.72,0,0,1-1-.89,3.9,3.9,0,0,1-.54-1.31,7.2,7.2,0,0,1-.17-1.59,6.93,6.93,0,0,1,.21-1.79,4,4,0,0,1,.63-1.36,2.82,2.82,0,0,1,1-.87,3.22,3.22,0,0,1,1.43-.3,2.61,2.61,0,0,1,1.23.29,4.36,4.36,0,0,1,1.11.87v-4.46a.24.24,0,0,1,0-.12.19.19,0,0,1,.12-.08l.22-.05.34,0,.35,0,.21.05a.24.24,0,0,1,.12.08.2.2,0,0,1,0,.12Zm-1.42-5.4a5.6,5.6,0,0,0-1.11-1.08,1.93,1.93,0,0,0-1.11-.37,1.59,1.59,0,0,0-.91.26,2,2,0,0,0-.61.67,3.23,3.23,0,0,0-.34.95,5.43,5.43,0,0,0-.11,1.08,7.12,7.12,0,0,0,.09,1.13,3.28,3.28,0,0,0,.31,1,1.89,1.89,0,0,0,.59.69,1.55,1.55,0,0,0,.92.26,1.92,1.92,0,0,0,.54-.08,2.06,2.06,0,0,0,.53-.26,4.07,4.07,0,0,0,.57-.47,7,7,0,0,0,.63-.7Z"/><path class="cls-11" d="M162.15,261.18a.21.21,0,0,1,0,.12.24.24,0,0,1-.11.08l-.2.05-.3,0-.32,0-.2-.05a.21.21,0,0,1-.1-.08.23.23,0,0,1,0-.12v-1a4.77,4.77,0,0,1-1.3,1.06,2.79,2.79,0,0,1-1.3.33,2.93,2.93,0,0,1-1.29-.26,2.26,2.26,0,0,1-.85-.7,2.8,2.8,0,0,1-.47-1,6.16,6.16,0,0,1-.14-1.42V253.5a.21.21,0,0,1,0-.12.25.25,0,0,1,.12-.08.72.72,0,0,1,.22-.05h.68a.68.68,0,0,1,.22.05.3.3,0,0,1,.12.08.19.19,0,0,1,0,.12V258A4.74,4.74,0,0,0,157,259a2,2,0,0,0,.3.69,1.39,1.39,0,0,0,.51.44,1.54,1.54,0,0,0,.72.16,1.8,1.8,0,0,0,1.05-.38,6,6,0,0,0,1.11-1.1V253.5a.21.21,0,0,1,0-.12.26.26,0,0,1,.12-.08.71.71,0,0,1,.22-.05h.69a.63.63,0,0,1,.21.05.34.34,0,0,1,.12.08.18.18,0,0,1,0,.12Z"/><path class="cls-11" d="M166.58,260.46a1.17,1.17,0,0,1-.2.81,1,1,0,0,1-.73.2,1,1,0,0,1-.71-.2,1.14,1.14,0,0,1-.2-.79,1.17,1.17,0,0,1,.2-.81,1,1,0,0,1,.73-.2,1,1,0,0,1,.71.2A1.14,1.14,0,0,1,166.58,260.46Z"/><path class="cls-11" d="M176.24,257.22A6.93,6.93,0,0,1,176,259a4,4,0,0,1-.64,1.36,2.87,2.87,0,0,1-1,.86,3.22,3.22,0,0,1-1.43.3,2.74,2.74,0,0,1-.63-.07,2.43,2.43,0,0,1-.57-.21,3.33,3.33,0,0,1-.55-.37c-.18-.15-.38-.32-.58-.52v3.84a.21.21,0,0,1,0,.12.25.25,0,0,1-.11.09.77.77,0,0,1-.21.05l-.35,0-.34,0a.84.84,0,0,1-.22-.05.22.22,0,0,1-.11-.09.23.23,0,0,1,0-.12V253.5a.26.26,0,0,1,0-.12.21.21,0,0,1,.1-.08.65.65,0,0,1,.2,0h.58a.64.64,0,0,1,.19,0,.23.23,0,0,1,.11.08.23.23,0,0,1,0,.12v1a8.18,8.18,0,0,1,.67-.62,4,4,0,0,1,.65-.44,3,3,0,0,1,.67-.26,3.2,3.2,0,0,1,2.16.23,2.7,2.7,0,0,1,1,.89,4,4,0,0,1,.54,1.31A7.09,7.09,0,0,1,176.24,257.22Zm-1.46.16a7.05,7.05,0,0,0-.09-1.14,3.29,3.29,0,0,0-.31-1,1.83,1.83,0,0,0-.59-.68,1.58,1.58,0,0,0-.92-.26,1.86,1.86,0,0,0-.54.08,2.23,2.23,0,0,0-.54.26,3.77,3.77,0,0,0-.58.46,7,7,0,0,0-.64.7v3.06a6.08,6.08,0,0,0,1.11,1.08,1.85,1.85,0,0,0,1.1.38,1.61,1.61,0,0,0,.91-.26,1.93,1.93,0,0,0,.62-.68,3.41,3.41,0,0,0,.35-1A5.13,5.13,0,0,0,174.78,257.38Z"/><path class="cls-11" d="M184.66,261.17a.21.21,0,0,1,0,.12.25.25,0,0,1-.12.09.89.89,0,0,1-.23.05l-.37,0h-.38l-.25,0a.44.44,0,0,1-.17-.09.66.66,0,0,1-.12-.13l-3.24-4.25v4.26a.19.19,0,0,1,0,.12.27.27,0,0,1-.11.08.81.81,0,0,1-.21.05l-.35,0-.34,0-.22-.05a.23.23,0,0,1-.11-.08.21.21,0,0,1,0-.12v-11.4a.23.23,0,0,1,0-.12.23.23,0,0,1,.11-.09l.22-.05.34,0,.35,0a.81.81,0,0,1,.21.05.26.26,0,0,1,.11.09.21.21,0,0,1,0,.12v6.95l2.9-3.19a.77.77,0,0,1,.15-.14.73.73,0,0,1,.18-.09,1,1,0,0,1,.25-.05H184l.23,0a.28.28,0,0,1,.13.08.19.19,0,0,1,0,.12.42.42,0,0,1-.06.2,1.23,1.23,0,0,1-.18.24l-2.78,2.78,3.12,4.05a1.8,1.8,0,0,1,.16.23A.36.36,0,0,1,184.66,261.17Z"/><path class="cls-9" d="M234.46,257.82a11.8,11.8,0,1,0-13.64,11.65v-8.24h-3v-3.41h3v-2.6c0-3,1.76-4.59,4.46-4.59a18.17,18.17,0,0,1,2.64.23v2.9h-1.49a1.71,1.71,0,0,0-1.92,1.84v2.21h3.27l-.52,3.41h-2.75v8.24A11.8,11.8,0,0,0,234.46,257.82Z"/><path class="cls-9" d="M262.14,255.72a11.64,11.64,0,0,0-5.72-8.18,11.21,11.21,0,0,0-5-1.55l-.18,0h-1.47c-.42.06-.85.1-1.27.18a11.82,11.82,0,0,0-9.69,10c0,.28-.07.56-.1.84v1.47c.06.42.1.85.18,1.27a11.82,11.82,0,0,0,10.71,9.75l.18,0h1.47c.44-.06.88-.1,1.32-.18a11.63,11.63,0,0,0,7.79-5.13,11.37,11.37,0,0,0,1.91-5.57,1.25,1.25,0,0,1,0-.18V257C262.26,256.58,262.22,256.14,262.14,255.72Z"/><path class="cls-7" d="M256.76,259.68c0-.46,0-.92-.05-1.38a2.88,2.88,0,0,0-2.59-2.78,2.68,2.68,0,0,0-2.71,1.11l-.13.17v-1.1h-2.65v8h2.66v-.26c0-1.42,0-2.84,0-4.26a1.56,1.56,0,0,1,.5-1.2,1.31,1.31,0,0,1,2.22.62,3.67,3.67,0,0,1,.1.86c0,1.29,0,2.58,0,3.87v.36h2.67v-.26C256.76,262.19,256.77,260.93,256.76,259.68Z"/><path class="cls-7" d="M244.46,263.69h2.65v-8h-2.65Z"/><path class="cls-7" d="M246,251.82a1.5,1.5,0,0,0-1.68.91,1.53,1.53,0,1,0,1.68-.91Z"/><path class="cls-11" d="M271.3,264.11a.49.49,0,0,1-.09.17.35.35,0,0,1-.14.1l-.21.05-.3,0a1.78,1.78,0,0,1-.35,0,.58.58,0,0,1-.22-.09.22.22,0,0,1-.09-.14.31.31,0,0,1,0-.19l5.16-14.16a.48.48,0,0,1,.09-.17.4.4,0,0,1,.14-.1.65.65,0,0,1,.21-.05h.31a1.71,1.71,0,0,1,.35,0,.62.62,0,0,1,.21.08.21.21,0,0,1,.09.14.35.35,0,0,1,0,.2Z"/><path class="cls-11" d="M284.87,254.24a3.9,3.9,0,0,1-.27,1.49,3.15,3.15,0,0,1-.78,1.14,3.49,3.49,0,0,1-1.25.73,5.39,5.39,0,0,1-1.76.26h-1.25v4a.19.19,0,0,1,0,.12.25.25,0,0,1-.12.08l-.22.05-.35,0-.35,0-.23-.05a.22.22,0,0,1-.12-.08.21.21,0,0,1,0-.12V251.64a.59.59,0,0,1,.18-.49.62.62,0,0,1,.4-.14H281q.36,0,.69,0a6.58,6.58,0,0,1,.78.13,3.21,3.21,0,0,1,.91.37,2.9,2.9,0,0,1,.79.66,2.84,2.84,0,0,1,.5.91A3.53,3.53,0,0,1,284.87,254.24Zm-1.55.12a2.3,2.3,0,0,0-.25-1.13,1.75,1.75,0,0,0-.62-.67,2.09,2.09,0,0,0-.77-.28,5.3,5.3,0,0,0-.77-.06h-1.36v4.43h1.32a3.07,3.07,0,0,0,1.11-.17,2.08,2.08,0,0,0,.74-.47,2,2,0,0,0,.45-.73A2.68,2.68,0,0,0,283.33,254.36Z"/><path class="cls-11" d="M288.59,261.83a.21.21,0,0,1,0,.12.23.23,0,0,1-.12.08l-.23.05-.35,0-.35,0-.23-.05a.22.22,0,0,1-.12-.08.21.21,0,0,1,0-.12v-10.6a.19.19,0,0,1,0-.12.25.25,0,0,1,.13-.08l.23-.05.34,0,.35,0,.23.05a.23.23,0,0,1,.12.08.21.21,0,0,1,0,.12Z"/><path class="cls-11" d="M298.9,260.49c0,.09,0,.17,0,.24a1,1,0,0,1,0,.18.62.62,0,0,1-.06.14.78.78,0,0,1-.12.14,2.56,2.56,0,0,1-.36.26,4.31,4.31,0,0,1-.68.34,5.65,5.65,0,0,1-.93.28,5.34,5.34,0,0,1-1.15.12,5.05,5.05,0,0,1-1.94-.36,3.92,3.92,0,0,1-1.48-1.06,4.83,4.83,0,0,1-.94-1.73,8.68,8.68,0,0,1,0-4.82,5.33,5.33,0,0,1,1-1.82,4.25,4.25,0,0,1,1.53-1.14,4.85,4.85,0,0,1,2-.39,4.79,4.79,0,0,1,.93.09,5.94,5.94,0,0,1,.84.23,3.8,3.8,0,0,1,.68.32,2.34,2.34,0,0,1,.41.29,1,1,0,0,1,.15.18.57.57,0,0,1,.06.14,1.36,1.36,0,0,1,0,.19,2.31,2.31,0,0,1,0,.26,2.05,2.05,0,0,1,0,.29.8.8,0,0,1-.05.2.3.3,0,0,1-.08.12.18.18,0,0,1-.12,0,.64.64,0,0,1-.33-.17,5.54,5.54,0,0,0-.55-.37,4.51,4.51,0,0,0-.82-.37,3.59,3.59,0,0,0-1.16-.17,3,3,0,0,0-1.34.29,2.84,2.84,0,0,0-1,.87,4.25,4.25,0,0,0-.67,1.4,7.67,7.67,0,0,0,0,3.74,3.86,3.86,0,0,0,.65,1.35,2.73,2.73,0,0,0,1,.82,3.37,3.37,0,0,0,1.4.28,3.7,3.7,0,0,0,1.15-.16,4.5,4.5,0,0,0,.84-.36,6.54,6.54,0,0,0,.57-.36.68.68,0,0,1,.35-.16l.1,0a.18.18,0,0,1,.07.1.87.87,0,0,1,0,.2C298.89,260.25,298.9,260.36,298.9,260.49Z"/><path class="cls-11" d="M312.85,261.83a.21.21,0,0,1,0,.12.23.23,0,0,1-.12.08l-.22.05-.36,0-.35,0-.23-.05a.23.23,0,0,1-.12-.08.21.21,0,0,1,0-.12v-9.62h0l-3.89,9.66a.29.29,0,0,1-.07.1.38.38,0,0,1-.14.07l-.21,0h-.29l-.31,0-.21,0a.38.38,0,0,1-.13-.07.23.23,0,0,1-.06-.09l-3.72-9.66h0v9.62a.21.21,0,0,1,0,.12.23.23,0,0,1-.12.08l-.23.05-.36,0-.35,0L301,262a.21.21,0,0,1-.11-.08.23.23,0,0,1,0-.12V251.67a.62.62,0,0,1,.19-.51.66.66,0,0,1,.42-.15h.9a2,2,0,0,1,.49.05,1.07,1.07,0,0,1,.36.16.94.94,0,0,1,.26.28,2,2,0,0,1,.18.4l3.16,8h0l3.29-8a2.36,2.36,0,0,1,.21-.44,1.13,1.13,0,0,1,.25-.29.85.85,0,0,1,.3-.15,1.4,1.4,0,0,1,.38,0h.95a.79.79,0,0,1,.25,0,.5.5,0,0,1,.2.12.61.61,0,0,1,.13.2.79.79,0,0,1,.05.3Z"/><path class="cls-11" d="M322.71,251.64a2,2,0,0,1,0,.28.6.6,0,0,1-.06.19.27.27,0,0,1-.09.11.23.23,0,0,1-.12,0h-3.11v9.58a.21.21,0,0,1,0,.12.22.22,0,0,1-.12.08l-.23.05-.35,0-.35,0L318,262a.23.23,0,0,1-.12-.08.21.21,0,0,1,0-.12v-9.58h-3.11a.23.23,0,0,1-.12,0,.24.24,0,0,1-.09-.11.78.78,0,0,1-.06-.19,1.62,1.62,0,0,1,0-.28,1.7,1.7,0,0,1,0-.29.86.86,0,0,1,.06-.2.22.22,0,0,1,.21-.14h7.68a.23.23,0,0,1,.12,0,.26.26,0,0,1,.09.11.66.66,0,0,1,.06.2A2.06,2.06,0,0,1,322.71,251.64Z"/><path class="cls-11" d="M325.78,261.83a.21.21,0,0,1,0,.12.23.23,0,0,1-.12.08l-.23.05-.35,0-.35,0-.23-.05a.22.22,0,0,1-.12-.08.21.21,0,0,1,0-.12v-10.6a.19.19,0,0,1,0-.12.25.25,0,0,1,.13-.08l.23-.05.34,0,.35,0,.23.05a.23.23,0,0,1,.12.08.21.21,0,0,1,0,.12Z"/><path class="cls-11" d="M338,256.4a8.57,8.57,0,0,1-.32,2.42,5.05,5.05,0,0,1-.94,1.83,4.11,4.11,0,0,1-1.57,1.16,5.58,5.58,0,0,1-2.21.41,5.69,5.69,0,0,1-2.16-.37,3.79,3.79,0,0,1-1.5-1.08,4.6,4.6,0,0,1-.88-1.76,9.09,9.09,0,0,1-.29-2.42,8.33,8.33,0,0,1,.32-2.37,4.94,4.94,0,0,1,.95-1.81,4.2,4.2,0,0,1,1.58-1.15,6.28,6.28,0,0,1,4.34,0,3.84,3.84,0,0,1,1.51,1.07,4.54,4.54,0,0,1,.9,1.74A8.72,8.72,0,0,1,338,256.4Zm-1.55.1a8.64,8.64,0,0,0-.17-1.75,4,4,0,0,0-.55-1.4,2.67,2.67,0,0,0-1-.93,3.47,3.47,0,0,0-1.6-.33,3.27,3.27,0,0,0-1.6.36,3,3,0,0,0-1.05,1,4,4,0,0,0-.58,1.4,7.85,7.85,0,0,0-.17,1.68,9.26,9.26,0,0,0,.16,1.79,4,4,0,0,0,.55,1.41,2.61,2.61,0,0,0,1,.92,3.53,3.53,0,0,0,1.62.33,3.35,3.35,0,0,0,1.62-.36,2.92,2.92,0,0,0,1.06-1,4.09,4.09,0,0,0,.57-1.41A8.16,8.16,0,0,0,336.41,256.5Z"/><path class="cls-11" d="M351.65,261.84a.19.19,0,0,1,0,.12.26.26,0,0,1-.12.08l-.22.05-.35,0-.34,0a.88.88,0,0,1-.22-.05.23.23,0,0,1-.11-.08.21.21,0,0,1,0-.12V255.1h-3.46v6.73a.19.19,0,0,1,0,.12.27.27,0,0,1-.12.08l-.22.05-.34,0-.34,0-.22-.05a.26.26,0,0,1-.12-.08.19.19,0,0,1,0-.12V255.1h-3.45v6.73a.19.19,0,0,1,0,.12.27.27,0,0,1-.12.08l-.22.05-.34,0-.34,0-.22-.05a.27.27,0,0,1-.12-.08.19.19,0,0,1,0-.12V255.1h-1.08a.22.22,0,0,1-.2-.14,1.05,1.05,0,0,1-.07-.44,1.81,1.81,0,0,1,0-.27.66.66,0,0,1,.05-.18.22.22,0,0,1,.09-.1.23.23,0,0,1,.12,0h1.08v-.73a5.26,5.26,0,0,1,.15-1.36,2.42,2.42,0,0,1,.46-.93,1.83,1.83,0,0,1,.76-.54,3.33,3.33,0,0,1,1.72-.11,2.89,2.89,0,0,1,.41.12.59.59,0,0,1,.18.11.41.41,0,0,1,.09.13.7.7,0,0,1,0,.2,2.5,2.5,0,0,1,0,.28,1.33,1.33,0,0,1,0,.4.16.16,0,0,1-.15.12.41.41,0,0,1-.16,0l-.23-.08-.31-.09a1.83,1.83,0,0,0-.39,0,1,1,0,0,0-.89.44,2.86,2.86,0,0,0-.26,1.39v.74h3.45v-.83a5.12,5.12,0,0,1,.16-1.36,2.53,2.53,0,0,1,.46-.93,1.77,1.77,0,0,1,.75-.54,2.8,2.8,0,0,1,1-.17l.38,0,.34.05.26.07a.42.42,0,0,1,.16.08l.07.09a.62.62,0,0,1,0,.12.8.8,0,0,1,0,.17c0,.07,0,.15,0,.25a1.29,1.29,0,0,1,0,.39.16.16,0,0,1-.15.12l-.14,0-.18-.06-.27-.06a2.15,2.15,0,0,0-.39,0,.89.89,0,0,0-.84.44,2.91,2.91,0,0,0-.25,1.39v.84h4.43a.4.4,0,0,1,.44.44Zm.15-10.27a1.76,1.76,0,0,1,0,.4.53.53,0,0,1-.14.26.56.56,0,0,1-.26.14,1.7,1.7,0,0,1-.42,0,1.66,1.66,0,0,1-.41,0,.51.51,0,0,1-.41-.4,1.59,1.59,0,0,1,0-.4,1.54,1.54,0,0,1,0-.4.63.63,0,0,1,.14-.26.51.51,0,0,1,.26-.14,1.83,1.83,0,0,1,.41,0,1.88,1.88,0,0,1,.42,0,.5.5,0,0,1,.26.14.59.59,0,0,1,.14.26A1.71,1.71,0,0,1,351.81,251.57Z"/><path class="cls-11" d="M359.77,260.67c0,.1,0,.18,0,.25a.9.9,0,0,1,0,.18.62.62,0,0,1-.05.13.85.85,0,0,1-.14.16,2.18,2.18,0,0,1-.36.26,3.53,3.53,0,0,1-.58.28,4.24,4.24,0,0,1-.7.2,3.83,3.83,0,0,1-.78.08,3.7,3.7,0,0,1-1.47-.27,2.77,2.77,0,0,1-1.07-.8,3.61,3.61,0,0,1-.66-1.29,6.22,6.22,0,0,1-.23-1.76,6.07,6.07,0,0,1,.28-2,3.66,3.66,0,0,1,.76-1.34,3,3,0,0,1,1.14-.77,3.89,3.89,0,0,1,1.41-.25,3.64,3.64,0,0,1,.71.07,3.9,3.9,0,0,1,.64.18,2.85,2.85,0,0,1,.52.26,2.1,2.1,0,0,1,.33.25,1.11,1.11,0,0,1,.14.16.6.6,0,0,1,.06.14.86.86,0,0,1,0,.18c0,.07,0,.15,0,.26a1,1,0,0,1-.08.47.22.22,0,0,1-.19.13.49.49,0,0,1-.29-.14,4.84,4.84,0,0,0-.42-.31,3.25,3.25,0,0,0-.62-.31,2.37,2.37,0,0,0-.86-.14,1.78,1.78,0,0,0-1.56.78,4,4,0,0,0-.54,2.27,5.37,5.37,0,0,0,.14,1.3,2.7,2.7,0,0,0,.41.94,1.71,1.71,0,0,0,.67.56,2.13,2.13,0,0,0,.91.18,2.2,2.2,0,0,0,.85-.15,3.55,3.55,0,0,0,.64-.34l.45-.33a.54.54,0,0,1,.29-.15.16.16,0,0,1,.1,0,.26.26,0,0,1,.07.12.86.86,0,0,1,0,.2C359.77,260.46,359.77,260.55,359.77,260.67Z"/><path class="cls-11" d="M363.21,251.56a.93.93,0,0,1-.19.67,1,1,0,0,1-.69.18,1,1,0,0,1-.68-.17.91.91,0,0,1-.18-.66.93.93,0,0,1,.19-.67,1,1,0,0,1,.69-.18,1,1,0,0,1,.68.18A.91.91,0,0,1,363.21,251.56ZM363,261.84a.19.19,0,0,1,0,.12.27.27,0,0,1-.11.08.81.81,0,0,1-.21.05l-.35,0-.34,0-.22-.05a.23.23,0,0,1-.11-.08.21.21,0,0,1,0-.12v-7.68a.22.22,0,0,1,0-.11.23.23,0,0,1,.11-.09l.22-.05.34,0,.35,0a.81.81,0,0,1,.21.05.26.26,0,0,1,.11.09.2.2,0,0,1,0,.11Z"/><path class="cls-11" d="M371.44,261.85a.18.18,0,0,1-.07.15.47.47,0,0,1-.19.08,1.75,1.75,0,0,1-.35,0,1.9,1.9,0,0,1-.35,0,.41.41,0,0,1-.19-.08.19.19,0,0,1-.06-.15v-.77a3.78,3.78,0,0,1-1.12.84,3,3,0,0,1-1.31.3,3.57,3.57,0,0,1-1.1-.16,2.36,2.36,0,0,1-.84-.46,2,2,0,0,1-.54-.73,2.43,2.43,0,0,1-.19-1,2.29,2.29,0,0,1,.26-1.13,2.21,2.21,0,0,1,.76-.79,3.75,3.75,0,0,1,1.21-.47,7.51,7.51,0,0,1,1.61-.16H370v-.6a3,3,0,0,0-.09-.79,1.35,1.35,0,0,0-.3-.57,1.31,1.31,0,0,0-.54-.34,2.55,2.55,0,0,0-.82-.12,3.28,3.28,0,0,0-.93.12,5,5,0,0,0-.73.27l-.52.27a.72.72,0,0,1-.31.12.21.21,0,0,1-.12,0,.29.29,0,0,1-.09-.1.52.52,0,0,1-.06-.17,1.45,1.45,0,0,1,0-.23,1.49,1.49,0,0,1,0-.34.49.49,0,0,1,.15-.24,1.84,1.84,0,0,1,.4-.26,4.3,4.3,0,0,1,.65-.27,5.77,5.77,0,0,1,.8-.21,4.82,4.82,0,0,1,.88-.08,4.62,4.62,0,0,1,1.41.19,2.28,2.28,0,0,1,.94.55,2.13,2.13,0,0,1,.52.9,4.37,4.37,0,0,1,.16,1.25Zm-1.4-3.51h-1.2a4.54,4.54,0,0,0-1,.1,2.07,2.07,0,0,0-.71.29,1.2,1.2,0,0,0-.41.46,1.38,1.38,0,0,0-.13.62,1.24,1.24,0,0,0,.38,1,1.5,1.5,0,0,0,1.06.35,2,2,0,0,0,1-.28,4.43,4.43,0,0,0,1-.86Z"/><path class="cls-11" d="M375.43,261.84a.19.19,0,0,1,0,.12.27.27,0,0,1-.11.08.81.81,0,0,1-.21.05l-.35,0-.34,0-.22-.05a.23.23,0,0,1-.11-.08.21.21,0,0,1,0-.12v-11.4a.23.23,0,0,1,0-.12.23.23,0,0,1,.11-.09l.22-.05.34,0,.35,0a.81.81,0,0,1,.21.05.26.26,0,0,1,.11.09.21.21,0,0,1,0,.12Z"/><circle class="cls-6" cx="560.11" cy="190.44" r="4.76"/><path class="cls-7" d="M623.73,93.48a7.17,7.17,0,1,0-7.17-7.17A7.18,7.18,0,0,0,623.73,93.48Z"/><path class="cls-6" d="M82.61,163.47a.73.73,0,0,1-.13.42.92.92,0,0,1-.47.31,4.63,4.63,0,0,1-.9.19,12,12,0,0,1-1.43.07,11.7,11.7,0,0,1-1.41-.07,4.36,4.36,0,0,1-.89-.19,1,1,0,0,1-.47-.31.68.68,0,0,1-.14-.42V138.74h0l-8.81,24.7a1.14,1.14,0,0,1-.31.5,1.5,1.5,0,0,1-.58.32,3.88,3.88,0,0,1-.93.15q-.56,0-1.36,0a13.45,13.45,0,0,1-1.36-.06,4.1,4.1,0,0,1-.93-.19,1.72,1.72,0,0,1-.58-.32.91.91,0,0,1-.28-.45l-8.5-24.7h0v24.73a.73.73,0,0,1-.13.42.92.92,0,0,1-.48.31,4.9,4.9,0,0,1-.9.19,14.27,14.27,0,0,1-2.83,0,4.63,4.63,0,0,1-.9-.19.92.92,0,0,1-.47-.31.73.73,0,0,1-.13-.42V136.39a2.48,2.48,0,0,1,.63-1.83,2.29,2.29,0,0,1,1.69-.63h4a8.49,8.49,0,0,1,1.86.18,3.61,3.61,0,0,1,1.34.59,3.34,3.34,0,0,1,.94,1.08,7.74,7.74,0,0,1,.66,1.66l6.57,18.1H65l6.81-18.06a9.5,9.5,0,0,1,.67-1.67,3.87,3.87,0,0,1,.85-1.1,2.8,2.8,0,0,1,1.14-.6,5.94,5.94,0,0,1,1.53-.18h4.16a3.25,3.25,0,0,1,1.09.16,1.86,1.86,0,0,1,.75.48,2.1,2.1,0,0,1,.45.77,3.3,3.3,0,0,1,.15,1Z"/><path class="cls-6" d="M114.12,162a8.16,8.16,0,0,1,.35,1.34.81.81,0,0,1-.19.74,1.53,1.53,0,0,1-.92.31q-.66.06-1.81.06t-1.87,0a4.62,4.62,0,0,1-1-.14.92.92,0,0,1-.49-.29,1.6,1.6,0,0,1-.23-.49l-2-6.11H94.49l-1.93,5.94a1.9,1.9,0,0,1-.25.55,1,1,0,0,1-.49.35,3.6,3.6,0,0,1-1,.18q-.62,0-1.63,0a15.66,15.66,0,0,1-1.69-.07,1.28,1.28,0,0,1-.85-.34.92.92,0,0,1-.16-.76,7.7,7.7,0,0,1,.35-1.32l9.37-27a2.35,2.35,0,0,1,.33-.65,1.16,1.16,0,0,1,.6-.38,4.72,4.72,0,0,1,1.14-.16q.73,0,1.93,0,1.39,0,2.21,0a5.88,5.88,0,0,1,1.28.16,1.22,1.22,0,0,1,.66.39,2.29,2.29,0,0,1,.34.7Zm-13.95-22.28h0l-4.3,12.92h8.62Z"/><path class="cls-6" d="M134.83,136.46a9.92,9.92,0,0,1-.06,1.16,3.2,3.2,0,0,1-.18.77,1,1,0,0,1-.29.43.6.6,0,0,1-.39.14h-7.61v24.49a.65.65,0,0,1-.15.42,1.08,1.08,0,0,1-.5.31,5,5,0,0,1-1,.19,15.85,15.85,0,0,1-3,0,5,5,0,0,1-1-.19,1.08,1.08,0,0,1-.5-.31.65.65,0,0,1-.15-.42V139H112.5a.59.59,0,0,1-.4-.14,1.09,1.09,0,0,1-.28-.43,3.15,3.15,0,0,1-.18-.77,9.81,9.81,0,0,1-.06-1.16,10.36,10.36,0,0,1,.06-1.2,3.17,3.17,0,0,1,.18-.79,1,1,0,0,1,.28-.42.63.63,0,0,1,.4-.13h21.42a.64.64,0,0,1,.39.13,1,1,0,0,1,.29.42,3.21,3.21,0,0,1,.18.79A10.47,10.47,0,0,1,134.83,136.46Z"/><path class="cls-6" d="M156.44,161.89a9.2,9.2,0,0,1-.06,1.14,3,3,0,0,1-.18.74,1,1,0,0,1-.29.41.64.64,0,0,1-.39.13H140.26a1.92,1.92,0,0,1-1.3-.46,1.88,1.88,0,0,1-.53-1.49V135.88a1.88,1.88,0,0,1,.53-1.49,1.92,1.92,0,0,1,1.3-.46h15.17a.63.63,0,0,1,.38.12.91.91,0,0,1,.28.41,3.15,3.15,0,0,1,.18.75,9.56,9.56,0,0,1,.06,1.16,9.07,9.07,0,0,1-.06,1.12,3,3,0,0,1-.18.74,1,1,0,0,1-.28.41.59.59,0,0,1-.38.13H144.58v7.42h9.18a.65.65,0,0,1,.39.13,1,1,0,0,1,.29.4,2.76,2.76,0,0,1,.18.73,10.67,10.67,0,0,1,0,2.24,2.72,2.72,0,0,1-.18.72.86.86,0,0,1-.29.39.69.69,0,0,1-.39.12h-9.18v8.57h10.94a.64.64,0,0,1,.39.13.94.94,0,0,1,.29.41,3,3,0,0,1,.18.74A9.2,9.2,0,0,1,156.44,161.89Z"/><path class="cls-6" d="M184.43,163.51a.92.92,0,0,1-.09.43.75.75,0,0,1-.45.29,4.44,4.44,0,0,1-1,.16q-.68,0-1.85,0-1,0-1.57,0a3.48,3.48,0,0,1-.93-.18,1,1,0,0,1-.48-.33,1.84,1.84,0,0,1-.23-.48l-2.72-6.79q-.49-1.15-1-2a6.55,6.55,0,0,0-1-1.49,3.82,3.82,0,0,0-1.33-.9,4.6,4.6,0,0,0-1.74-.31h-1.93v11.58a.65.65,0,0,1-.15.42,1.08,1.08,0,0,1-.5.31,4.94,4.94,0,0,1-.94.19,16,16,0,0,1-3,0,5,5,0,0,1-1-.19,1,1,0,0,1-.49-.31.69.69,0,0,1-.14-.42V135.88a1.88,1.88,0,0,1,.53-1.49,1.92,1.92,0,0,1,1.3-.46h7.87q1.2,0,2,0t1.41.12a12.8,12.8,0,0,1,3.3.89,7.91,7.91,0,0,1,2.49,1.66,6.9,6.9,0,0,1,1.56,2.42,8.85,8.85,0,0,1,.54,3.21,9.41,9.41,0,0,1-.39,2.78,7.13,7.13,0,0,1-1.14,2.24,7.5,7.5,0,0,1-1.85,1.71,10,10,0,0,1-2.51,1.17,7,7,0,0,1,1.28.8,6.75,6.75,0,0,1,1.13,1.14,10.92,10.92,0,0,1,1,1.53,19.82,19.82,0,0,1,.92,1.94l2.56,6q.35.89.47,1.3A2.53,2.53,0,0,1,184.43,163.51Zm-8-20.62a4.51,4.51,0,0,0-.68-2.54,3.71,3.71,0,0,0-2.23-1.46,8.59,8.59,0,0,0-1.07-.19,15,15,0,0,0-1.66-.07h-2.77v8.62h3.15a7.53,7.53,0,0,0,2.3-.32,4.6,4.6,0,0,0,1.64-.89,3.65,3.65,0,0,0,1-1.37A4.64,4.64,0,0,0,176.47,142.9Z"/><path class="cls-6" d="M195.16,163.47a.65.65,0,0,1-.15.42,1.08,1.08,0,0,1-.5.31,4.94,4.94,0,0,1-.94.19,16,16,0,0,1-3,0,5,5,0,0,1-1-.19,1.08,1.08,0,0,1-.5-.31.65.65,0,0,1-.15-.42V134.77a.66.66,0,0,1,.15-.42,1.08,1.08,0,0,1,.52-.31,5.21,5.21,0,0,1,1-.19,12.82,12.82,0,0,1,1.48-.07,13.08,13.08,0,0,1,1.5.07,4.93,4.93,0,0,1,.94.19,1.08,1.08,0,0,1,.5.31.66.66,0,0,1,.15.42Z"/><path class="cls-6" d="M226.67,162a8.16,8.16,0,0,1,.35,1.34.81.81,0,0,1-.19.74,1.53,1.53,0,0,1-.92.31q-.66.06-1.81.06t-1.87,0a4.62,4.62,0,0,1-1-.14.92.92,0,0,1-.49-.29,1.6,1.6,0,0,1-.23-.49l-2-6.11H207l-1.93,5.94a1.9,1.9,0,0,1-.25.55,1,1,0,0,1-.49.35,3.6,3.6,0,0,1-1,.18q-.62,0-1.63,0a15.66,15.66,0,0,1-1.69-.07,1.28,1.28,0,0,1-.85-.34.92.92,0,0,1-.16-.76,7.7,7.7,0,0,1,.35-1.32l9.37-27a2.35,2.35,0,0,1,.33-.65,1.16,1.16,0,0,1,.6-.38,4.72,4.72,0,0,1,1.14-.16q.73,0,1.93,0,1.39,0,2.21,0a5.88,5.88,0,0,1,1.28.16,1.22,1.22,0,0,1,.66.39,2.29,2.29,0,0,1,.34.7Zm-13.95-22.28h0l-4.3,12.92H217Z"/><path class="cls-6" d="M247.62,161.73a10,10,0,0,1-.06,1.19,3.57,3.57,0,0,1-.18.8,1,1,0,0,1-.29.46.63.63,0,0,1-.41.14H232.75a1.92,1.92,0,0,1-1.3-.46,1.88,1.88,0,0,1-.53-1.49V134.77a.66.66,0,0,1,.15-.42,1.08,1.08,0,0,1,.5-.31,5,5,0,0,1,1-.19,16,16,0,0,1,3,0,4.93,4.93,0,0,1,.94.19,1.08,1.08,0,0,1,.5.31.66.66,0,0,1,.15.42v24.44h9.56a.68.68,0,0,1,.41.13.94.94,0,0,1,.29.42,3.16,3.16,0,0,1,.18.77A10.07,10.07,0,0,1,247.62,161.73Z"/><path class="cls-6" d="M82.61,121.85a.73.73,0,0,1-.13.42.91.91,0,0,1-.47.31,4.63,4.63,0,0,1-.9.19,11.94,11.94,0,0,1-1.43.07,11.68,11.68,0,0,1-1.41-.07,4.36,4.36,0,0,1-.89-.19,1,1,0,0,1-.47-.31.68.68,0,0,1-.14-.42V97.12h0l-8.81,24.7a1.14,1.14,0,0,1-.31.5,1.5,1.5,0,0,1-.58.32,3.88,3.88,0,0,1-.93.15q-.56,0-1.36,0a13.44,13.44,0,0,1-1.36-.06,4.1,4.1,0,0,1-.93-.19,1.71,1.71,0,0,1-.58-.32.91.91,0,0,1-.28-.45l-8.5-24.7h0v24.73a.73.73,0,0,1-.13.42.92.92,0,0,1-.48.31,4.9,4.9,0,0,1-.9.19,14.17,14.17,0,0,1-2.83,0,4.63,4.63,0,0,1-.9-.19.91.91,0,0,1-.47-.31.73.73,0,0,1-.13-.42V94.78a2.48,2.48,0,0,1,.63-1.83,2.29,2.29,0,0,1,1.69-.63h4a8.49,8.49,0,0,1,1.86.18,3.61,3.61,0,0,1,1.34.59,3.34,3.34,0,0,1,.94,1.08,7.74,7.74,0,0,1,.66,1.66l6.57,18.1H65l6.81-18.06a9.5,9.5,0,0,1,.67-1.67,3.87,3.87,0,0,1,.85-1.1,2.8,2.8,0,0,1,1.14-.6A5.94,5.94,0,0,1,76,92.31h4.16a3.25,3.25,0,0,1,1.09.16A1.86,1.86,0,0,1,82,93a2.1,2.1,0,0,1,.45.77,3.3,3.3,0,0,1,.15,1Z"/><path class="cls-6" d="M114.12,120.39a8.17,8.17,0,0,1,.35,1.34.81.81,0,0,1-.19.74,1.53,1.53,0,0,1-.92.31q-.66.06-1.81.06t-1.87,0a4.62,4.62,0,0,1-1-.14.93.93,0,0,1-.49-.29,1.61,1.61,0,0,1-.23-.49l-2-6.11H94.49l-1.93,5.94a1.9,1.9,0,0,1-.25.55,1,1,0,0,1-.49.35,3.6,3.6,0,0,1-1,.18q-.62,0-1.63,0a15.64,15.64,0,0,1-1.69-.07,1.29,1.29,0,0,1-.85-.34.92.92,0,0,1-.16-.76,7.7,7.7,0,0,1,.35-1.31l9.37-27a2.35,2.35,0,0,1,.33-.65,1.16,1.16,0,0,1,.6-.38,4.72,4.72,0,0,1,1.14-.16q.73,0,1.93,0,1.39,0,2.21,0a5.88,5.88,0,0,1,1.28.16,1.22,1.22,0,0,1,.66.39,2.29,2.29,0,0,1,.34.7ZM100.18,98.11h0L95.85,111h8.62Z"/><path class="cls-6" d="M143.43,120.54a2.35,2.35,0,0,1-.19,1,2,2,0,0,1-.5.7,2,2,0,0,1-.75.41,3.08,3.08,0,0,1-.88.13h-2.63a5.42,5.42,0,0,1-1.42-.16,2.82,2.82,0,0,1-1.1-.6,5.23,5.23,0,0,1-1-1.17,21.86,21.86,0,0,1-1.06-1.91l-7.56-14.21q-.66-1.27-1.34-2.74T123.8,99.1h0q.09,1.69.14,3.37t0,3.46v15.9a.73.73,0,0,1-.13.42,1,1,0,0,1-.45.32,3.57,3.57,0,0,1-.86.2,11.1,11.1,0,0,1-1.39.07,10.85,10.85,0,0,1-1.36-.07,3.35,3.35,0,0,1-.85-.2.88.88,0,0,1-.42-.32.78.78,0,0,1-.12-.42V94.52a2.06,2.06,0,0,1,.65-1.66,2.36,2.36,0,0,1,1.58-.55h3.31a6.31,6.31,0,0,1,1.5.15,3.11,3.11,0,0,1,1.09.5,3.92,3.92,0,0,1,.9,1,12.52,12.52,0,0,1,.87,1.54l5.92,11.11,1,2q.5,1,1,1.95l.92,1.91q.45.94.87,1.88h0q-.07-1.64-.11-3.43t0-3.4V93.23a.69.69,0,0,1,.14-.42,1.12,1.12,0,0,1,.47-.33,3.11,3.11,0,0,1,.87-.2,13.44,13.44,0,0,1,1.39-.06,12.87,12.87,0,0,1,1.34.06,2.67,2.67,0,0,1,.83.2,1,1,0,0,1,.41.33.78.78,0,0,1,.12.42Z"/><path class="cls-6" d="M174.94,120.39a8.17,8.17,0,0,1,.35,1.34.81.81,0,0,1-.19.74,1.53,1.53,0,0,1-.92.31q-.66.06-1.81.06t-1.87,0a4.62,4.62,0,0,1-1-.14.93.93,0,0,1-.49-.29,1.61,1.61,0,0,1-.23-.49l-2-6.11H155.31l-1.93,5.94a1.9,1.9,0,0,1-.25.55,1,1,0,0,1-.49.35,3.6,3.6,0,0,1-1,.18q-.62,0-1.63,0a15.64,15.64,0,0,1-1.69-.07,1.29,1.29,0,0,1-.85-.34.92.92,0,0,1-.16-.76,7.7,7.7,0,0,1,.35-1.31l9.37-27a2.35,2.35,0,0,1,.33-.65,1.16,1.16,0,0,1,.6-.38,4.72,4.72,0,0,1,1.14-.16q.73,0,1.93,0,1.39,0,2.21,0a5.88,5.88,0,0,1,1.28.16,1.22,1.22,0,0,1,.66.39,2.29,2.29,0,0,1,.34.7ZM161,98.11h0L156.67,111h8.62Z"/><path class="cls-6" d="M203,97a10.12,10.12,0,0,1-.06,1.17,3.67,3.67,0,0,1-.16.79.88.88,0,0,1-.26.41.58.58,0,0,1-.36.12,2.29,2.29,0,0,1-1-.42,14.64,14.64,0,0,0-1.81-.92,19.48,19.48,0,0,0-2.69-.92,14,14,0,0,0-3.63-.42,10.06,10.06,0,0,0-4,.76A8.68,8.68,0,0,0,186,99.77a9.63,9.63,0,0,0-1.95,3.36,13.13,13.13,0,0,0-.68,4.33A13.91,13.91,0,0,0,184,112a9.31,9.31,0,0,0,1.94,3.32,8,8,0,0,0,3,2,10.55,10.55,0,0,0,3.86.68,9,9,0,0,0,2-.23,7.48,7.48,0,0,0,1.88-.7v-7H191q-.42,0-.66-.53a4.84,4.84,0,0,1-.23-1.8,8.59,8.59,0,0,1,.06-1.1,2.7,2.7,0,0,1,.18-.72,1,1,0,0,1,.28-.4.59.59,0,0,1,.38-.13h10.26a1.65,1.65,0,0,1,.67.13,1.45,1.45,0,0,1,.52.39,1.77,1.77,0,0,1,.34.62,2.72,2.72,0,0,1,.12.83v12.09a2.88,2.88,0,0,1-.25,1.23,1.76,1.76,0,0,1-1,.83q-.76.31-1.89.63t-2.34.56q-1.21.23-2.44.35t-2.48.12a19,19,0,0,1-6.52-1,12.8,12.8,0,0,1-7.92-7.87,18.54,18.54,0,0,1-1.06-6.47,18.79,18.79,0,0,1,1.13-6.7,14.19,14.19,0,0,1,3.19-5,13.81,13.81,0,0,1,5-3.18,18.33,18.33,0,0,1,6.52-1.1,21.92,21.92,0,0,1,3.59.27,20.26,20.26,0,0,1,2.83.66,11.15,11.15,0,0,1,2,.83,5.08,5.08,0,0,1,1.12.77,2,2,0,0,1,.46.93A8.33,8.33,0,0,1,203,97Z"/><path class="cls-6" d="M227.26,120.28a9.21,9.21,0,0,1-.06,1.14,2.94,2.94,0,0,1-.18.74.94.94,0,0,1-.29.41.64.64,0,0,1-.39.13H211.08a1.92,1.92,0,0,1-1.3-.46,1.88,1.88,0,0,1-.53-1.49V94.26a1.88,1.88,0,0,1,.53-1.49,1.92,1.92,0,0,1,1.3-.46h15.17a.63.63,0,0,1,.38.12.91.91,0,0,1,.28.41,3.15,3.15,0,0,1,.18.75,9.56,9.56,0,0,1,.06,1.16,9.07,9.07,0,0,1-.06,1.12,3,3,0,0,1-.18.74,1,1,0,0,1-.28.41.59.59,0,0,1-.38.13H215.4v7.42h9.18a.65.65,0,0,1,.39.13,1,1,0,0,1,.29.4,2.76,2.76,0,0,1,.18.73,10.67,10.67,0,0,1,0,2.24,2.72,2.72,0,0,1-.18.72.86.86,0,0,1-.29.39.69.69,0,0,1-.39.12H215.4v8.57h10.94a.64.64,0,0,1,.39.13,1,1,0,0,1,.29.41,2.94,2.94,0,0,1,.18.74A9.22,9.22,0,0,1,227.26,120.28Z"/><path class="cls-6" d="M268.12,121.85a.73.73,0,0,1-.13.42.91.91,0,0,1-.47.31,4.63,4.63,0,0,1-.9.19,11.94,11.94,0,0,1-1.43.07,11.68,11.68,0,0,1-1.41-.07,4.36,4.36,0,0,1-.89-.19,1,1,0,0,1-.47-.31.68.68,0,0,1-.14-.42V97.12h0l-8.81,24.7a1.14,1.14,0,0,1-.31.5,1.5,1.5,0,0,1-.58.32,3.88,3.88,0,0,1-.93.15q-.56,0-1.36,0a13.44,13.44,0,0,1-1.36-.06,4.1,4.1,0,0,1-.93-.19,1.71,1.71,0,0,1-.58-.32.91.91,0,0,1-.28-.45l-8.5-24.7h0v24.73a.73.73,0,0,1-.13.42.92.92,0,0,1-.48.31,4.9,4.9,0,0,1-.9.19,14.17,14.17,0,0,1-2.83,0,4.63,4.63,0,0,1-.9-.19.91.91,0,0,1-.47-.31.73.73,0,0,1-.13-.42V94.78a2.48,2.48,0,0,1,.63-1.83,2.29,2.29,0,0,1,1.69-.63h4a8.49,8.49,0,0,1,1.86.18,3.61,3.61,0,0,1,1.34.59,3.34,3.34,0,0,1,.94,1.08,7.74,7.74,0,0,1,.66,1.66l6.57,18.1h.09l6.81-18.06a9.5,9.5,0,0,1,.67-1.67,3.87,3.87,0,0,1,.85-1.1,2.8,2.8,0,0,1,1.14-.6,5.94,5.94,0,0,1,1.53-.18h4.16a3.25,3.25,0,0,1,1.09.16,1.86,1.86,0,0,1,.75.48,2.1,2.1,0,0,1,.45.77,3.3,3.3,0,0,1,.15,1Z"/><path class="cls-6" d="M292.75,120.28a9.21,9.21,0,0,1-.06,1.14,2.94,2.94,0,0,1-.18.74.94.94,0,0,1-.29.41.64.64,0,0,1-.39.13H276.57a1.92,1.92,0,0,1-1.3-.46,1.88,1.88,0,0,1-.53-1.49V94.26a1.88,1.88,0,0,1,.53-1.49,1.92,1.92,0,0,1,1.3-.46h15.17a.63.63,0,0,1,.38.12.91.91,0,0,1,.28.41,3.15,3.15,0,0,1,.18.75,9.56,9.56,0,0,1,.06,1.16,9.07,9.07,0,0,1-.06,1.12,3,3,0,0,1-.18.74,1,1,0,0,1-.28.41.59.59,0,0,1-.38.13H280.89v7.42h9.18a.65.65,0,0,1,.39.13,1,1,0,0,1,.29.4,2.76,2.76,0,0,1,.18.73,10.67,10.67,0,0,1,0,2.24,2.72,2.72,0,0,1-.18.72.86.86,0,0,1-.29.39.69.69,0,0,1-.39.12h-9.18v8.57h10.94a.64.64,0,0,1,.39.13,1,1,0,0,1,.29.41,2.94,2.94,0,0,1,.18.74A9.22,9.22,0,0,1,292.75,120.28Z"/><path class="cls-6" d="M323.25,120.54a2.35,2.35,0,0,1-.19,1,2,2,0,0,1-.5.7,2,2,0,0,1-.75.41,3.08,3.08,0,0,1-.88.13H318.3a5.42,5.42,0,0,1-1.42-.16,2.82,2.82,0,0,1-1.1-.6,5.23,5.23,0,0,1-1-1.17,21.86,21.86,0,0,1-1.06-1.91l-7.56-14.21q-.66-1.27-1.34-2.74t-1.22-2.85h0q.09,1.69.14,3.37t0,3.46v15.9a.73.73,0,0,1-.13.42,1,1,0,0,1-.45.32,3.57,3.57,0,0,1-.86.2,11.1,11.1,0,0,1-1.39.07,10.85,10.85,0,0,1-1.36-.07,3.35,3.35,0,0,1-.85-.2.88.88,0,0,1-.42-.32.78.78,0,0,1-.12-.42V94.52a2.06,2.06,0,0,1,.65-1.66,2.36,2.36,0,0,1,1.58-.55h3.31a6.31,6.31,0,0,1,1.5.15,3.11,3.11,0,0,1,1.09.5,3.92,3.92,0,0,1,.9,1,12.52,12.52,0,0,1,.87,1.54L314,106.59l1,2q.5,1,1,1.95l.92,1.91q.45.94.87,1.88h0q-.07-1.64-.11-3.43t0-3.4V93.23a.69.69,0,0,1,.14-.42,1.12,1.12,0,0,1,.47-.33,3.11,3.11,0,0,1,.87-.2,13.44,13.44,0,0,1,1.39-.06,12.87,12.87,0,0,1,1.34.06,2.67,2.67,0,0,1,.83.2,1,1,0,0,1,.41.33.78.78,0,0,1,.12.42Z"/><path class="cls-6" d="M350.09,94.85A9.92,9.92,0,0,1,350,96a3.2,3.2,0,0,1-.18.77,1,1,0,0,1-.29.43.6.6,0,0,1-.39.14h-7.61v24.49a.65.65,0,0,1-.15.42,1.07,1.07,0,0,1-.5.31,5,5,0,0,1-1,.19,15.74,15.74,0,0,1-3,0,5,5,0,0,1-1-.19,1.07,1.07,0,0,1-.5-.31.65.65,0,0,1-.15-.42V97.36h-7.61a.59.59,0,0,1-.4-.14,1.09,1.09,0,0,1-.28-.43,3.15,3.15,0,0,1-.18-.77,9.81,9.81,0,0,1-.06-1.16,10.36,10.36,0,0,1,.06-1.2,3.17,3.17,0,0,1,.18-.79,1,1,0,0,1,.28-.42.63.63,0,0,1,.4-.13h21.42a.64.64,0,0,1,.39.13,1,1,0,0,1,.29.42,3.21,3.21,0,0,1,.18.79A10.47,10.47,0,0,1,350.09,94.85Z"/></svg>