<svg id="Layer_1" data-name="Layer 1" xmlns="http://www.w3.org/2000/svg" xmlns:xlink="http://www.w3.org/1999/xlink" viewBox="0 0 1200 300"><defs><style>.cls-1{fill:none;}.cls-2{fill:#f2f3f4;}.cls-3{font-size:48.51px;}.cls-3,.cls-36{fill:#253a76;}.cls-28,.cls-3{font-family:Calibri-Bold, Calibri;font-weight:700;}.cls-4{letter-spacing:-0.01em;}.cls-5{letter-spacing:0em;}.cls-6{letter-spacing:-0.01em;}.cls-7{letter-spacing:-0.01em;}.cls-8{clip-path:url(#clip-path);}.cls-9{fill:url(#Fading_Sky);}.cls-10{fill:url(#Fading_Sky-2);}.cls-11{fill:url(#Fading_Sky-3);}.cls-12{fill:url(#Fading_Sky-4);}.cls-13{fill:url(#Fading_Sky-5);}.cls-14{fill:url(#Fading_Sky-6);}.cls-15{fill:url(#Fading_Sky-7);}.cls-16{fill:url(#Fading_Sky-8);}.cls-17{fill:url(#Fading_Sky-9);}.cls-18{fill:url(#Fading_Sky-10);}.cls-19{fill:url(#Fading_Sky-11);}.cls-20{fill:url(#Fading_Sky-12);}.cls-21{fill:url(#Fading_Sky-13);}.cls-22{fill:url(#Fading_Sky-14);}.cls-23{fill:#20c4f4;}.cls-24{fill:#0095da;}.cls-25{fill:#233a7a;}.cls-26{fill:#bcbec0;}.cls-27{fill:#e6e7e8;}.cls-28{font-size:19.35px;}.cls-28,.cls-33,.cls-34,.cls-35,.cls-37{fill:#fff;}.cls-29{letter-spacing:-0.02em;}.cls-30{letter-spacing:-0.03em;}.cls-31{letter-spacing:0em;}.cls-32{letter-spacing:-0.01em;}.cls-34,.cls-35{stroke:#fff;stroke-miterlimit:10;}.cls-34{stroke-width:1.08px;}.cls-35{stroke-width:1.95px;}.cls-36,.cls-37{fill-rule:evenodd;}</style><clipPath id="clip-path"><rect class="cls-1" width="1200" height="300"/></clipPath><linearGradient id="Fading_Sky" x1="511.29" y1="159.15" x2="636.88" y2="159.15" gradientUnits="userSpaceOnUse"><stop offset="0" stop-color="#2484c6"/><stop offset="1" stop-color="#2484c6" stop-opacity="0"/></linearGradient><linearGradient id="Fading_Sky-2" x1="699.74" y1="159.15" x2="825.33" y2="159.15" xlink:href="#Fading_Sky"/><linearGradient id="Fading_Sky-3" x1="699.74" y1="267.92" x2="825.33" y2="267.92" xlink:href="#Fading_Sky"/><linearGradient id="Fading_Sky-4" x1="699.74" y1="50.38" x2="825.33" y2="50.38" xlink:href="#Fading_Sky"/><linearGradient id="Fading_Sky-5" x1="888.25" y1="159.15" x2="1013.84" y2="159.15" xlink:href="#Fading_Sky"/><linearGradient id="Fading_Sky-6" x1="888.25" y1="267.92" x2="1013.84" y2="267.92" xlink:href="#Fading_Sky"/><linearGradient id="Fading_Sky-7" x1="888.25" y1="50.38" x2="1013.84" y2="50.38" xlink:href="#Fading_Sky"/><linearGradient id="Fading_Sky-8" x1="1076.41" y1="159.15" x2="1202" y2="159.15" xlink:href="#Fading_Sky"/><linearGradient id="Fading_Sky-9" x1="605.5" y1="213.54" x2="731.09" y2="213.54" xlink:href="#Fading_Sky"/><linearGradient id="Fading_Sky-10" x1="793.97" y1="104.77" x2="919.57" y2="104.77" xlink:href="#Fading_Sky"/><linearGradient id="Fading_Sky-11" x1="605.5" y1="104.77" x2="731.09" y2="104.77" xlink:href="#Fading_Sky"/><linearGradient id="Fading_Sky-12" x1="793.97" y1="213.54" x2="919.57" y2="213.54" xlink:href="#Fading_Sky"/><linearGradient id="Fading_Sky-13" x1="982.59" y1="213.54" x2="1108.19" y2="213.54" xlink:href="#Fading_Sky"/><linearGradient id="Fading_Sky-14" x1="982.59" y1="104.77" x2="1108.19" y2="104.77" xlink:href="#Fading_Sky"/></defs><title>hr</title><rect class="cls-2" width="1200" height="300"/><text class="cls-3" transform="translate(44.23 123.27) scale(0.99 1)">HUMAN<tspan x="0" y="40.29">R</tspan><tspan class="cls-4" x="27.31" y="40.29">E</tspan><tspan class="cls-5" x="50.5" y="40.29">SOU</tspan><tspan class="cls-6" x="137.9" y="40.29">R</tspan><tspan x="164.86" y="40.29">C</tspan><tspan class="cls-7" x="190.54" y="40.29">E</tspan><tspan x="213.73" y="40.29">S </tspan></text><g class="cls-8"><polygon class="cls-9" points="605.48 104.77 542.69 104.77 511.29 159.15 542.69 213.54 605.48 213.54 636.88 159.15 605.48 104.77"/><polygon class="cls-10" points="793.93 104.77 731.13 104.77 699.74 159.15 731.13 213.54 793.93 213.54 825.33 159.15 793.93 104.77"/><polygon class="cls-11" points="793.93 213.54 731.13 213.54 699.74 267.92 731.13 322.3 793.93 322.3 825.33 267.92 793.93 213.54"/><polygon class="cls-12" points="793.93 -4 731.13 -4 699.74 50.38 731.13 104.77 793.93 104.77 825.33 50.38 793.93 -4"/><polygon class="cls-13" points="982.44 104.77 919.64 104.77 888.25 159.15 919.64 213.54 982.44 213.54 1013.84 159.15 982.44 104.77"/><polygon class="cls-14" points="982.44 213.54 919.64 213.54 888.25 267.92 919.64 322.3 982.44 322.3 1013.84 267.92 982.44 213.54"/><polygon class="cls-15" points="982.44 -4 919.64 -4 888.25 50.38 919.64 104.77 982.44 104.77 1013.84 50.38 982.44 -4"/><polygon class="cls-16" points="1170.6 104.77 1107.8 104.77 1076.41 159.15 1107.8 213.54 1170.6 213.54 1202 159.15 1170.6 104.77"/><polygon class="cls-17" points="699.7 159.15 636.9 159.15 605.5 213.54 636.9 267.92 699.7 267.92 731.1 213.54 699.7 159.15"/><polygon class="cls-18" points="888.17 50.38 825.37 50.38 793.97 104.77 825.37 159.15 888.17 159.15 919.57 104.77 888.17 50.38"/><polygon class="cls-19" points="699.7 50.38 636.9 50.38 605.5 104.77 636.9 159.15 699.7 159.15 731.1 104.77 699.7 50.38"/><polygon class="cls-20" points="888.17 159.15 825.37 159.15 793.97 213.54 825.37 267.92 888.17 267.92 919.57 213.54 888.17 159.15"/><polygon class="cls-21" points="1076.79 159.15 1013.99 159.15 982.59 213.54 1013.99 267.92 1076.79 267.92 1108.18 213.54 1076.79 159.15"/><polygon class="cls-22" points="1076.79 50.38 1013.99 50.38 982.59 104.77 1013.99 159.15 1076.79 159.15 1108.18 104.77 1076.79 50.38"/><polygon class="cls-23" points="609.16 97.36 546.36 97.36 514.96 151.74 546.36 206.13 609.16 206.13 640.55 151.74 609.16 97.36"/><polygon class="cls-24" points="797.61 97.36 734.81 97.36 703.41 151.74 734.81 206.13 797.61 206.13 829 151.74 797.61 97.36"/><polygon class="cls-23" points="797.61 206.13 734.81 206.13 703.41 260.51 734.81 314.89 797.61 314.89 829 260.51 797.61 206.13"/><polygon class="cls-25" points="797.61 -11.41 734.81 -11.41 703.41 42.97 734.81 97.36 797.61 97.36 829 42.97 797.61 -11.41"/><polygon class="cls-24" points="986.11 97.36 923.32 97.36 891.92 151.74 923.32 206.13 986.11 206.13 1017.51 151.74 986.11 97.36"/><polygon class="cls-23" points="986.11 206.13 923.32 206.13 891.92 260.51 923.32 314.89 986.11 314.89 1017.51 260.51 986.11 206.13"/><polygon class="cls-26" points="986.11 -11.41 923.32 -11.41 891.92 42.97 923.32 97.36 986.11 97.36 1017.51 42.97 986.11 -11.41"/><polygon class="cls-25" points="1174.27 97.36 1111.48 97.36 1080.08 151.74 1111.48 206.13 1174.27 206.13 1205.67 151.74 1174.27 97.36"/><polygon class="cls-25" points="703.37 151.74 640.57 151.74 609.17 206.13 640.57 260.51 703.37 260.51 734.77 206.13 703.37 151.74"/><polygon class="cls-23" points="891.84 42.97 829.04 42.97 797.64 97.36 829.04 151.74 891.84 151.74 923.24 97.36 891.84 42.97"/><polygon class="cls-27" points="703.37 42.97 640.57 42.97 609.17 97.36 640.57 151.74 703.37 151.74 734.77 97.36 703.37 42.97"/><polygon class="cls-25" points="891.84 151.74 829.04 151.74 797.64 206.13 829.04 260.51 891.84 260.51 923.24 206.13 891.84 151.74"/><polygon class="cls-27" points="1080.46 151.74 1017.66 151.74 986.26 206.13 1017.66 260.51 1080.46 260.51 1111.86 206.13 1080.46 151.74"/><polygon class="cls-23" points="1080.46 42.97 1017.66 42.97 986.26 97.36 1017.66 151.74 1080.46 151.74 1111.86 97.36 1080.46 42.97"/><text class="cls-28" transform="translate(723.25 156.26)">EMP<tspan class="cls-29" x="36.66" y="0">L</tspan><tspan class="cls-30" x="44.5" y="0">O</tspan><tspan class="cls-31" x="56.97" y="0">YEE</tspan></text><text class="cls-28" transform="translate(661.13 210.64)">CV</text><text class="cls-28" transform="translate(811.04 210.64)">R<tspan class="cls-32" x="10.9" y="0">E</tspan><tspan x="20.05" y="0">CRUITING</tspan></text><text class="cls-28" transform="translate(912.35 47.49)">TRAINING </text><text class="cls-28" transform="translate(1028.43 101.87)">SKILL</text><path class="cls-33" d="M555.17,183.53V124.75h7.32V120h4v4.63h22.47V120h4v4.68h7.39v58.84Zm7.34-55.37h-1.75c-2.24,0-2.24,0-2.24,2.28q0,23.89,0,47.79c0,.63,0,1.26,0,2h38.43v-51.9h-3.88l-.13,2.58h-3.87l-.14-2.55H566.58l-.14,2.52h-3.93Z"/><path class="cls-33" d="M577.32,150.93c-2.14-.28-4.42-.56-6.69-.89-1.13-.16-1.51-.88-1.26-2,.19-.83.34-1.68.54-2.51.71-2.89,1.66-3.59,4.55-3.31a1.37,1.37,0,0,1,.82.59c1.16,1.67,4.35,1.72,5.43.06.75-1.15,3.56-1.09,4.08.27a29.46,29.46,0,0,1,1.35,5.72c.05.33-.71,1.08-1.17,1.15C582.5,150.41,580,150.63,577.32,150.93Z"/><path class="cls-33" d="M582,136.13c.9,2.16-.49,3.88-2.32,5.39a2.83,2.83,0,0,1-3.94-.09c-2.39-1.94-2.64-4.5-2-7.22.44-2,2.59-3,4.9-2.62S582.08,133.32,582,136.13Z"/><path class="cls-33" d="M590,158.09v2.15H562.61v-2.15Z"/><path class="cls-33" d="M562.58,164.79v-2.15h24.2v2.15Z"/><path class="cls-33" d="M562.62,169.31v-1.87h21.56v1.87Z"/><path class="cls-33" d="M580,174.21H562.65V172H580Z"/><path class="cls-33" d="M761.67,231.7c.27,0,.53.05.8.1.9.15,1.8.33,2.71.47s1.83.27,2.74.4c.3,0,.6.07.9.09a8.69,8.69,0,0,1,3.78,1.26,6.59,6.59,0,0,1,1.76,1.47,8.35,8.35,0,0,1,.7,1.18,6.46,6.46,0,0,1,.49,1.3,2.62,2.62,0,0,0,.72,1,6.12,6.12,0,0,1,1.34,2.13,7.44,7.44,0,0,1,.58,3.14,11.13,11.13,0,0,1-.94,4.33c-.22.47-.16.63.33.81a1.37,1.37,0,0,1,.86,1.35,5.48,5.48,0,0,1-.61,3.09,9.43,9.43,0,0,1-.92,1.32.69.69,0,0,1-.48.25c-.43,0-.57.27-.72.58-.32.68-.61,1.37-1,2a15.85,15.85,0,0,1-1,1.62,4.22,4.22,0,0,1-.67.65,1.53,1.53,0,0,0-.51,1.25c0,1.39,0,2.78,0,4.17a1,1,0,0,1-.25.59c-.32.37-.69.7-1,1.06-.52.55-1,1.11-1.54,1.66s-1.21,1.22-1.8,1.83c-.29.3-.58.61-.85.93s-.27.49,0,.78c.5.49,1,1,1.54,1.43a.39.39,0,0,1,0,.59c-.37.38-.76.75-1.13,1.15a.66.66,0,0,0-.18.43,6.21,6.21,0,0,0,.31,2,3.31,3.31,0,0,1,.07.73c.17,1.08.35,2.16.51,3.23.12.8.22,1.6.36,2.39a2.58,2.58,0,0,0,.28.61,2.49,2.49,0,0,0,.52-.46c.42-.66.83-1.32,1.19-2q.73-1.44,1.35-2.93c.41-1,.78-2,1.12-3,.24-.69.43-1.41.62-2.12s.33-1.32.44-2a22.12,22.12,0,0,0,.26-2.4c0-1.09,0-2.17,0-3.26,0-.4.17-.54.55-.42l3.75,1.23c1.23.4,2.47.79,3.7,1.21.78.27,1.53.58,2.3.88s1.55.57,2.31.9,1.72.78,2.58,1.18c.27.12.52.28.79.39a3.7,3.7,0,0,1,1.46,1.43,8.22,8.22,0,0,1,.91,2,33.22,33.22,0,0,1,1.3,4.85c.22,1.07.42,2.14.61,3.22.21,1.27.41,2.54.59,3.81.06.44.1.88.13,1.33s-.21.36-.45.37H737.52c-.42,0-.53-.1-.48-.52.17-1.27.33-2.55.52-3.82.16-1.11.33-2.21.54-3.31s.46-2.37.77-3.53A21.91,21.91,0,0,1,740.4,274a4.27,4.27,0,0,1,2-1.94c.87-.42,1.75-.85,2.64-1.23s1.65-.62,2.48-.93c.59-.22,1.16-.46,1.75-.67.88-.31,1.76-.58,2.64-.88.56-.19,1.11-.4,1.68-.59L756,267c.34-.11.67-.25,1-.36s.5,0,.5.41c0,1.14-.05,2.29,0,3.43a22,22,0,0,0,.51,3.21c.26,1.1.63,2.18,1,3.26.19.63.39,1.25.63,1.86s.6,1.36.91,2c.21.45.41.91.64,1.35.34.65.7,1.29,1.07,1.92a5.75,5.75,0,0,0,.49.71c.06.07.22.14.27.11a.49.49,0,0,0,.22-.3c.06-.35.06-.72.12-1.07.25-1.57.52-3.13.77-4.7.13-.84.25-1.68.38-2.52a1.06,1.06,0,0,0-.46-1.08,6.94,6.94,0,0,1-.85-.85.34.34,0,0,1,.06-.53c.53-.49,1.07-1,1.58-1.49.29-.28.2-.59-.22-1-.57-.55-1.14-1.1-1.69-1.66-.9-.91-1.78-1.84-2.67-2.76l-.58-.61a1.33,1.33,0,0,1-.37-1c0-1.42,0-2.85,0-4.27a1.33,1.33,0,0,0-.38-1,9.89,9.89,0,0,1-1.29-1.58,22.22,22.22,0,0,1-1.15-2.29c-.19-.41-.31-.79-.86-1-.35-.1-.63-.51-.88-.83a5.55,5.55,0,0,1-1.12-3.35,3.55,3.55,0,0,1,.29-1.36c.08-.2.38-.33.6-.44a.54.54,0,0,0,.31-.71,14.47,14.47,0,0,1-.32-5.14,16.66,16.66,0,0,1,.54-2.24c.13-.49.28-1,.45-1.46.11-.3.27-.58.41-.88.35-.77.66-1.57,1-2.32a3.88,3.88,0,0,1,1.66-1.77l1.3-.69c.18-.09.31-.17.22-.43s0-.42.31-.42h1a4.82,4.82,0,0,0,.64,0c.42-.06.49-.23.24-.56l-.68-.92Z"/><path class="cls-33" d="M792.24,18.57c0-1.24-.39-1.63-1.62-1.63h-9.89a3.54,3.54,0,0,0-.63,0,1.12,1.12,0,0,0-.76,1.74,3.57,3.57,0,0,0,.49.56l3,3L763.19,41.76l-.45-.43-8-8a1.61,1.61,0,0,0-2.5-.08q-5.76,5.74-11.5,11.5a1.61,1.61,0,0,0,0,2.5c.47.48,1,1,1.44,1.42,1,1,1.73,1,2.76,0l8-8,.48-.46.49.46,3.15,3.15q2.43,2.44,4.87,4.87a1.62,1.62,0,0,0,2.57,0c.52-.51,1.06-1,1.58-1.53l20.29-20.3a3.46,3.46,0,0,0,.39-.61l.58.53c.93.93,1.85,1.86,2.79,2.78a1.14,1.14,0,0,0,1.84,0,2.09,2.09,0,0,0,.24-1C792.25,25.2,792.25,21.88,792.24,18.57Z"/><path class="cls-33" d="M786,30.9q-3.83,3.82-7.64,7.66a1.11,1.11,0,0,0-.25.72q0,13.94,0,27.88A1.62,1.62,0,0,0,780,69h4.45c1.4,0,2-.56,2-2q0-17.85,0-35.69v-.71A4.09,4.09,0,0,0,786,30.9Z"/><path class="cls-33" d="M767.72,49.24a1.18,1.18,0,0,0-.28.76q0,8.59,0,17.18c0,1.24.61,1.83,1.86,1.83h4.34c1.53,0,2.06-.52,2.06-2q0-12.43,0-24.87v-.77c-.2.15-.3.21-.37.29Q771.52,45.42,767.72,49.24Z"/><path class="cls-33" d="M753.42,43.91l-.46.43q-3.37,3.34-6.72,6.69a.86.86,0,0,0-.22.55q0,7.87,0,15.73A1.54,1.54,0,0,0,747.68,69q2.49,0,5,0a1.53,1.53,0,0,0,1.59-1.56c0-.21,0-.42,0-.64,0-7.11,0-14.23,0-21.34A1.72,1.72,0,0,0,753.42,43.91Z"/><path class="cls-33" d="M765,51.65a1.36,1.36,0,0,0-.23,0A4.34,4.34,0,0,1,760,50.44c-.77-.79-1.55-1.55-2.32-2.34-.26-.27-.48-.59-.72-.89l-.21.17a1.74,1.74,0,0,0,0,.22q0,9.86,0,19.71a1.55,1.55,0,0,0,1.7,1.69c1.52,0,3,0,4.57,0s2-.59,2-2q0-7.37,0-14.74C765,52.07,765,51.87,765,51.65Z"/><path class="cls-34" d="M887,71.26h-53v38.48h.62c3.54,0,7.07,0,10.61,0a.76.76,0,0,1,.8.48c.29.6.64,1.17,1,1.83-.25,0-.44,0-.63,0H833c-1.08,0-1.46-.39-1.46-1.48q0-20.08,0-40.16c0-1.19.4-1.58,1.61-1.58H888a1.21,1.21,0,0,1,1.31,1.38q0,6,0,11.92,0,14.23,0,28.46c0,1.08-.39,1.48-1.47,1.48-1.87,0-3.74,0-5.6,0a1.23,1.23,0,0,1-.75-.32c-.64-.6-1.25-1.24-2-2H887Z"/><path class="cls-33" d="M871.41,115.84a16.78,16.78,0,0,1-14.29,1.51,16.31,16.31,0,0,1-8.86-7.09,17,17,0,1,1,28.86,0c.79.72,1.59,1.39,2.33,2.12q3.16,3.11,6.28,6.26a4.18,4.18,0,0,1,.95,4.71,4.26,4.26,0,0,1-4,2.56,4.06,4.06,0,0,1-2.84-1.19q-3.77-3.74-7.5-7.5A10.15,10.15,0,0,1,871.41,115.84Zm-8.78.1a14.61,14.61,0,1,0-14.56-14.67A14.65,14.65,0,0,0,862.63,115.94Z"/><path class="cls-33" d="M836.22,90.53c0-.29,0-.48,0-.68q0-7.75,0-15.51c0-.74,0-.74.74-.74h15.45c.7,0,.71,0,.71.71,0,3.37,0,6.75,0,10.12a.85.85,0,0,1-.46.83c-.66.41-1.29.87-2,1.35a6.14,6.14,0,0,0-4-4.53,5.9,5.9,0,0,0-4,0,6.08,6.08,0,0,0-4,6.62h2.19a4.36,4.36,0,0,1,1.08-3.48v3.48h5.43V85.2a3.6,3.6,0,0,1,1.05,2.07,2.68,2.68,0,0,1-.6,2.4,2.11,2.11,0,0,1-1.84.88c-3-.06-6,0-9,0Zm8.42-15.18a2.66,2.66,0,0,0,0,5.33,2.66,2.66,0,1,0,0-5.33Z"/><path class="cls-33" d="M844.4,96.31c-.07.32-.13.54-.17.77s-.24.42-.56.42c-1.92,0-3.84,0-5.77,0h-.61v9.39h6.28c1.07,0,1.07,0,1.35,1.16-.21,0-.42.06-.62.06H837c-.78,0-1-.19-1-1q0-4.95,0-9.9c0-.81.15-1,.94-1h6.8Z"/><path class="cls-33" d="M870.06,75.95H858.25c-.38,0-.64-.19-.65-.58s.25-.58.62-.62l.43,0h23c.18,0,.41,0,.53.06s.42.4.41.6-.28.4-.48.54-.28,0-.43,0Z"/><path class="cls-33" d="M870.08,80.41H858.66c-.18,0-.4.06-.53,0s-.5-.36-.49-.52.27-.45.48-.6.35,0,.53,0H882c.39,0,.62.21.61.61s-.27.57-.65.57H870.08Z"/><path class="cls-33" d="M880.39,108.09a6,6,0,0,1,.37-1,.66.66,0,0,1,.49-.2c.77,0,1.55,0,2.36,0V97.5h-1.52c-.93,0-1-.13-1-1.2,1.1,0,2.2,0,3.29,0,.44,0,.53.42.53.82,0,2,0,4,0,5.93,0,1.38,0,2.76,0,4.14,0,.7-.17.88-.86.89C882.83,108.1,881.67,108.09,880.39,108.09Z"/><path class="cls-33" d="M870.14,83.7h11.47c.16,0,.36,0,.48,0s.44.32.46.51a.85.85,0,0,1-.34.59,1,1,0,0,1-.58.09c-3,0-6,0-9,0a3.74,3.74,0,0,1-1.3-.45c-.43-.18-.83-.41-1.24-.62Z"/><path class="cls-33" d="M845.44,93.44a4.17,4.17,0,0,1-.33.8.78.78,0,0,1-.51.35c-2.72,0-5.43,0-8.15,0-.4,0-.75-.13-.76-.59s.29-.63.71-.63h8.75A2.19,2.19,0,0,1,845.44,93.44Z"/><path class="cls-33" d="M876.37,88.17h5.3c.44,0,.87,0,.92.6s-.29.63-.94.63c-1.12,0-2.24,0-3.36,0a1.41,1.41,0,0,1-1.42-.65A6.55,6.55,0,0,0,876.37,88.17Z"/><path class="cls-33" d="M879.92,93.4c1.63,0,3.15,0,4.67,0a.87.87,0,0,1,.59.56c.1.38-.21.62-.58.62-1.32,0-2.65,0-4,0a.45.45,0,0,1-.32-.22C880.17,94.1,880.08,93.79,879.92,93.4Z"/><path class="cls-33" d="M856.35,112.53a11.84,11.84,0,0,1-3.35-2.76.75.75,0,0,1,0-.63,10.36,10.36,0,0,1,7.62-6,10.56,10.56,0,0,1,11.68,6,.63.63,0,0,1-.11.82,13.06,13.06,0,0,1-3.22,2.57,6.86,6.86,0,0,0-1.58-3.3c0,1.17,0,2.21,0,3.25s.15.82-.85,1.14a12.61,12.61,0,0,1-8.17-.11.61.61,0,0,1-.5-.7c0-1.14,0-2.28,0-3.57A6.74,6.74,0,0,0,856.35,112.53Z"/><path class="cls-33" d="M862.87,101.34a4.74,4.74,0,1,1,4.55-5A4.77,4.77,0,0,1,862.87,101.34Z"/><path class="cls-33" d="M977.16,143a2,2,0,0,0-1.82-1.65c-.86-.1-1.73-.22-2.59-.32l-1.19-.15c-1-.13-2-.25-2.93-.4a.87.87,0,0,1-.48-.22c-.79-.85-1.57-1.72-2.35-2.58-.37-.4-.73-.81-1.11-1.21-.79-.84-1.56-1.71-2.38-2.51a25.16,25.16,0,0,0-3.77-3.13,3.15,3.15,0,0,0-2.21-.64,18.34,18.34,0,0,1-1.83.12c-1.8.07-3.59.11-5.39.18a2.23,2.23,0,0,0-1.83,1q-1.67,2.36-3.36,4.7c-.91,1.26-1.84,2.5-2.75,3.77a1.56,1.56,0,0,0-.23,1.59,1.62,1.62,0,0,0,2.48.75,6.14,6.14,0,0,0,.7-.69q1.89-2.05,3.78-4.11c.67-.74,1.32-1.49,2-2.24a.44.44,0,0,1,.27-.16c.85,0,1.7.08,2.58.13a1.16,1.16,0,0,1-.06.24l-1,1.74-2.43,4.3c-.59,1-1.17,2.09-1.76,3.13a7.49,7.49,0,0,1-.89,1.42c-1.57,1.69-3.19,3.34-4.8,5a.51.51,0,0,1-.37.14c-1.27-.17-2.53-.36-3.79-.54l-1.09-.15c-.69-.1-1.38-.22-2.08-.28a2.23,2.23,0,0,0-2.28,2.65,2,2,0,0,0,1.31,1.67,26.74,26.74,0,0,0,2.65.68c.55.13,1.1.24,1.66.36l2.37.52c.49.11,1,.2,1.48.34a2.71,2.71,0,0,0,2.7-.52c.81-.72,1.58-1.49,2.37-2.23l3.86-3.68a.65.65,0,0,1,.64-.19c.47.1.94.19,1.41.28l1.8.33,1.92.37,1.28.23c.63.12,1.27.25,1.9.35a1.78,1.78,0,0,1,1,.39c.42.38.86.74,1.29,1.12l2.56,2.27c1.06.94,2.13,1.87,3.17,2.82a2.16,2.16,0,0,0,2.57.33,2.1,2.1,0,0,0,.44-3.28L967.95,152c-1.51-1.71-3-3.44-4.54-5.13a2.38,2.38,0,0,0-.9-.58c-.49-.19-1-.28-1.52-.42l-1-.3,2.48-4.3c1.07,1,2.07,2,3.09,3a1.88,1.88,0,0,0,.76.5,13.43,13.43,0,0,0,1.87.27c.76.07,1.53.1,2.3.14l3.41.17,1.07.08a2.07,2.07,0,0,0,2.07-1.12,6.53,6.53,0,0,0,.28-.79v-.34C977.24,143.08,977.17,143,977.16,143Z"/><path class="cls-33" d="M967.07,172.86h-1.88c-.49,0-.49,0-.49-.47q0-7.32,0-14.63c0-.12,0-.25,0-.37a.85.85,0,0,0-.94-.82c-.69.1-1.38.24-2.07.38l-2.43.51-2.56.49-2.43.51-1.83.35-3.15.66c-.6.12-1.2.2-1.8.32l-3.18.68c-.7.15-1.4.31-2.11.4a1,1,0,0,0-.94,1.15q0,8.61,0,17.22a2.53,2.53,0,0,0,.3.89c0,.09.16.15.24.22h5.84s0-.1.05-.11a.86.86,0,0,0,.45-.86c0-.38,0-.76,0-1.14,0-.65-.29-.93-1-.94h-2c-.42,0-.43,0-.43-.44q0-3.68,0-7.35c0-.14,0-.28,0-.41l.81-.17,2.46-.48,1.74-.38,1.93-.38,1.87-.36,1.59-.3,1.88-.4,1.74-.34c.64-.13,1.27-.27,1.91-.38.43-.07.43,0,.43.4q0,4.25,0,8.49a2.31,2.31,0,0,0,0,.5.81.81,0,0,0,.73.61h5.3a.7.7,0,0,0,.71-.54,7.42,7.42,0,0,0,.09-1.69C968,173.07,967.7,172.87,967.07,172.86Z"/><path class="cls-33" d="M966.11,134.59a5.72,5.72,0,1,0-5.67-5.79A5.69,5.69,0,0,0,966.11,134.59Z"/><path class="cls-33" d="M967.22,253.43c-1.33.42-2.57.82-3.83,1.19a8,8,0,0,1-1.61.35,6.41,6.41,0,0,1-1.87-.06c-2.45-.54-4.9-1.14-7.34-1.74a15.43,15.43,0,0,1-1.94-.64,2.92,2.92,0,0,1-1.82-3.6,2.86,2.86,0,0,1,3.48-2c2.17.53,4.33,1.09,6.45,1.77a6.69,6.69,0,0,0,4.68-.23c1.62-.65,3.22-1.35,4.85-2,.79-.31,1.62-.51,2.43-.75a6.47,6.47,0,0,1,.67-.12,37.08,37.08,0,0,0,2.43,9c.11-.76.21-1.53.32-2.29s.2-1.82.37-2.72a2.38,2.38,0,0,0-.27-1.58c-.4-.8-.12-1.26.75-1.28.5,0,1,0,1.5,0s.91.51.66.92c-.73,1.19-.3,2.39-.18,3.59.11,1,.27,2.08.41,3.12a.41.41,0,0,0,.11.23,43,43,0,0,0,2.32-8.86c.7.09,1.4.13,2.07.29.86.2,1.69.49,2.53.76a2.09,2.09,0,0,1,1.67,2.13,120.08,120.08,0,0,1-.1,15.13,3.62,3.62,0,0,0,0,.4,2.8,2.8,0,0,1-2,2.87,9.6,9.6,0,0,1-1,.44.71.71,0,0,0-.53.74c-.27,4-.52,8-.81,12-.17,2.31-.37,4.62-.6,6.92a2.61,2.61,0,0,1-3.75,2.32,8.72,8.72,0,0,1-1.51-.76.61.61,0,0,0-.72,0,8.7,8.7,0,0,1-1.32.7,2.68,2.68,0,0,1-4-2.42q-.9-9.93-1.78-19.86c-.16-1.87-.24-3.76-.33-5.64-.11-2.39-.19-4.79-.29-7.19C967.35,254.19,967.27,253.8,967.22,253.43Z"/><path class="cls-35" d="M945.66,278.86c0,.09,0,.27,0,.45,0,1.75,0,3.5,0,5.25,0,.71-.37,1.13-1,1.13a1,1,0,0,1-1-1.13c0-1.75,0-3.5,0-5.25,0-.17,0-.35,0-.64-.21.19-.33.29-.44.41-1.63,1.66-3.26,3.34-4.91,5a1.74,1.74,0,0,1-.85.44,1,1,0,0,1-1.17-.54,1.07,1.07,0,0,1,.37-1.29q3.35-3.29,6.7-6.59a1,1,0,0,0,.29-.64q0-7.15,0-14.3c0-.1,0-.2,0-.37H925.06a2.7,2.7,0,0,1-.83-.11,1.18,1.18,0,0,1-.78-1.21,1.15,1.15,0,0,1,.83-1.12c.27-.08.55-.12.85-.18V233.64l-.84-.1a1.21,1.21,0,0,1-1.12-1.25,1.18,1.18,0,0,1,1.11-1.19,9.92,9.92,0,0,1,1,0H964a9.59,9.59,0,0,1,1,0,1.16,1.16,0,0,1,1.1,1.2,1.19,1.19,0,0,1-1.07,1.23c-.28,0-.56.06-.9.1,0,.24,0,.45,0,.66,0,3.25,0,6.5,0,9.75,0,.35-.08.54-.43.66s-.85.36-1.36.58c0-.22,0-.4,0-.57q0-5.17,0-10.35c0-.75,0-.77-.75-.77h-34c-.65,0-.69,0-.69.67q0,11.72,0,23.44c0,.15,0,.29,0,.48h36v2.6H945.66v.67c0,4.53,0,9.06,0,13.6a1.64,1.64,0,0,0,.55,1.3c2.18,2.11,4.34,4.24,6.51,6.36a1.08,1.08,0,0,1,.4,1.11,1.17,1.17,0,0,1-1.93.41c-.72-.69-1.39-1.44-2.11-2.13C947.94,281,946.8,279.94,945.66,278.86Z"/><path class="cls-33" d="M980.27,237.6a9.72,9.72,0,0,1-.94,4,8.58,8.58,0,0,1-1.37,2.06,3,3,0,0,1-4.43,0,8.54,8.54,0,0,1-2.16-4.78,12.08,12.08,0,0,1-.15-2,3.65,3.65,0,0,1,2.67-3.73,5.75,5.75,0,0,1,3.34-.11C979.38,233.63,980.39,235.09,980.27,237.6Z"/><path class="cls-33" d="M1125.4,140.17a5.72,5.72,0,1,0-5.75-5.71A5.74,5.74,0,0,0,1125.4,140.17Z"/><path class="cls-33" d="M1137,147.21q-4.06-2.54-8.15-5a4.18,4.18,0,0,0-1.23-.44c-2.9-.67-5.81-1.27-8.69-2a4.05,4.05,0,0,0-3.27.53c-3.25,2-4.7,5-5.27,8.61a1.89,1.89,0,0,0,1.25,2.1c.42.18.86.32,1.37.51l1.56-5.83.68.14a2.75,2.75,0,0,1,0,.4c-1,3.6-1.9,7.21-2.88,10.8a4,4,0,0,0,.16,2.77c1.49,3.39,3,6.79,4.45,10.17a1.42,1.42,0,0,1,0,1.3c-1.66,3.55-3.29,7.12-4.95,10.67a3.44,3.44,0,0,0-.19,2.83,3.61,3.61,0,0,0,2.28,2h1.32a4.33,4.33,0,0,0,2.62-2.64q2.59-5.77,5.3-11.48a4.14,4.14,0,0,0,0-3.91c-.63-1.25-1.13-2.57-1.69-3.86a1.18,1.18,0,0,1,.59.42c1.64,1.81,3.26,3.63,4.92,5.42a2.1,2.1,0,0,1,.6,1.49c.06,3.07.15,6.15.25,9.22a15.83,15.83,0,0,0,.17,2.62,3.16,3.16,0,0,0,6.23-.72c-.09-4.39-.23-8.78-.35-13.17a3.75,3.75,0,0,0-1.08-2.49c-2.26-2.47-4.48-5-6.74-7.43a1,1,0,0,1-.25-1c.39-1.36.73-2.73,1.1-4.09l2.12-7.88c.26.15.47.26.68.38,1.68,1,3.35,2.09,5,3.11a2,2,0,1,0,2.06-3.5Z"/><path class="cls-33" d="M1176.64,135.77a7,7,0,0,1-6.57-4.56,21.19,21.19,0,0,1-.79-2,6.69,6.69,0,0,0-2.79-3.64,43.44,43.44,0,0,0-7.58-4.09l-2.65-1.15,1.94-2.61-1.11-.94h-.15a4.13,4.13,0,0,1-.25.43q-7.12,9.39-14.25,18.76a1.64,1.64,0,0,1-.82.5,1.93,1.93,0,0,0-1.6,1.92,2,2,0,0,1-.57,1.56c-.37.46-.71.93-1.07,1.4l-3,4,1.28.8.5-.63q3.89-5.13,7.78-10.26a1.19,1.19,0,0,1,1.09-.57c.9,0,1.81,0,2.71,0a6.18,6.18,0,0,1,6.17,4.48c.06.16.11.32.16.48a9.05,9.05,0,0,0,2.26,3.63c2.73,2.78,6.13,4.43,9.68,5.88a2.48,2.48,0,0,0,2.4-.18,26,26,0,0,0,8.76-8.36,16,16,0,0,0,2.12-4.78C1179,135.78,1177.82,135.85,1176.64,135.77Z"/><path class="cls-33" d="M1137.51,146.3l1.53,2.51a22.74,22.74,0,0,0,4.79-7.23,5.63,5.63,0,0,0,.12-3.76Z"/><path class="cls-33" d="M1116.25,170.69l-.12-.07-10.64,14,1.21.93c1.26-1.66,2.42-3.33,3.72-4.87a34.5,34.5,0,0,0,5.62-9.44C1116.11,171.07,1116.18,170.88,1116.25,170.69Z"/><path class="cls-33" d="M1128.46,152.91l-1.54,5.77a1.5,1.5,0,0,0,.57-.52,10,10,0,0,1,1.84-1.8c.6-.52.76-1.52,1.24-2.22.82-1.2,1.74-2.34,2.66-3.56l-1.29-.81-2.61,3.43Z"/></g><path class="cls-36" d="M0,239.17H595.49a7.34,7.34,0,0,1,7.32,7.32V268.7a7.34,7.34,0,0,1-7.32,7.32H0Z"/><circle class="cls-33" cx="414.17" cy="257.82" r="11.8"/><path class="cls-36" d="M411.79,264.62a8.85,8.85,0,0,0,8.91-8.91c0-.14,0-.27,0-.41a6.37,6.37,0,0,0,1.56-1.62,6.2,6.2,0,0,1-1.8.49,3.14,3.14,0,0,0,1.38-1.73,6.32,6.32,0,0,1-2,.76,3.13,3.13,0,0,0-5.42,2.14,3.09,3.09,0,0,0,.08.71,8.9,8.9,0,0,1-6.46-3.27,3.14,3.14,0,0,0,1,4.18,3.12,3.12,0,0,1-1.42-.39s0,0,0,0a3.14,3.14,0,0,0,2.51,3.07,3.16,3.16,0,0,1-.83.11,3.11,3.11,0,0,1-.59-.06,3.13,3.13,0,0,0,2.93,2.18,6.33,6.33,0,0,1-4.64,1.3A8.88,8.88,0,0,0,411.79,264.62Z"/><path class="cls-33" d="M448.44,254.89a10,10,0,0,1-.07,1.19,7.64,7.64,0,0,1-.23,1.18,5.71,5.71,0,0,1-.43,1.08,3.64,3.64,0,0,1-.65.89,2.84,2.84,0,0,1-.89.6A3,3,0,0,1,445,260a2.49,2.49,0,0,1-.65-.08,1.81,1.81,0,0,1-.53-.24,1.35,1.35,0,0,1-.39-.4,1.53,1.53,0,0,1-.22-.56,6.61,6.61,0,0,1-.66.58,4,4,0,0,1-.63.4,2.75,2.75,0,0,1-.6.22,2.68,2.68,0,0,1-1.22,0,1.67,1.67,0,0,1-.5-.21,1.43,1.43,0,0,1-.37-.35A2,2,0,0,1,439,259a2.39,2.39,0,0,1-.15-.56,4.8,4.8,0,0,1,0-.67,6.77,6.77,0,0,1,.06-.84,7.1,7.1,0,0,1,.2-1,5.38,5.38,0,0,1,.38-1,3.57,3.57,0,0,1,.59-.86,2.81,2.81,0,0,1,.84-.62,2.59,2.59,0,0,1,1.14-.23,2.11,2.11,0,0,1,.52.06,1.81,1.81,0,0,1,.48.2,2.41,2.41,0,0,1,.44.34,4.7,4.7,0,0,1,.44.49l.15-.75a.28.28,0,0,1,.15-.18,1.11,1.11,0,0,1,.44-.06l.26,0,.17,0a.18.18,0,0,1,.08.07.14.14,0,0,1,0,.1l-.76,3.93a1.65,1.65,0,0,0,.07,1.1.82.82,0,0,0,.78.35,1.17,1.17,0,0,0,.63-.18,1.72,1.72,0,0,0,.5-.47,2.91,2.91,0,0,0,.36-.7,6.22,6.22,0,0,0,.24-.84,7.79,7.79,0,0,0,.14-.9q0-.46,0-.89a4.9,4.9,0,0,0-.2-1.41,2.88,2.88,0,0,0-.69-1.18,3.4,3.4,0,0,0-1.3-.81,5.92,5.92,0,0,0-2-.3,6.62,6.62,0,0,0-1.79.22,5.22,5.22,0,0,0-1.38.6,4.57,4.57,0,0,0-1,.88A5.64,5.64,0,0,0,438,254a6.61,6.61,0,0,0-.47,1.14,9.16,9.16,0,0,0-.27,1.13,9.43,9.43,0,0,0-.12,1q0,.48,0,.81a6.46,6.46,0,0,0,.22,1.73,3.2,3.2,0,0,0,.76,1.36,3.54,3.54,0,0,0,1.44.89,7,7,0,0,0,2.28.32,8,8,0,0,0,1.13-.07q.5-.07.88-.15l.6-.15a1.32,1.32,0,0,1,.32-.07.14.14,0,0,1,.09,0,.19.19,0,0,1,.06.09.7.7,0,0,1,0,.16q0,.1,0,.24c0,.08,0,.15,0,.2a.67.67,0,0,1,0,.14.45.45,0,0,1,0,.12.35.35,0,0,1-.08.09,1.29,1.29,0,0,1-.29.13,5.32,5.32,0,0,1-.66.17c-.28.06-.6.11-1,.15a11.41,11.41,0,0,1-1.22.06,8.48,8.48,0,0,1-2.7-.37,4.56,4.56,0,0,1-1.8-1.08,4.07,4.07,0,0,1-1-1.68,7.33,7.33,0,0,1-.31-2.19c0-.3,0-.64,0-1A10.48,10.48,0,0,1,436,256a9.92,9.92,0,0,1,.37-1.33,7.66,7.66,0,0,1,.62-1.33,6.83,6.83,0,0,1,.92-1.22,5.67,5.67,0,0,1,1.28-1,6.64,6.64,0,0,1,1.69-.68,8.58,8.58,0,0,1,2.16-.25,7.75,7.75,0,0,1,2.42.34,4.56,4.56,0,0,1,1.69,1,3.78,3.78,0,0,1,1,1.5A5.69,5.69,0,0,1,448.44,254.89Zm-5,.55a3.3,3.3,0,0,0-.67-.84,1.16,1.16,0,0,0-.78-.29,1.23,1.23,0,0,0-.65.18,1.8,1.8,0,0,0-.5.45,2.87,2.87,0,0,0-.36.63,4.93,4.93,0,0,0-.24.72,5.22,5.22,0,0,0-.13.71,5.66,5.66,0,0,0,0,.61,1.76,1.76,0,0,0,.23,1,.85.85,0,0,0,.76.34,1.28,1.28,0,0,0,.42-.07,2.19,2.19,0,0,0,.45-.22,3.68,3.68,0,0,0,.51-.39q.27-.24.59-.58Z"/><path class="cls-33" d="M458.19,253.65a3.9,3.9,0,0,1-.27,1.49,3.15,3.15,0,0,1-.78,1.14,3.49,3.49,0,0,1-1.25.73,5.39,5.39,0,0,1-1.76.26h-1.25v4a.19.19,0,0,1,0,.12.25.25,0,0,1-.12.08l-.22.05-.35,0-.35,0-.23-.05a.22.22,0,0,1-.12-.08.21.21,0,0,1,0-.12V251a.59.59,0,0,1,.18-.49.62.62,0,0,1,.4-.14h2.36q.36,0,.69,0a6.58,6.58,0,0,1,.78.13,3.21,3.21,0,0,1,.91.37,2.9,2.9,0,0,1,.79.66,2.84,2.84,0,0,1,.5.91A3.53,3.53,0,0,1,458.19,253.65Zm-1.55.12a2.3,2.3,0,0,0-.25-1.13,1.75,1.75,0,0,0-.62-.67,2.09,2.09,0,0,0-.77-.28,5.3,5.3,0,0,0-.77-.06h-1.36v4.43h1.32a3.07,3.07,0,0,0,1.11-.17,2.08,2.08,0,0,0,.74-.47,2,2,0,0,0,.45-.73A2.68,2.68,0,0,0,456.64,253.77Z"/><path class="cls-33" d="M461.9,261.24a.21.21,0,0,1,0,.12.23.23,0,0,1-.12.08l-.23.05-.35,0-.35,0-.23-.05a.22.22,0,0,1-.12-.08.21.21,0,0,1,0-.12v-10.6a.19.19,0,0,1,0-.12.25.25,0,0,1,.13-.08l.23-.05.34,0,.35,0,.23.05a.23.23,0,0,1,.12.08.21.21,0,0,1,0,.12Z"/><path class="cls-33" d="M472.21,259.9c0,.09,0,.17,0,.24a1,1,0,0,1,0,.18.62.62,0,0,1-.06.14.78.78,0,0,1-.12.14,2.56,2.56,0,0,1-.36.26,4.31,4.31,0,0,1-.68.34,5.65,5.65,0,0,1-.93.28,5.34,5.34,0,0,1-1.15.12,5.05,5.05,0,0,1-1.94-.36,3.92,3.92,0,0,1-1.48-1.06,4.83,4.83,0,0,1-.94-1.73,8.68,8.68,0,0,1,0-4.82,5.33,5.33,0,0,1,1-1.82,4.25,4.25,0,0,1,1.53-1.14,4.85,4.85,0,0,1,2-.39,4.79,4.79,0,0,1,.93.09,5.94,5.94,0,0,1,.84.23,3.8,3.8,0,0,1,.68.32,2.34,2.34,0,0,1,.41.29,1,1,0,0,1,.15.18.57.57,0,0,1,.06.14,1.36,1.36,0,0,1,0,.19,2.31,2.31,0,0,1,0,.26,2.05,2.05,0,0,1,0,.29.8.8,0,0,1-.05.2.3.3,0,0,1-.08.12.18.18,0,0,1-.12,0,.64.64,0,0,1-.33-.17,5.54,5.54,0,0,0-.55-.37,4.51,4.51,0,0,0-.82-.37,3.59,3.59,0,0,0-1.16-.17,3,3,0,0,0-1.34.29,2.84,2.84,0,0,0-1,.87,4.25,4.25,0,0,0-.67,1.4,7.67,7.67,0,0,0,0,3.74,3.86,3.86,0,0,0,.65,1.35,2.73,2.73,0,0,0,1,.82,3.37,3.37,0,0,0,1.4.28,3.7,3.7,0,0,0,1.15-.16,4.5,4.5,0,0,0,.84-.36,6.54,6.54,0,0,0,.57-.36.68.68,0,0,1,.35-.16l.1,0a.18.18,0,0,1,.07.1.87.87,0,0,1,0,.2C472.21,259.66,472.21,259.76,472.21,259.9Z"/><path class="cls-33" d="M486.17,261.24a.21.21,0,0,1,0,.12.23.23,0,0,1-.12.08l-.22.05-.36,0-.35,0-.23-.05a.23.23,0,0,1-.12-.08.21.21,0,0,1,0-.12v-9.62h0l-3.89,9.66a.29.29,0,0,1-.07.1.38.38,0,0,1-.14.07l-.21,0h-.29l-.31,0-.21,0a.38.38,0,0,1-.13-.07.23.23,0,0,1-.06-.09l-3.72-9.66h0v9.62a.21.21,0,0,1,0,.12.23.23,0,0,1-.12.08l-.23.05-.36,0-.35,0-.22-.05a.21.21,0,0,1-.11-.08.23.23,0,0,1,0-.12V251.08a.62.62,0,0,1,.19-.51.66.66,0,0,1,.42-.15h.9a2,2,0,0,1,.49.05,1.07,1.07,0,0,1,.36.16.94.94,0,0,1,.26.28,2,2,0,0,1,.18.4l3.16,8h0l3.29-8a2.36,2.36,0,0,1,.21-.44,1.13,1.13,0,0,1,.25-.29.85.85,0,0,1,.3-.15,1.4,1.4,0,0,1,.38,0h.95a.79.79,0,0,1,.25,0,.5.5,0,0,1,.2.12.61.61,0,0,1,.13.2.79.79,0,0,1,.05.3Z"/><path class="cls-33" d="M496,251a2,2,0,0,1,0,.28.6.6,0,0,1-.06.19.27.27,0,0,1-.09.11.23.23,0,0,1-.12,0h-3.11v9.58a.21.21,0,0,1,0,.12.22.22,0,0,1-.12.08l-.23.05-.35,0-.35,0-.23-.05a.23.23,0,0,1-.12-.08.21.21,0,0,1,0-.12v-9.58h-3.11a.23.23,0,0,1-.12,0,.24.24,0,0,1-.09-.11.78.78,0,0,1-.06-.19,1.62,1.62,0,0,1,0-.28,1.7,1.7,0,0,1,0-.29.86.86,0,0,1,.06-.2.22.22,0,0,1,.21-.14h7.68a.23.23,0,0,1,.12,0,.26.26,0,0,1,.09.11.66.66,0,0,1,.06.2A2.06,2.06,0,0,1,496,251Z"/><path class="cls-33" d="M499.09,261.24a.21.21,0,0,1,0,.12.23.23,0,0,1-.12.08l-.23.05-.35,0-.35,0-.23-.05a.22.22,0,0,1-.12-.08.21.21,0,0,1,0-.12v-10.6a.19.19,0,0,1,0-.12.25.25,0,0,1,.13-.08l.23-.05.34,0,.35,0,.23.05a.23.23,0,0,1,.12.08.21.21,0,0,1,0,.12Z"/><path class="cls-33" d="M509.3,264a1,1,0,0,1-.07.44.23.23,0,0,1-.21.14H500.8a.24.24,0,0,1-.22-.13.87.87,0,0,1-.08-.43,1,1,0,0,1,.08-.43.24.24,0,0,1,.22-.15H509a.23.23,0,0,1,.21.14A1,1,0,0,1,509.3,264Z"/><path class="cls-33" d="M520,255.81a8.57,8.57,0,0,1-.32,2.42,5.05,5.05,0,0,1-.94,1.83,4.11,4.11,0,0,1-1.57,1.16,5.58,5.58,0,0,1-2.21.41,5.69,5.69,0,0,1-2.16-.37,3.79,3.79,0,0,1-1.5-1.08,4.6,4.6,0,0,1-.88-1.76,9.09,9.09,0,0,1-.29-2.42,8.33,8.33,0,0,1,.32-2.37,4.94,4.94,0,0,1,.95-1.81,4.2,4.2,0,0,1,1.58-1.15,6.28,6.28,0,0,1,4.34,0,3.84,3.84,0,0,1,1.51,1.07,4.54,4.54,0,0,1,.9,1.74A8.72,8.72,0,0,1,520,255.81Zm-1.55.1a8.64,8.64,0,0,0-.17-1.75,4,4,0,0,0-.55-1.4,2.67,2.67,0,0,0-1-.93,3.47,3.47,0,0,0-1.6-.33,3.27,3.27,0,0,0-1.6.36,3,3,0,0,0-1.05,1,4,4,0,0,0-.58,1.4,7.85,7.85,0,0,0-.17,1.68,9.26,9.26,0,0,0,.16,1.79,4,4,0,0,0,.55,1.41,2.61,2.61,0,0,0,1,.92,3.53,3.53,0,0,0,1.62.33,3.35,3.35,0,0,0,1.62-.36,2.92,2.92,0,0,0,1.06-1,4.09,4.09,0,0,0,.57-1.41A8.16,8.16,0,0,0,518.44,255.91Z"/><path class="cls-33" d="M533.67,261.24a.19.19,0,0,1,0,.12.26.26,0,0,1-.12.08l-.22.05-.35,0-.34,0a.88.88,0,0,1-.22-.05.23.23,0,0,1-.11-.08.21.21,0,0,1,0-.12v-6.73H528.8v6.73a.19.19,0,0,1,0,.12.27.27,0,0,1-.12.08l-.22.05-.34,0-.34,0-.22-.05a.26.26,0,0,1-.12-.08.19.19,0,0,1,0-.12v-6.73h-3.45v6.73a.19.19,0,0,1,0,.12.27.27,0,0,1-.12.08l-.22.05-.34,0-.34,0-.22-.05a.27.27,0,0,1-.12-.08.19.19,0,0,1,0-.12v-6.73h-1.08a.22.22,0,0,1-.2-.14,1.05,1.05,0,0,1-.07-.44,1.81,1.81,0,0,1,0-.27.66.66,0,0,1,.05-.18.22.22,0,0,1,.09-.1.23.23,0,0,1,.12,0h1.08v-.73a5.26,5.26,0,0,1,.15-1.36,2.42,2.42,0,0,1,.46-.93,1.83,1.83,0,0,1,.76-.54,3.33,3.33,0,0,1,1.72-.11,2.89,2.89,0,0,1,.41.12.59.59,0,0,1,.18.11.41.41,0,0,1,.09.13.7.7,0,0,1,0,.2,2.5,2.5,0,0,1,0,.28,1.33,1.33,0,0,1,0,.4.16.16,0,0,1-.15.12.41.41,0,0,1-.16,0l-.23-.08-.31-.09a1.83,1.83,0,0,0-.39,0,1,1,0,0,0-.89.44,2.86,2.86,0,0,0-.26,1.39v.74h3.45v-.83a5.12,5.12,0,0,1,.16-1.36,2.53,2.53,0,0,1,.46-.93,1.77,1.77,0,0,1,.75-.54,2.8,2.8,0,0,1,1-.17l.38,0,.34.05.26.07a.42.42,0,0,1,.16.08l.07.09a.62.62,0,0,1,0,.12.8.8,0,0,1,0,.17c0,.07,0,.15,0,.25a1.29,1.29,0,0,1,0,.39.16.16,0,0,1-.15.12l-.14,0-.18-.06-.27-.06a2.15,2.15,0,0,0-.39,0,.89.89,0,0,0-.84.44,2.91,2.91,0,0,0-.25,1.39v.84h4.43a.4.4,0,0,1,.44.44Zm.15-10.27a1.76,1.76,0,0,1,0,.4.53.53,0,0,1-.14.26.56.56,0,0,1-.26.14,1.7,1.7,0,0,1-.42,0,1.66,1.66,0,0,1-.41,0,.51.51,0,0,1-.41-.4,1.59,1.59,0,0,1,0-.4,1.54,1.54,0,0,1,0-.4.63.63,0,0,1,.14-.26.51.51,0,0,1,.26-.14,1.83,1.83,0,0,1,.41,0,1.88,1.88,0,0,1,.42,0,.5.5,0,0,1,.26.14.59.59,0,0,1,.14.26A1.71,1.71,0,0,1,533.83,251Z"/><path class="cls-33" d="M541.79,260.08c0,.1,0,.18,0,.25a.9.9,0,0,1,0,.18.62.62,0,0,1-.05.13.85.85,0,0,1-.14.16,2.18,2.18,0,0,1-.36.26,3.53,3.53,0,0,1-.58.28,4.24,4.24,0,0,1-.7.2,3.83,3.83,0,0,1-.78.08,3.7,3.7,0,0,1-1.47-.27,2.77,2.77,0,0,1-1.07-.8,3.61,3.61,0,0,1-.66-1.29,6.22,6.22,0,0,1-.23-1.76,6.07,6.07,0,0,1,.28-2,3.66,3.66,0,0,1,.76-1.34,3,3,0,0,1,1.14-.77,3.89,3.89,0,0,1,1.41-.25,3.64,3.64,0,0,1,.71.07,3.9,3.9,0,0,1,.64.18,2.85,2.85,0,0,1,.52.26,2.1,2.1,0,0,1,.33.25,1.11,1.11,0,0,1,.14.16.6.6,0,0,1,.06.14.86.86,0,0,1,0,.18c0,.07,0,.15,0,.26a1,1,0,0,1-.08.47.22.22,0,0,1-.19.13.49.49,0,0,1-.29-.14,4.84,4.84,0,0,0-.42-.31,3.25,3.25,0,0,0-.62-.31,2.37,2.37,0,0,0-.86-.14,1.78,1.78,0,0,0-1.56.78,4,4,0,0,0-.54,2.27,5.37,5.37,0,0,0,.14,1.3,2.7,2.7,0,0,0,.41.94,1.71,1.71,0,0,0,.67.56,2.13,2.13,0,0,0,.91.18,2.2,2.2,0,0,0,.85-.15,3.55,3.55,0,0,0,.64-.34l.45-.33a.54.54,0,0,1,.29-.15.16.16,0,0,1,.1,0,.26.26,0,0,1,.07.12.86.86,0,0,1,0,.2C541.79,259.86,541.79,260,541.79,260.08Z"/><path class="cls-33" d="M545.23,251a.93.93,0,0,1-.19.67,1,1,0,0,1-.69.18,1,1,0,0,1-.68-.17.91.91,0,0,1-.18-.66.93.93,0,0,1,.19-.67,1,1,0,0,1,.69-.18,1,1,0,0,1,.68.18A.91.91,0,0,1,545.23,251Zm-.16,10.28a.19.19,0,0,1,0,.12.27.27,0,0,1-.11.08.81.81,0,0,1-.21.05l-.35,0-.34,0-.22-.05a.23.23,0,0,1-.11-.08.21.21,0,0,1,0-.12v-7.68a.22.22,0,0,1,0-.11.23.23,0,0,1,.11-.09l.22-.05.34,0,.35,0a.81.81,0,0,1,.21.05.26.26,0,0,1,.11.09.2.2,0,0,1,0,.11Z"/><path class="cls-33" d="M553.46,261.25a.18.18,0,0,1-.07.15.47.47,0,0,1-.19.08,1.75,1.75,0,0,1-.35,0,1.9,1.9,0,0,1-.35,0,.41.41,0,0,1-.19-.08.19.19,0,0,1-.06-.15v-.77a3.78,3.78,0,0,1-1.12.84,3,3,0,0,1-1.31.3,3.57,3.57,0,0,1-1.1-.16,2.36,2.36,0,0,1-.84-.46,2,2,0,0,1-.54-.73,2.43,2.43,0,0,1-.19-1,2.29,2.29,0,0,1,.26-1.13,2.21,2.21,0,0,1,.76-.79,3.75,3.75,0,0,1,1.21-.47,7.51,7.51,0,0,1,1.61-.16h1.06v-.6a3,3,0,0,0-.09-.79,1.35,1.35,0,0,0-.3-.57,1.31,1.31,0,0,0-.54-.34,2.55,2.55,0,0,0-.82-.12,3.28,3.28,0,0,0-.93.12,5,5,0,0,0-.73.27l-.52.27a.72.72,0,0,1-.31.12.21.21,0,0,1-.12,0,.29.29,0,0,1-.09-.1.52.52,0,0,1-.06-.17,1.45,1.45,0,0,1,0-.23,1.49,1.49,0,0,1,0-.34.49.49,0,0,1,.15-.24,1.84,1.84,0,0,1,.4-.26,4.3,4.3,0,0,1,.65-.27,5.77,5.77,0,0,1,.8-.21,4.82,4.82,0,0,1,.88-.08,4.62,4.62,0,0,1,1.41.19,2.28,2.28,0,0,1,.94.55,2.13,2.13,0,0,1,.52.9,4.37,4.37,0,0,1,.16,1.25Zm-1.4-3.51h-1.2a4.54,4.54,0,0,0-1,.1,2.07,2.07,0,0,0-.71.29,1.2,1.2,0,0,0-.41.46,1.38,1.38,0,0,0-.13.62,1.24,1.24,0,0,0,.38,1,1.5,1.5,0,0,0,1.06.35,2,2,0,0,0,1-.28,4.43,4.43,0,0,0,1-.86Z"/><path class="cls-33" d="M557.46,261.24a.19.19,0,0,1,0,.12.27.27,0,0,1-.11.08.81.81,0,0,1-.21.05l-.35,0-.34,0-.22-.05a.23.23,0,0,1-.11-.08.21.21,0,0,1,0-.12v-11.4a.23.23,0,0,1,0-.12.23.23,0,0,1,.11-.09l.22-.05.34,0,.35,0a.81.81,0,0,1,.21.05.26.26,0,0,1,.11.09.21.21,0,0,1,0,.12Z"/><circle class="cls-33" cx="50.33" cy="257.6" r="11.8"/><path class="cls-36" d="M42,257.6A8.37,8.37,0,1,1,50.33,266,8.36,8.36,0,0,1,42,257.6ZM57.59,257h0a7.24,7.24,0,0,0-1.5-3.87.18.18,0,0,0-.17,0l-.61.25-1,.36a15.71,15.71,0,0,1,.5,3.28Zm-14.49,1.13h0a.19.19,0,0,0,0,0A7.18,7.18,0,0,0,44.58,262a.19.19,0,0,0,.17,0l1-.39.64-.23a15.59,15.59,0,0,1-.5-3.28Zm11.71,0h0a15.73,15.73,0,0,1-.5,3.27l1.75.65a7.27,7.27,0,0,0,1.54-3.92Zm-8.53-4.46h0l-1.55-.59a.19.19,0,0,0-.16.08c-.28.47-.59.93-.83,1.42a7.45,7.45,0,0,0-.65,2.42h2.74l.45-3.32Zm7,7.48h0a16.17,16.17,0,0,0,.44-3H50.9v2.76l2.34.27ZM47.42,254h0a16.13,16.13,0,0,0-.44,3h2.78v-2.76L47.42,254Zm6.26,3h0a15.34,15.34,0,0,0-.44-3l-2.34.29V257ZM47,258.16h0a15.8,15.8,0,0,0,.44,3l2.34-.28v-2.74Zm.84-5.26h0a7.05,7.05,0,0,0,1.94.21v-2.66a4.44,4.44,0,0,0-1.94,2.45Zm3.08,11.85h0a4.49,4.49,0,0,0,2-2.49l-2-.23v2.72Zm-1.14,0h0V262l-2,.22a4.49,4.49,0,0,0,2,2.48Zm1.14-14.3h0v2.7l2-.22a4.49,4.49,0,0,0-2-2.48Zm4.3,1.8h0a6.42,6.42,0,0,0-2.14-1.32L54,252.7l1.21-.45Zm-7.6,12h0l-.93-1.77-1.2.45a6.38,6.38,0,0,0,2.14,1.32Zm5.47,0h0A6.8,6.8,0,0,0,55.21,263l-1.14-.39a.17.17,0,0,0-.15.08,9.4,9.4,0,0,1-.85,1.63ZM47.6,250.89h0a6,6,0,0,0-2.14,1.37l1.13.35c.1,0,.13,0,.17-.1A8.4,8.4,0,0,1,47.6,250.89Z"/><path class="cls-33" d="M82.51,253.48a.72.72,0,0,1,0,.14,1.78,1.78,0,0,1-.06.21l-2.26,7.3a.36.36,0,0,1-.08.15.37.37,0,0,1-.15.09,1.08,1.08,0,0,1-.27,0h-.43l-.44,0-.29-.05a.34.34,0,0,1-.16-.09.39.39,0,0,1-.08-.14l-1.61-5.57,0-.08,0,.08-1.49,5.57a.36.36,0,0,1-.08.15.37.37,0,0,1-.17.09,1.3,1.3,0,0,1-.29,0h-.43l-.43,0-.27-.05a.34.34,0,0,1-.16-.09.39.39,0,0,1-.08-.14L71,253.84a1.69,1.69,0,0,1-.06-.21.72.72,0,0,1,0-.14.2.2,0,0,1,0-.12.24.24,0,0,1,.12-.08.81.81,0,0,1,.22,0H72l.22,0a.22.22,0,0,1,.11.09.66.66,0,0,1,.06.13l1.85,6.33,0,.08,0-.08L76,253.5a.37.37,0,0,1,.06-.13.25.25,0,0,1,.12-.09l.21,0H77l.21,0a.23.23,0,0,1,.11.08.39.39,0,0,1,.05.12l1.83,6.35,0,.08v-.08l1.83-6.33a.37.37,0,0,1,.06-.13.24.24,0,0,1,.12-.09l.22,0h.69a.57.57,0,0,1,.2,0,.25.25,0,0,1,.1.08A.21.21,0,0,1,82.51,253.48Z"/><path class="cls-33" d="M95.07,253.48a.72.72,0,0,1,0,.14,1.78,1.78,0,0,1-.06.21l-2.26,7.3a.36.36,0,0,1-.08.15.37.37,0,0,1-.15.09,1.08,1.08,0,0,1-.27,0H91.8l-.44,0-.29-.05a.34.34,0,0,1-.16-.09.39.39,0,0,1-.08-.14l-1.61-5.57,0-.08,0,.08-1.49,5.57a.36.36,0,0,1-.08.15.37.37,0,0,1-.17.09,1.3,1.3,0,0,1-.29,0h-.43l-.43,0-.27-.05a.34.34,0,0,1-.16-.09.39.39,0,0,1-.08-.14l-2.25-7.3a1.69,1.69,0,0,1-.06-.21.72.72,0,0,1,0-.14.2.2,0,0,1,0-.12.24.24,0,0,1,.12-.08.81.81,0,0,1,.22,0h.72l.22,0a.22.22,0,0,1,.11.09.66.66,0,0,1,.06.13l1.85,6.33,0,.08,0-.08,1.7-6.33a.37.37,0,0,1,.06-.13.25.25,0,0,1,.12-.09l.21,0h.68l.21,0a.23.23,0,0,1,.11.08.39.39,0,0,1,.05.12l1.83,6.35,0,.08v-.08l1.83-6.33a.37.37,0,0,1,.06-.13.24.24,0,0,1,.12-.09l.22,0h.69a.57.57,0,0,1,.2,0,.25.25,0,0,1,.1.08A.21.21,0,0,1,95.07,253.48Z"/><path class="cls-33" d="M107.64,253.48a.72.72,0,0,1,0,.14,1.78,1.78,0,0,1-.06.21l-2.26,7.3a.36.36,0,0,1-.08.15.37.37,0,0,1-.15.09,1.08,1.08,0,0,1-.27,0h-.43l-.44,0-.29-.05a.34.34,0,0,1-.16-.09.39.39,0,0,1-.08-.14l-1.61-5.57,0-.08,0,.08-1.49,5.57a.36.36,0,0,1-.08.15.37.37,0,0,1-.17.09,1.3,1.3,0,0,1-.29,0H99.3l-.43,0-.27-.05a.34.34,0,0,1-.16-.09.39.39,0,0,1-.08-.14l-2.25-7.3a1.69,1.69,0,0,1-.06-.21.72.72,0,0,1,0-.14.2.2,0,0,1,0-.12.24.24,0,0,1,.12-.08.81.81,0,0,1,.22,0h.72l.22,0a.22.22,0,0,1,.11.09.66.66,0,0,1,.06.13l1.85,6.33,0,.08,0-.08,1.7-6.33a.37.37,0,0,1,.06-.13.25.25,0,0,1,.12-.09l.21,0h.68l.21,0a.23.23,0,0,1,.11.08.39.39,0,0,1,.05.12l1.83,6.35,0,.08v-.08l1.83-6.33a.37.37,0,0,1,.06-.13.24.24,0,0,1,.12-.09l.22,0h.69a.57.57,0,0,1,.2,0,.25.25,0,0,1,.1.08A.21.21,0,0,1,107.64,253.48Z"/><path class="cls-33" d="M110.09,260.46a1.17,1.17,0,0,1-.2.81,1,1,0,0,1-.73.2,1,1,0,0,1-.71-.2,1.14,1.14,0,0,1-.2-.79,1.17,1.17,0,0,1,.2-.81,1,1,0,0,1,.73-.2,1,1,0,0,1,.71.2A1.14,1.14,0,0,1,110.09,260.46Z"/><path class="cls-33" d="M119.75,257.22a6.93,6.93,0,0,1-.22,1.81,4,4,0,0,1-.64,1.36,2.87,2.87,0,0,1-1,.86,3.22,3.22,0,0,1-1.43.3,2.74,2.74,0,0,1-.63-.07,2.43,2.43,0,0,1-.57-.21,3.33,3.33,0,0,1-.55-.37c-.18-.15-.38-.32-.58-.52v3.84a.21.21,0,0,1,0,.12.25.25,0,0,1-.11.09.77.77,0,0,1-.21.05l-.35,0-.34,0a.84.84,0,0,1-.22-.05.22.22,0,0,1-.11-.09.23.23,0,0,1,0-.12V253.5a.26.26,0,0,1,0-.12.21.21,0,0,1,.1-.08.65.65,0,0,1,.2,0h.58a.64.64,0,0,1,.19,0,.23.23,0,0,1,.11.08.23.23,0,0,1,0,.12v1a8.18,8.18,0,0,1,.67-.62,4,4,0,0,1,.65-.44,3,3,0,0,1,.67-.26,3.2,3.2,0,0,1,2.16.23,2.7,2.7,0,0,1,1,.89,4,4,0,0,1,.54,1.31A7.09,7.09,0,0,1,119.75,257.22Zm-1.46.16a7.05,7.05,0,0,0-.09-1.14,3.29,3.29,0,0,0-.31-1,1.83,1.83,0,0,0-.59-.68,1.58,1.58,0,0,0-.92-.26,1.86,1.86,0,0,0-.54.08,2.23,2.23,0,0,0-.54.26,3.77,3.77,0,0,0-.58.46,7,7,0,0,0-.64.7v3.06A6.08,6.08,0,0,0,115.2,260a1.85,1.85,0,0,0,1.1.38,1.61,1.61,0,0,0,.91-.26,1.93,1.93,0,0,0,.62-.68,3.41,3.41,0,0,0,.35-1A5.13,5.13,0,0,0,118.29,257.38Z"/><path class="cls-33" d="M123.44,250.9a.93.93,0,0,1-.19.67,1,1,0,0,1-.69.18,1,1,0,0,1-.68-.17.91.91,0,0,1-.18-.66.93.93,0,0,1,.19-.67,1,1,0,0,1,.69-.18,1,1,0,0,1,.68.18A.91.91,0,0,1,123.44,250.9Zm-.16,10.28a.19.19,0,0,1,0,.12.27.27,0,0,1-.11.08.81.81,0,0,1-.21.05l-.35,0-.34,0-.22-.05a.23.23,0,0,1-.11-.08.21.21,0,0,1,0-.12V253.5a.22.22,0,0,1,0-.11.23.23,0,0,1,.11-.09l.22-.05.34,0,.35,0a.81.81,0,0,1,.21.05.26.26,0,0,1,.11.09.2.2,0,0,1,0,.11Z"/><path class="cls-33" d="M131.41,260c0,.1,0,.18,0,.25a.9.9,0,0,1,0,.18.62.62,0,0,1-.05.13.85.85,0,0,1-.14.16,2.18,2.18,0,0,1-.36.26,3.53,3.53,0,0,1-.58.28,4.24,4.24,0,0,1-.7.2,3.83,3.83,0,0,1-.78.08,3.7,3.7,0,0,1-1.47-.27,2.77,2.77,0,0,1-1.07-.8,3.61,3.61,0,0,1-.66-1.29,6.22,6.22,0,0,1-.23-1.76,6.07,6.07,0,0,1,.28-2,3.66,3.66,0,0,1,.76-1.34,3,3,0,0,1,1.14-.77,3.89,3.89,0,0,1,1.41-.25,3.64,3.64,0,0,1,.71.07,3.9,3.9,0,0,1,.64.18,2.85,2.85,0,0,1,.52.26,2.1,2.1,0,0,1,.33.25,1.11,1.11,0,0,1,.14.16.6.6,0,0,1,.06.14.86.86,0,0,1,0,.18c0,.07,0,.15,0,.26a1,1,0,0,1-.08.47.22.22,0,0,1-.19.13.49.49,0,0,1-.29-.14,4.84,4.84,0,0,0-.42-.31,3.25,3.25,0,0,0-.62-.31,2.37,2.37,0,0,0-.86-.14,1.78,1.78,0,0,0-1.56.78,4,4,0,0,0-.54,2.27,5.37,5.37,0,0,0,.14,1.3,2.7,2.7,0,0,0,.41.94,1.71,1.71,0,0,0,.67.56,2.13,2.13,0,0,0,.91.18,2.2,2.2,0,0,0,.85-.15,3.55,3.55,0,0,0,.64-.34l.45-.33a.54.54,0,0,1,.29-.15.16.16,0,0,1,.1,0,.26.26,0,0,1,.07.12.86.86,0,0,1,0,.2C131.4,259.8,131.41,259.89,131.41,260Z"/><path class="cls-33" d="M135.09,260.46a1.17,1.17,0,0,1-.2.81,1,1,0,0,1-.73.2,1,1,0,0,1-.71-.2,1.14,1.14,0,0,1-.2-.79,1.17,1.17,0,0,1,.2-.81,1,1,0,0,1,.73-.2,1,1,0,0,1,.71.2A1.14,1.14,0,0,1,135.09,260.46Z"/><path class="cls-33" d="M144.24,257a.59.59,0,0,1-.17.47.58.58,0,0,1-.38.14h-5.06a4.73,4.73,0,0,0,.13,1.15,2.22,2.22,0,0,0,.43.88,1.94,1.94,0,0,0,.78.56,3.11,3.11,0,0,0,1.18.2,4.82,4.82,0,0,0,1-.09,5.89,5.89,0,0,0,.74-.2l.51-.2a.85.85,0,0,1,.3-.09.2.2,0,0,1,.11,0,.19.19,0,0,1,.07.09.63.63,0,0,1,0,.17,2.3,2.3,0,0,1,0,.26c0,.07,0,.14,0,.19s0,.1,0,.15a.37.37,0,0,1,0,.12l-.08.1a1.26,1.26,0,0,1-.28.15,4,4,0,0,1-.6.21,8.22,8.22,0,0,1-.85.18,6.25,6.25,0,0,1-1,.08,4.75,4.75,0,0,1-1.66-.26,3.08,3.08,0,0,1-1.2-.79,3.35,3.35,0,0,1-.73-1.31,6.08,6.08,0,0,1-.25-1.83,5.77,5.77,0,0,1,.26-1.78,3.77,3.77,0,0,1,.74-1.34,3.22,3.22,0,0,1,1.17-.84,3.82,3.82,0,0,1,1.53-.29,3.7,3.7,0,0,1,1.54.29,2.92,2.92,0,0,1,1,.78,3.15,3.15,0,0,1,.6,1.15,5.05,5.05,0,0,1,.19,1.41Zm-1.42-.42a2.57,2.57,0,0,0-.49-1.74,1.88,1.88,0,0,0-1.54-.63,2,2,0,0,0-.92.2,2,2,0,0,0-.66.52,2.38,2.38,0,0,0-.41.75,3.17,3.17,0,0,0-.16.9Z"/><path class="cls-33" d="M153,261.18a.24.24,0,0,1,0,.12.2.2,0,0,1-.1.08l-.19,0-.29,0-.3,0-.2,0a.22.22,0,0,1-.11-.08.21.21,0,0,1,0-.12v-1a5.17,5.17,0,0,1-1.26,1,2.86,2.86,0,0,1-1.43.37,3,3,0,0,1-1.44-.33,2.72,2.72,0,0,1-1-.89,3.9,3.9,0,0,1-.54-1.31,7.2,7.2,0,0,1-.17-1.59,6.93,6.93,0,0,1,.21-1.79,4,4,0,0,1,.63-1.36,2.82,2.82,0,0,1,1-.87,3.22,3.22,0,0,1,1.43-.3,2.61,2.61,0,0,1,1.23.29,4.36,4.36,0,0,1,1.11.87v-4.46a.24.24,0,0,1,0-.12.19.19,0,0,1,.12-.08l.22-.05.34,0,.35,0,.21.05a.24.24,0,0,1,.12.08.2.2,0,0,1,0,.12Zm-1.42-5.4a5.6,5.6,0,0,0-1.11-1.08,1.93,1.93,0,0,0-1.11-.37,1.59,1.59,0,0,0-.91.26,2,2,0,0,0-.61.67,3.23,3.23,0,0,0-.34.95,5.43,5.43,0,0,0-.11,1.08,7.12,7.12,0,0,0,.09,1.13,3.28,3.28,0,0,0,.31,1,1.89,1.89,0,0,0,.59.69,1.55,1.55,0,0,0,.92.26,1.92,1.92,0,0,0,.54-.08,2.06,2.06,0,0,0,.53-.26,4.07,4.07,0,0,0,.57-.47,7,7,0,0,0,.63-.7Z"/><path class="cls-33" d="M162.15,261.18a.21.21,0,0,1,0,.12.24.24,0,0,1-.11.08l-.2.05-.3,0-.32,0-.2-.05a.21.21,0,0,1-.1-.08.23.23,0,0,1,0-.12v-1a4.77,4.77,0,0,1-1.3,1.06,2.79,2.79,0,0,1-1.3.33,2.93,2.93,0,0,1-1.29-.26,2.26,2.26,0,0,1-.85-.7,2.8,2.8,0,0,1-.47-1,6.16,6.16,0,0,1-.14-1.42V253.5a.21.21,0,0,1,0-.12.25.25,0,0,1,.12-.08.72.72,0,0,1,.22-.05h.68a.68.68,0,0,1,.22.05.3.3,0,0,1,.12.08.19.19,0,0,1,0,.12V258A4.74,4.74,0,0,0,157,259a2,2,0,0,0,.3.69,1.39,1.39,0,0,0,.51.44,1.54,1.54,0,0,0,.72.16,1.8,1.8,0,0,0,1.05-.38,6,6,0,0,0,1.11-1.1V253.5a.21.21,0,0,1,0-.12.26.26,0,0,1,.12-.08.71.71,0,0,1,.22-.05h.69a.63.63,0,0,1,.21.05.34.34,0,0,1,.12.08.18.18,0,0,1,0,.12Z"/><path class="cls-33" d="M166.58,260.46a1.17,1.17,0,0,1-.2.81,1,1,0,0,1-.73.2,1,1,0,0,1-.71-.2,1.14,1.14,0,0,1-.2-.79,1.17,1.17,0,0,1,.2-.81,1,1,0,0,1,.73-.2,1,1,0,0,1,.71.2A1.14,1.14,0,0,1,166.58,260.46Z"/><path class="cls-33" d="M176.24,257.22A6.93,6.93,0,0,1,176,259a4,4,0,0,1-.64,1.36,2.87,2.87,0,0,1-1,.86,3.22,3.22,0,0,1-1.43.3,2.74,2.74,0,0,1-.63-.07,2.43,2.43,0,0,1-.57-.21,3.33,3.33,0,0,1-.55-.37c-.18-.15-.38-.32-.58-.52v3.84a.21.21,0,0,1,0,.12.25.25,0,0,1-.11.09.77.77,0,0,1-.21.05l-.35,0-.34,0a.84.84,0,0,1-.22-.05.22.22,0,0,1-.11-.09.23.23,0,0,1,0-.12V253.5a.26.26,0,0,1,0-.12.21.21,0,0,1,.1-.08.65.65,0,0,1,.2,0h.58a.64.64,0,0,1,.19,0,.23.23,0,0,1,.11.08.23.23,0,0,1,0,.12v1a8.18,8.18,0,0,1,.67-.62,4,4,0,0,1,.65-.44,3,3,0,0,1,.67-.26,3.2,3.2,0,0,1,2.16.23,2.7,2.7,0,0,1,1,.89,4,4,0,0,1,.54,1.31A7.09,7.09,0,0,1,176.24,257.22Zm-1.46.16a7.05,7.05,0,0,0-.09-1.14,3.29,3.29,0,0,0-.31-1,1.83,1.83,0,0,0-.59-.68,1.58,1.58,0,0,0-.92-.26,1.86,1.86,0,0,0-.54.08,2.23,2.23,0,0,0-.54.26,3.77,3.77,0,0,0-.58.46,7,7,0,0,0-.64.7v3.06a6.08,6.08,0,0,0,1.11,1.08,1.85,1.85,0,0,0,1.1.38,1.61,1.61,0,0,0,.91-.26,1.93,1.93,0,0,0,.62-.68,3.41,3.41,0,0,0,.35-1A5.13,5.13,0,0,0,174.78,257.38Z"/><path class="cls-33" d="M184.66,261.17a.21.21,0,0,1,0,.12.25.25,0,0,1-.12.09.89.89,0,0,1-.23.05l-.37,0h-.38l-.25,0a.44.44,0,0,1-.17-.09.66.66,0,0,1-.12-.13l-3.24-4.25v4.26a.19.19,0,0,1,0,.12.27.27,0,0,1-.11.08.81.81,0,0,1-.21.05l-.35,0-.34,0-.22-.05a.23.23,0,0,1-.11-.08.21.21,0,0,1,0-.12v-11.4a.23.23,0,0,1,0-.12.23.23,0,0,1,.11-.09l.22-.05.34,0,.35,0a.81.81,0,0,1,.21.05.26.26,0,0,1,.11.09.21.21,0,0,1,0,.12v6.95l2.9-3.19a.77.77,0,0,1,.15-.14.73.73,0,0,1,.18-.09,1,1,0,0,1,.25-.05H184l.23,0a.28.28,0,0,1,.13.08.19.19,0,0,1,0,.12.42.42,0,0,1-.06.2,1.23,1.23,0,0,1-.18.24l-2.78,2.78,3.12,4.05a1.8,1.8,0,0,1,.16.23A.36.36,0,0,1,184.66,261.17Z"/><path class="cls-37" d="M234.46,257.82a11.8,11.8,0,1,0-13.64,11.65v-8.24h-3v-3.41h3v-2.6c0-3,1.76-4.59,4.46-4.59a18.17,18.17,0,0,1,2.64.23v2.9h-1.49a1.71,1.71,0,0,0-1.92,1.84v2.21h3.27l-.52,3.41h-2.75v8.24A11.8,11.8,0,0,0,234.46,257.82Z"/><path class="cls-37" d="M262.14,255.72a11.64,11.64,0,0,0-5.72-8.18,11.21,11.21,0,0,0-5-1.55l-.18,0h-1.47c-.42.06-.85.1-1.27.18a11.82,11.82,0,0,0-9.69,10c0,.28-.07.56-.1.84v1.47c.06.42.1.85.18,1.27a11.82,11.82,0,0,0,10.71,9.75l.18,0h1.47c.44-.06.88-.1,1.32-.18a11.63,11.63,0,0,0,7.79-5.13,11.37,11.37,0,0,0,1.91-5.57,1.25,1.25,0,0,1,0-.18V257C262.26,256.58,262.22,256.14,262.14,255.72Z"/><path class="cls-36" d="M256.76,259.68c0-.46,0-.92-.05-1.38a2.88,2.88,0,0,0-2.59-2.78,2.68,2.68,0,0,0-2.71,1.11l-.13.17v-1.1h-2.65v8h2.66v-.26c0-1.42,0-2.84,0-4.26a1.56,1.56,0,0,1,.5-1.2,1.31,1.31,0,0,1,2.22.62,3.67,3.67,0,0,1,.1.86c0,1.29,0,2.58,0,3.87v.36h2.67v-.26C256.76,262.19,256.77,260.93,256.76,259.68Z"/><path class="cls-36" d="M244.46,263.69h2.65v-8h-2.65Z"/><path class="cls-36" d="M246,251.82a1.5,1.5,0,0,0-1.68.91,1.53,1.53,0,1,0,1.68-.91Z"/><path class="cls-33" d="M271.3,264.11a.49.49,0,0,1-.09.17.35.35,0,0,1-.14.1l-.21.05-.3,0a1.78,1.78,0,0,1-.35,0,.58.58,0,0,1-.22-.09.22.22,0,0,1-.09-.14.31.31,0,0,1,0-.19l5.16-14.16a.48.48,0,0,1,.09-.17.4.4,0,0,1,.14-.1.65.65,0,0,1,.21-.05h.31a1.71,1.71,0,0,1,.35,0,.62.62,0,0,1,.21.08.21.21,0,0,1,.09.14.35.35,0,0,1,0,.2Z"/><path class="cls-33" d="M284.87,254.24a3.9,3.9,0,0,1-.27,1.49,3.15,3.15,0,0,1-.78,1.14,3.49,3.49,0,0,1-1.25.73,5.39,5.39,0,0,1-1.76.26h-1.25v4a.19.19,0,0,1,0,.12.25.25,0,0,1-.12.08l-.22.05-.35,0-.35,0-.23-.05a.22.22,0,0,1-.12-.08.21.21,0,0,1,0-.12V251.64a.59.59,0,0,1,.18-.49.62.62,0,0,1,.4-.14H281q.36,0,.69,0a6.58,6.58,0,0,1,.78.13,3.21,3.21,0,0,1,.91.37,2.9,2.9,0,0,1,.79.66,2.84,2.84,0,0,1,.5.91A3.53,3.53,0,0,1,284.87,254.24Zm-1.55.12a2.3,2.3,0,0,0-.25-1.13,1.75,1.75,0,0,0-.62-.67,2.09,2.09,0,0,0-.77-.28,5.3,5.3,0,0,0-.77-.06h-1.36v4.43h1.32a3.07,3.07,0,0,0,1.11-.17,2.08,2.08,0,0,0,.74-.47,2,2,0,0,0,.45-.73A2.68,2.68,0,0,0,283.33,254.36Z"/><path class="cls-33" d="M288.59,261.83a.21.21,0,0,1,0,.12.23.23,0,0,1-.12.08l-.23.05-.35,0-.35,0-.23-.05a.22.22,0,0,1-.12-.08.21.21,0,0,1,0-.12v-10.6a.19.19,0,0,1,0-.12.25.25,0,0,1,.13-.08l.23-.05.34,0,.35,0,.23.05a.23.23,0,0,1,.12.08.21.21,0,0,1,0,.12Z"/><path class="cls-33" d="M298.9,260.49c0,.09,0,.17,0,.24a1,1,0,0,1,0,.18.62.62,0,0,1-.06.14.78.78,0,0,1-.12.14,2.56,2.56,0,0,1-.36.26,4.31,4.31,0,0,1-.68.34,5.65,5.65,0,0,1-.93.28,5.34,5.34,0,0,1-1.15.12,5.05,5.05,0,0,1-1.94-.36,3.92,3.92,0,0,1-1.48-1.06,4.83,4.83,0,0,1-.94-1.73,8.68,8.68,0,0,1,0-4.82,5.33,5.33,0,0,1,1-1.82,4.25,4.25,0,0,1,1.53-1.14,4.85,4.85,0,0,1,2-.39,4.79,4.79,0,0,1,.93.09,5.94,5.94,0,0,1,.84.23,3.8,3.8,0,0,1,.68.32,2.34,2.34,0,0,1,.41.29,1,1,0,0,1,.15.18.57.57,0,0,1,.06.14,1.36,1.36,0,0,1,0,.19,2.31,2.31,0,0,1,0,.26,2.05,2.05,0,0,1,0,.29.8.8,0,0,1-.05.2.3.3,0,0,1-.08.12.18.18,0,0,1-.12,0,.64.64,0,0,1-.33-.17,5.54,5.54,0,0,0-.55-.37,4.51,4.51,0,0,0-.82-.37,3.59,3.59,0,0,0-1.16-.17,3,3,0,0,0-1.34.29,2.84,2.84,0,0,0-1,.87,4.25,4.25,0,0,0-.67,1.4,7.67,7.67,0,0,0,0,3.74,3.86,3.86,0,0,0,.65,1.35,2.73,2.73,0,0,0,1,.82,3.37,3.37,0,0,0,1.4.28,3.7,3.7,0,0,0,1.15-.16,4.5,4.5,0,0,0,.84-.36,6.54,6.54,0,0,0,.57-.36.68.68,0,0,1,.35-.16l.1,0a.18.18,0,0,1,.07.1.87.87,0,0,1,0,.2C298.89,260.25,298.9,260.36,298.9,260.49Z"/><path class="cls-33" d="M312.85,261.83a.21.21,0,0,1,0,.12.23.23,0,0,1-.12.08l-.22.05-.36,0-.35,0-.23-.05a.23.23,0,0,1-.12-.08.21.21,0,0,1,0-.12v-9.62h0l-3.89,9.66a.29.29,0,0,1-.07.1.38.38,0,0,1-.14.07l-.21,0h-.29l-.31,0-.21,0a.38.38,0,0,1-.13-.07.23.23,0,0,1-.06-.09l-3.72-9.66h0v9.62a.21.21,0,0,1,0,.12.23.23,0,0,1-.12.08l-.23.05-.36,0-.35,0L301,262a.21.21,0,0,1-.11-.08.23.23,0,0,1,0-.12V251.67a.62.62,0,0,1,.19-.51.66.66,0,0,1,.42-.15h.9a2,2,0,0,1,.49.05,1.07,1.07,0,0,1,.36.16.94.94,0,0,1,.26.28,2,2,0,0,1,.18.4l3.16,8h0l3.29-8a2.36,2.36,0,0,1,.21-.44,1.13,1.13,0,0,1,.25-.29.85.85,0,0,1,.3-.15,1.4,1.4,0,0,1,.38,0h.95a.79.79,0,0,1,.25,0,.5.5,0,0,1,.2.12.61.61,0,0,1,.13.2.79.79,0,0,1,.05.3Z"/><path class="cls-33" d="M322.71,251.64a2,2,0,0,1,0,.28.6.6,0,0,1-.06.19.27.27,0,0,1-.09.11.23.23,0,0,1-.12,0h-3.11v9.58a.21.21,0,0,1,0,.12.22.22,0,0,1-.12.08l-.23.05-.35,0-.35,0L318,262a.23.23,0,0,1-.12-.08.21.21,0,0,1,0-.12v-9.58h-3.11a.23.23,0,0,1-.12,0,.24.24,0,0,1-.09-.11.78.78,0,0,1-.06-.19,1.62,1.62,0,0,1,0-.28,1.7,1.7,0,0,1,0-.29.86.86,0,0,1,.06-.2.22.22,0,0,1,.21-.14h7.68a.23.23,0,0,1,.12,0,.26.26,0,0,1,.09.11.66.66,0,0,1,.06.2A2.06,2.06,0,0,1,322.71,251.64Z"/><path class="cls-33" d="M325.78,261.83a.21.21,0,0,1,0,.12.23.23,0,0,1-.12.08l-.23.05-.35,0-.35,0-.23-.05a.22.22,0,0,1-.12-.08.21.21,0,0,1,0-.12v-10.6a.19.19,0,0,1,0-.12.25.25,0,0,1,.13-.08l.23-.05.34,0,.35,0,.23.05a.23.23,0,0,1,.12.08.21.21,0,0,1,0,.12Z"/><path class="cls-33" d="M338,256.4a8.57,8.57,0,0,1-.32,2.42,5.05,5.05,0,0,1-.94,1.83,4.11,4.11,0,0,1-1.57,1.16,5.58,5.58,0,0,1-2.21.41,5.69,5.69,0,0,1-2.16-.37,3.79,3.79,0,0,1-1.5-1.08,4.6,4.6,0,0,1-.88-1.76,9.09,9.09,0,0,1-.29-2.42,8.33,8.33,0,0,1,.32-2.37,4.94,4.94,0,0,1,.95-1.81,4.2,4.2,0,0,1,1.58-1.15,6.28,6.28,0,0,1,4.34,0,3.84,3.84,0,0,1,1.51,1.07,4.54,4.54,0,0,1,.9,1.74A8.72,8.72,0,0,1,338,256.4Zm-1.55.1a8.64,8.64,0,0,0-.17-1.75,4,4,0,0,0-.55-1.4,2.67,2.67,0,0,0-1-.93,3.47,3.47,0,0,0-1.6-.33,3.27,3.27,0,0,0-1.6.36,3,3,0,0,0-1.05,1,4,4,0,0,0-.58,1.4,7.85,7.85,0,0,0-.17,1.68,9.26,9.26,0,0,0,.16,1.79,4,4,0,0,0,.55,1.41,2.61,2.61,0,0,0,1,.92,3.53,3.53,0,0,0,1.62.33,3.35,3.35,0,0,0,1.62-.36,2.92,2.92,0,0,0,1.06-1,4.09,4.09,0,0,0,.57-1.41A8.16,8.16,0,0,0,336.41,256.5Z"/><path class="cls-33" d="M351.65,261.84a.19.19,0,0,1,0,.12.26.26,0,0,1-.12.08l-.22.05-.35,0-.34,0a.88.88,0,0,1-.22-.05.23.23,0,0,1-.11-.08.21.21,0,0,1,0-.12V255.1h-3.46v6.73a.19.19,0,0,1,0,.12.27.27,0,0,1-.12.08l-.22.05-.34,0-.34,0-.22-.05a.26.26,0,0,1-.12-.08.19.19,0,0,1,0-.12V255.1h-3.45v6.73a.19.19,0,0,1,0,.12.27.27,0,0,1-.12.08l-.22.05-.34,0-.34,0-.22-.05a.27.27,0,0,1-.12-.08.19.19,0,0,1,0-.12V255.1h-1.08a.22.22,0,0,1-.2-.14,1.05,1.05,0,0,1-.07-.44,1.81,1.81,0,0,1,0-.27.66.66,0,0,1,.05-.18.22.22,0,0,1,.09-.1.23.23,0,0,1,.12,0h1.08v-.73a5.26,5.26,0,0,1,.15-1.36,2.42,2.42,0,0,1,.46-.93,1.83,1.83,0,0,1,.76-.54,3.33,3.33,0,0,1,1.72-.11,2.89,2.89,0,0,1,.41.12.59.59,0,0,1,.18.11.41.41,0,0,1,.09.13.7.7,0,0,1,0,.2,2.5,2.5,0,0,1,0,.28,1.33,1.33,0,0,1,0,.4.16.16,0,0,1-.15.12.41.41,0,0,1-.16,0l-.23-.08-.31-.09a1.83,1.83,0,0,0-.39,0,1,1,0,0,0-.89.44,2.86,2.86,0,0,0-.26,1.39v.74h3.45v-.83a5.12,5.12,0,0,1,.16-1.36,2.53,2.53,0,0,1,.46-.93,1.77,1.77,0,0,1,.75-.54,2.8,2.8,0,0,1,1-.17l.38,0,.34.05.26.07a.42.42,0,0,1,.16.08l.07.09a.62.62,0,0,1,0,.12.8.8,0,0,1,0,.17c0,.07,0,.15,0,.25a1.29,1.29,0,0,1,0,.39.16.16,0,0,1-.15.12l-.14,0-.18-.06-.27-.06a2.15,2.15,0,0,0-.39,0,.89.89,0,0,0-.84.44,2.91,2.91,0,0,0-.25,1.39v.84h4.43a.4.4,0,0,1,.44.44Zm.15-10.27a1.76,1.76,0,0,1,0,.4.53.53,0,0,1-.14.26.56.56,0,0,1-.26.14,1.7,1.7,0,0,1-.42,0,1.66,1.66,0,0,1-.41,0,.51.51,0,0,1-.41-.4,1.59,1.59,0,0,1,0-.4,1.54,1.54,0,0,1,0-.4.63.63,0,0,1,.14-.26.51.51,0,0,1,.26-.14,1.83,1.83,0,0,1,.41,0,1.88,1.88,0,0,1,.42,0,.5.5,0,0,1,.26.14.59.59,0,0,1,.14.26A1.71,1.71,0,0,1,351.81,251.57Z"/><path class="cls-33" d="M359.77,260.67c0,.1,0,.18,0,.25a.9.9,0,0,1,0,.18.62.62,0,0,1-.05.13.85.85,0,0,1-.14.16,2.18,2.18,0,0,1-.36.26,3.53,3.53,0,0,1-.58.28,4.24,4.24,0,0,1-.7.2,3.83,3.83,0,0,1-.78.08,3.7,3.7,0,0,1-1.47-.27,2.77,2.77,0,0,1-1.07-.8,3.61,3.61,0,0,1-.66-1.29,6.22,6.22,0,0,1-.23-1.76,6.07,6.07,0,0,1,.28-2,3.66,3.66,0,0,1,.76-1.34,3,3,0,0,1,1.14-.77,3.89,3.89,0,0,1,1.41-.25,3.64,3.64,0,0,1,.71.07,3.9,3.9,0,0,1,.64.18,2.85,2.85,0,0,1,.52.26,2.1,2.1,0,0,1,.33.25,1.11,1.11,0,0,1,.14.16.6.6,0,0,1,.06.14.86.86,0,0,1,0,.18c0,.07,0,.15,0,.26a1,1,0,0,1-.08.47.22.22,0,0,1-.19.13.49.49,0,0,1-.29-.14,4.84,4.84,0,0,0-.42-.31,3.25,3.25,0,0,0-.62-.31,2.37,2.37,0,0,0-.86-.14,1.78,1.78,0,0,0-1.56.78,4,4,0,0,0-.54,2.27,5.37,5.37,0,0,0,.14,1.3,2.7,2.7,0,0,0,.41.94,1.71,1.71,0,0,0,.67.56,2.13,2.13,0,0,0,.91.18,2.2,2.2,0,0,0,.85-.15,3.55,3.55,0,0,0,.64-.34l.45-.33a.54.54,0,0,1,.29-.15.16.16,0,0,1,.1,0,.26.26,0,0,1,.07.12.86.86,0,0,1,0,.2C359.77,260.46,359.77,260.55,359.77,260.67Z"/><path class="cls-33" d="M363.21,251.56a.93.93,0,0,1-.19.67,1,1,0,0,1-.69.18,1,1,0,0,1-.68-.17.91.91,0,0,1-.18-.66.93.93,0,0,1,.19-.67,1,1,0,0,1,.69-.18,1,1,0,0,1,.68.18A.91.91,0,0,1,363.21,251.56ZM363,261.84a.19.19,0,0,1,0,.12.27.27,0,0,1-.11.08.81.81,0,0,1-.21.05l-.35,0-.34,0-.22-.05a.23.23,0,0,1-.11-.08.21.21,0,0,1,0-.12v-7.68a.22.22,0,0,1,0-.11.23.23,0,0,1,.11-.09l.22-.05.34,0,.35,0a.81.81,0,0,1,.21.05.26.26,0,0,1,.11.09.2.2,0,0,1,0,.11Z"/><path class="cls-33" d="M371.44,261.85a.18.18,0,0,1-.07.15.47.47,0,0,1-.19.08,1.75,1.75,0,0,1-.35,0,1.9,1.9,0,0,1-.35,0,.41.41,0,0,1-.19-.08.19.19,0,0,1-.06-.15v-.77a3.78,3.78,0,0,1-1.12.84,3,3,0,0,1-1.31.3,3.57,3.57,0,0,1-1.1-.16,2.36,2.36,0,0,1-.84-.46,2,2,0,0,1-.54-.73,2.43,2.43,0,0,1-.19-1,2.29,2.29,0,0,1,.26-1.13,2.21,2.21,0,0,1,.76-.79,3.75,3.75,0,0,1,1.21-.47,7.51,7.51,0,0,1,1.61-.16H370v-.6a3,3,0,0,0-.09-.79,1.35,1.35,0,0,0-.3-.57,1.31,1.31,0,0,0-.54-.34,2.55,2.55,0,0,0-.82-.12,3.28,3.28,0,0,0-.93.12,5,5,0,0,0-.73.27l-.52.27a.72.72,0,0,1-.31.12.21.21,0,0,1-.12,0,.29.29,0,0,1-.09-.1.52.52,0,0,1-.06-.17,1.45,1.45,0,0,1,0-.23,1.49,1.49,0,0,1,0-.34.49.49,0,0,1,.15-.24,1.84,1.84,0,0,1,.4-.26,4.3,4.3,0,0,1,.65-.27,5.77,5.77,0,0,1,.8-.21,4.82,4.82,0,0,1,.88-.08,4.62,4.62,0,0,1,1.41.19,2.28,2.28,0,0,1,.94.55,2.13,2.13,0,0,1,.52.9,4.37,4.37,0,0,1,.16,1.25Zm-1.4-3.51h-1.2a4.54,4.54,0,0,0-1,.1,2.07,2.07,0,0,0-.71.29,1.2,1.2,0,0,0-.41.46,1.38,1.38,0,0,0-.13.62,1.24,1.24,0,0,0,.38,1,1.5,1.5,0,0,0,1.06.35,2,2,0,0,0,1-.28,4.43,4.43,0,0,0,1-.86Z"/><path class="cls-33" d="M375.43,261.84a.19.19,0,0,1,0,.12.27.27,0,0,1-.11.08.81.81,0,0,1-.21.05l-.35,0-.34,0-.22-.05a.23.23,0,0,1-.11-.08.21.21,0,0,1,0-.12v-11.4a.23.23,0,0,1,0-.12.23.23,0,0,1,.11-.09l.22-.05.34,0,.35,0a.81.81,0,0,1,.21.05.26.26,0,0,1,.11.09.21.21,0,0,1,0,.12Z"/></svg>