<?xml version="1.0" encoding="UTF-8"?>
<!DOCTYPE svg PUBLIC "-//W3C//DTD SVG 1.1//EN" "http://www.w3.org/Graphics/SVG/1.1/DTD/svg11.dtd">
<!-- Creator: CorelDRAW X7 -->
<svg xmlns="http://www.w3.org/2000/svg" xml:space="preserve" width="101.6mm" height="25.4mm" version="1.1" style="shape-rendering:geometricPrecision; text-rendering:geometricPrecision; image-rendering:optimizeQuality; fill-rule:evenodd; clip-rule:evenodd"
viewBox="0 0 10160 2540"
 xmlns:xlink="http://www.w3.org/1999/xlink">
 <defs>
  <style type="text/css">
   <![CDATA[
    .str0 {stroke:#FEFEFE;stroke-width:3.53}
    .fil11 {fill:none}
    .fil23 {fill:#FEFEFE}
    .fil13 {fill:#313E80}
    .fil8 {fill:#303C7A}
    .fil9 {fill:#2F3975}
    .fil10 {fill:#2D366F}
    .fil3 {fill:#33417D}
    .fil1 {fill:#37467F}
    .fil2 {fill:#36447A}
    .fil0 {fill:#37467A}
    .fil19 {fill:#010E54}
    .fil20 {fill:#030D54}
    .fil16 {fill:#030F57}
    .fil14 {fill:#06145F}
    .fil4 {fill:#071560}
    .fil18 {fill:#081563}
    .fil15 {fill:#081768}
    .fil12 {fill:#091665}
    .fil7 {fill:#091A6A}
    .fil5 {fill:#0A1B6D}
    .fil6 {fill:#0B1B70}
    .fil17 {fill:#0C1C71}
    .fil21 {fill:#491723}
    .fil22 {fill:#FEFEFE;fill-rule:nonzero}
   ]]>
  </style>
   <clipPath id="id0">
    <path d="M0 2540l10160 0 0 -2540 -10160 0 0 2540z"/>
   </clipPath>
 </defs>
 <g id="Layer_x0020_1">
  <metadata id="CorelCorpID_0Corel-Layer"/>
  <polygon class="fil0" points="0,2540 10160,2540 10160,0 0,0 "/>
  <g style="clip-path:url(#id0)">
   <g id="_3052998344448">
    <polygon id="1" class="fil1" points="9189,-608 9352,-515 9516,-421 9516,-233 9516,-46 9352,48 9189,142 9026,48 8862,-46 8862,-233 8862,-421 9026,-515 "/>
    <polygon class="fil2" points="9516,-49 9679,44 9842,138 9842,326 9842,513 9679,607 9516,701 9352,607 9189,513 9189,326 9189,138 9352,44 "/>
    <polygon class="fil3" points="8862,-49 8699,44 8535,138 8535,326 8535,513 8699,607 8862,701 9026,607 9189,513 9189,326 9189,138 9026,44 "/>
    <polygon class="fil4" points="9516,322 9842,513 9842,513 9679,607 9516,701 9352,607 9189,513 9189,513 "/>
    <polygon class="fil3" points="10169,-49 10006,44 9842,138 9842,326 9842,513 10006,607 10169,701 10332,607 10496,513 10496,326 10496,138 10332,44 "/>
    <polygon class="fil2" points="8209,-49 8045,44 7882,138 7882,326 7882,513 8045,607 8209,701 8372,607 8535,513 8535,326 8535,138 8372,44 "/>
    <polygon class="fil2" points="6902,-49 6739,44 6575,138 6575,326 6575,513 6739,607 6902,701 7065,607 7229,513 7229,326 7229,138 7065,44 "/>
    <polygon class="fil5" points="5595,322 5595,-49 5432,44 5268,138 5268,326 5268,513 "/>
    <polygon class="fil6" points="4942,-49 5105,44 5269,138 5269,326 5269,513 5105,607 4942,701 4778,607 4615,513 4615,326 4615,138 4778,44 "/>
    <polygon class="fil2" points="5925,-236 6085,-143 6249,-47 6249,138 6246,327 6085,419 5919,511 5759,419 5595,322 5595,138 5598,-51 5759,-143 "/>
    <polygon class="fil7" points="5595,-49 5595,322 5922,513 5922,326 5922,138 5759,44 "/>
    <polygon class="fil8" points="5595,322 5268,513 5268,513 5432,607 5595,701 5759,607 5922,513 5922,513 "/>
    <polygon class="fil9" points="5595,701 5595,1072 5432,979 5268,885 5268,697 5268,510 "/>
    <polygon class="fil8" points="5595,1072 5595,701 5922,510 5922,697 5922,885 5759,979 "/>
    <polygon class="fil8" points="4942,701 4942,1072 5105,979 5268,885 5268,697 5268,510 "/>
    <polygon class="fil3" points="4942,1072 4942,701 4615,510 4615,697 4615,885 4778,979 "/>
    <polygon class="fil6" points="6249,322 6085,416 5922,510 5922,697 5922,885 6085,979 6249,1072 6412,979 6575,885 6575,697 6575,510 6412,416 "/>
    <polygon class="fil9" points="7555,322 7229,513 7229,513 7392,607 7555,701 7719,607 7882,513 7882,513 "/>
    <polygon class="fil1" points="7555,701 7555,1072 7392,979 7229,885 7229,697 7229,510 "/>
    <polygon class="fil9" points="7555,1072 7555,701 7882,510 7882,697 7882,885 7719,979 "/>
    <polygon class="fil9" points="8209,322 8535,513 8535,513 8372,607 8209,701 8045,607 7882,513 7882,513 "/>
    <polygon class="fil10" points="8862,322 8535,513 8535,513 8699,607 8862,701 9026,607 9189,513 9189,513 "/>
    <polygon class="fil1" points="8209,1072 8209,701 7882,510 7882,697 7882,885 8045,979 "/>
    <polygon class="fil11" points="8209,701 8209,1072 8372,979 8535,885 8535,697 8535,510 "/>
    <polygon class="fil11" points="8862,701 8862,1072 8699,979 8535,885 8535,697 8535,510 "/>
    <polygon class="fil11" points="9516,701 9516,1072 9679,979 9842,885 9842,697 9842,510 "/>
    <polygon class="fil12" points="8862,1072 8862,701 9189,510 9189,697 9189,885 9026,979 "/>
    <polygon class="fil6" points="8535,510 8699,604 8862,698 8862,885 8862,1073 8699,1167 8535,1260 8372,1167 8209,1073 8209,885 8209,698 8372,604 "/>
    <polygon class="fil0" points="8535,142 8862,-49 8862,-49 8699,-143 8535,-237 8372,-143 8209,-49 8209,-49 "/>
    <polygon class="fil8" points="6575,883 6902,1074 6902,1074 6739,1168 6575,1262 6412,1168 6249,1074 6249,1074 "/>
    <polygon class="fil13" points="6575,1633 6575,1262 6249,1071 6249,1258 6249,1446 6412,1540 "/>
    <polygon class="fil3" points="7882,883 8209,1074 8209,1074 8045,1168 7882,1262 7719,1168 7555,1074 7555,1074 "/>
    <polygon class="fil9" points="7882,1262 7882,1633 8045,1540 8209,1446 8209,1258 8209,1071 "/>
    <polygon class="fil9" points="7882,1633 7882,1262 7555,1071 7555,1258 7555,1446 7719,1540 "/>
    <polygon class="fil9" points="8535,1262 8535,1633 8372,1540 8209,1446 8209,1258 8209,1071 "/>
    <polygon class="fil9" points="8535,1633 8535,1262 8862,1071 8862,1258 8862,1446 8699,1540 "/>
    <polygon class="fil14" points="9189,883 9516,1074 9516,1074 9352,1168 9189,1262 9026,1168 8862,1074 8862,1074 "/>
    <polygon class="fil15" points="9189,1262 9189,1633 9352,1540 9516,1446 9516,1258 9516,1071 "/>
    <polygon class="fil14" points="9842,1262 9842,1633 9679,1540 9516,1446 9516,1258 9516,1071 "/>
    <polygon class="fil16" points="9842,1633 9842,1262 10169,1071 10169,1258 10169,1446 10006,1540 "/>
    <polygon class="fil13" points="6575,1262 6575,1633 6739,1540 6902,1446 6902,1258 6902,1071 "/>
    <polygon class="fil6" points="7229,883 7392,977 7555,1071 7555,1258 7555,1446 7392,1540 7229,1633 7065,1540 6902,1446 6902,1258 6902,1071 7065,977 "/>
    <polygon class="fil6" points="6249,2194 6085,2100 5922,2006 5922,1819 5922,1631 6085,1537 6249,1443 6412,1537 6575,1631 6575,1819 6575,2006 6412,2100 "/>
    <polygon class="fil8" points="8209,1443 8535,1634 8535,1634 8372,1728 8209,1822 8045,1728 7882,1634 7882,1634 "/>
    <polygon class="fil3" points="8209,1822 8209,2194 8372,2100 8535,2006 8535,1819 8535,1631 "/>
    <polygon class="fil10" points="8209,2194 8209,1822 7882,1631 7882,1819 7882,2006 8045,2100 "/>
    <g>
     <polygon class="fil17" points="8862,1443 8535,1634 8535,1634 8699,1728 8862,1822 9026,1728 9189,1634 9189,1634 "/>
     <g>
      <polygon class="fil9" points="8862,1822 8862,2194 8699,2100 8535,2006 8535,1819 8535,1631 "/>
      <polygon class="fil9" points="8862,2194 8862,1822 9189,1631 9189,1819 9189,2006 9026,2100 "/>
     </g>
    </g>
    <g>
     <polygon class="fil3" points="9516,1443 9842,1634 9842,1634 9679,1728 9516,1822 9352,1728 9189,1634 9189,1634 "/>
     <g>
      <polygon class="fil3" points="9516,1822 9516,2194 9679,2100 9842,2006 9842,1819 9842,1631 "/>
      <polygon class="fil3" points="9516,2194 9516,1822 9189,1631 9189,1819 9189,2006 9352,2100 "/>
     </g>
    </g>
    <polygon class="fil5" points="9842,2381 10006,2288 10169,2194 10169,2006 10169,1819 10006,1725 9842,1631 9679,1725 9516,1819 9516,2006 9516,2194 9679,2288 "/>
    <polygon class="fil5" points="10169,1443 9842,1634 9842,1634 10006,1728 10169,1822 10332,1728 10496,1634 10496,1634 "/>
    <polygon class="fil6" points="10169,1822 10169,2194 10006,2100 9842,2006 9842,1819 9842,1631 "/>
    <polygon class="fil5" points="10169,2194 10169,1822 10496,1631 10496,1819 10496,2006 10332,2100 "/>
    <polygon class="fil1" points="7555,2567 7555,2195 7392,2289 7229,2383 7229,2570 7229,2757 "/>
    <polygon class="fil13" points="7229,2005 7555,2196 7555,2196 7392,2290 7229,2384 7065,2290 6902,2196 6902,2196 "/>
    <polygon class="fil1" points="6902,2567 6902,2195 7065,2289 7229,2383 7229,2570 7229,2757 "/>
    <polygon class="fil3" points="6249,2567 6249,2195 6412,2289 6575,2383 6575,2570 6575,2757 "/>
    <polygon class="fil1" points="6575,2005 6249,2196 6249,2196 6412,2290 6575,2384 6739,2290 6902,2196 6902,2196 "/>
    <polygon class="fil8" points="6902,2567 6902,2195 6739,2289 6575,2383 6575,2570 6575,2757 "/>
    <polygon class="fil3" points="5922,2005 6249,2196 6249,2196 6085,2290 5922,2384 5759,2290 5595,2196 5595,2196 "/>
    <polygon class="fil3" points="4942,2194 4778,2100 4615,2006 4615,1819 4615,1631 4778,1537 4942,1443 5105,1537 5269,1631 5269,1819 5269,2006 5105,2100 "/>
    <polygon class="fil13" points="7555,2567 7555,2195 7719,2289 7882,2383 7882,2570 7882,2757 "/>
    <polygon class="fil1" points="7882,2005 7555,2196 7555,2196 7719,2290 7882,2384 8045,2290 8209,2196 8209,2196 "/>
    <polygon class="fil10" points="8209,2567 8209,2195 8045,2289 7882,2383 7882,2570 7882,2757 "/>
    <polygon class="fil9" points="8862,2567 8862,2195 8699,2289 8535,2383 8535,2570 8535,2757 "/>
    <polygon class="fil3" points="8535,2005 8862,2196 8862,2196 8699,2290 8535,2384 8372,2290 8209,2196 8209,2196 "/>
    <polygon class="fil10" points="8209,2567 8209,2195 8372,2289 8535,2383 8535,2570 8535,2757 "/>
    <polygon class="fil7" points="10169,2567 10169,2195 10006,2289 9842,2383 9842,2570 9842,2757 "/>
    <polygon class="fil14" points="9842,2005 10169,2196 10169,2196 10006,2290 9842,2384 9679,2290 9516,2196 9516,2196 "/>
    <polygon class="fil18" points="9516,2567 9516,2195 9679,2289 9842,2383 9842,2570 9842,2757 "/>
    <polygon class="fil3" points="6902,322 7229,513 7229,513 7065,607 6902,701 6739,607 6575,513 6575,513 "/>
    <polygon class="fil9" points="6902,701 6902,1072 7065,979 7229,885 7229,697 7229,510 "/>
    <polygon class="fil13" points="6902,701 6902,1072 6739,979 6575,885 6575,697 6575,510 "/>
    <polygon class="fil19" points="10169,322 9842,513 9842,513 10006,607 10169,701 10332,607 10496,513 10496,513 "/>
    <g>
     <polygon class="fil11" points="10169,701 10169,1072 10006,979 9842,885 9842,697 9842,510 "/>
     <polygon class="fil20" points="10169,1072 10169,701 10496,510 10496,697 10496,885 10332,979 "/>
    </g>
    <polygon class="fil6" points="9842,510 10006,604 10169,698 10169,885 10169,1073 10006,1167 9842,1260 9679,1167 9516,1073 9516,885 9516,698 9679,604 "/>
    <polygon class="fil6" points="5268,2384 5432,2290 5595,2196 5595,2009 5595,1821 5432,1727 5268,1633 5105,1727 4942,1821 4942,2009 4942,2196 5105,2290 "/>
    <polygon class="fil13" points="5922,2005 5922,1633 5759,1727 5595,1821 5595,2009 5595,2196 "/>
    <polygon class="fil3" points="5595,1443 5922,1634 5922,1634 5759,1728 5595,1822 5432,1728 5268,1634 5268,1634 "/>
    <polygon class="fil13" points="6902,1443 7229,1634 7229,1634 7065,1728 6902,1822 6739,1728 6575,1634 6575,1634 "/>
    <polygon class="fil10" points="6902,1822 6902,2194 7065,2100 7229,2006 7229,1818 7229,1631 "/>
    <polygon class="fil8" points="6902,1822 6902,2194 6739,2100 6575,2006 6575,1818 6575,1631 "/>
    <polygon class="fil7" points="8862,2567 8862,2195 9026,2289 9189,2383 9189,2570 9189,2757 "/>
    <polygon class="fil21" points="9189,2005 8862,2196 8862,2196 9026,2290 9189,2384 9352,2290 9516,2196 9516,2196 "/>
    <polygon class="fil18" points="9516,2567 9516,2195 9352,2289 9189,2383 9189,2570 9189,2757 "/>
    <polygon class="fil8" points="7555,1443 7229,1634 7229,1634 7392,1728 7555,1822 7719,1728 7882,1634 7882,1634 "/>
    <polygon class="fil13" points="7555,1822 7555,2194 7392,2100 7229,2006 7229,1818 7229,1631 "/>
    <polygon class="fil10" points="7555,2194 7555,1822 7882,1631 7882,1818 7882,2006 7719,2100 "/>
    <polygon class="fil3" points="8862,1443 8535,1634 8535,1634 8699,1728 8862,1822 9026,1728 9189,1634 9189,1634 "/>
    <polygon class="fil6" points="9189,2381 9026,2288 8862,2194 8862,2006 8862,1819 9026,1725 9189,1631 9352,1725 9516,1819 9516,2006 9516,2194 9352,2288 "/>
    <g>
     <path class="fil22" d="M4929 724l-2 -1 -1 -1 -1 -1 -1 0 -1 -1 -1 -1 0 -1 -1 -1 -1 -1 -1 -1 0 -1 -1 -2 0 -1 -1 -1 0 -1 -1 -1 0 -2 0 -1 0 -1 -1 -1 0 -2 0 -1 0 -1 1 -1 0 -2 0 -1 0 -1 1 -2 0 -1 1 -1 0 -1 1 -1 0 0 1 -2 0 -1 1 -1 1 -1 1 -1 1 -1 1 0 1 -1 1 -1 1 -1 1 0 1 -1 1 0 2 -1 1 0 1 -1 1 0 1 0 2 0 1 -1 1 0 1 0 2 0 1 1 1 0 2 0 1 0 1 1 1 0 2 1 1 0 1 1 0 0 1 1 1 0 1 1 1 1 1 1 1 1 1 1 1 1 1 1 0 1 1 1 0 1 1 1 1 1 0 2 0 1 1 1 0 1 0 2 0 1 0 1 0 1 0 2 0 1 0 1 0 2 -1 1 0 1 -1 1 0 2 -1 1 0 1 0 0 -1 1 -1 1 -1 1 0 1 -1 1 -1 1 -1 1 -1 1 -1 1 -1 0 -1 1 -2 0 -1 1 -1 0 -1 1 -1 0 -2 1 -1 0 -1 0 -1 0 -2 0 -1 0 -1 0 -1 0 -2 0 -1 0 -1 -1 -1 0 -2 -1 -1 0 -1 -1 -1 0 0 0zm17 -30c3,2 4,7 2,11 -2,3 -6,4 -10,2l8 -13zm-164 -94l164 94 -8 13 -163 -93 0 0 7 -14zm-7 14c-4,-3 -5,-7 -3,-11 2,-3 7,-5 10,-3l-7 14zm-156 -107l163 93 -7 14 -164 -94 -3 -7 11 -6zm-8 13c-3,-2 -4,-7 -2,-11 2,-3 6,-4 10,-2l-8 13zm12 -194l0 187 -15 0 0 -187 0 0 15 0zm-15 0c0,-4 3,-8 7,-8 4,0 8,4 8,8l-15 0zm15 -188l0 188 -15 0 0 -188 3 -6 12 6zm-15 0c0,-4 3,-7 7,-7 4,0 8,3 8,7l-15 0zm174 -87l-163 94 -8 -13 164 -94 7 13zm-7 -13c3,-2 8,-1 10,3 2,3 1,8 -3,10l-7 -13zm171 -81l-164 94 -7 -13 163 -94 8 13zm-8 -13c4,-2 8,-1 10,3 2,3 1,8 -2,10l-8 -13z"/>
    </g>
    <g id="_3052998377248">
     <path class="fil23" d="M4915 272c-6,-38 19,-68 50,-74 37,-7 68,20 73,50 7,38 -19,67 -50,73 -37,7 -68,-20 -73,-49zm103 63c9,6 23,22 31,30 5,5 9,10 19,11 10,1 18,-4 22,-8 22,-26 -16,-47 -36,-71 7,-23 13,-36 4,-64 -21,-67 -106,-74 -144,-33 -47,52 -19,128 41,143 31,8 43,-1 63,-8z"/>
     <path class="fil23" d="M4893 439c6,3 12,9 19,4l65 -51c6,2 13,8 18,12l50 35c6,3 39,-6 47,-8 18,-4 42,-5 37,-19 -7,-10 -22,-3 -34,0 -12,3 -23,5 -35,8 -10,2 -11,1 -17,-4l-37 -27c-30,-22 -27,-21 -40,-11l-60 47c-6,-2 -17,-9 -23,-13 -8,-5 -15,-9 -23,-14 -36,-21 -26,-16 -47,7l-30 35c-5,7 -11,13 -17,20 -4,5 -16,13 -10,22 3,6 9,5 14,1 8,-7 59,-71 67,-78l56 34z"/>
     <path class="fil23" d="M4824 267l0 -27c18,4 15,23 0,27zm-18 -49c-17,-5 -16,-21 0,-26l0 26zm-1 -45c-37,10 -37,48 -10,60 4,2 7,2 11,5l0 29c-15,-6 -8,-17 -25,-12 -9,16 13,28 24,30 2,8 0,8 4,14 17,4 12,-3 16,-13 15,-6 29,-13 29,-33 1,-21 -13,-27 -30,-32l0 -29c11,3 9,8 14,11 12,7 29,-15 -13,-30l-1 -5c0,-2 0,-2 -1,-5 -1,-3 -3,-5 -8,-5 -10,0 -7,8 -10,15z"/>
     <path class="fil23" d="M4754 365c9,6 11,5 19,-1 6,-5 39,-32 44,-34 22,11 43,22 65,33 11,6 24,17 33,7 11,-14 17,-19 13,-31 -16,-4 -15,7 -25,15 -13,-5 -63,-33 -81,-42 -5,-2 -8,-2 -12,0l-44 34c-11,9 -13,8 -12,19z"/>
     <path class="fil23" d="M4981 273c11,2 21,4 32,6 21,4 18,-10 14,-14 -3,-3 -40,-10 -46,-10 -8,-2 -9,0 -13,5 -10,17 -30,38 -22,46 9,10 17,-6 21,-11 3,-5 12,-17 14,-22z"/>
     <path class="fil23" d="M4978 490c1,-6 3,-65 -1,-70 -3,-4 -12,-5 -15,1 -2,4 -1,39 -1,47 0,15 -1,33 17,22z"/>
     <path class="fil23" d="M4840 492c5,-8 4,-7 4,-17 0,-19 5,-53 -12,-47 -10,3 -6,25 -6,36 0,14 -4,31 14,28z"/>
     <path class="fil23" d="M5119 239c-8,2 -44,16 -46,23 -2,8 4,13 12,11 7,-2 24,-11 31,-14 6,-2 12,-4 13,-10 2,-7 -4,-12 -10,-10z"/>
     <path class="fil23" d="M4995 485c1,9 18,15 18,-7 0,-9 1,-31 -1,-38 -1,-9 -17,-14 -18,6 0,11 0,29 1,39z"/>
     <path class="fil23" d="M5096 485c1,10 16,12 17,-2 6,-59 -17,-39 -17,-31 -1,6 -1,28 0,33z"/>
     <path class="fil23" d="M4860 485c1,9 17,12 18,-2 0,-5 0,-27 0,-32 -2,-11 -17,-11 -18,1 -1,6 -1,28 0,33z"/>
     <path class="fil23" d="M4945 488c0,-6 1,-26 0,-32 -2,-10 -14,-10 -17,-2 0,0 -9,54 17,34z"/>
     <path class="fil23" d="M5078 489c3,-4 3,-21 2,-27 -2,-10 -13,-11 -17,-5 -2,4 -2,23 -1,28 2,8 11,11 16,4z"/>
     <path class="fil23" d="M5044 456c-26,-11 -14,34 -14,35 10,3 16,1 16,-10 1,-9 1,-18 -2,-25z"/>
     <path class="fil23" d="M4911 488c1,-3 1,-20 0,-23 -3,-7 -13,-7 -16,-2 -2,4 -2,20 -1,24 3,8 13,8 17,1z"/>
     <path class="fil23" d="M4794 490c14,9 21,-7 15,-17 -3,-4 -11,-4 -14,0 -4,4 -2,12 -1,17z"/>
    </g>
    <path class="fil22" d="M5078 727c0,1 -1,1 -1,1 0,0 0,1 -1,1 0,0 -1,0 -2,0 -1,0 -2,0 -3,0 -1,0 -2,0 -3,0 -1,0 -1,0 -2,0 0,0 -1,-1 -1,-1 0,0 0,0 0,-1l0 -59c0,-1 0,-1 0,-1 0,-1 1,-1 1,-1 1,0 1,0 2,0 1,0 2,-1 3,-1 1,0 2,1 3,1 1,0 2,0 2,0 1,0 1,0 1,1 0,0 1,0 1,1l0 59zm65 -2c0,0 0,1 0,2 0,0 -1,1 -1,1 0,0 -1,1 -2,1 0,0 -1,0 -1,0l-6 0c-1,0 -2,0 -3,0 -1,0 -1,-1 -2,-1 -1,-1 -1,-2 -2,-3 -1,-1 -2,-2 -2,-4l-16 -29c-1,-2 -2,-4 -3,-6 -1,-2 -2,-4 -2,-6l0 0c0,2 0,5 0,7 0,2 0,5 0,7l0 33c0,1 0,1 0,1 0,0 -1,1 -1,1 -1,0 -1,0 -2,0 -1,0 -2,0 -3,0 -1,0 -2,0 -3,0 0,0 -1,0 -1,0 -1,0 -1,-1 -1,-1 -1,0 -1,0 -1,-1l0 -57c0,-1 1,-2 2,-3 1,-1 2,-1 3,-1l7 0c1,0 2,0 3,0 1,0 2,1 2,1 1,1 2,1 2,2 1,1 1,2 2,3l12 24c1,1 2,2 2,4 1,1 2,2 2,4 1,1 2,2 2,4 1,1 2,2 2,4l0 0c0,-3 0,-5 0,-8 0,-2 0,-4 0,-7l0 -29c0,-1 0,-1 0,-1 0,0 1,-1 1,-1 1,0 1,0 2,0 1,0 2,0 3,0 1,0 2,0 3,0 0,0 1,0 1,0 1,0 1,1 1,1 0,0 0,0 0,1l0 57zm46 2c0,0 -1,1 -1,1 0,0 -1,1 -1,1 -1,0 -2,0 -3,0 -1,0 -2,0 -4,0 -1,0 -2,0 -3,0 -1,0 -2,0 -2,0 -1,0 -1,0 -2,0 0,0 -1,0 -1,-1 0,0 0,0 0,0 -1,-1 -1,-1 -1,-1l-19 -56c0,-2 0,-3 0,-3 0,-1 0,-1 0,-2 0,0 1,0 2,0 1,0 3,-1 4,-1 2,0 3,1 4,1 1,0 1,0 2,0 0,0 1,0 1,1 0,0 0,0 0,1l16 49 0 0 15 -49c0,0 0,-1 0,-1 0,-1 1,-1 1,-1 1,0 1,0 2,0 1,0 2,-1 4,-1 1,0 3,1 3,1 1,0 2,0 2,0 0,1 0,1 0,2 0,1 0,2 0,3l-19 56zm65 -3c0,1 0,2 0,2 0,1 0,1 -1,2 0,0 0,1 0,1 -1,0 -1,0 -1,0l-32 0c-1,0 -2,0 -2,-1 -1,-1 -2,-2 -2,-3l0 -55c0,-2 1,-3 2,-3 0,-1 1,-1 2,-1l32 0c0,0 0,0 1,0 0,0 0,0 0,1 0,0 0,1 1,1 0,1 0,2 0,3 0,1 0,2 0,2 -1,1 -1,1 -1,2 0,0 0,0 0,1 -1,0 -1,0 -1,0l-23 0 0 15 19 0c1,0 1,0 1,1 0,0 0,0 1,0 0,1 0,1 0,2 0,1 0,1 0,2 0,1 0,2 0,3 0,0 0,1 0,1 -1,0 -1,1 -1,1 0,0 0,0 -1,0l-19 0 0 18 23 0c0,0 0,0 1,0 0,0 0,1 0,1 1,0 1,1 1,2 0,0 0,1 0,2zm48 -14c0,3 -1,6 -2,9 -1,2 -3,4 -5,6 -2,2 -5,3 -8,4 -2,1 -5,1 -9,1 -2,0 -4,0 -6,0 -2,-1 -3,-1 -5,-2 -1,0 -2,-1 -3,-1 -1,-1 -2,-1 -2,-2 -1,0 -1,-1 -1,-2 0,0 -1,-2 -1,-3 0,-1 0,-2 1,-3 0,0 0,-1 0,-1 0,-1 0,-1 0,-1 1,0 1,-1 1,-1 1,0 1,1 2,1 1,1 2,1 3,2 2,1 3,1 5,2 2,0 4,1 6,1 2,0 3,0 5,-1 1,0 2,-1 3,-1 1,-1 1,-2 2,-3 0,-1 0,-2 0,-3 0,-2 0,-3 -1,-4 -1,-1 -2,-2 -3,-3 -1,-1 -2,-1 -4,-2 -2,-1 -3,-1 -5,-2 -2,-1 -3,-2 -5,-3 -2,-1 -3,-2 -4,-3 -1,-2 -3,-3 -3,-5 -1,-2 -1,-4 -1,-7 0,-3 0,-6 1,-8 1,-2 3,-4 5,-6 2,-1 4,-2 6,-3 3,-1 6,-1 9,-1 1,0 3,0 4,0 2,0 3,1 4,1 2,0 3,1 4,1 1,1 2,1 2,1 0,1 0,1 1,1 0,1 0,1 0,1 0,1 0,1 0,2 0,0 0,1 0,2 0,1 0,1 0,2 0,1 0,1 0,2 0,0 -1,0 -1,1 0,0 0,0 -1,0 0,0 -1,0 -1,-1 -1,0 -2,-1 -3,-1 -1,-1 -3,-1 -4,-2 -2,0 -3,0 -5,0 -2,0 -3,0 -4,0 -1,1 -2,1 -2,2 -1,0 -2,1 -2,2 0,1 0,2 0,2 0,2 0,3 1,4 0,1 1,2 3,3 1,1 3,1 4,2 2,1 3,2 5,2 2,1 4,2 5,3 2,1 3,2 5,4 1,1 2,3 3,4 0,2 1,4 1,7zm51 -39c0,1 0,2 -1,2 0,1 0,2 0,2 0,0 0,1 -1,1 0,0 0,0 0,0l-16 0 0 51c0,1 0,1 0,1 -1,0 -1,1 -2,1 0,0 -1,0 -2,0 0,0 -1,0 -3,0 -1,0 -2,0 -3,0 -1,0 -1,0 -2,0 0,0 -1,-1 -1,-1 0,0 0,0 0,-1l0 -51 -16 0c0,0 0,0 -1,0 0,0 0,-1 0,-1 0,0 -1,-1 -1,-2 0,0 0,-1 0,-2 0,-1 0,-2 0,-2 0,-1 1,-2 1,-2 0,0 0,-1 0,-1 1,0 1,0 1,0l45 0c0,0 0,0 0,0 1,0 1,1 1,1 0,0 0,1 0,2 1,0 1,1 1,2zm81 56c0,1 0,1 -1,1 0,0 0,1 -1,1 0,0 -1,0 -1,0 -1,0 -2,0 -3,0 -2,0 -3,0 -3,0 -1,0 -2,0 -2,0 -1,0 -1,-1 -1,-1 0,0 -1,0 -1,-1l0 -51 0 0 -18 51c0,1 0,1 0,1 -1,1 -1,1 -2,1 0,0 -1,0 -2,0 0,0 -1,0 -2,0 -2,0 -2,0 -3,0 -1,0 -2,0 -2,0 -1,0 -1,-1 -1,-1 -1,0 -1,0 -1,-1l-18 -51 0 0 0 51c0,1 0,1 0,1 0,0 -1,1 -1,1 0,0 -1,0 -2,0 -1,0 -2,0 -3,0 -1,0 -2,0 -3,0 -1,0 -1,0 -2,0 0,0 0,-1 -1,-1 0,0 0,0 0,-1l0 -56c0,-2 1,-3 1,-4 1,-1 2,-1 4,-1l8 0c2,0 3,0 4,0 1,0 2,1 3,1 1,1 1,2 2,3 0,1 1,2 1,3l14 38 0 0 14 -38c1,-1 1,-2 2,-3 0,-1 1,-2 1,-3 1,0 2,-1 3,-1 1,0 2,0 3,0l9 0c1,0 1,0 2,0 1,0 1,1 1,1 1,1 1,1 1,2 1,0 1,1 1,2l0 56zm51 -3c0,1 0,2 0,2 0,1 0,1 -1,2 0,0 0,1 0,1 0,0 -1,0 -1,0l-32 0c-1,0 -2,0 -2,-1 -1,-1 -1,-2 -1,-3l0 -55c0,-2 0,-3 1,-3 0,-1 1,-1 2,-1l32 0c0,0 0,0 1,0 0,0 0,0 0,1 0,0 1,1 1,1 0,1 0,2 0,3 0,1 0,2 0,2 0,1 -1,1 -1,2 0,0 0,0 0,1 -1,0 -1,0 -1,0l-23 0 0 15 19 0c1,0 1,0 1,1 0,0 1,0 1,0 0,1 0,1 0,2 0,1 0,1 0,2 0,1 0,2 0,3 0,0 0,1 0,1 0,0 -1,1 -1,1 0,0 0,0 -1,0l-19 0 0 18 23 0c0,0 1,0 1,0 0,0 0,1 0,1 1,0 1,1 1,2 0,0 0,1 0,2zm63 1c0,0 0,1 0,2 0,0 -1,1 -1,1 0,0 -1,1 -2,1 0,0 -1,0 -1,0l-6 0c-1,0 -2,0 -3,0 -1,0 -1,-1 -2,-1 -1,-1 -2,-2 -2,-3 -1,-1 -2,-2 -2,-4l-16 -29c-1,-2 -2,-4 -3,-6 -1,-2 -2,-4 -2,-6l0 0c0,2 0,5 0,7 0,2 0,5 0,7l0 33c0,1 0,1 0,1 -1,0 -1,1 -1,1 -1,0 -1,0 -2,0 -1,0 -2,0 -3,0 -1,0 -2,0 -3,0 -1,0 -1,0 -2,0 0,0 0,-1 0,-1 -1,0 -1,0 -1,-1l0 -57c0,-1 1,-2 2,-3 1,-1 2,-1 3,-1l7 0c1,0 2,0 3,0 1,0 2,1 2,1 1,1 2,1 2,2 1,1 1,2 2,3l12 24c1,1 2,2 2,4 1,1 2,2 2,4 1,1 2,2 2,4 1,1 1,2 2,4l0 0c0,-3 0,-5 0,-8 0,-2 0,-4 0,-7l0 -29c0,-1 0,-1 0,-1 0,0 1,-1 1,-1 1,0 1,0 2,0 1,0 2,0 3,0 1,0 2,0 3,0 0,0 1,0 1,0 1,0 1,1 1,1 0,0 0,0 0,1l0 57zm56 -54c0,1 0,2 0,2 0,1 0,2 0,2 0,0 -1,1 -1,1 0,0 0,0 -1,0l-15 0 0 51c0,1 -1,1 -1,1 0,0 0,1 -1,1 0,0 -1,0 -2,0 -1,0 -2,0 -3,0 -1,0 -2,0 -3,0 -1,0 -2,0 -2,0 -1,0 -1,-1 -1,-1 0,0 0,0 0,-1l0 -51 -16 0c-1,0 -1,0 -1,0 0,0 0,-1 -1,-1 0,0 0,-1 0,-2 0,0 0,-1 0,-2 0,-1 0,-2 0,-2 0,-1 0,-2 0,-2 1,0 1,-1 1,-1 0,0 0,0 1,0l44 0c1,0 1,0 1,0 0,0 1,1 1,1 0,0 0,1 0,2 0,0 0,1 0,2z"/>
    <g>
     <path class="fil22" d="M6245 1450c-4,-2 -5,-7 -3,-10 2,-4 7,-5 10,-3l-7 13zm163 94l-163 -94 7 -13 164 94 -8 13zm8 -13c3,2 5,6 2,10 -2,4 -6,5 -10,3l8 -13zm156 106l-164 -93 8 -13 163 93 4 7 -11 6zm7 -13c4,3 5,7 3,11 -2,3 -7,5 -10,2l7 -13zm-11 195l0 -188 15 0 0 188 0 0 -15 0zm15 0c0,4 -4,7 -8,7 -4,0 -7,-3 -7,-7l15 0zm-15 187l0 -187 15 0 0 187 -15 0zm34 0l0 0 0 1 0 2 -1 1 0 1 0 2 0 1 -1 1 0 1 -1 1 0 2 -1 1 -1 1 -1 1 0 1 -1 1 -1 1 -1 1 -1 0 -1 1 -1 1 -1 1 -1 0 -1 1 -1 0 -2 1 -1 0 -1 1 -1 0 -2 0 -1 0 -1 0 -2 0 0 0 -1 0 -1 0 -2 0 -1 0 -1 0 -2 -1 -1 0 -1 -1 -1 0 -1 -1 -1 0 -1 -1 -2 -1 -1 -1 0 0 -1 -1 -1 -1 -1 -1 -1 -1 -1 -1 0 -1 -1 -1 -1 -2 0 -1 -1 -1 0 -1 0 -1 -1 -2 0 -1 0 -1 0 -2 0 -1 0 0 0 -1 0 -2 0 -1 0 -1 1 -2 0 -1 0 -1 1 -1 0 -1 1 -2 1 -1 0 -1 1 -1 1 -1 1 -1 1 -1 1 0 0 -1 1 -1 2 -1 1 -1 1 0 1 -1 1 0 1 -1 1 0 2 -1 1 0 1 0 2 0 1 0 1 0 0 0 2 0 1 0 1 0 2 0 1 0 1 1 1 0 2 1 1 0 1 1 1 0 1 1 1 1 1 1 1 1 1 0 1 1 1 1 0 1 1 1 1 1 1 1 0 2 1 1 0 1 1 1 0 1 0 2 0 1 1 1 0 2 0 1zm-19 0c0,4 -4,8 -8,8 -4,0 -7,-4 -7,-8l15 0z"/>
    </g>
    <g>
     <path class="fil23" d="M6087 1931c2,-1 10,-7 12,-8 17,-12 26,-19 44,-10 19,9 36,18 54,28 18,9 41,23 61,22 12,0 22,-6 30,-11l51 -32c8,-5 16,-11 24,-16 24,-17 51,-33 75,-50 35,-25 11,-42 -3,-42 -6,-1 -12,1 -17,3l-14 7c1,-14 -8,-20 -22,-19 -5,0 -11,1 -16,4 -7,3 -10,7 -12,7 -4,-5 -9,-11 -19,-11 -14,-1 -32,12 -44,19l-19 12c15,3 56,-5 69,15 6,9 7,24 0,33 -14,20 -45,17 -66,17 -14,0 -29,0 -43,0 -19,0 -44,-17 -54,-29 3,0 10,3 13,5 33,10 50,8 84,8 14,0 56,4 55,-18 -1,-6 -3,-9 -8,-11 -12,-4 -37,-2 -51,-4 -17,-1 -40,-10 -53,-19 -7,-6 -14,-11 -21,-16 -7,-4 -15,-9 -22,-14 -32,-19 -53,-8 -84,6 -4,1 -47,20 -50,22l46 102z"/>
     <path class="fil23" d="M6251 1697l5 0 0 8c5,0 8,0 12,2l0 8c-4,-2 -6,-3 -12,-3l0 23c8,3 16,8 17,18 0,8 -5,13 -11,15 -7,3 -6,-1 -6,12l-5 0 0 -10c-8,0 -10,-1 -16,-3l0 -9c5,2 6,5 16,5l0 -21c-1,-1 -1,-1 -1,-2 -4,-2 -15,-5 -15,-18 -1,-16 14,-15 16,-18l0 -7zm-7 -22c-33,4 -62,35 -57,74 5,33 35,62 75,57 33,-4 62,-35 57,-74 -5,-34 -35,-63 -75,-57z"/>
     <path class="fil23" d="M6251 1732l0 -20c-5,1 -9,4 -8,10 0,5 4,8 8,10z"/>
     <path class="fil23" d="M6256 1763c5,-1 9,-4 8,-10 0,-5 -4,-8 -8,-10l0 20z"/>
    </g>
    <g>
     <path class="fil22" d="M6724 2024c0,1 0,2 0,2 0,1 -1,1 -1,2 0,0 0,0 0,1 0,0 0,0 -1,1 0,0 -1,1 -2,1 -1,1 -2,1 -4,2 -1,0 -3,1 -5,1 -2,1 -4,1 -6,1 -4,0 -8,-1 -12,-2 -3,-2 -6,-4 -9,-6 -2,-3 -4,-6 -5,-10 -1,-4 -2,-9 -2,-14 0,-5 1,-10 2,-14 2,-5 4,-8 6,-11 3,-3 6,-5 9,-6 4,-2 8,-3 12,-3 2,0 4,1 5,1 2,0 3,1 5,1 1,1 2,1 4,2 1,0 1,1 2,1 0,1 1,1 1,1 0,1 0,1 0,2 0,0 0,1 0,1 0,1 0,2 0,2 0,1 0,2 0,3 0,1 0,1 0,2 0,0 0,0 -1,0 0,1 0,1 0,1 -1,0 -1,-1 -2,-1 -1,-1 -2,-1 -3,-2 -1,-1 -3,-1 -4,-2 -2,0 -4,-1 -6,-1 -3,0 -5,1 -7,2 -2,1 -4,2 -5,4 -1,2 -2,4 -3,7 -1,3 -1,6 -1,9 0,4 0,7 1,10 1,3 2,5 3,7 2,1 3,3 5,3 2,1 5,2 7,2 2,0 4,0 6,-1 2,-1 3,-1 4,-2 1,0 2,-1 3,-2 1,0 2,0 2,0 0,0 1,0 1,0 0,0 0,0 0,1 0,0 0,1 1,1 0,1 0,2 0,3zm61 5c0,1 0,2 0,3 0,0 0,1 0,1 0,1 -1,1 -2,1 -1,0 -2,0 -4,0 -1,0 -3,0 -4,0 0,0 -1,0 -2,0 0,-1 0,-1 -1,-1 0,0 0,-1 0,-1l-4 -13 -24 0 -4 13c0,0 0,0 -1,1 0,0 0,0 -1,1 0,0 -1,0 -2,0 -1,0 -2,0 -3,0 -2,0 -3,0 -4,0 0,0 -1,0 -1,-1 -1,0 -1,-1 -1,-1 0,-1 1,-2 1,-3l19 -56c1,-1 1,-1 1,-2 0,0 1,0 1,0 1,-1 2,-1 3,-1 1,0 2,0 4,0 2,0 3,0 4,0 2,0 2,0 3,1 1,0 1,0 1,0 1,1 1,1 1,2l20 56zm-29 -47l0 0 -9 27 18 0 -9 -27zm75 33c0,3 -1,6 -2,8 -1,3 -3,5 -5,7 -2,1 -4,3 -7,4 -3,0 -6,1 -9,1 -3,0 -5,0 -6,-1 -2,0 -4,-1 -5,-1 -2,-1 -3,-1 -4,-2 -1,0 -2,-1 -2,-1 -1,-1 -1,-1 -1,-2 0,-1 0,-2 0,-3 0,-1 0,-2 0,-3 0,-1 0,-1 0,-2 0,0 0,0 1,-1 0,0 0,0 1,0 0,0 1,0 2,1 0,1 1,1 3,2 1,0 3,1 4,2 2,0 4,0 7,0 1,0 3,0 4,0 1,-1 2,-1 3,-2 1,0 2,-1 2,-2 0,-1 1,-2 1,-4 0,-1 -1,-2 -1,-3 -1,-1 -2,-2 -4,-3 -1,-1 -2,-2 -4,-2 -1,-1 -3,-2 -5,-2 -1,-1 -3,-2 -5,-3 -1,-1 -3,-2 -4,-4 -1,-1 -2,-3 -3,-5 -1,-2 -1,-4 -1,-6 0,-3 0,-6 1,-8 2,-3 3,-5 5,-6 2,-2 4,-3 7,-4 2,0 5,-1 8,-1 1,0 3,0 4,1 2,0 3,0 5,1 1,0 2,0 3,1 1,0 2,1 2,1 0,1 1,1 1,1 0,0 0,1 0,1 0,0 0,1 0,1 0,1 0,2 0,2 0,1 0,2 0,3 0,0 0,1 0,1 0,1 0,1 0,1 -1,1 -1,1 -1,1 -1,0 -1,-1 -2,-1 -1,0 -2,-1 -3,-2 -1,0 -2,-1 -4,-1 -1,0 -3,-1 -5,-1 -1,0 -2,1 -4,1 -1,0 -1,1 -2,1 -1,1 -1,2 -2,2 0,1 0,2 0,3 0,2 0,3 1,4 1,1 2,2 3,3 1,0 3,1 4,2 2,0 4,1 5,2 2,1 4,2 5,3 2,1 3,2 5,3 1,2 2,3 3,5 1,2 1,4 1,7zm59 17c0,0 0,1 0,1 0,0 -1,0 -1,0 -1,1 -1,1 -2,1 -1,0 -2,0 -3,0 -2,0 -3,0 -3,0 -1,0 -2,0 -2,-1 -1,0 -1,0 -1,0 -1,0 -1,-1 -1,-1l0 -26 -23 0 0 26c0,0 -1,1 -1,1 0,0 0,0 -1,0 0,1 -1,1 -2,1 0,0 -2,0 -3,0 -1,0 -2,0 -3,0 -1,0 -1,0 -2,-1 0,0 -1,0 -1,0 0,0 0,-1 0,-1l0 -60c0,0 0,0 0,-1 0,0 1,0 1,0 1,0 1,-1 2,-1 1,0 2,0 3,0 1,0 3,0 3,0 1,0 2,1 2,1 1,0 1,0 1,0 0,1 1,1 1,1l0 23 23 0 0 -23c0,0 0,0 1,-1 0,0 0,0 1,0 0,0 1,-1 2,-1 0,0 1,0 3,0 1,0 2,0 3,0 1,0 1,1 2,1 0,0 1,0 1,0 0,1 0,1 0,1l0 60zm110 0c0,0 0,1 0,1 0,0 -1,0 -1,0 -1,1 -1,1 -2,1 -1,0 -2,0 -3,0 -1,0 -2,0 -3,0 -1,0 -1,0 -2,-1 0,0 -1,0 -1,0 0,0 0,-1 0,-1l0 -52 0 0 -18 52c-1,0 -1,1 -1,1 0,0 -1,0 -1,1 -1,0 -1,0 -2,0 -1,0 -2,0 -3,0 -1,0 -2,0 -3,0 -1,0 -1,0 -2,-1 0,0 -1,0 -1,0 0,0 0,-1 -1,-1l-17 -52 0 0 0 52c0,0 0,1 -1,1 0,0 0,0 -1,0 0,1 -1,1 -1,1 -1,0 -2,0 -3,0 -2,0 -3,0 -3,0 -1,0 -2,0 -2,-1 -1,0 -1,0 -1,0 0,0 0,-1 0,-1l0 -56c0,-2 0,-3 1,-4 1,-1 2,-2 3,-2l9 0c1,0 3,1 4,1 1,0 2,0 2,1 1,1 2,1 2,2 1,1 1,2 2,4l13 37 1 0 14 -37c0,-2 1,-3 1,-4 1,-1 1,-1 2,-2 1,0 1,-1 2,-1 1,0 2,-1 3,-1l9 0c1,0 2,1 2,1 1,0 1,0 2,1 0,0 1,1 1,1 0,1 0,2 0,3l0 56zm66 -3c0,1 0,2 0,3 1,0 0,1 0,1 0,1 -1,1 -2,1 -1,0 -2,0 -4,0 -1,0 -3,0 -3,0 -1,0 -2,0 -3,0 0,-1 0,-1 -1,-1 0,0 0,-1 0,-1l-4 -13 -24 0 -4 13c0,0 0,0 -1,1 0,0 0,0 -1,1 0,0 -1,0 -2,0 -1,0 -2,0 -3,0 -2,0 -3,0 -4,0 0,0 -1,0 -1,-1 -1,0 -1,-1 -1,-1 0,-1 1,-2 1,-3l20 -56c0,-1 0,-1 0,-2 0,0 1,0 1,0 1,-1 2,-1 3,-1 1,0 2,0 4,0 2,0 3,0 4,0 2,0 2,0 3,1 1,0 1,0 1,0 1,1 1,1 1,2l20 56zm-29 -47l0 0 -9 27 18 0 -9 -27zm90 47c0,1 0,2 -1,2 0,1 0,1 -1,2 0,0 -1,0 -1,1 -1,0 -2,0 -2,0l-6 0c-1,0 -2,0 -3,-1 0,0 -1,0 -2,-1 -1,0 -1,-1 -2,-2 -1,-1 -1,-3 -2,-4l-16 -30c-1,-2 -2,-3 -3,-5 -1,-3 -1,-5 -2,-6l0 0c0,2 0,4 0,7 0,2 0,4 0,7l0 33c0,0 0,1 0,1 0,0 -1,0 -1,0 0,1 -1,1 -2,1 -1,0 -2,0 -3,0 -1,0 -2,0 -3,0 0,0 -1,0 -1,-1 -1,0 -1,0 -1,0 0,0 0,-1 0,-1l0 -57c0,-1 0,-3 1,-3 1,-1 2,-2 3,-2l7 0c1,0 2,1 3,1 1,0 2,0 3,1 0,0 1,1 1,2 1,1 2,2 2,3l12 23c1,2 2,3 3,4 0,2 1,3 2,4 0,2 1,3 2,4 0,2 1,3 1,4l0 0c0,-2 0,-4 0,-7 0,-2 0,-5 0,-7l0 -30c0,0 0,0 0,-1 1,0 1,0 1,0 1,0 1,-1 2,-1 1,0 2,0 3,0 1,0 2,0 3,0 1,0 1,1 2,1 0,0 0,0 0,0 1,1 1,1 1,1l0 57zm65 0c1,1 1,2 1,3 0,0 0,1 0,1 -1,1 -1,1 -2,1 -1,0 -3,0 -4,0 -2,0 -3,0 -4,0 -1,0 -2,0 -2,0 -1,-1 -1,-1 -1,-1 0,0 0,-1 -1,-1l-4 -13 -24 0 -4 13c0,0 0,0 0,1 0,0 -1,0 -1,1 -1,0 -1,0 -2,0 -1,0 -2,0 -4,0 -1,0 -2,0 -3,0 -1,0 -1,0 -2,-1 0,0 0,-1 0,-1 0,-1 0,-2 1,-3l19 -56c0,-1 0,-1 1,-2 0,0 0,0 1,0 1,-1 1,-1 2,-1 1,0 3,0 4,0 2,0 4,0 5,0 1,0 2,0 3,1 0,0 1,0 1,0 0,1 1,1 1,2l19 56zm-29 -47l0 0 -9 27 18 0 -9 -27zm88 -2c0,1 0,2 -1,3 0,0 0,1 0,1 0,1 0,1 0,1 -1,0 -1,0 -1,0 -1,0 -1,0 -2,0 -1,-1 -2,-2 -4,-2 -2,-1 -3,-2 -6,-2 -2,-1 -4,-1 -7,-1 -3,0 -6,0 -8,1 -3,2 -5,3 -7,5 -2,2 -3,4 -4,7 -1,3 -1,6 -1,9 0,4 0,7 1,10 1,2 3,5 4,6 2,2 4,4 6,5 3,1 6,1 9,1 1,0 2,0 4,0 1,-1 2,-1 4,-2l0 -15 -12 0c-1,0 -1,0 -2,-1 0,0 0,-2 0,-3 0,-1 0,-2 0,-3 0,0 0,-1 0,-1 1,-1 1,-1 1,-1 0,0 0,0 1,0l21 0c1,0 1,0 1,0 1,0 1,0 2,1 0,0 0,1 0,1 0,1 0,1 0,2l0 25c0,1 0,2 0,3 0,0 -1,1 -2,1 -1,1 -2,1 -4,2 -2,0 -3,0 -5,1 -2,0 -3,0 -5,1 -2,0 -3,0 -5,0 -5,0 -10,-1 -14,-2 -4,-2 -7,-4 -10,-7 -3,-2 -5,-6 -6,-10 -2,-4 -2,-8 -2,-13 0,-5 0,-10 2,-14 1,-4 4,-8 7,-11 2,-3 6,-5 10,-6 4,-2 9,-3 13,-3 3,0 6,1 8,1 2,0 4,1 6,1 2,1 3,1 4,2 1,1 2,1 2,2 1,0 1,1 1,2 0,0 1,2 1,3zm50 49c0,1 0,1 0,2 0,1 0,1 0,2 -1,0 -1,0 -1,0 0,1 -1,1 -1,1l-32 0c-1,0 -2,-1 -2,-1 -1,-1 -1,-2 -1,-3l0 -55c0,-2 0,-3 1,-4 0,0 1,-1 2,-1l32 0c0,0 1,1 1,1 0,0 0,0 0,1 0,0 1,1 1,1 0,1 0,2 0,3 0,0 0,1 0,2 0,1 0,1 -1,1 0,1 0,1 0,1 0,0 -1,1 -1,1l-23 0 0 15 19 0c1,0 1,0 1,0 0,0 1,1 1,1 0,0 0,1 0,2 0,0 0,1 0,2 0,1 0,2 0,2 0,1 0,1 0,2 0,0 -1,0 -1,1 0,0 0,0 -1,0l-19 0 0 18 23 0c0,0 1,0 1,0 0,0 0,0 1,1 0,0 0,1 0,1 0,1 0,2 0,3zm85 3c0,0 0,1 0,1 0,0 -1,0 -1,0 -1,1 -1,1 -2,1 -1,0 -2,0 -3,0 -1,0 -2,0 -3,0 -1,0 -1,0 -2,-1 0,0 -1,0 -1,0 0,0 0,-1 0,-1l0 -52 0 0 -19 52c0,0 0,1 0,1 0,0 -1,0 -1,1 -1,0 -2,0 -2,0 -1,0 -2,0 -3,0 -1,0 -2,0 -3,0 -1,0 -1,0 -2,-1 0,0 -1,0 -1,0 0,0 -1,-1 -1,-1l-17 -52 0 0 0 52c0,0 0,1 -1,1 0,0 0,0 -1,0 0,1 -1,1 -2,1 0,0 -1,0 -2,0 -2,0 -3,0 -3,0 -1,0 -2,0 -2,-1 -1,0 -1,0 -1,0 0,0 -1,-1 -1,-1l0 -56c0,-2 1,-3 2,-4 1,-1 2,-2 3,-2l9 0c1,0 2,1 4,1 1,0 2,0 2,1 1,1 2,1 2,2 1,1 1,2 2,4l13 37 0 0 15 -37c0,-2 0,-3 1,-4 0,-1 1,-1 2,-2 0,0 1,-1 2,-1 1,0 2,-1 3,-1l9 0c1,0 2,1 2,1 1,0 1,0 2,1 0,0 1,1 1,1 0,1 0,2 0,3l0 56zm51 -3c0,1 0,1 0,2 0,1 0,1 0,2 0,0 -1,0 -1,0 0,1 0,1 -1,1l-31 0c-1,0 -2,-1 -3,-1 -1,-1 -1,-2 -1,-3l0 -55c0,-2 0,-3 1,-4 1,0 2,-1 3,-1l31 0c0,0 1,1 1,1 0,0 0,0 1,1 0,0 0,1 0,1 0,1 0,2 0,3 0,0 0,1 0,2 0,1 0,1 0,1 -1,1 -1,1 -1,1 0,0 -1,1 -1,1l-22 0 0 15 19 0c0,0 0,0 0,0 1,0 1,1 1,1 0,0 0,1 0,2 1,0 1,1 1,2 0,1 0,2 -1,2 0,1 0,1 0,2 0,0 0,0 -1,1 0,0 0,0 0,0l-19 0 0 18 22 0c1,0 1,0 1,0 0,0 1,0 1,1 0,0 0,1 0,1 0,1 0,2 0,3zm64 0c0,1 0,2 -1,2 0,1 0,1 -1,2 0,0 -1,0 -1,1 -1,0 -1,0 -2,0l-6 0c-1,0 -2,0 -3,-1 0,0 -1,0 -2,-1 -1,0 -1,-1 -2,-2 0,-1 -1,-3 -2,-4l-16 -30c-1,-2 -2,-3 -3,-5 0,-3 -1,-5 -2,-6l0 0c0,2 0,4 0,7 0,2 0,4 0,7l0 33c0,0 0,1 0,1 0,0 -1,0 -1,0 0,1 -1,1 -2,1 0,0 -1,0 -3,0 -1,0 -2,0 -2,0 -1,0 -2,0 -2,-1 -1,0 -1,0 -1,0 0,0 0,-1 0,-1l0 -57c0,-1 0,-3 1,-3 1,-1 2,-2 3,-2l7 0c1,0 2,1 3,1 1,0 2,0 3,1 0,0 1,1 1,2 1,1 2,2 2,3l13 23c0,2 1,3 2,4 0,2 1,3 2,4 0,2 1,3 2,4 0,2 1,3 1,4l0 0c0,-2 0,-4 0,-7 0,-2 0,-5 0,-7l0 -30c0,0 0,0 0,-1 1,0 1,0 1,0 1,0 2,-1 2,-1 1,0 2,0 3,0 1,0 2,0 3,0 1,0 1,1 2,1 0,0 0,0 1,0 0,1 0,1 0,1l0 57z"/>
     <path class="fil22" d="M7557 1976c0,1 0,1 -1,2 0,1 0,1 0,2 0,0 0,0 -1,1 0,0 0,0 0,0l-16 0 0 51c0,0 0,1 0,1 -1,0 -1,0 -2,0 0,1 -1,1 -1,1 -1,0 -2,0 -4,0 -1,0 -2,0 -3,0 -1,0 -1,0 -2,-1 0,0 -1,0 -1,0 0,0 0,-1 0,-1l0 -51 -16 0c0,0 0,0 -1,0 0,-1 0,-1 0,-1 0,-1 -1,-1 -1,-2 0,-1 0,-1 0,-2 0,-1 0,-2 0,-3 0,0 1,-1 1,-1 0,-1 0,-1 0,-1 1,0 1,-1 1,-1l45 0c0,0 0,1 0,1 1,0 1,0 1,1 0,0 0,1 0,1 1,1 1,2 1,3z"/>
    </g>
    <g>
     <path class="fil22" d="M5255 2407l-1 -1 -1 -1 -1 -1 -1 -1 -1 0 -1 -1 -1 -1 -1 -1 0 -1 -1 -2 -1 -1 0 -1 -1 -1 0 -1 -1 -1 0 -1 0 -2 -1 -1 0 -1 0 -1 0 -2 0 -1 0 -1 0 -2 0 -1 1 -1 0 -1 0 -2 1 -1 0 -1 1 -1 1 -2 0 0 0 -1 1 -1 1 -1 1 -1 1 -1 1 -1 0 -1 2 0 1 -1 1 -1 1 -1 1 0 1 -1 1 0 1 -1 2 0 1 0 1 0 1 -1 2 0 1 0 1 0 1 0 2 0 1 1 1 0 2 0 1 1 1 0 1 0 1 1 2 1 0 0 1 0 1 1 1 1 1 1 1 1 1 1 1 1 1 1 0 1 1 1 1 1 0 1 1 1 0 1 1 1 0 2 0 1 1 1 0 1 0 2 0 1 0 1 0 2 0 1 0 1 -1 1 0 2 0 1 -1 1 0 1 -1 2 -1 1 0 0 0 1 -1 1 -1 1 -1 1 -1 1 -1 1 -1 1 -1 1 -1 0 -1 1 -1 1 -1 0 -1 1 -1 0 -1 1 -2 0 -1 0 -1 1 -1 0 -2 0 -1 0 -1 0 -1 0 -2 0 -1 0 -1 -1 -2 0 -1 0 -1 -1 -1 0 -1 -1 -2 0 0 0zm17 -30c4,2 5,7 3,10 -2,4 -7,5 -10,3l7 -13zm-163 -94l163 94 -7 13 -164 -94 0 0 8 -13zm-8 13c-3,-2 -4,-6 -2,-10 2,-3 6,-5 10,-3l-8 13zm-155 -106l163 93 -8 13 -163 -93 -4 -7 12 -6zm-8 13c-4,-2 -5,-7 -3,-11 2,-3 7,-5 11,-2l-8 13zm11 -194l0 187 -15 0 0 -187 0 0 15 0zm-15 0c0,-5 4,-8 8,-8 4,0 7,3 7,8l-15 0zm15 -188l0 188 -15 0 0 -188 4 -7 11 7zm-15 0c0,-4 4,-8 8,-8 4,0 7,4 7,8l-15 0zm175 -87l-163 93 -8 -13 163 -93 0 0 8 13zm-8 -13c4,-2 9,-1 11,2 2,4 0,9 -3,11l-8 -13zm171 -81l-163 94 -8 -13 164 -94 7 13zm-7 -13c3,-2 8,-1 10,3 2,3 1,8 -3,10l-7 -13z"/>
    </g>
    <g>
     <path class="fil22" d="M5434 2413c1,1 1,2 1,2 0,1 0,2 0,2 -1,0 -1,0 -2,1 -1,0 -2,0 -4,0 -2,0 -3,0 -4,0 -1,0 -2,-1 -2,-1 -1,0 -1,0 -1,0 0,-1 0,-1 -1,-1l-4 -13 -24 0 -4 12c0,1 0,1 0,1 0,1 -1,1 -1,1 -1,0 -1,0 -2,1 -1,0 -2,0 -3,0 -2,0 -3,0 -4,-1 -1,0 -1,0 -2,0 0,-1 0,-1 0,-2 0,0 0,-1 1,-3l19 -56c0,0 1,-1 1,-1 0,0 0,-1 1,-1 1,0 1,0 2,0 1,0 3,0 4,0 2,0 4,0 5,0 1,0 2,0 3,0 0,0 1,1 1,1 0,0 1,1 1,2l19 56zm-29 -47l0 0 -9 27 18 0 -9 -27zm81 42c0,1 0,1 0,2 0,0 -1,1 -1,1 0,1 0,1 0,1 0,1 0,1 -1,1 0,1 -1,1 -2,2 -1,0 -2,1 -4,1 -1,1 -3,1 -5,2 -2,0 -4,0 -6,0 -4,0 -8,0 -12,-2 -3,-1 -6,-3 -9,-6 -2,-2 -4,-6 -5,-10 -1,-4 -2,-8 -2,-13 0,-6 1,-11 2,-15 2,-4 4,-7 6,-10 3,-3 6,-5 9,-7 4,-1 8,-2 12,-2 2,0 4,0 5,1 2,0 3,0 5,1 1,0 2,1 4,1 1,1 1,2 2,2 0,0 1,1 1,1 0,0 0,1 0,1 0,1 0,1 0,2 0,0 0,1 0,2 0,1 0,2 0,3 0,0 0,1 0,1 0,1 0,1 -1,1 0,0 0,0 0,0 -1,0 -1,0 -2,0 -1,-1 -2,-2 -3,-2 -1,-1 -3,-2 -4,-2 -2,-1 -4,-1 -6,-1 -3,0 -5,0 -7,1 -2,1 -4,3 -5,5 -1,2 -2,4 -3,7 -1,2 -1,5 -1,9 0,4 0,7 1,10 1,2 2,4 3,6 2,2 3,3 5,4 2,1 5,1 7,1 2,0 4,0 6,0 2,-1 3,-1 4,-2 1,-1 2,-1 3,-2 1,0 2,-1 2,-1 0,0 1,0 1,1 0,0 0,0 0,0 0,1 0,1 1,2 0,1 0,2 0,3zm53 0c0,1 0,1 0,2 -1,0 -1,1 -1,1 0,1 0,1 0,1 0,1 -1,1 -1,1 0,1 -1,1 -2,2 -1,0 -2,1 -4,1 -1,1 -3,1 -5,2 -2,0 -4,0 -6,0 -4,0 -8,0 -12,-2 -3,-1 -6,-3 -9,-6 -2,-2 -4,-6 -5,-10 -1,-4 -2,-8 -2,-13 0,-6 1,-11 2,-15 1,-4 3,-7 6,-10 3,-3 6,-5 9,-7 4,-1 8,-2 12,-2 2,0 4,0 5,1 2,0 3,0 5,1 1,0 2,1 3,1 2,1 2,2 3,2 0,0 1,1 1,1 0,0 0,1 0,1 0,1 0,1 0,2 0,0 0,1 0,2 0,1 0,2 0,3 0,0 0,1 0,1 0,1 0,1 -1,1 0,0 0,0 0,0 -1,0 -2,0 -2,0 -1,-1 -2,-2 -3,-2 -1,-1 -3,-2 -4,-2 -2,-1 -4,-1 -6,-1 -3,0 -5,0 -7,1 -2,1 -4,3 -5,5 -1,2 -2,4 -3,7 -1,2 -1,5 -1,9 0,4 0,7 1,10 1,2 2,4 3,6 2,2 3,3 5,4 2,1 5,1 7,1 2,0 4,0 6,0 2,-1 3,-1 4,-2 1,-1 2,-1 3,-2 1,0 2,-1 2,-1 0,0 1,0 1,1 0,0 0,0 0,0 0,1 0,1 0,2 1,1 1,2 1,3zm65 -23c0,5 -1,10 -2,14 -1,4 -3,8 -6,11 -2,2 -6,5 -9,6 -4,2 -9,2 -14,2 -4,0 -9,0 -12,-1 -4,-2 -7,-4 -10,-6 -2,-3 -4,-6 -5,-10 -1,-4 -2,-9 -2,-15 0,-5 1,-10 2,-14 1,-4 3,-7 6,-10 2,-3 6,-5 9,-7 4,-1 9,-2 14,-2 4,0 9,1 12,2 4,1 7,3 9,6 3,2 5,6 6,10 1,4 2,9 2,14zm-14 1c0,-4 0,-7 0,-9 -1,-3 -2,-5 -3,-7 -1,-2 -3,-4 -5,-5 -2,-1 -5,-1 -8,-1 -3,0 -6,0 -8,1 -2,1 -4,3 -5,5 -1,2 -2,4 -3,7 0,3 0,5 0,8 0,4 0,7 0,10 1,3 2,5 3,7 1,2 3,3 5,4 2,1 5,2 8,2 3,0 6,-1 8,-2 2,-1 4,-3 5,-5 1,-2 2,-4 3,-7 0,-2 0,-5 0,-8zm76 8c0,4 0,7 -1,10 -2,3 -3,6 -5,8 -3,2 -5,4 -9,5 -3,1 -7,1 -11,1 -4,0 -7,0 -11,-1 -3,-1 -5,-3 -8,-5 -2,-2 -3,-4 -5,-7 -1,-3 -1,-7 -1,-11l0 -38c0,0 0,-1 0,-1 0,0 0,0 1,-1 0,0 1,0 2,0 1,0 2,0 3,0 1,0 2,0 3,0 1,0 2,0 2,0 1,1 1,1 1,1 0,0 0,1 0,1l0 37c0,3 1,5 1,7 1,2 2,3 3,4 1,2 3,2 4,3 2,1 4,1 6,1 2,0 3,0 5,-1 2,-1 3,-2 4,-3 1,-1 2,-2 3,-4 0,-2 1,-4 1,-6l0 -38c0,0 0,-1 0,-1 0,0 0,0 1,-1 0,0 1,0 2,0 1,0 2,0 3,0 1,0 2,0 3,0 1,0 1,0 2,0 0,1 1,1 1,1 0,0 0,1 0,1l0 38zm66 19c0,1 0,1 0,2 0,0 -1,1 -1,1 -1,1 -1,1 -2,1 0,0 -1,0 -2,0l-5 0c-1,0 -2,0 -3,0 -1,0 -2,-1 -2,-1 -1,-1 -2,-2 -2,-3 -1,-1 -2,-2 -3,-4l-15 -29c-1,-2 -2,-4 -3,-6 -1,-2 -2,-4 -3,-6l0 0c0,3 1,5 1,7 0,3 0,5 0,7l0 34c0,0 0,0 -1,0 0,1 0,1 -1,1 0,0 -1,0 -1,0 -1,1 -2,1 -3,1 -1,0 -2,0 -3,-1 -1,0 -1,0 -2,0 0,0 -1,0 -1,-1 0,0 0,0 0,0l0 -57c0,-2 1,-3 1,-4 1,0 2,-1 4,-1l7 0c1,0 2,0 3,0 1,1 1,1 2,1 1,1 1,2 2,3 0,0 1,1 2,3l12 23c1,1 1,3 2,4 1,1 1,3 2,4 1,1 1,3 2,4 1,1 1,3 2,4l0 0c0,-2 0,-5 0,-7 0,-3 0,-5 0,-7l0 -30c0,0 0,-1 0,-1 0,0 0,0 1,-1 0,0 1,0 2,0 0,0 1,0 3,0 1,0 2,0 2,0 1,0 2,0 2,0 0,1 1,1 1,1 0,0 0,1 0,1l0 57zm56 -54c0,1 0,2 0,3 0,0 0,1 -1,1 0,1 0,1 0,1 0,1 -1,1 -1,1l-16 0 0 51c0,0 0,0 0,0 0,1 -1,1 -1,1 -1,0 -1,0 -2,0 -1,1 -2,1 -3,1 -1,0 -2,0 -3,-1 -1,0 -2,0 -2,0 -1,0 -1,0 -1,-1 -1,0 -1,0 -1,0l0 -51 -15 0c-1,0 -1,0 -1,-1 0,0 -1,0 -1,-1 0,0 0,-1 0,-1 0,-1 0,-2 0,-3 0,-1 0,-1 0,-2 0,-1 0,-1 0,-2 0,0 1,0 1,-1 0,0 0,0 1,0l44 0c0,0 1,0 1,0 0,1 0,1 0,1 1,1 1,1 1,2 0,1 0,1 0,2zm45 39c0,4 -1,7 -2,9 -2,3 -3,5 -5,6 -3,2 -5,3 -8,4 -3,1 -6,1 -9,1 -2,0 -4,0 -6,0 -2,0 -4,-1 -5,-1 -1,-1 -3,-1 -4,-2 -1,-1 -1,-1 -2,-2 0,0 0,-1 -1,-1 0,-1 0,-2 0,-4 0,-1 0,-2 0,-2 0,-1 0,-2 1,-2 0,0 0,-1 0,-1 0,0 1,0 1,0 1,0 1,0 2,1 1,0 2,1 3,1 2,1 3,2 5,2 2,1 4,1 6,1 2,0 3,0 4,-1 2,0 3,0 4,-1 0,-1 1,-2 2,-3 0,-1 0,-2 0,-3 0,-1 0,-3 -1,-4 -1,-1 -2,-2 -3,-2 -1,-1 -3,-2 -4,-3 -2,0 -4,-1 -5,-2 -2,-1 -4,-2 -5,-3 -2,-1 -3,-2 -4,-3 -2,-1 -3,-3 -4,-5 0,-2 -1,-4 -1,-7 0,-3 1,-5 2,-8 1,-2 3,-4 5,-5 1,-2 4,-3 6,-4 3,-1 6,-1 8,-1 2,0 3,0 5,0 1,1 3,1 4,1 1,1 3,1 4,2 1,0 1,1 2,1 0,0 0,0 0,1 0,0 1,0 1,1 0,0 0,0 0,1 0,1 0,1 0,2 0,1 0,2 0,2 0,1 0,2 -1,2 0,1 0,1 0,1 0,0 0,0 -1,0 0,0 -1,0 -2,0 0,-1 -1,-1 -2,-2 -2,0 -3,-1 -4,-1 -2,-1 -4,-1 -5,-1 -2,0 -3,0 -4,1 -1,0 -2,0 -3,1 0,1 -1,1 -1,2 -1,1 -1,2 -1,3 0,1 1,2 1,3 1,1 2,2 4,3 1,1 2,2 4,2 2,1 3,2 5,3 2,0 3,1 5,2 2,1 3,2 4,4 2,1 3,3 3,5 1,2 2,4 2,6zm75 -25c0,4 0,7 -1,10 -2,3 -3,5 -5,7 -2,2 -5,3 -8,4 -3,1 -7,1 -11,1l-5 0 0 21c0,0 0,0 -1,0 0,1 0,1 -1,1 0,0 -1,0 -2,0 0,1 -1,1 -3,1 -1,0 -2,0 -3,-1 -1,0 -1,0 -2,0 0,0 -1,0 -1,-1 0,0 0,0 0,0l0 -57c0,-2 0,-3 1,-4 1,0 2,-1 3,-1l15 0c2,0 3,0 4,0 2,0 3,1 5,1 2,0 4,1 6,2 2,1 4,2 5,4 1,1 2,3 3,5 1,2 1,5 1,7zm-13 1c0,-2 -1,-4 -1,-5 -1,-2 -2,-3 -3,-3 -1,-1 -3,-2 -4,-2 -1,0 -2,0 -4,0l-5 0 0 22 6 0c2,0 3,-1 5,-1 1,-1 2,-2 3,-3 1,-1 2,-2 2,-3 1,-2 1,-3 1,-5zm68 39c1,1 1,2 1,2 0,1 0,2 -1,2 0,0 -1,0 -1,1 -1,0 -3,0 -4,0 -2,0 -3,0 -4,0 -1,0 -2,-1 -2,-1 -1,0 -1,0 -1,0 0,-1 -1,-1 -1,-1l-4 -13 -24 0 -4 12c0,1 0,1 0,1 0,1 -1,1 -1,1 -1,0 -1,0 -2,1 -1,0 -2,0 -4,0 -1,0 -2,0 -3,-1 -1,0 -2,0 -2,0 0,-1 0,-1 0,-2 0,0 0,-1 0,-3l20 -56c0,0 0,-1 1,-1 0,0 0,-1 1,-1 0,0 1,0 2,0 1,0 3,0 4,0 2,0 4,0 5,0 1,0 2,0 3,0 0,0 1,1 1,1 0,0 0,1 1,2l19 56zm-29 -47l0 0 -9 27 18 0 -9 -27zm55 27l0 23c0,0 0,0 0,0 0,1 -1,1 -1,1 -1,0 -1,0 -2,0 -1,1 -2,1 -3,1 -1,0 -2,0 -3,-1 -1,0 -2,0 -2,0 -1,0 -1,0 -1,-1 0,0 -1,0 -1,0l0 -23 -17 -34c-1,-1 -1,-2 -1,-3 0,-1 0,-1 0,-1 1,-1 1,-1 2,-1 1,0 3,0 4,0 2,0 3,0 4,0 1,0 2,0 2,0 1,0 1,1 1,1 1,0 1,1 1,1l7 16c1,1 1,3 2,4 1,2 1,4 2,6l0 0c1,-2 2,-4 2,-6 1,-1 1,-3 2,-4l7 -16c0,0 0,-1 1,-1 0,0 0,0 1,-1 0,0 1,0 2,0 1,0 2,0 3,0 2,0 3,0 4,0 1,0 2,0 3,1 0,0 0,0 0,1 0,1 -1,2 -1,3l-18 34zm70 20c0,1 1,2 1,2 0,1 0,2 -1,2 0,0 -1,0 -2,1 0,0 -2,0 -3,0 -2,0 -3,0 -4,0 -1,0 -2,-1 -2,-1 -1,0 -1,0 -1,0 -1,-1 -1,-1 -1,-1l-4 -13 -24 0 -4 12c0,1 0,1 0,1 -1,1 -1,1 -1,1 -1,0 -1,0 -2,1 -1,0 -2,0 -4,0 -1,0 -2,0 -3,-1 -1,0 -2,0 -2,0 0,-1 0,-1 0,-2 0,0 0,-1 0,-3l20 -56c0,0 0,-1 1,-1 0,0 0,-1 1,-1 0,0 1,0 2,0 1,0 2,0 4,0 2,0 4,0 5,0 1,0 2,0 2,0 1,0 1,1 2,1 0,0 0,1 0,2l20 56zm-29 -47l0 0 -9 27 18 0 -9 -27zm84 32c0,3 -1,5 -1,6 -1,2 -2,4 -3,5 -1,2 -2,3 -4,4 -1,1 -3,2 -5,2 -2,1 -4,2 -6,2 -2,0 -4,0 -7,0l-16 0c-1,0 -2,0 -3,-1 -1,0 -1,-1 -1,-3l0 -55c0,-1 0,-2 1,-3 1,-1 2,-1 3,-1l15 0c4,0 8,0 10,1 3,1 5,2 7,3 2,1 3,3 4,5 1,2 2,4 2,7 0,2 0,3 -1,4 0,2 -1,3 -2,4 0,1 -1,2 -2,3 -1,1 -3,2 -4,2 2,0 3,1 5,2 1,1 3,2 4,3 1,1 2,3 3,5 0,1 1,3 1,5zm-17 -26c0,-2 0,-3 -1,-4 0,-1 -1,-2 -1,-2 -1,-1 -2,-1 -3,-2 -2,0 -3,0 -5,0l-7 0 0 16 8 0c1,0 3,0 4,-1 1,0 2,-1 3,-1 1,-1 1,-2 1,-3 1,-1 1,-2 1,-3zm3 27c0,-2 0,-3 0,-4 -1,-1 -2,-2 -3,-3 -1,-1 -2,-1 -3,-2 -2,0 -4,0 -6,0l-8 0 0 18 10 0c2,0 3,-1 4,-1 1,0 3,-1 3,-2 1,0 2,-1 3,-2 0,-2 0,-3 0,-4zm59 13c0,1 0,2 0,2 -1,1 -1,2 -1,2 0,1 0,1 0,1 -1,0 -1,0 -1,0l-29 0c-1,0 -2,0 -3,-1 -1,0 -1,-1 -1,-3l0 -57c0,0 0,-1 0,-1 0,0 1,0 1,-1 1,0 1,0 2,0 1,0 2,0 3,0 2,0 3,0 4,0 0,0 1,0 1,0 1,1 1,1 2,1 0,0 0,1 0,1l0 51 20 0c0,0 0,0 1,0 0,0 0,0 0,1 0,0 0,1 1,2 0,0 0,1 0,2z"/>
     <path class="fil22" d="M6204 2412c0,1 0,2 0,3 -1,0 -1,1 -1,1 0,1 0,1 0,1 -1,0 -1,0 -1,0l-32 0c-1,0 -2,0 -3,-1 0,0 -1,-1 -1,-3l0 -55c0,-1 1,-2 1,-3 1,-1 2,-1 3,-1l32 0c0,0 0,0 0,0 1,1 1,1 1,1 0,1 0,1 0,2 0,0 0,1 0,2 0,1 0,2 0,3 0,0 0,1 0,1 0,0 0,1 -1,1 0,0 0,0 0,0l-23 0 0 16 19 0c0,0 1,0 1,0 0,0 0,0 0,1 1,0 1,1 1,1 0,1 0,2 0,3 0,0 0,1 0,2 0,1 0,1 -1,1 0,1 0,1 0,1 0,0 -1,0 -1,0l-19 0 0 18 23 0c0,0 0,0 1,1 0,0 0,0 0,0 0,1 0,1 1,2 0,1 0,1 0,2z"/>
    </g>
    <g>
     <path class="fil22" d="M9855 533l-1 1 -1 0 -1 1 -1 0 -2 1 -1 0 -1 0 -2 0 -1 0 -1 1 -1 0 -2 -1 -1 0 -1 0 -1 0 -2 0 -1 -1 -1 0 -1 -1 -1 0 -2 -1 -1 0 -1 -1 -1 -1 -1 -1 -1 0 -1 -1 -1 -1 0 -1 -1 -1 -1 -2 -1 -1 0 0 0 -1 -1 -1 0 -1 -1 -2 0 -1 -1 -1 0 -1 0 -2 0 -1 0 -1 0 -1 0 -2 0 -1 0 -1 0 -2 1 -1 0 -1 1 -1 0 -1 1 -1 0 -2 1 -1 0 -1 1 -1 1 -1 1 -1 1 -1 1 -1 1 0 1 -1 1 -1 1 -1 0 0 1 0 2 -1 1 0 1 -1 1 0 1 -1 2 0 1 0 1 0 2 0 1 0 1 0 1 0 2 0 1 0 1 1 1 0 2 0 1 1 1 0 1 1 1 1 1 0 1 1 1 1 1 1 1 1 1 1 1 1 1 1 0 1 1 1 0 0 1 1 0 1 1 2 0 1 1 1 0 1 0 2 0 1 1 1 0 2 0 1 0 1 -1 1 0 2 0 1 0 1 -1 1 0 1 -1 2 0 1 -1 1 0 1 -1 1 -1 1 -1 1 0 1 -1 1 -1 1 -1 1 -1 1 -1 0 -2 1 0 0zm-16 -29c3,-2 8,-1 10,2 2,4 1,9 -3,11l-7 -13zm-164 93l164 -93 7 13 -163 93 0 0 -8 -13zm8 13c-4,2 -9,1 -11,-2 -2,-4 0,-9 3,-11l8 13zm-171 81l163 -94 8 13 -164 94 -11 -6 4 -7zm7 13c-3,2 -8,1 -10,-3 -2,-3 -1,-8 3,-10l7 13zm-11 181l0 -187 15 0 0 187 0 0 -15 0zm15 0c0,4 -3,8 -7,8 -5,0 -8,-4 -8,-8l15 0zm-15 188l0 -188 15 0 0 188 -15 0zm15 0c0,4 -3,7 -7,7 -5,0 -8,-3 -8,-7l15 0z"/>
    </g>
    <g>
     <path class="fil22" d="M9176 2404l-1 0 -2 -1 -1 -1 -1 -1 -1 -1 -1 -1 0 -1 -1 -1 -1 -1 -1 -1 0 -1 -1 -1 0 -1 -1 -1 0 -1 -1 -2 0 -1 0 -1 0 -1 0 -2 -1 -1 0 -1 1 -1 0 -2 0 -1 0 -1 0 -2 1 -1 0 -1 1 -1 0 -2 1 -1 0 0 1 -1 0 -1 1 -1 1 -1 1 -1 1 -1 1 -1 1 -1 1 0 1 -1 1 -1 1 0 1 -1 2 0 1 -1 1 0 1 0 1 -1 2 0 1 0 1 0 2 0 1 0 1 0 1 0 2 1 1 0 1 0 1 1 2 0 1 1 1 1 0 0 1 0 1 1 1 1 1 1 1 1 1 0 1 1 1 1 1 1 0 2 1 1 1 1 0 1 1 1 0 1 0 2 1 1 0 1 0 1 0 2 0 1 0 1 0 1 0 2 0 1 0 1 -1 1 0 2 0 1 -1 1 -1 1 0 2 0 0 -1 1 -1 1 0 1 -1 1 -1 1 -1 1 -1 1 -1 0 -1 1 -1 1 -1 1 -2 0 -1 1 -1 0 -1 1 -1 0 -1 0 -2 0 -1 1 -1 0 -2 0 -1 0 -1 0 -1 0 -2 -1 -1 0 -1 0 -1 0 -2 -1 -1 0 -1 -1 -1 -1 0 0zm17 -29c3,2 4,7 2,10 -2,4 -6,5 -10,3l8 -13zm-164 -94l164 94 -8 13 -163 -94 0 0 7 -13zm-7 13c-4,-2 -5,-6 -3,-10 2,-4 7,-5 10,-3l-7 13zm-156 -107l163 94 -7 13 -164 -94 -3 -6 11 -7zm-8 13c-3,-2 -4,-6 -2,-10 2,-3 6,-5 10,-3l-8 13zm12 -194l0 188 -15 0 0 -188 0 0 15 0zm-15 0c0,-4 3,-7 7,-7 4,0 8,3 8,7l-15 0zm15 -187l0 187 -15 0 0 -187 15 0zm-15 0c0,-4 3,-8 7,-8 4,0 8,4 8,8l-15 0z"/>
    </g>
    <path class="fil22" d="M9339 2360c0,1 0,1 0,2 0,1 0,1 0,2 -1,0 -1,0 -1,1 0,0 -1,0 -1,0l-21 0 0 17 20 0c0,0 0,0 1,0 0,0 0,1 0,1 1,0 1,1 1,2 0,0 0,1 0,2 0,1 0,2 0,2 0,1 0,2 -1,2 0,0 0,1 0,1 -1,0 -1,0 -1,0l-20 0 0 24c0,0 0,0 0,1 0,0 0,0 -1,0 0,1 -1,1 -2,1 -1,0 -2,0 -3,0 -1,0 -2,0 -3,0 -1,0 -2,0 -2,-1 -1,0 -1,0 -1,0 0,-1 0,-1 0,-1l0 -58c0,-1 0,-2 1,-3 0,0 1,-1 2,-1l30 0c0,0 1,0 1,1 0,0 0,0 1,1 0,0 0,0 0,1 0,1 0,2 0,3zm23 56c0,0 0,0 0,1 0,0 0,0 -1,0 0,1 -1,1 -2,1 -1,0 -2,0 -3,0 -1,0 -2,0 -3,0 -1,0 -2,0 -2,-1 -1,0 -1,0 -1,0 0,-1 0,-1 0,-1l0 -60c0,0 0,0 0,-1 0,0 0,0 1,0 0,-1 1,-1 2,-1 1,0 2,0 3,0 1,0 2,0 3,0 1,0 2,0 2,1 1,0 1,0 1,0 0,1 0,1 0,1l0 60zm59 -3c1,1 1,2 1,3 1,0 0,1 0,1 0,0 -1,1 -2,1 -1,0 -2,0 -4,0 -2,0 -3,0 -4,0 -1,0 -1,0 -2,-1 0,0 -1,0 -1,0 0,0 0,-1 -1,-1l-12 -23 -11 23c-1,0 -1,1 -1,1 0,0 -1,0 -1,0 -1,1 -1,1 -2,1 -1,0 -2,0 -4,0 -1,0 -3,0 -4,0 -1,0 -1,-1 -2,-1 0,0 0,-1 0,-1 0,-1 1,-2 1,-3l16 -28 -15 -26c0,-1 0,-2 -1,-3 0,0 0,-1 1,-1 0,-1 1,-1 2,-1 1,0 2,0 4,0 1,0 3,0 4,0 0,0 1,0 2,0 0,1 1,1 1,1 0,0 0,1 0,1l12 21 10 -21c1,0 1,-1 1,-1 0,0 0,0 1,-1 0,0 1,0 2,0 1,0 2,0 3,0 2,0 3,0 4,0 1,0 2,0 2,1 0,0 1,1 0,1 0,1 0,2 -1,3l-14 26 15 28zm48 0c0,1 0,1 0,2 0,1 -1,1 -1,1 0,1 0,1 0,1 -1,1 -1,1 -1,1l-32 0c-1,0 -2,-1 -3,-1 0,-1 -1,-2 -1,-3l0 -56c0,-1 1,-2 1,-3 1,0 2,-1 3,-1l32 0c0,0 0,0 0,1 1,0 1,0 1,0 0,1 0,1 0,2 0,1 1,1 1,2 0,1 -1,2 -1,3 0,0 0,1 0,1 0,1 0,1 -1,1 0,0 0,0 0,0l-23 0 0 16 19 0c0,0 1,0 1,0 0,0 0,1 1,1 0,0 0,1 0,2 0,0 0,1 0,2 0,1 0,2 0,2 0,1 0,1 0,2 -1,0 -1,0 -1,0 0,1 -1,1 -1,1l-19 0 0 17 23 0c0,0 0,1 1,1 0,0 0,0 0,1 0,0 1,1 1,1 0,1 0,2 0,3zm64 -28c0,6 -1,11 -3,15 -1,4 -3,7 -6,10 -3,3 -6,5 -11,6 -4,1 -8,2 -14,2l-15 0c-1,0 -2,-1 -3,-1 -1,-1 -1,-2 -1,-3l0 -56c0,-1 0,-2 1,-3 1,0 2,-1 3,-1l16 0c6,0 11,1 14,2 4,2 8,4 10,6 3,3 5,6 7,10 1,4 2,8 2,13zm-14 1c0,-3 0,-6 -1,-9 0,-2 -2,-5 -3,-7 -2,-1 -4,-3 -6,-4 -2,-1 -6,-2 -10,-2l-6 0 0 43 7 0c3,0 6,0 8,-1 3,-1 5,-2 7,-4 1,-2 2,-4 3,-7 1,-3 1,-6 1,-9zm99 27c0,1 0,2 0,3 0,0 0,1 0,1 0,0 -1,1 -2,1 -1,0 -2,0 -4,0 -1,0 -3,0 -4,0 -1,0 -1,0 -2,0 0,-1 -1,-1 -1,-1 0,0 0,-1 0,-1l-4 -13 -24 0 -4 13c0,0 -1,0 -1,1 0,0 0,0 -1,0 0,1 -1,1 -2,1 -1,0 -2,0 -3,0 -2,0 -3,0 -4,0 -1,0 -1,-1 -1,-1 -1,0 -1,-1 -1,-2 0,0 1,-1 1,-2l19 -56c1,-1 1,-1 1,-2 0,0 1,0 1,-1 1,0 2,0 3,0 1,0 2,0 4,0 2,0 3,0 4,0 1,0 2,0 3,0 1,1 1,1 1,1 1,1 1,1 1,2l20 56zm-29 -47l-1 0 -8 27 17 0 -8 -27zm75 33c0,3 -1,6 -2,8 -1,3 -3,5 -5,7 -2,1 -5,3 -7,3 -3,1 -6,2 -10,2 -2,0 -4,0 -6,-1 -1,0 -3,-1 -5,-1 -1,-1 -2,-1 -3,-2 -1,0 -2,-1 -2,-1 -1,-1 -1,-1 -1,-2 0,-1 0,-2 0,-4 0,-1 0,-1 0,-2 0,-1 0,-1 0,-2 0,0 0,0 1,-1 0,0 0,0 0,0 1,0 2,0 2,1 1,0 2,1 4,2 1,0 2,1 4,1 2,1 4,1 7,1 1,0 3,0 4,0 1,-1 2,-1 3,-2 1,-1 1,-1 2,-2 0,-1 1,-2 1,-4 0,-1 -1,-2 -2,-3 0,-1 -1,-2 -3,-3 -1,-1 -2,-2 -4,-2 -2,-1 -3,-2 -5,-3 -2,0 -3,-1 -5,-2 -1,-1 -3,-2 -4,-4 -1,-1 -2,-3 -3,-5 -1,-2 -1,-4 -1,-7 0,-3 0,-5 1,-8 1,-2 3,-4 5,-5 2,-2 4,-3 7,-4 2,0 5,-1 8,-1 1,0 3,0 4,1 2,0 3,0 5,1 1,0 2,0 3,1 1,0 2,1 2,1 0,0 1,1 1,1 0,0 0,0 0,1 0,0 0,1 0,1 0,1 0,2 0,2 0,1 0,2 0,3 0,0 0,1 0,1 0,1 0,1 -1,1 0,0 0,1 0,1 -1,0 -1,-1 -2,-1 -1,-1 -2,-1 -3,-2 -1,0 -3,-1 -4,-1 -2,-1 -3,-1 -5,-1 -1,0 -3,0 -4,1 -1,0 -2,1 -2,1 -1,1 -1,2 -2,2 0,1 0,2 0,3 0,1 0,3 1,4 1,1 2,2 3,2 1,1 3,2 4,3 2,0 4,1 5,2 2,1 4,2 5,3 2,1 3,2 5,3 1,2 2,3 3,5 1,2 1,4 1,7zm47 0c0,3 0,6 -2,8 -1,3 -3,5 -5,7 -2,1 -4,3 -7,3 -3,1 -6,2 -9,2 -2,0 -4,0 -6,-1 -2,0 -4,-1 -5,-1 -2,-1 -3,-1 -4,-2 -1,0 -2,-1 -2,-1 0,-1 -1,-1 -1,-2 0,-1 0,-2 0,-4 0,-1 0,-1 0,-2 0,-1 0,-1 0,-2 0,0 1,0 1,-1 0,0 0,0 1,0 0,0 1,0 2,1 1,0 2,1 3,2 1,0 3,1 5,1 1,1 3,1 6,1 1,0 3,0 4,0 1,-1 2,-1 3,-2 1,-1 2,-1 2,-2 1,-1 1,-2 1,-4 0,-1 -1,-2 -1,-3 -1,-1 -2,-2 -3,-3 -2,-1 -3,-2 -5,-2 -1,-1 -3,-2 -5,-3 -1,0 -3,-1 -5,-2 -1,-1 -3,-2 -4,-4 -1,-1 -2,-3 -3,-5 -1,-2 -1,-4 -1,-7 0,-3 1,-5 2,-8 1,-2 2,-4 4,-5 2,-2 4,-3 7,-4 3,0 5,-1 8,-1 2,0 3,0 5,1 1,0 3,0 4,1 1,0 2,0 3,1 1,0 2,1 2,1 1,0 1,1 1,1 0,0 0,0 0,1 0,0 0,1 0,1 0,1 0,2 0,2 0,1 0,2 0,3 0,0 0,1 0,1 0,1 0,1 0,1 -1,0 -1,1 -1,1 -1,0 -1,-1 -2,-1 -1,-1 -2,-1 -3,-2 -1,0 -2,-1 -4,-1 -1,-1 -3,-1 -5,-1 -1,0 -2,0 -3,1 -1,0 -2,1 -3,1 -1,1 -1,2 -2,2 0,1 0,2 0,3 0,1 0,3 1,4 1,1 2,2 3,2 1,1 3,2 5,3 1,0 3,1 5,2 1,1 3,2 5,3 1,1 3,2 4,3 1,2 2,3 3,5 1,2 1,4 1,7zm47 14c0,1 0,1 0,2 0,1 0,1 0,1 0,1 0,1 -1,1 0,1 0,1 -1,1l-31 0c-1,0 -2,-1 -3,-1 -1,-1 -1,-2 -1,-3l0 -56c0,-1 0,-2 1,-3 1,0 2,-1 3,-1l31 0c1,0 1,0 1,1 0,0 1,0 1,0 0,1 0,1 0,2 0,1 0,1 0,2 0,1 0,2 0,3 0,0 0,1 0,1 0,1 -1,1 -1,1 0,0 0,0 -1,0l-22 0 0 16 19 0c0,0 0,0 1,0 0,0 0,1 0,1 0,0 0,1 1,2 0,0 0,1 0,2 0,1 0,2 0,2 -1,1 -1,1 -1,2 0,0 0,0 0,0 -1,1 -1,1 -1,1l-19 0 0 17 22 0c1,0 1,1 1,1 1,0 1,0 1,1 0,0 0,1 0,1 0,1 0,2 0,3zm54 -53c0,1 0,1 0,2 0,1 -1,1 -1,2 0,0 0,0 0,1 -1,0 -1,0 -1,0l-16 0 0 51c0,0 0,0 0,1 0,0 -1,0 -1,0 -1,1 -1,1 -2,1 -1,0 -2,0 -3,0 -2,0 -3,0 -3,0 -1,0 -2,0 -2,-1 -1,0 -1,0 -2,0 0,-1 0,-1 0,-1l0 -51 -16 0c0,0 0,0 0,0 -1,-1 -1,-1 -1,-1 0,-1 0,-1 0,-2 -1,-1 -1,-1 -1,-2 0,-1 0,-2 1,-3 0,-1 0,-1 0,-1 0,-1 0,-1 1,-1 0,-1 0,-1 0,-1l45 0c0,0 0,0 1,1 0,0 0,0 0,1 0,0 1,0 1,1 0,1 0,2 0,3zm44 39c0,3 0,6 -2,8 -1,3 -2,5 -5,7 -2,1 -4,3 -7,3 -3,1 -6,2 -9,2 -2,0 -4,0 -6,-1 -2,0 -4,-1 -5,-1 -2,-1 -3,-1 -4,-2 -1,0 -1,-1 -2,-1 0,-1 -1,-1 -1,-2 0,-1 0,-2 0,-4 0,-1 0,-1 0,-2 0,-1 0,-1 0,-2 1,0 1,0 1,-1 0,0 1,0 1,0 0,0 1,0 2,1 1,0 2,1 3,2 1,0 3,1 5,1 1,1 4,1 6,1 2,0 3,0 4,0 1,-1 2,-1 3,-2 1,-1 2,-1 2,-2 1,-1 1,-2 1,-4 0,-1 0,-2 -1,-3 -1,-1 -2,-2 -3,-3 -1,-1 -3,-2 -5,-2 -1,-1 -3,-2 -4,-3 -2,0 -4,-1 -5,-2 -2,-1 -3,-2 -5,-4 -1,-1 -2,-3 -3,-5 -1,-2 -1,-4 -1,-7 0,-3 1,-5 2,-8 1,-2 2,-4 4,-5 2,-2 4,-3 7,-4 3,0 5,-1 8,-1 2,0 3,0 5,1 1,0 3,0 4,1 1,0 2,0 3,1 1,0 2,1 2,1 1,0 1,1 1,1 0,0 0,0 0,1 0,0 1,1 1,1 0,1 0,2 0,2 0,1 0,2 0,3 -1,0 -1,1 -1,1 0,1 0,1 0,1 0,0 -1,1 -1,1 0,0 -1,-1 -2,-1 -1,-1 -2,-1 -3,-2 -1,0 -2,-1 -4,-1 -1,-1 -3,-1 -5,-1 -1,0 -2,0 -3,1 -1,0 -2,1 -3,1 -1,1 -1,2 -1,2 -1,1 -1,2 -1,3 0,1 0,3 1,4 1,1 2,2 3,2 2,1 3,2 5,3 1,0 3,1 5,2 1,1 3,2 5,3 1,1 3,2 4,3 1,2 2,3 3,5 1,2 1,4 1,7z"/>
    <path class="fil22" d="M9244 531c0,3 0,5 -1,7 0,1 -1,3 -2,4 -1,2 -3,3 -4,4 -2,1 -3,2 -5,2 -2,1 -4,2 -6,2 -2,0 -4,0 -7,0l-17 0c-1,0 -2,0 -2,-1 -1,0 -2,-1 -2,-3l0 -55c0,-1 1,-2 2,-3 0,-1 1,-1 2,-1l16 0c4,0 7,0 10,1 3,1 5,2 7,3 2,1 3,3 4,5 1,2 1,4 1,7 0,2 0,3 0,5 -1,1 -1,2 -2,3 -1,1 -2,2 -3,3 -1,1 -2,2 -3,2 1,1 3,1 5,2 1,1 2,2 4,3 1,1 2,3 2,5 1,1 1,3 1,5zm-16 -26c0,-2 -1,-3 -1,-4 0,-1 -1,-2 -2,-2 -1,-1 -2,-1 -3,-2 -1,0 -2,0 -4,0l-7 0 0 16 7 0c2,0 4,0 5,-1 1,0 2,-1 2,-1 1,-1 2,-2 2,-3 0,-1 1,-2 1,-3zm3 27c0,-2 0,-3 -1,-4 0,-1 -1,-2 -2,-3 -1,-1 -2,-1 -4,-2 -1,0 -3,0 -5,0l-8 0 0 18 9 0c2,0 4,-1 5,-1 1,0 2,-1 3,-2 1,0 2,-1 2,-2 1,-1 1,-3 1,-4zm75 -5c0,4 -1,7 -2,10 -1,3 -2,6 -5,8 -2,2 -5,4 -8,5 -3,1 -7,1 -11,1 -4,0 -8,0 -11,-1 -3,-1 -6,-3 -8,-5 -2,-2 -4,-4 -5,-7 -1,-3 -2,-7 -2,-11l0 -38c0,0 1,-1 1,-1 0,0 0,0 1,-1 0,0 1,0 2,0 1,0 2,0 3,0 1,0 2,0 3,0 1,0 1,0 2,0 0,1 1,1 1,1 0,0 0,1 0,1l0 37c0,3 1,5 1,7 1,2 2,3 3,4 1,2 2,2 4,3 2,1 3,1 5,1 2,0 4,0 6,-1 1,-1 3,-1 4,-3 1,-1 2,-2 2,-4 1,-2 1,-4 1,-6l0 -38c0,0 0,-1 1,-1 0,0 0,0 1,-1 0,0 1,0 2,0 0,0 2,0 3,0 1,0 2,0 3,0 1,0 1,0 2,0 0,1 1,1 1,1 0,0 0,1 0,1l0 38zm66 -9c0,6 0,11 -2,15 -1,4 -4,7 -6,10 -3,2 -7,4 -11,6 -4,1 -9,1 -14,1l-15 0c-1,0 -2,0 -3,-1 -1,0 -1,-1 -1,-3l0 -55c0,-1 0,-2 1,-3 1,-1 2,-1 3,-1l16 0c5,0 10,1 14,2 4,1 7,3 10,6 3,3 5,6 6,10 2,3 2,8 2,13zm-13 0c0,-3 0,-6 -1,-8 -1,-3 -2,-5 -3,-7 -2,-2 -4,-3 -6,-4 -3,-1 -6,-2 -10,-2l-6 0 0 43 6 0c4,0 7,0 9,-1 3,-1 5,-2 6,-4 2,-2 3,-4 4,-7 1,-3 1,-6 1,-10zm75 -21c0,1 0,2 -1,2 0,1 0,2 0,2 0,0 0,1 0,1 -1,0 -1,0 -1,0 -1,0 -1,0 -2,-1 -1,0 -2,-1 -4,-2 -2,0 -3,-1 -6,-2 -2,0 -4,0 -7,0 -3,0 -6,0 -8,1 -3,1 -5,3 -7,5 -1,2 -3,4 -4,7 -1,2 -1,5 -1,9 0,3 0,6 1,9 1,3 3,5 4,7 2,2 4,3 6,4 3,1 6,2 9,2 1,0 2,0 4,-1 1,0 3,-1 4,-1l0 -15 -12 0c-1,0 -1,0 -2,-1 0,-1 0,-2 0,-4 0,-1 0,-1 0,-2 0,-1 0,-1 0,-2 1,0 1,0 1,0 0,-1 0,-1 1,-1l21 0c1,0 1,0 1,1 1,0 1,0 2,0 0,1 0,1 0,2 0,0 1,1 1,1l0 26c0,1 -1,2 -1,2 0,1 -1,2 -2,2 -1,0 -2,1 -4,1 -2,1 -3,1 -5,1 -2,1 -3,1 -5,1 -2,0 -3,0 -5,0 -5,0 -10,0 -14,-2 -4,-1 -7,-3 -10,-6 -3,-3 -5,-6 -6,-10 -2,-4 -2,-9 -2,-14 0,-5 0,-9 2,-14 1,-4 4,-7 7,-10 2,-3 6,-5 10,-7 4,-1 9,-2 14,-2 2,0 5,0 7,1 2,0 4,0 6,1 2,1 3,1 4,2 1,0 2,1 2,1 1,1 1,1 1,2 1,1 1,2 1,4zm50 48c0,1 0,2 0,3 0,0 0,1 0,1 -1,1 -1,1 -1,1 0,0 -1,0 -1,0l-32 0c-1,0 -2,0 -2,-1 -1,0 -1,-1 -1,-3l0 -55c0,-1 0,-2 1,-3 0,-1 1,-1 2,-1l32 0c0,0 1,0 1,0 0,1 0,1 0,1 1,1 1,1 1,2 0,0 0,1 0,2 0,1 0,2 0,3 0,0 0,1 -1,1 0,1 0,1 0,1 0,0 -1,0 -1,0l-23 0 0 16 19 0c1,0 1,0 1,0 0,0 1,0 1,1 0,0 0,1 0,1 0,1 0,2 0,3 0,1 0,1 0,2 0,1 0,1 0,1 0,1 -1,1 -1,1 0,0 0,0 -1,0l-19 0 0 18 23 0c0,0 1,0 1,1 0,0 0,0 1,0 0,1 0,1 0,2 0,1 0,1 0,2zm53 -53c0,1 0,2 0,3 0,1 0,1 0,1 0,1 0,1 -1,1 0,1 0,1 0,1l-16 0 0 51c0,0 0,0 -1,0 0,1 0,1 -1,1 0,0 -1,0 -2,1 0,0 -1,0 -3,0 -1,0 -2,0 -3,0 -1,-1 -1,-1 -2,-1 0,0 -1,0 -1,-1 0,0 0,0 0,0l0 -51 -16 0c0,0 -1,0 -1,-1 0,0 0,0 0,-1 -1,0 -1,0 -1,-1 0,-1 0,-2 0,-3 0,-1 0,-1 0,-2 0,-1 0,-1 1,-2 0,0 0,0 0,-1 0,0 1,0 1,0l45 0c0,0 0,0 0,0 1,1 1,1 1,1 0,1 0,1 0,2 0,1 0,1 0,2zm21 57c0,0 0,0 0,0 -1,1 -1,1 -1,1 -1,0 -2,0 -2,1 -1,0 -2,0 -4,0 -1,0 -2,0 -3,0 -1,-1 -1,-1 -2,-1 0,0 0,0 -1,-1 0,0 0,0 0,0l0 -60c0,0 0,-1 0,-1 1,0 1,0 1,-1 1,0 2,0 2,0 1,0 2,0 3,0 2,0 3,0 4,0 0,0 1,0 2,0 0,1 0,1 1,1 0,0 0,1 0,1l0 60zm66 -3c0,1 0,1 -1,2 0,0 0,1 -1,1 0,1 -1,1 -1,1 -1,0 -1,0 -2,0l-6 0c-1,0 -2,0 -3,0 0,0 -1,-1 -2,-1 -1,-1 -1,-2 -2,-3 0,-1 -1,-2 -2,-4l-16 -29c-1,-2 -2,-4 -3,-6 0,-2 -1,-4 -2,-6l0 0c0,3 0,5 0,7 0,3 0,5 0,7l0 34c0,0 0,0 0,0 0,1 -1,1 -1,1 0,0 -1,0 -2,1 0,0 -1,0 -3,0 -1,0 -2,0 -2,0 -1,-1 -2,-1 -2,-1 -1,0 -1,0 -1,-1 0,0 0,0 0,0l0 -57c0,-2 0,-3 1,-4 1,0 2,-1 3,-1l7 0c1,0 2,0 3,0 1,1 2,1 3,1 0,1 1,2 1,3 1,0 2,1 2,3l13 23c0,1 1,3 2,4 0,1 1,3 2,4 0,1 1,3 2,4 0,1 1,3 1,4l0 0c0,-2 0,-5 0,-7 0,-3 0,-5 0,-7l0 -30c0,0 0,-1 0,-1 1,0 1,0 1,-1 1,0 2,0 2,0 1,0 2,0 3,0 1,0 2,0 3,0 1,0 1,0 2,0 0,1 0,1 1,1 0,0 0,1 0,1l0 57zm64 -49c0,1 0,2 0,2 0,1 0,2 0,2 0,0 -1,1 -1,1 0,0 0,0 0,0 -1,0 -2,0 -3,-1 0,0 -2,-1 -3,-2 -2,0 -4,-1 -6,-2 -2,0 -5,0 -7,0 -3,0 -6,0 -9,1 -2,1 -4,3 -6,5 -2,2 -3,4 -4,7 -1,2 -2,5 -2,9 0,3 1,6 2,9 1,3 2,5 4,7 2,2 4,3 6,4 3,1 5,2 8,2 2,0 3,0 4,-1 2,0 3,-1 4,-1l0 -15 -12 0c0,0 -1,0 -1,-1 0,-1 0,-2 0,-4 0,-1 0,-1 0,-2 0,-1 0,-1 0,-2 0,0 0,0 1,0 0,-1 0,-1 0,-1l22 0c0,0 1,0 1,1 1,0 1,0 1,0 1,1 1,1 1,2 0,0 0,1 0,1l0 26c0,1 0,2 0,2 -1,1 -1,2 -2,2 -2,0 -3,1 -4,1 -2,1 -4,1 -5,1 -2,1 -4,1 -5,1 -2,0 -4,0 -5,0 -6,0 -10,0 -14,-2 -4,-1 -7,-3 -10,-6 -3,-3 -5,-6 -7,-10 -1,-4 -2,-9 -2,-14 0,-5 1,-9 3,-14 1,-4 3,-7 6,-10 3,-3 7,-5 11,-7 4,-1 8,-2 13,-2 3,0 5,0 8,1 2,0 4,0 6,1 1,1 3,1 4,2 1,0 2,1 2,1 0,1 1,1 1,2 0,1 0,2 0,4z"/>
    <g>
     <path class="fil22" d="M6562 533l-1 -1 -1 -1 -1 -1 -1 0 -1 -1 -1 -1 -1 -1 -1 -1 0 -1 -1 -1 -1 -1 0 -2 -1 -1 0 -1 -1 -1 0 -1 0 -1 -1 -2 0 -1 0 -1 0 -2 0 -1 0 -1 0 -1 0 -2 1 -1 0 -1 0 -1 1 -2 0 -1 1 -1 0 -1 0 0 1 -1 1 -2 1 -1 0 -1 1 -1 1 -1 1 0 1 -1 1 -1 1 -1 2 0 1 -1 1 0 1 -1 1 0 1 -1 2 0 1 0 1 0 1 0 2 -1 1 0 1 1 2 0 1 0 1 0 1 0 2 1 1 0 1 1 1 0 1 1 0 0 2 1 1 0 1 1 1 1 1 1 1 1 0 1 1 1 1 1 1 1 0 1 1 1 1 1 0 2 0 1 1 1 0 1 0 1 0 2 1 1 0 1 0 1 0 2 0 1 -1 1 0 2 0 1 -1 1 0 1 -1 2 0 1 -1 1 0 0 -1 1 0 1 -1 1 -1 1 -1 1 -1 1 -1 1 -1 1 -1 1 -1 0 -1 1 -1 1 -1 0 -1 1 -2 0 -1 0 -1 1 -1 0 -2 0 -1 0 -1 0 -1 0 -2 0 -1 0 -1 0 -1 0 -2 -1 -1 0 -1 -1 -1 0 -2 -1 -1 0 0 0zm17 -30c4,2 5,7 3,11 -2,3 -7,4 -10,2l7 -13zm-163 -93l163 93 -7 13 -164 -93 0 0 8 -13zm-8 13c-3,-2 -5,-7 -3,-11 2,-3 7,-4 11,-2l-8 13zm-156 -107l164 94 -8 13 -163 -94 0 -13 7 0zm-7 13c-4,-2 -5,-7 -3,-10 2,-4 7,-5 10,-3l-7 13zm-163 81l163 -94 7 13 -163 94 0 0 -7 -13zm7 13c-4,2 -8,0 -10,-3 -2,-4 -1,-8 3,-10l7 13zm-171 80l164 -93 7 13 -163 93 -12 -6 4 -7zm8 13c-4,2 -9,1 -11,-2 -2,-4 0,-9 3,-11l8 13zm-12 181l0 -187 15 0 0 187 0 0 -15 0zm15 0c0,5 -3,8 -7,8 -4,0 -8,-3 -8,-8l15 0zm-15 188l0 -188 15 0 0 188 -15 0zm15 0c0,4 -3,7 -7,7 -4,0 -8,-3 -8,-7l15 0z"/>
    </g>
    <path class="fil22" d="M6741 531c0,3 0,5 -1,7 0,1 -1,3 -2,4 -2,2 -3,3 -4,4 -2,1 -3,2 -5,2 -2,1 -4,2 -6,2 -2,0 -5,0 -7,0l-17 0c-1,0 -2,0 -3,-1 0,0 -1,-1 -1,-3l0 -55c0,-1 1,-2 1,-3 1,-1 2,-1 3,-1l16 0c4,0 7,0 10,1 3,1 5,2 7,3 1,1 3,3 4,5 1,2 1,4 1,7 0,2 0,3 0,5 -1,1 -1,2 -2,3 -1,1 -2,2 -3,3 -1,1 -2,2 -3,2 1,1 3,1 4,2 2,1 3,2 4,3 2,1 2,3 3,5 1,1 1,3 1,5zm-17 -26c0,-2 0,-3 0,-4 0,-1 -1,-2 -2,-2 -1,-1 -2,-1 -3,-2 -1,0 -3,0 -5,0l-6 0 0 16 7 0c2,0 3,0 5,-1 1,0 2,-1 2,-1 1,-1 2,-2 2,-3 0,-1 0,-2 0,-3zm4 27c0,-2 0,-3 -1,-4 0,-1 -1,-2 -2,-3 -1,-1 -2,-1 -4,-2 -1,0 -3,0 -5,0l-8 0 0 18 9 0c2,0 4,-1 5,-1 1,0 2,-1 3,-2 1,0 2,-1 2,-2 1,-1 1,-3 1,-4zm74 14c1,1 1,2 1,2 0,1 0,2 0,2 -1,0 -1,0 -2,1 -1,0 -2,0 -4,0 -2,0 -3,0 -4,0 -1,0 -2,-1 -2,-1 -1,0 -1,0 -1,0 0,-1 0,-1 -1,-1l-4 -13 -24 0 -4 12c0,1 0,1 0,1 0,1 -1,1 -1,1 -1,0 -1,0 -2,1 -1,0 -2,0 -4,0 -1,0 -2,0 -3,0 -1,-1 -1,-1 -2,-1 0,-1 0,-1 0,-2 0,0 0,-1 1,-3l19 -56c0,0 0,-1 1,-1 0,0 0,-1 1,-1 1,0 1,0 2,0 1,0 3,0 4,0 2,0 4,0 5,0 1,0 2,0 3,0 0,0 1,1 1,1 0,0 1,1 1,2l19 56zm-29 -47l0 0 -9 27 18 0 -9 -27zm90 47c0,1 0,1 0,2 0,0 -1,1 -1,1 -1,1 -1,1 -2,1 0,0 -1,0 -2,0l-5 0c-1,0 -2,0 -3,0 -1,0 -2,-1 -2,-1 -1,-1 -2,-2 -2,-3 -1,-1 -2,-2 -3,-4l-15 -29c-1,-2 -2,-4 -3,-6 -1,-2 -2,-4 -3,-6l0 0c0,3 1,5 1,7 0,3 0,5 0,7l0 34c0,0 0,0 -1,0 0,1 0,1 -1,1 0,0 -1,0 -1,1 -1,0 -2,0 -3,0 -1,0 -2,0 -3,0 -1,-1 -1,-1 -2,-1 0,0 -1,0 -1,-1 0,0 0,0 0,0l0 -57c0,-2 1,-3 1,-4 1,0 2,-1 4,-1l7 0c1,0 2,0 3,0 1,1 1,1 2,1 1,1 1,2 2,3 0,0 1,1 2,3l12 23c1,1 1,3 2,4 1,1 2,3 2,4 1,1 1,3 2,4 1,1 1,3 2,4l0 0c0,-2 0,-5 0,-7 0,-3 0,-5 0,-7l0 -30c0,0 0,-1 0,-1 0,0 0,0 1,-1 0,0 1,0 2,0 0,0 1,0 3,0 1,0 2,0 2,0 1,0 2,0 2,0 1,1 1,1 1,1 0,0 0,1 0,1l0 57zm60 2c0,1 0,1 0,1 0,1 -1,1 -1,1 -1,0 -1,0 -2,1 -1,0 -2,0 -4,0 -2,0 -3,0 -4,-1 -1,0 -2,0 -2,0 -1,-1 -1,-1 -1,-1l-19 -31 0 31c0,0 0,0 -1,0 0,1 0,1 -1,1 0,0 -1,0 -1,1 -1,0 -2,0 -4,0 -1,0 -2,0 -3,0 -1,-1 -1,-1 -2,-1 0,0 0,0 -1,-1 0,0 0,0 0,0l0 -60c0,0 0,-1 0,-1 1,0 1,0 1,-1 1,0 1,0 2,0 1,0 2,0 3,0 2,0 3,0 4,0 0,0 1,0 1,0 1,1 1,1 1,1 1,0 1,1 1,1l0 27 18 -27c1,0 1,-1 1,-1 0,0 1,-1 1,-1 1,0 2,0 2,0 1,0 2,0 4,0 1,0 2,0 3,0 1,0 1,0 2,0 0,1 1,1 1,1 0,0 0,1 0,1 0,0 0,1 0,2 -1,0 -1,1 -2,2l-17 23 19 29c0,1 1,2 1,2 0,1 0,1 0,1zm128 1c0,0 -1,0 -1,0 0,1 0,1 -1,1 0,0 -1,0 -2,1 0,0 -1,0 -3,0 -1,0 -2,0 -3,0 0,-1 -1,-1 -1,-1 -1,0 -1,0 -1,-1 -1,0 -1,0 -1,0l0 -52 0 0 -18 52c0,0 0,0 -1,1 0,0 0,0 -1,0 0,0 -1,1 -2,1 -1,0 -2,0 -3,0 -1,0 -2,0 -2,0 -1,-1 -2,-1 -2,-1 -1,0 -1,0 -2,-1 0,0 0,0 0,0l-18 -52 0 0 0 52c0,0 0,0 0,0 0,1 -1,1 -1,1 -1,0 -1,0 -2,1 -1,0 -2,0 -3,0 -1,0 -2,0 -3,0 -1,-1 -1,-1 -2,-1 0,0 -1,0 -1,-1 0,0 0,0 0,0l0 -57c0,-1 0,-3 1,-4 1,0 2,-1 4,-1l8 0c2,0 3,0 4,0 1,1 2,1 3,2 1,0 1,1 2,2 0,1 1,2 1,3l14 38 0 0 14 -37c0,-2 1,-3 1,-4 1,-1 2,-2 2,-2 1,-1 2,-1 3,-2 1,0 2,0 3,0l8 0c1,0 2,0 3,0 0,1 1,1 1,1 1,1 1,1 1,2 0,1 1,1 1,2l0 57zm65 -3c0,1 1,2 1,2 0,1 0,2 -1,2 0,0 -1,0 -1,1 -1,0 -3,0 -4,0 -2,0 -3,0 -4,0 -1,0 -2,-1 -2,-1 -1,0 -1,0 -1,0 0,-1 -1,-1 -1,-1l-4 -13 -24 0 -4 12c0,1 0,1 0,1 0,1 -1,1 -1,1 -1,0 -1,0 -2,1 -1,0 -2,0 -4,0 -1,0 -2,0 -3,0 -1,-1 -2,-1 -2,-1 0,-1 0,-1 0,-2 0,0 0,-1 0,-3l20 -56c0,0 0,-1 1,-1 0,0 0,-1 1,-1 0,0 1,0 2,0 1,0 3,0 4,0 2,0 4,0 5,0 1,0 2,0 3,0 0,0 1,1 1,1 0,0 0,1 1,2l19 56zm-29 -47l0 0 -9 27 18 0 -9 -27zm90 47c0,1 0,1 0,2 -1,0 -1,1 -1,1 -1,1 -1,1 -2,1 -1,0 -1,0 -2,0l-5 0c-1,0 -2,0 -3,0 -1,0 -2,-1 -2,-1 -1,-1 -2,-2 -3,-3 0,-1 -1,-2 -2,-4l-15 -29c-1,-2 -2,-4 -3,-6 -1,-2 -2,-4 -3,-6l0 0c0,3 0,5 0,7 1,3 1,5 1,7l0 34c0,0 -1,0 -1,0 0,1 0,1 -1,1 0,0 -1,0 -1,1 -1,0 -2,0 -3,0 -1,0 -2,0 -3,0 -1,-1 -1,-1 -2,-1 0,0 -1,0 -1,-1 0,0 0,0 0,0l0 -57c0,-2 0,-3 1,-4 1,0 2,-1 4,-1l7 0c1,0 2,0 3,0 0,1 1,1 2,1 1,1 1,2 2,3 0,0 1,1 2,3l12 23c1,1 1,3 2,4 1,1 1,3 2,4 1,1 1,3 2,4 1,1 1,3 2,4l0 0c0,-2 0,-5 0,-7 -1,-3 -1,-5 -1,-7l0 -30c0,0 1,-1 1,-1 0,0 0,0 1,-1 0,0 1,0 2,0 0,0 1,0 2,0 2,0 3,0 3,0 1,0 2,0 2,0 0,1 1,1 1,1 0,0 0,1 0,1l0 57zm66 0c0,1 0,2 0,2 0,1 0,2 0,2 0,0 -1,0 -2,1 -1,0 -2,0 -4,0 -1,0 -3,0 -4,0 -1,0 -1,-1 -2,-1 0,0 -1,0 -1,0 0,-1 0,-1 0,-1l-4 -13 -24 0 -4 12c0,1 0,1 -1,1 0,1 0,1 -1,1 0,0 -1,0 -2,1 -1,0 -2,0 -3,0 -2,0 -3,0 -4,0 0,-1 -1,-1 -1,-1 -1,-1 -1,-1 -1,-2 0,0 1,-1 1,-3l19 -56c1,0 1,-1 1,-1 0,0 1,-1 1,-1 1,0 2,0 3,0 1,0 2,0 4,0 2,0 3,0 4,0 2,0 2,0 3,0 1,0 1,1 1,1 1,0 1,1 1,2l20 56zm-29 -47l0 0 -9 27 18 0 -9 -27zm87 -2c0,1 0,2 0,2 0,1 0,2 0,2 -1,0 -1,1 -1,1 0,0 0,0 -1,0 0,0 -1,0 -2,-1 -1,0 -2,-1 -4,-2 -1,0 -3,-1 -5,-2 -2,0 -5,0 -8,0 -3,0 -6,0 -8,1 -2,1 -5,3 -6,5 -2,2 -3,4 -4,7 -1,2 -2,5 -2,9 0,3 1,6 2,9 1,3 2,5 4,7 1,2 3,3 6,4 2,1 5,2 8,2 1,0 3,0 4,-1 2,0 3,-1 4,-1l0 -15 -12 0c0,0 -1,0 -1,-1 -1,-1 -1,-2 -1,-4 0,-1 0,-1 0,-2 0,-1 1,-1 1,-2 0,0 0,0 0,0 1,-1 1,-1 1,-1l21 0c1,0 1,0 2,1 0,0 1,0 1,0 0,1 0,1 1,2 0,0 0,1 0,1l0 26c0,1 0,2 -1,2 0,1 -1,2 -2,2 -1,0 -2,1 -4,1 -1,1 -3,1 -5,1 -1,1 -3,1 -5,1 -1,0 -3,0 -5,0 -5,0 -9,0 -13,-2 -4,-1 -8,-3 -10,-6 -3,-3 -5,-6 -7,-10 -1,-4 -2,-9 -2,-14 0,-5 1,-9 2,-14 2,-4 4,-7 7,-10 3,-3 6,-5 10,-7 4,-1 9,-2 14,-2 3,0 5,0 7,1 3,0 5,0 6,1 2,1 3,1 4,2 2,0 2,1 3,1 0,1 1,1 1,2 0,1 0,2 0,4zm50 48c0,1 0,2 0,3 0,0 0,1 0,1 0,1 0,1 -1,1 0,0 0,0 0,0l-32 0c-1,0 -2,0 -3,-1 -1,0 -1,-1 -1,-3l0 -55c0,-1 0,-2 1,-3 1,-1 2,-1 3,-1l31 0c1,0 1,0 1,0 0,1 1,1 1,1 0,1 0,1 0,2 0,0 0,1 0,2 0,1 0,2 0,3 0,0 0,1 0,1 0,1 -1,1 -1,1 0,0 0,0 -1,0l-22 0 0 16 19 0c0,0 0,0 1,0 0,0 0,0 0,1 0,0 1,1 1,1 0,1 0,2 0,3 0,1 0,1 0,2 0,1 -1,1 -1,1 0,1 0,1 0,1 -1,0 -1,0 -1,0l-19 0 0 18 23 0c0,0 0,0 0,1 1,0 1,0 1,0 0,1 0,1 0,2 0,1 0,1 0,2zm85 4c0,0 0,0 0,0 0,1 0,1 -1,1 0,0 -1,0 -2,1 0,0 -1,0 -3,0 -1,0 -2,0 -3,0 0,-1 -1,-1 -1,-1 -1,0 -1,0 -1,-1 -1,0 -1,0 -1,0l0 -52 0 0 -18 52c0,0 0,0 -1,1 0,0 0,0 -1,0 0,0 -1,1 -2,1 -1,0 -2,0 -3,0 -1,0 -2,0 -3,0 0,-1 -1,-1 -1,-1 -1,0 -1,0 -2,-1 0,0 0,0 0,0l-18 -52 0 0 0 52c0,0 0,0 0,0 0,1 -1,1 -1,1 -1,0 -1,0 -2,1 -1,0 -2,0 -3,0 -1,0 -2,0 -3,0 -1,-1 -1,-1 -2,-1 0,0 -1,0 -1,-1 0,0 0,0 0,0l0 -57c0,-1 0,-3 1,-4 1,0 2,-1 4,-1l8 0c2,0 3,0 4,0 1,1 2,1 3,2 1,0 1,1 2,2 0,1 1,2 1,3l14 38 0 0 14 -37c0,-2 1,-3 1,-4 1,-1 1,-2 2,-2 1,-1 2,-1 2,-2 1,0 2,0 4,0l8 0c1,0 2,0 3,0 0,1 1,1 1,1 1,1 1,1 1,2 0,1 0,1 0,2l0 57zm52 -4c0,1 0,2 0,3 -1,0 -1,1 -1,1 0,1 0,1 0,1 -1,0 -1,0 -1,0l-32 0c-1,0 -2,0 -3,-1 0,0 -1,-1 -1,-3l0 -55c0,-1 1,-2 1,-3 1,-1 2,-1 3,-1l32 0c0,0 0,0 0,0 1,1 1,1 1,1 0,1 0,1 0,2 0,0 0,1 0,2 0,1 0,2 0,3 0,0 0,1 0,1 0,1 0,1 -1,1 0,0 0,0 0,0l-23 0 0 16 19 0c0,0 1,0 1,0 0,0 0,0 0,1 1,0 1,1 1,1 0,1 0,2 0,3 0,1 0,1 0,2 0,1 0,1 -1,1 0,1 0,1 0,1 0,0 -1,0 -1,0l-19 0 0 18 23 0c0,0 0,0 1,1 0,0 0,0 0,0 0,1 0,1 1,2 0,1 0,1 0,2zm63 1c0,1 0,1 0,2 0,0 -1,1 -1,1 -1,1 -1,1 -2,1 0,0 -1,0 -2,0l-5 0c-1,0 -2,0 -3,0 -1,0 -2,-1 -2,-1 -1,-1 -2,-2 -2,-3 -1,-1 -2,-2 -3,-4l-15 -29c-1,-2 -2,-4 -3,-6 -1,-2 -2,-4 -3,-6l0 0c0,3 0,5 1,7 0,3 0,5 0,7l0 34c0,0 0,0 -1,0 0,1 0,1 -1,1 0,0 -1,0 -1,1 -1,0 -2,0 -3,0 -1,0 -2,0 -3,0 -1,-1 -1,-1 -2,-1 0,0 -1,0 -1,-1 0,0 0,0 0,0l0 -57c0,-2 0,-3 1,-4 1,0 2,-1 4,-1l7 0c1,0 2,0 3,0 1,1 1,1 2,1 1,1 1,2 2,3 0,0 1,1 2,3l12 23c1,1 1,3 2,4 1,1 1,3 2,4 1,1 1,3 2,4 1,1 1,3 2,4l0 0c0,-2 0,-5 0,-7 0,-3 0,-5 0,-7l0 -30c0,0 0,-1 0,-1 0,0 0,0 1,-1 0,0 1,0 2,0 0,0 1,0 3,0 1,0 2,0 2,0 1,0 2,0 2,0 0,1 1,1 1,1 0,0 0,1 0,1l0 57zm56 -54c0,1 0,2 0,3 0,1 0,1 -1,1 0,1 0,1 0,1 0,1 -1,1 -1,1l-16 0 0 51c0,0 0,0 0,0 0,1 -1,1 -1,1 -1,0 -1,0 -2,1 -1,0 -2,0 -3,0 -1,0 -2,0 -3,0 -1,-1 -2,-1 -2,-1 -1,0 -1,0 -1,-1 -1,0 -1,0 -1,0l0 -51 -15 0c-1,0 -1,0 -1,-1 -1,0 -1,0 -1,-1 0,0 0,0 0,-1 0,-1 0,-2 0,-3 0,-1 0,-1 0,-2 0,-1 0,-1 0,-2 0,0 0,0 1,-1 0,0 0,0 1,0l44 0c0,0 1,0 1,0 0,1 0,1 0,1 1,1 1,1 1,2 0,1 0,1 0,2z"/>
    <g>
     <path class="fil22" d="M7629 1602c1,1 1,2 1,3 0,0 0,1 0,1 -1,1 -1,1 -2,1 -1,0 -3,0 -4,0 -2,0 -3,0 -4,0 -1,0 -2,0 -2,0 -1,0 -1,-1 -1,-1 0,0 -1,-1 -1,-1l-4 -13 -24 0 -4 13c0,0 0,1 0,1 0,0 -1,0 -1,1 -1,0 -1,0 -2,0 -1,0 -2,0 -4,0 -1,0 -2,0 -3,0 -1,0 -2,0 -2,-1 0,0 0,-1 0,-1 0,-1 0,-2 1,-3l19 -56c0,-1 0,-1 1,-2 0,0 0,0 1,0 0,-1 1,-1 2,-1 1,0 3,0 4,0 2,0 4,0 5,0 1,0 2,0 3,1 0,0 1,0 1,0 0,1 0,1 1,2l19 56zm-29 -46l0 0 -9 26 18 0 -9 -26zm81 41c0,1 0,2 -1,2 0,1 0,1 0,2 0,0 0,0 0,1 0,0 -1,0 -1,1 0,0 -1,1 -2,1 -1,1 -2,1 -4,2 -1,0 -3,1 -5,1 -2,1 -4,1 -6,1 -4,0 -8,-1 -12,-2 -3,-2 -6,-4 -9,-6 -2,-3 -4,-6 -5,-10 -2,-4 -2,-9 -2,-14 0,-5 1,-10 2,-14 1,-5 3,-8 6,-11 3,-3 6,-5 9,-6 4,-2 8,-2 12,-2 2,0 4,0 5,0 2,0 3,1 5,1 1,1 2,1 3,2 2,0 2,1 3,1 0,1 0,1 1,1 0,1 0,1 0,2 0,0 0,1 0,1 0,1 0,2 0,2 0,1 0,2 0,3 0,1 0,1 0,2 0,0 0,0 -1,1 0,0 0,0 0,0 -1,0 -2,0 -2,-1 -1,-1 -2,-1 -3,-2 -1,-1 -3,-1 -4,-2 -2,0 -4,-1 -6,-1 -3,0 -5,1 -7,2 -2,1 -4,2 -5,4 -1,2 -2,4 -3,7 -1,3 -1,6 -1,9 0,4 0,7 1,10 1,3 2,5 3,7 2,1 3,3 5,4 2,0 5,1 7,1 2,0 4,0 6,-1 2,-1 3,-1 4,-2 1,0 2,-1 3,-1 1,-1 1,-1 2,-1 0,0 0,0 1,0 0,0 0,0 0,1 0,0 0,1 0,1 1,1 1,2 1,3zm53 0c0,1 -1,2 -1,2 0,1 0,1 0,2 0,0 0,0 0,1 0,0 -1,0 -1,1 0,0 -1,1 -2,1 -1,1 -2,1 -4,2 -1,0 -3,1 -5,1 -2,1 -4,1 -6,1 -4,0 -8,-1 -12,-2 -3,-2 -6,-4 -9,-6 -2,-3 -4,-6 -5,-10 -2,-4 -2,-9 -2,-14 0,-5 1,-10 2,-14 1,-5 3,-8 6,-11 3,-3 6,-5 9,-6 4,-2 8,-2 12,-2 2,0 4,0 5,0 2,0 3,1 5,1 1,1 2,1 3,2 2,0 2,1 3,1 0,1 0,1 1,1 0,1 0,1 0,2 0,0 0,1 0,1 0,1 0,2 0,2 0,1 0,2 0,3 0,1 0,1 0,2 0,0 0,0 -1,1 0,0 0,0 0,0 -1,0 -2,0 -2,-1 -1,-1 -2,-1 -3,-2 -1,-1 -3,-1 -4,-2 -2,0 -4,-1 -6,-1 -3,0 -5,1 -7,2 -2,1 -4,2 -5,4 -1,2 -3,4 -3,7 -1,3 -1,6 -1,9 0,4 0,7 1,10 1,3 2,5 3,7 2,1 3,3 5,4 2,0 4,1 7,1 2,0 4,0 6,-1 2,-1 3,-1 4,-2 1,0 2,-1 3,-1 1,-1 1,-1 2,-1 0,0 0,0 1,0 0,0 0,0 0,1 0,0 0,1 0,1 0,1 1,2 1,3zm65 -23c0,6 -1,10 -2,14 -1,5 -3,8 -6,11 -3,3 -6,5 -9,7 -4,1 -9,2 -14,2 -5,0 -9,-1 -13,-2 -3,-1 -6,-3 -9,-6 -2,-3 -4,-6 -5,-10 -1,-4 -2,-9 -2,-15 0,-5 1,-9 2,-13 1,-4 3,-8 6,-11 2,-3 6,-5 9,-6 4,-2 9,-3 14,-3 4,0 9,1 12,2 4,2 7,4 9,6 3,3 5,6 6,10 1,4 2,9 2,14zm-14 1c0,-3 0,-6 0,-9 -1,-3 -2,-5 -3,-7 -1,-2 -3,-3 -5,-5 -2,-1 -5,-1 -8,-1 -3,0 -6,1 -8,2 -2,1 -4,2 -5,4 -1,2 -2,5 -3,7 0,3 0,6 0,9 0,3 0,6 0,9 1,3 2,5 3,7 1,2 3,4 5,5 2,1 5,1 8,1 3,0 6,0 8,-2 2,-1 3,-2 5,-4 1,-2 2,-5 3,-7 0,-3 0,-6 0,-9zm76 8c0,4 0,8 -2,11 -1,3 -2,5 -5,7 -2,2 -5,4 -8,5 -3,1 -7,2 -11,2 -4,0 -8,-1 -11,-2 -3,-1 -6,-2 -8,-4 -2,-2 -4,-5 -5,-8 -1,-3 -1,-6 -1,-10l0 -39c0,0 0,0 0,-1 0,0 0,0 1,0 0,0 1,-1 2,-1 1,0 2,0 3,0 1,0 2,0 3,0 1,0 2,1 2,1 0,0 1,0 1,0 0,1 0,1 0,1l0 38c0,2 1,4 1,6 1,2 2,4 3,5 1,1 3,2 4,2 2,1 4,1 6,1 2,0 3,0 5,-1 2,0 3,-1 4,-2 1,-2 2,-3 3,-5 0,-1 0,-3 0,-6l0 -38c0,0 1,0 1,-1 0,0 0,0 1,0 0,0 1,-1 2,-1 1,0 2,0 3,0 1,0 2,0 3,0 1,0 1,1 2,1 0,0 1,0 1,0 0,1 0,1 0,1l0 38zm66 19c0,1 0,2 0,2 -1,1 -1,1 -1,2 -1,0 -1,0 -2,1 -1,0 -1,0 -2,0l-5 0c-1,0 -2,0 -3,-1 -1,0 -2,0 -2,-1 -1,0 -2,-1 -3,-2 0,-1 -1,-3 -2,-4l-15 -30c-1,-2 -2,-3 -3,-5 -1,-2 -2,-4 -3,-6l0 0c0,2 0,4 0,7 1,2 1,4 1,7l0 33c0,0 -1,1 -1,1 0,0 0,0 -1,0 0,1 -1,1 -1,1 -1,0 -2,0 -3,0 -1,0 -2,0 -3,0 -1,0 -1,0 -2,-1 0,0 -1,0 -1,0 0,0 0,-1 0,-1l0 -57c0,-1 0,-3 1,-3 1,-1 2,-1 4,-1l7 0c1,0 2,0 3,0 0,0 1,0 2,1 1,0 1,1 2,2 0,1 1,2 2,3l12 23c1,2 1,3 2,4 1,2 1,3 2,4 1,2 1,3 2,4 1,2 1,3 2,4l0 0c0,-2 0,-4 0,-7 0,-2 -1,-5 -1,-7l0 -30c0,0 1,0 1,0 0,-1 0,-1 1,-1 0,0 1,0 2,-1 0,0 1,0 2,0 2,0 3,0 3,0 1,1 2,1 2,1 0,0 1,0 1,1 0,0 0,0 0,0l0 57zm56 -53c0,1 0,2 0,2 0,1 0,1 -1,2 0,0 0,1 0,1 0,0 -1,0 -1,0l-16 0 0 51c0,0 0,1 0,1 0,0 -1,0 -1,0 -1,1 -1,1 -2,1 -1,0 -2,0 -3,0 -2,0 -3,0 -3,0 -1,0 -2,0 -2,-1 -1,0 -1,0 -1,0 -1,0 -1,-1 -1,-1l0 -51 -16 0c0,0 0,0 0,0 -1,0 -1,-1 -1,-1 0,-1 0,-1 0,-2 0,0 0,-1 0,-2 0,-1 0,-2 0,-3 0,0 0,-1 0,-1 0,-1 0,-1 1,-1 0,0 0,0 0,0l45 0c0,0 1,0 1,0 0,0 0,0 0,1 1,0 1,1 1,1 0,1 0,2 0,3zm44 39c0,3 0,6 -1,9 -2,2 -3,4 -5,6 -3,1 -5,3 -8,4 -3,0 -6,1 -9,1 -2,0 -4,0 -6,-1 -2,0 -4,-1 -5,-1 -1,-1 -3,-1 -4,-2 -1,0 -1,-1 -2,-1 0,-1 0,-1 -1,-2 0,-1 0,-2 0,-3 0,-1 0,-2 0,-3 0,-1 0,-1 1,-2 0,0 0,0 0,-1 0,0 1,0 1,0 0,0 1,0 2,1 1,1 2,1 3,2 1,0 3,1 5,2 2,0 4,0 6,0 2,0 3,0 4,0 2,-1 3,-1 3,-2 1,0 2,-1 2,-2 1,-1 1,-2 1,-4 0,-1 0,-2 -1,-3 -1,-1 -2,-2 -3,-3 -1,-1 -3,-2 -4,-2 -2,-1 -4,-2 -5,-2 -2,-1 -4,-2 -5,-3 -2,-1 -3,-2 -5,-4 -1,-1 -2,-3 -3,-5 0,-1 -1,-4 -1,-6 0,-3 1,-6 2,-8 1,-3 3,-5 4,-6 2,-2 5,-3 7,-3 3,-1 5,-2 8,-2 2,0 3,1 5,1 1,0 3,0 4,1 1,0 3,1 4,1 1,0 1,1 2,1 0,1 0,1 0,1 0,0 0,1 1,1 0,0 0,1 0,1 0,1 0,2 0,2 0,1 0,2 0,3 0,1 0,1 -1,1 0,1 0,1 0,1 0,1 -1,1 -1,1 0,0 -1,-1 -2,-1 0,0 -1,-1 -3,-1 -1,-1 -2,-1 -4,-2 -1,0 -3,-1 -4,-1 -2,0 -3,1 -4,1 -1,0 -2,1 -3,1 0,1 -1,2 -1,3 -1,0 -1,1 -1,2 0,2 1,3 1,4 1,1 2,2 3,3 2,0 3,1 5,2 1,1 3,1 5,2 2,1 3,2 5,3 1,1 3,2 4,3 1,2 2,3 3,5 1,2 1,4 1,7zm80 17c0,0 0,1 0,1 -1,0 -1,0 -1,1 -1,0 -2,0 -3,0 0,0 -2,0 -3,0 -2,0 -3,0 -4,0 0,0 -1,0 -2,0 0,-1 0,-1 -1,-1 0,0 0,-1 0,-1l-6 -14c0,-2 -1,-3 -2,-5 0,-1 -1,-2 -2,-3 -1,0 -2,-1 -3,-2 -1,0 -2,0 -3,0l-4 0 0 24c0,0 0,1 -1,1 0,0 0,0 -1,0 0,1 -1,1 -2,1 -1,0 -2,0 -3,0 -1,0 -2,0 -3,0 -1,0 -1,0 -2,-1 0,0 -1,0 -1,0 0,0 0,-1 0,-1l0 -57c0,-2 0,-3 1,-4 1,0 2,0 3,0l16 0c2,0 3,0 4,0 1,0 2,0 3,0 3,0 5,1 7,2 2,1 4,2 5,3 1,2 3,3 3,5 1,2 1,4 1,7 0,2 0,4 0,6 -1,1 -2,3 -3,4 -1,2 -2,3 -4,4 -1,1 -3,2 -5,2 1,1 2,1 3,2 1,1 1,1 2,2 1,1 2,2 2,3 1,2 2,3 2,5l6 12c0,1 0,2 0,3 1,0 1,1 1,1zm-17 -43c0,-2 0,-4 -1,-5 -1,-2 -3,-3 -5,-3 -1,0 -1,0 -2,-1 -1,0 -2,0 -4,0l-5 0 0 18 6 0c2,0 4,0 5,0 1,-1 2,-2 3,-2 1,-1 2,-2 2,-3 1,-1 1,-2 1,-4zm64 40c0,1 0,1 -1,2 0,1 0,1 0,2 0,0 0,0 -1,0 0,1 0,1 0,1l-32 0c-1,0 -2,-1 -3,-1 -1,-1 -1,-2 -1,-3l0 -55c0,-2 0,-3 1,-4 1,0 2,0 3,0l31 0c1,0 1,0 1,0 0,0 1,0 1,1 0,0 0,1 0,1 0,1 0,2 0,3 0,1 0,1 0,2 0,1 0,1 0,1 0,1 -1,1 -1,1 0,1 0,1 -1,1l-22 0 0 15 19 0c0,0 1,0 1,0 0,0 0,1 0,1 1,0 1,1 1,2 0,0 0,1 0,2 0,1 0,2 0,2 0,1 0,1 -1,2 0,0 0,0 0,1 0,0 -1,0 -1,0l-19 0 0 18 23 0c0,0 0,0 0,0 1,0 1,0 1,1 0,0 0,1 0,1 1,1 1,2 1,3zm53 -5c0,1 0,2 0,2 0,1 0,1 0,2 0,0 0,0 -1,1 0,0 0,0 0,1 -1,0 -1,1 -2,1 -1,1 -3,1 -4,2 -2,0 -3,1 -5,1 -2,1 -4,1 -6,1 -5,0 -9,-1 -12,-2 -4,-2 -7,-4 -9,-6 -2,-3 -4,-6 -6,-10 -1,-4 -2,-9 -2,-14 0,-5 1,-10 3,-14 1,-5 3,-8 6,-11 2,-3 5,-5 9,-6 3,-2 7,-2 12,-2 2,0 3,0 5,0 1,0 3,1 4,1 2,1 3,1 4,2 1,0 2,1 2,1 1,1 1,1 1,1 0,1 1,1 1,2 0,0 0,1 0,1 0,1 0,2 0,2 0,1 0,2 0,3 0,1 0,1 0,2 -1,0 -1,0 -1,1 0,0 -1,0 -1,0 0,0 -1,0 -2,-1 0,-1 -1,-1 -3,-2 -1,-1 -2,-1 -4,-2 -1,0 -3,-1 -6,-1 -2,0 -4,1 -6,2 -2,1 -4,2 -5,4 -2,2 -3,4 -4,7 0,3 -1,6 -1,9 0,4 1,7 2,10 0,3 1,5 3,7 1,1 3,3 5,4 2,0 4,1 7,1 2,0 4,0 6,-1 1,-1 3,-1 4,-2 1,0 2,-1 3,-1 1,-1 1,-1 2,-1 0,0 0,0 0,0 0,0 1,0 1,1 0,0 0,1 0,1 0,1 0,2 0,3zm47 5c0,1 0,1 0,2 0,1 0,1 -1,2 0,0 0,0 0,0 -1,1 -1,1 -1,1l-32 0c-1,0 -2,-1 -2,-1 -1,-1 -2,-2 -2,-3l0 -55c0,-2 1,-3 2,-4 0,0 1,0 2,0l32 0c0,0 0,0 1,0 0,0 0,0 0,1 0,0 0,1 1,1 0,1 0,2 0,3 0,1 0,1 0,2 -1,1 -1,1 -1,1 0,1 0,1 0,1 -1,1 -1,1 -1,1l-23 0 0 15 19 0c1,0 1,0 1,0 0,0 0,1 1,1 0,0 0,1 0,2 0,0 0,1 0,2 0,1 0,2 0,2 0,1 0,1 0,2 -1,0 -1,0 -1,1 0,0 0,0 -1,0l-19 0 0 18 23 0c0,0 0,0 1,0 0,0 0,0 0,1 1,0 1,1 1,1 0,1 0,2 0,3zm24 3c0,0 0,1 0,1 0,0 -1,0 -1,0 -1,1 -1,1 -2,1 -1,0 -2,0 -3,0 -2,0 -3,0 -3,0 -1,0 -2,0 -2,-1 -1,0 -1,0 -1,0 -1,0 -1,-1 -1,-1l0 -60c0,0 0,0 1,-1 0,0 0,0 1,0 0,0 1,-1 2,-1 0,0 1,0 3,0 1,0 2,0 3,0 1,0 1,1 2,1 0,0 1,0 1,0 0,1 0,1 0,1l0 60z"/>
     <path class="fil22" d="M8323 1604c0,1 0,1 0,2 -1,0 -1,0 -2,1 0,0 -1,0 -2,0 -1,0 -2,0 -4,0 -1,0 -2,0 -3,0 -1,0 -2,0 -3,0 0,0 -1,0 -1,0 -1,-1 -1,-1 -1,-1 0,0 -1,0 -1,-1 0,0 0,0 0,-1l-19 -56c0,-1 -1,-2 -1,-2 0,-1 0,-2 1,-2 0,0 1,-1 2,-1 1,0 2,0 4,0 1,0 3,0 3,0 1,0 2,0 2,1 1,0 1,0 1,0 1,1 1,1 1,2l15 48 0 0 15 -48c0,-1 1,-1 1,-1 0,-1 0,-1 1,-1 0,0 1,-1 2,-1 1,0 2,0 4,0 1,0 2,0 3,0 1,0 1,1 2,1 0,0 0,1 0,2 0,0 0,1 -1,2l-19 56zm75 -2c0,1 0,2 0,3 0,0 0,1 0,1 -1,1 -1,1 -2,1 -1,0 -2,0 -4,0 -1,0 -3,0 -4,0 -1,0 -1,0 -2,0 0,0 -1,-1 -1,-1 0,0 0,-1 0,-1l-4 -13 -24 0 -4 13c0,0 -1,1 -1,1 0,0 0,0 -1,1 0,0 -1,0 -2,0 -1,0 -2,0 -3,0 -2,0 -3,0 -4,0 -1,0 -1,0 -2,-1 0,0 0,-1 0,-1 0,-1 0,-2 1,-3l19 -56c1,-1 1,-1 1,-2 0,0 1,0 1,0 1,-1 2,-1 3,-1 1,0 2,0 4,0 2,0 3,0 4,0 1,0 2,0 3,1 1,0 1,0 1,0 1,1 1,1 1,2l20 56zm-30 -46l0 0 -8 26 17 0 -9 -26zm84 32c0,2 0,4 -1,6 0,2 -1,3 -2,5 -2,1 -3,2 -4,3 -2,1 -3,2 -5,3 -2,0 -4,1 -6,1 -2,1 -5,1 -7,1l-17 0c-1,0 -2,-1 -3,-1 0,-1 -1,-2 -1,-3l0 -55c0,-2 1,-3 1,-4 1,0 2,0 3,0l16 0c4,0 7,0 10,0 3,1 5,2 7,3 1,2 3,3 4,5 1,2 1,5 1,8 0,1 0,3 0,4 -1,1 -1,2 -2,4 -1,1 -2,2 -3,2 -1,1 -2,2 -3,3 1,0 3,0 4,1 2,1 3,2 4,3 2,2 2,3 3,5 1,2 1,4 1,6zm-17 -27c0,-1 0,-2 0,-3 0,-1 -1,-2 -2,-3 -1,0 -2,-1 -3,-1 -1,-1 -3,-1 -5,-1l-6 0 0 17 7 0c2,0 3,-1 5,-1 1,-1 2,-1 2,-2 1,-1 2,-2 2,-3 0,-1 0,-2 0,-3zm4 27c0,-1 0,-3 -1,-4 0,-1 -1,-2 -2,-3 -1,0 -2,-1 -4,-1 -1,-1 -3,-1 -5,-1l-8 0 0 18 9 0c2,0 4,0 5,-1 1,0 2,-1 3,-1 1,-1 2,-2 2,-3 1,-1 1,-2 1,-4zm58 13c0,1 0,2 0,3 0,0 0,1 0,1 -1,1 -1,1 -1,1 0,1 0,1 -1,1l-29 0c-1,0 -2,-1 -2,-1 -1,-1 -2,-2 -2,-3l0 -58c0,0 1,0 1,-1 0,0 0,0 1,0 0,0 1,-1 2,-1 1,0 2,0 3,0 1,0 2,0 3,0 1,0 1,1 2,1 0,0 1,0 1,0 0,1 0,1 0,1l0 51 20 0c1,0 1,0 1,0 0,1 0,1 1,1 0,1 0,1 0,2 0,1 0,1 0,2zm45 1c0,1 0,1 0,2 0,1 0,1 0,2 -1,0 -1,0 -1,0 0,1 0,1 -1,1l-31 0c-2,0 -2,-1 -3,-1 -1,-1 -1,-2 -1,-3l0 -55c0,-2 0,-3 1,-4 1,0 1,0 3,0l31 0c0,0 1,0 1,0 0,0 0,0 0,1 1,0 1,1 1,1 0,1 0,2 0,3 0,1 0,1 0,2 0,1 0,1 -1,1 0,1 0,1 0,1 0,1 -1,1 -1,1l-22 0 0 15 19 0c0,0 0,0 0,0 1,0 1,1 1,1 0,0 0,1 0,2 0,0 0,1 0,2 0,1 0,2 0,2 0,1 0,1 0,2 0,0 0,0 -1,1 0,0 0,0 0,0l-19 0 0 18 22 0c1,0 1,0 1,0 0,0 0,0 1,1 0,0 0,1 0,1 0,1 0,2 0,3z"/>
    </g>
    <g>
     <path class="fil22" d="M7569 1469l-2 0 -1 1 -1 1 -1 0 -2 0 -1 1 -1 0 -1 0 -2 0 -1 0 -1 0 -2 0 -1 0 -1 0 -1 0 -2 -1 -1 0 -1 0 -1 -1 -1 0 -1 -1 -2 -1 -1 0 -1 -1 -1 -1 -1 -1 -1 -1 0 -1 -1 -1 -1 -1 -1 -1 -1 -1 0 0 0 -1 -1 -1 0 -2 -1 -1 0 -1 0 -1 -1 -2 0 -1 0 -1 0 -1 0 -2 0 -1 0 -1 0 -2 1 -1 0 -1 0 -1 1 -1 0 -2 1 -1 0 -1 1 -1 1 -1 0 -1 1 -1 1 -1 1 -1 1 -1 1 -1 1 -1 1 0 1 -1 0 0 1 -1 2 0 1 -1 1 0 1 -1 2 0 1 0 1 0 1 0 2 -1 1 0 1 1 2 0 1 0 1 0 1 0 1 1 2 0 1 1 1 0 1 1 1 0 1 1 1 1 1 1 1 1 1 0 1 1 1 1 1 1 1 2 0 1 0 0 1 1 1 1 0 1 0 2 1 1 0 1 0 1 1 2 0 1 0 1 0 2 0 1 0 1 -1 1 0 2 0 1 -1 1 0 1 0 1 -1 2 -1 1 0 1 -1 1 -1 1 0 1 -1 1 -1 1 -1 1 -1 1 -1 0 -1 1 -1 1 0 0zm-17 -30c3,-2 8,0 10,3 2,4 1,8 -3,10l-7 -13zm-164 94l164 -94 7 13 -163 94 0 0 -8 -13zm8 13c-4,2 -8,1 -10,-3 -3,-3 -1,-8 2,-10l8 13zm-171 81l163 -94 8 13 -164 94 -7 0 0 -13zm7 13c-3,2 -8,1 -10,-3 -2,-3 -1,-8 3,-10l7 13zm-163 -107l163 94 -7 13 -163 -94 7 -13zm-7 13c-4,-2 -5,-6 -3,-10 2,-4 6,-5 10,-3l-7 13zm-156 -107l163 94 -7 13 -164 -94 8 -13zm-8 13c-3,-2 -5,-6 -3,-10 3,-3 7,-5 11,-3l-8 13z"/>
    </g>
    <g>
     <path class="fil22" d="M8522 1283l-1 0 -1 -1 -1 -1 -1 -1 -1 -1 -1 -1 -1 -1 -1 -1 0 -1 -1 -1 -1 -1 0 -1 -1 -1 0 -1 -1 -2 0 -1 0 -1 -1 -1 0 -2 0 -1 0 -1 0 -1 0 -2 0 -1 0 -1 1 -1 0 -2 0 -1 1 -1 0 -1 1 -2 1 -1 0 0 0 -1 1 -1 1 -1 1 -1 1 -1 0 -1 1 -1 1 -1 2 0 1 -1 1 -1 1 0 1 -1 1 0 1 -1 2 0 1 0 1 -1 1 0 2 0 1 0 1 0 1 0 2 0 1 0 1 1 1 0 2 0 1 1 1 0 1 1 2 0 0 0 1 1 1 1 1 1 1 1 1 0 1 1 1 1 0 1 1 1 1 1 1 2 0 1 1 1 0 1 1 1 0 1 0 2 0 1 1 1 0 1 0 2 0 1 0 1 0 2 -1 1 0 1 0 1 0 2 -1 1 0 1 -1 1 -1 1 0 0 0 2 -1 1 -1 1 -1 1 -1 1 -1 1 -1 1 -1 0 -1 1 -1 1 -1 0 -1 1 -1 1 -1 0 -1 0 -2 1 -1 0 -1 0 -1 1 -2 0 -1 0 -1 0 -1 0 -2 0 -1 -1 -1 0 -2 0 -1 -1 -1 0 -1 -1 -1 0 -2 -1 0 0zm17 -29c4,2 5,6 3,10 -2,4 -7,5 -10,3l7 -13zm-163 -94l163 94 -7 13 -164 -94 0 0 8 -13zm-8 13c-3,-2 -4,-7 -2,-10 2,-4 6,-5 10,-3l-8 13zm-155 -107l163 94 -8 13 -163 -94 -4 -6 12 -7zm-8 13c-4,-2 -5,-6 -3,-10 2,-4 7,-5 11,-3l-8 13zm11 -194l0 188 -15 0 0 -188 0 0 15 0zm-15 0c0,-4 4,-7 8,-7 4,0 7,3 7,7l-15 0zm15 -187l0 187 -15 0 0 -187 4 -7 11 7zm-15 0c0,-4 4,-8 8,-8 4,0 7,4 7,8l-15 0zm175 -88l-163 94 -8 -13 163 -94 8 13zm-8 -13c4,-2 9,0 11,3 2,4 0,8 -3,10l-8 -13zm171 -80l-163 93 -8 -13 164 -93 7 13zm-7 -13c3,-2 8,-1 10,2 2,4 1,9 -3,11l-7 -13z"/>
    </g>
    <g>
     <path class="fil22" d="M8644 1232c0,1 0,2 0,2 0,1 0,2 -1,2 0,0 0,1 0,1 0,0 -1,0 -1,0l-21 0 0 17 20 0c0,0 0,0 0,0 1,1 1,1 1,1 0,1 0,1 0,2 1,1 1,1 1,2 0,1 0,2 -1,3 0,0 0,1 0,1 0,1 0,1 -1,1 0,0 0,1 0,1l-20 0 0 23c0,0 0,1 0,1 0,0 -1,0 -1,1 -1,0 -1,0 -2,0 -1,0 -2,0 -3,0 -1,0 -2,0 -3,0 -1,0 -2,0 -2,0 -1,0 -1,-1 -1,-1 -1,0 -1,-1 -1,-1l0 -57c0,-2 1,-3 1,-3 1,-1 2,-1 3,-1l30 0c0,0 1,0 1,0 0,0 0,0 0,1 1,0 1,1 1,2 0,0 0,1 0,2zm23 56c0,1 0,1 0,1 0,0 -1,1 -1,1 -1,0 -1,0 -2,0 -1,0 -2,0 -3,0 -2,0 -3,0 -3,0 -1,0 -2,0 -2,0 -1,0 -1,-1 -1,-1 -1,0 -1,0 -1,-1l0 -60c0,0 0,0 1,0 0,-1 0,-1 1,-1 0,0 1,0 2,0 0,-1 1,-1 3,-1 1,0 2,0 3,1 1,0 1,0 2,0 0,0 1,0 1,1 0,0 0,0 0,0l0 60zm66 -3c0,1 0,2 0,2 -1,1 -1,2 -1,2 -1,0 -1,1 -2,1 -1,0 -1,0 -2,0l-5 0c-1,0 -2,0 -3,0 -1,-1 -2,-1 -2,-2 -1,0 -2,-1 -3,-2 0,-1 -1,-2 -2,-4l-15 -30c-1,-1 -2,-3 -3,-5 -1,-2 -2,-4 -3,-6l0 0c0,2 0,5 0,7 1,2 1,5 1,7l0 33c0,0 -1,1 -1,1 0,0 0,0 -1,1 0,0 -1,0 -1,0 -1,0 -2,0 -3,0 -1,0 -2,0 -3,0 -1,0 -1,0 -2,0 0,0 -1,-1 -1,-1 0,0 0,-1 0,-1l0 -57c0,-1 0,-2 1,-3 1,-1 2,-1 4,-1l6 0c2,0 3,0 4,0 0,0 1,1 2,1 1,1 1,1 2,2 0,1 1,2 2,3l12 23c1,2 1,3 2,5 1,1 1,2 2,4 1,1 1,2 2,4 1,1 1,2 2,4l0 0c0,-3 0,-5 0,-8 -1,-2 -1,-4 -1,-7l0 -29c0,-1 1,-1 1,-1 0,-1 0,-1 1,-1 0,0 1,0 2,0 0,0 1,0 2,0 2,0 2,0 3,0 1,0 2,0 2,0 0,0 1,0 1,1 0,0 0,0 0,1l0 56zm66 0c0,1 0,2 0,3 0,1 0,1 0,1 0,1 -1,1 -2,1 -1,0 -2,0 -4,0 -1,0 -3,0 -4,0 -1,0 -1,0 -2,0 0,0 -1,0 -1,-1 0,0 0,0 0,-1l-4 -12 -24 0 -4 12c0,0 -1,1 -1,1 0,0 0,1 -1,1 0,0 -1,0 -2,0 -1,0 -2,0 -3,0 -2,0 -3,0 -4,0 -1,0 -1,0 -1,-1 -1,0 -1,-1 -1,-1 0,-1 1,-2 1,-3l19 -56c1,-1 1,-1 1,-1 0,-1 1,-1 1,-1 1,0 2,0 3,-1 1,0 2,0 4,0 2,0 3,0 4,0 1,1 2,1 3,1 1,0 1,0 1,1 1,0 1,0 1,1l20 56zm-29 -46l0 0 -9 27 17 0 -8 -27zm90 46c0,1 -1,2 -1,2 0,1 0,2 -1,2 0,0 -1,1 -1,1 -1,0 -2,0 -2,0l-6 0c-1,0 -2,0 -3,0 -1,-1 -1,-1 -2,-2 -1,0 -1,-1 -2,-2 -1,-1 -1,-2 -2,-4l-16 -30c-1,-1 -2,-3 -3,-5 -1,-2 -1,-4 -2,-6l0 0c0,2 0,5 0,7 0,2 0,5 0,7l0 33c0,0 0,1 0,1 0,0 -1,0 -1,1 -1,0 -1,0 -2,0 -1,0 -2,0 -3,0 -1,0 -2,0 -3,0 0,0 -1,0 -1,0 -1,0 -1,-1 -1,-1 0,0 -1,-1 -1,-1l0 -57c0,-1 1,-2 2,-3 1,-1 2,-1 3,-1l7 0c1,0 2,0 3,0 1,0 2,1 2,1 1,1 2,1 2,2 1,1 1,2 2,3l12 23c1,2 2,3 3,5 0,1 1,2 2,4 0,1 1,2 1,4 1,1 2,2 2,4l0 0c0,-3 0,-5 0,-8 0,-2 0,-4 0,-7l0 -29c0,-1 0,-1 0,-1 0,-1 1,-1 1,-1 1,0 1,0 2,0 1,0 2,0 3,0 1,0 2,0 3,0 1,0 1,0 1,0 1,0 1,0 1,1 1,0 1,0 1,1l0 56zm57 -5c0,1 0,2 0,2 0,1 0,2 0,2 0,0 0,1 -1,1 0,0 0,1 0,1 -1,0 -1,1 -2,1 -1,1 -3,2 -4,2 -2,1 -3,1 -5,1 -2,1 -4,1 -6,1 -5,0 -9,-1 -12,-2 -4,-1 -7,-3 -9,-6 -3,-3 -4,-6 -6,-10 -1,-4 -2,-9 -2,-14 0,-5 1,-10 3,-14 1,-4 3,-8 6,-11 2,-2 5,-5 9,-6 3,-2 7,-2 12,-2 1,0 3,0 5,0 1,0 3,1 4,1 2,1 3,1 4,2 1,1 2,1 2,2 1,0 1,0 1,1 0,0 0,0 1,1 0,0 0,1 0,1 0,1 0,2 0,3 0,1 0,1 0,2 0,1 0,1 -1,2 0,0 0,1 0,1 0,0 -1,0 -1,0 0,0 -1,0 -2,-1 -1,0 -1,-1 -3,-2 -1,0 -2,-1 -4,-2 -2,0 -4,0 -6,0 -2,0 -5,0 -6,1 -2,1 -4,3 -6,4 -1,2 -2,5 -3,7 0,3 -1,6 -1,9 0,4 1,7 1,10 1,3 2,5 4,7 1,2 3,3 5,4 2,1 4,1 7,1 2,0 4,0 5,-1 2,0 4,-1 5,-2 1,0 2,-1 3,-1 0,-1 1,-1 1,-1 1,0 1,0 1,0 0,0 1,1 1,1 0,0 0,1 0,2 0,0 0,1 0,2zm22 8c0,1 0,1 0,1 0,0 -1,1 -1,1 -1,0 -1,0 -2,0 -1,0 -2,0 -3,0 -1,0 -2,0 -3,0 -1,0 -2,0 -2,0 -1,0 -1,-1 -1,-1 -1,0 -1,0 -1,-1l0 -60c0,0 0,0 1,0 0,-1 0,-1 1,-1 0,0 1,0 2,0 1,-1 2,-1 3,-1 1,0 2,0 3,1 1,0 1,0 2,0 0,0 1,0 1,1 0,0 0,0 0,0l0 60zm66 -3c0,1 0,2 1,3 0,1 -1,1 -1,1 0,1 -1,1 -2,1 -1,0 -2,0 -4,0 -1,0 -3,0 -3,0 -1,0 -2,0 -3,0 0,0 0,0 -1,-1 0,0 0,0 0,-1l-4 -12 -24 0 -4 12c0,0 0,1 -1,1 0,0 0,1 -1,1 0,0 -1,0 -2,0 0,0 -2,0 -3,0 -1,0 -3,0 -4,0 0,0 -1,0 -1,-1 -1,0 -1,-1 -1,-1 0,-1 1,-2 1,-3l20 -56c0,-1 0,-1 0,-1 1,-1 1,-1 2,-1 0,0 1,0 2,-1 1,0 2,0 4,0 2,0 3,0 4,0 2,1 3,1 3,1 1,0 1,0 2,1 0,0 0,0 0,1l20 56zm-29 -46l0 0 -9 27 18 0 -9 -27zm72 46c0,1 0,1 0,2 0,1 0,1 0,2 0,0 -1,0 -1,1 0,0 0,0 -1,0l-29 0c-1,0 -2,0 -2,-1 -1,-1 -1,-2 -1,-3l0 -58c0,0 0,0 0,0 0,-1 1,-1 1,-1 0,0 1,0 2,0 1,-1 2,-1 3,-1 1,0 2,0 3,1 1,0 2,0 2,0 1,0 1,0 1,1 0,0 1,0 1,0l0 51 19 0c1,0 1,0 1,1 0,0 1,0 1,0 0,1 0,1 0,2 0,1 0,2 0,3zm77 3c0,1 0,1 0,1 0,0 0,1 -1,1 0,0 -1,0 -2,0 -1,0 -2,0 -4,0 -1,0 -2,0 -3,0 -1,0 -1,0 -2,0 0,0 -1,-1 -1,-1 0,0 0,-1 0,-1l-6 -14c-1,-2 -1,-3 -2,-4 -1,-2 -1,-3 -2,-3 -1,-1 -2,-2 -3,-2 -1,-1 -2,-1 -4,-1l-4 0 0 24c0,1 0,1 0,1 0,0 -1,1 -1,1 -1,0 -1,0 -2,0 -1,0 -2,0 -3,0 -1,0 -2,0 -3,0 -1,0 -2,0 -2,0 -1,0 -1,-1 -1,-1 0,0 0,0 0,-1l0 -57c0,-2 0,-3 1,-3 0,-1 1,-1 2,-1l17 0c1,0 3,0 4,0 1,0 2,0 3,0 2,0 5,1 7,2 2,1 3,2 5,3 1,2 2,3 3,5 1,2 1,5 1,7 0,2 0,4 -1,6 0,2 -1,3 -2,4 -1,2 -2,3 -4,4 -1,1 -3,2 -5,2 1,1 2,1 3,2 0,1 1,2 2,3 1,0 1,2 2,3 1,1 1,2 2,4l5 12c1,1 1,2 1,3 0,1 0,1 0,1zm-16 -43c0,-2 -1,-3 -2,-5 -1,-1 -2,-2 -4,-3 -1,0 -2,0 -2,0 -1,0 -2,0 -4,0l-6 0 0 17 7 0c2,0 3,0 5,0 1,-1 2,-1 3,-2 1,-1 2,-2 2,-3 1,-1 1,-2 1,-4zm63 40c0,1 0,2 0,2 0,1 0,1 0,2 0,0 -1,0 -1,1 0,0 0,0 -1,0l-31 0c-1,0 -2,0 -3,-1 -1,-1 -1,-2 -1,-3l0 -55c0,-2 0,-3 1,-3 1,-1 2,-1 3,-1l31 0c0,0 1,0 1,0 0,0 0,0 1,1 0,0 0,1 0,1 0,1 0,2 0,3 0,1 0,2 0,2 0,1 0,1 0,2 -1,0 -1,0 -1,1 0,0 -1,0 -1,0l-22 0 0 15 19 0c0,0 0,0 0,1 1,0 1,0 1,0 0,1 0,1 0,2 1,0 1,1 1,2 0,1 0,2 -1,3 0,0 0,1 0,1 0,0 0,1 -1,1 0,0 0,0 0,0l-19 0 0 18 22 0c1,0 1,0 1,0 0,0 1,1 1,1 0,0 0,1 0,2 0,0 0,1 0,2zm55 -39c0,3 -1,7 -2,9 -1,3 -2,5 -5,7 -2,2 -4,4 -7,5 -3,1 -7,1 -11,1l-6 0 0 20c0,1 0,1 0,1 0,0 0,1 -1,1 0,0 -1,0 -2,0 -1,0 -2,0 -3,0 -1,0 -2,0 -3,0 -1,0 -2,0 -2,0 -1,0 -1,-1 -1,-1 0,0 0,0 0,-1l0 -57c0,-1 0,-2 1,-3 1,-1 2,-1 3,-1l15 0c1,0 3,0 4,0 2,0 3,0 5,1 2,0 4,1 6,2 2,1 3,2 5,4 1,1 2,3 3,5 1,2 1,4 1,7zm-13 1c0,-2 -1,-4 -2,-6 0,-1 -1,-2 -3,-3 -1,0 -2,-1 -3,-1 -1,0 -3,0 -4,0l-6 0 0 21 6 0c2,0 4,0 5,-1 2,0 3,-1 4,-2 1,-1 1,-2 2,-4 0,-1 1,-3 1,-4zm80 11c0,5 -1,10 -2,14 -2,4 -3,7 -6,10 -3,3 -6,5 -10,7 -3,1 -8,2 -13,2 -5,0 -9,-1 -13,-2 -3,-1 -6,-3 -9,-6 -2,-2 -4,-6 -5,-10 -1,-4 -2,-9 -2,-14 0,-5 1,-10 2,-14 1,-4 3,-8 6,-10 2,-3 5,-6 9,-7 4,-2 8,-2 13,-2 5,0 9,0 13,2 4,1 7,3 9,5 3,3 5,6 6,10 1,4 2,9 2,15zm-14 0c0,-3 0,-6 -1,-9 0,-3 -1,-5 -2,-7 -1,-2 -3,-3 -5,-4 -2,-1 -5,-2 -8,-2 -3,0 -6,1 -8,2 -2,1 -4,3 -5,5 -1,2 -2,4 -3,7 0,2 -1,5 -1,8 0,4 1,7 1,9 1,3 2,5 3,7 1,2 3,4 5,5 2,1 4,1 8,1 3,0 5,0 8,-1 2,-1 3,-3 5,-5 1,-2 2,-4 2,-7 1,-3 1,-6 1,-9zm71 30c0,1 0,1 0,1 0,0 0,1 -1,1 0,0 -1,0 -2,0 -1,0 -2,0 -4,0 -1,0 -2,0 -3,0 -1,0 -1,0 -2,0 0,0 -1,-1 -1,-1 0,0 0,-1 0,-1l-6 -14c-1,-2 -1,-3 -2,-4 -1,-2 -1,-3 -2,-3 -1,-1 -2,-2 -3,-2 -1,-1 -2,-1 -4,-1l-4 0 0 24c0,1 0,1 0,1 0,0 -1,1 -1,1 0,0 -1,0 -2,0 -1,0 -2,0 -3,0 -1,0 -2,0 -3,0 -1,0 -2,0 -2,0 -1,0 -1,-1 -1,-1 0,0 0,0 0,-1l0 -57c0,-2 0,-3 1,-3 0,-1 1,-1 2,-1l17 0c1,0 3,0 4,0 1,0 2,0 3,0 2,0 5,1 7,2 2,1 3,2 5,3 1,2 2,3 3,5 1,2 1,5 1,7 0,2 0,4 -1,6 0,2 -1,3 -2,4 -1,2 -2,3 -4,4 -1,1 -3,2 -5,2 1,1 2,1 3,2 0,1 1,2 2,3 1,0 1,2 2,3 1,1 1,2 2,4l5 12c1,1 1,2 1,3 0,1 0,1 0,1zm-16 -43c0,-2 -1,-3 -2,-5 -1,-1 -2,-2 -4,-3 -1,0 -2,0 -2,0 -1,0 -2,0 -4,0l-6 0 0 17 7 0c2,0 3,0 5,0 1,-1 2,-1 3,-2 1,-1 2,-2 2,-3 1,-1 1,-2 1,-4zm67 -13c0,1 0,2 0,2 0,1 0,2 -1,2 0,0 0,1 0,1 0,0 -1,0 -1,0l-16 0 0 51c0,1 0,1 0,1 0,0 -1,1 -1,1 -1,0 -1,0 -2,0 -1,0 -2,0 -3,0 -1,0 -3,0 -3,0 -1,0 -2,0 -2,0 -1,0 -1,-1 -1,-1 -1,0 -1,0 -1,-1l0 -51 -16 0c0,0 0,0 0,0 -1,0 -1,-1 -1,-1 0,0 0,-1 0,-2 0,0 0,-1 0,-2 0,-1 0,-2 0,-2 0,-1 0,-2 0,-2 0,-1 0,-1 1,-1 0,0 0,0 0,0l45 0c0,0 1,0 1,0 0,0 0,0 0,1 1,0 1,1 1,2 0,0 0,1 0,2zm20 56c0,1 0,1 0,1 0,0 -1,1 -1,1 -1,0 -1,0 -2,0 -1,0 -2,0 -3,0 -1,0 -2,0 -3,0 -1,0 -2,0 -2,0 -1,0 -1,-1 -1,-1 0,0 -1,0 -1,-1l0 -60c0,0 1,0 1,0 0,-1 0,-1 1,-1 0,0 1,0 2,0 1,-1 2,-1 3,-1 1,0 2,0 3,1 1,0 1,0 2,0 0,0 1,0 1,1 0,0 0,0 0,0l0 60z"/>
     <path class="fil22" d="M9488 1285c0,1 0,2 0,2 0,1 -1,2 -1,2 -1,0 -1,1 -2,1 0,0 -1,0 -2,0l-5 0c-1,0 -2,0 -3,0 -1,-1 -2,-1 -2,-2 -1,0 -2,-1 -2,-2 -1,-1 -2,-2 -3,-4l-15 -30c-1,-1 -2,-3 -3,-5 -1,-2 -2,-4 -3,-6l0 0c0,2 1,5 1,7 0,2 0,5 0,7l0 33c0,0 0,1 -1,1 0,0 0,0 0,1 -1,0 -2,0 -2,0 -1,0 -2,0 -3,0 -1,0 -2,0 -3,0 -1,0 -1,0 -2,0 0,0 0,-1 -1,-1 0,0 0,-1 0,-1l0 -57c0,-1 1,-2 1,-3 1,-1 2,-1 4,-1l7 0c1,0 2,0 3,0 1,0 1,1 2,1 1,1 1,1 2,2 1,1 1,2 2,3l12 23c1,2 1,3 2,5 1,1 2,2 2,4 1,1 1,2 2,4 1,1 1,2 2,4l0 0c0,-3 0,-5 0,-8 0,-2 0,-4 0,-7l0 -29c0,-1 0,-1 0,-1 0,-1 0,-1 1,-1 0,0 1,0 2,0 0,0 1,0 3,0 1,0 2,0 2,0 1,0 2,0 2,0 1,0 1,0 1,1 0,0 0,0 0,1l0 56zm65 -48c0,0 0,1 0,2 0,1 -1,1 -1,2 0,0 0,0 0,0 0,1 -1,1 -1,1 0,0 -1,-1 -2,-1 -1,-1 -2,-1 -4,-2 -1,-1 -3,-1 -5,-2 -3,-1 -5,-1 -8,-1 -3,0 -6,1 -8,2 -3,1 -5,2 -7,4 -1,2 -3,4 -4,7 -1,3 -1,6 -1,9 0,4 0,7 1,10 1,3 3,5 4,7 2,2 4,3 7,4 2,1 5,1 8,1 1,0 2,0 4,0 1,0 3,-1 4,-2l0 -14 -12 0c-1,0 -1,-1 -2,-1 0,-1 0,-2 0,-4 0,-1 0,-2 0,-2 0,-1 0,-2 0,-2 1,0 1,-1 1,-1 0,0 1,0 1,0l21 0c1,0 1,0 2,0 0,0 0,1 1,1 0,0 0,1 0,1 1,1 1,1 1,2l0 25c0,1 -1,2 -1,3 0,1 -1,1 -2,2 -1,0 -2,0 -4,1 -1,0 -3,1 -5,1 -1,0 -3,1 -5,1 -2,0 -3,0 -5,0 -5,0 -10,-1 -14,-2 -4,-2 -7,-4 -10,-6 -3,-3 -5,-7 -6,-11 -2,-3 -2,-8 -2,-13 0,-5 0,-10 2,-14 2,-4 4,-8 7,-10 3,-3 6,-6 10,-7 4,-2 9,-2 14,-2 2,0 5,0 7,0 2,1 4,1 6,2 2,0 3,1 4,1 1,1 2,1 2,2 1,0 1,1 1,2 1,1 1,2 1,4z"/>
    </g>
    <g>
     <path class="fil23" d="M5257 1948c0,-12 1,-20 10,-28 14,-13 37,-11 50,2 5,5 6,6 8,11 10,19 2,40 -15,47 -14,6 -30,3 -41,-7 -3,-3 -6,-7 -8,-11 -2,-3 -4,-9 -4,-14zm-42 3c2,2 10,6 13,8 5,3 23,13 27,16 15,14 4,42 -14,42 -9,0 -8,0 -16,-3 -4,-1 -8,-2 -11,-4 -4,-1 -19,-6 -22,-6 2,3 10,9 13,12 2,1 3,2 5,4 3,2 6,5 9,7l24 20c2,2 3,3 5,4l14 12c1,1 4,3 5,4 1,-1 3,-3 4,-5l83 -99c3,-3 6,-6 9,-10 8,-11 37,-44 43,-52 -2,-4 -37,-32 -43,-37l-27 -23c-3,-2 -15,-13 -17,-13l-65 76c-7,9 -36,42 -39,47z"/>
     <path class="fil23" d="M5179 2082c0,13 5,12 14,20l33 31c27,21 44,17 79,17 15,0 32,-2 43,5 3,2 7,6 7,9 13,0 67,-6 84,-7l-11 -29c-2,-5 -4,-9 -6,-14 -6,-13 -13,-27 -24,-35 -8,-5 -19,-9 -31,-9l-76 0c-10,0 -20,15 -7,26 4,4 8,3 15,3 6,0 12,0 18,0 11,0 15,-2 15,6 0,2 -2,2 -4,2l-59 0c-8,0 -17,-3 -22,-7l-46 -31c-13,-5 -22,4 -22,13z"/>
     <path class="fil23" d="M5129 1903l-7 0 0 73c4,0 5,0 8,-1 5,-2 20,-6 24,-5 4,2 6,5 8,7 3,4 9,9 14,11l61 20c14,0 21,-16 13,-25 -3,-2 -5,-3 -8,-5l-42 -24c-10,-5 -6,-14 0,-16 3,-1 8,0 12,0 3,-1 3,-1 4,-3 1,-1 2,-2 3,-3l24 -29c4,-4 6,-6 6,-8 -7,-1 -39,-9 -54,-9 -7,0 -39,10 -49,13l-17 4z"/>
     <path class="fil23" d="M5351 2175c0,3 0,5 0,8 0,3 -1,6 2,6l95 0 0 -23c-9,0 -37,3 -49,4 -16,1 -33,4 -48,5z"/>
     <path class="fil23" d="M5098 1992l14 0 0 -97 -23 0 2 24c0,9 3,25 3,36 1,9 4,28 4,37z"/>
     <path class="fil23" d="M5278 1929l-4 -4c-2,3 -5,5 -7,8 1,1 4,3 5,4 -1,6 -1,2 -1,9 0,5 6,11 10,11 13,0 14,-6 19,-6 3,0 4,5 -10,12 1,3 4,7 6,9 3,-1 3,-1 6,-2 2,-2 2,-2 4,-4 3,2 2,2 5,4 2,-2 5,-6 6,-8l-5 -4c6,-11 -3,-21 -10,-21 -10,0 -11,6 -20,6 1,-6 6,-8 11,-10 -1,-4 -5,-7 -6,-10 -5,3 -8,5 -9,6z"/>
    </g>
    <g>
     <path class="fil23" d="M7224 1138c1,-8 -1,-9 5,-11 5,3 3,4 3,10 10,3 26,4 25,15 0,16 -21,6 -25,6l0 19c8,4 16,5 23,10 11,8 23,44 -23,55l-1 10 -6 0 -1 -10c-12,-2 -32,-3 -31,-16 0,-17 23,-5 32,-5l0 -24c-17,-5 -33,-9 -32,-30 1,-17 14,-26 31,-29zm-98 -34c-19,3 -15,20 -15,39l0 109c1,19 21,16 38,16 9,0 18,0 27,0 16,0 11,-3 34,20 19,19 18,20 30,8l29 -27c5,-2 21,-1 27,-1 62,0 51,9 51,-113 0,-62 11,-51 -112,-51 -16,0 -101,-1 -109,0z"/>
     <path class="fil23" d="M7063 1338c-52,8 -39,84 12,75 51,-9 39,-83 -12,-75z"/>
     <path class="fil23" d="M7382 1338c-51,8 -38,83 13,75 51,-8 39,-84 -13,-75z"/>
     <path class="fil23" d="M7276 1338c-52,8 -38,84 13,75 50,-9 38,-83 -13,-75z"/>
     <path class="fil23" d="M7168 1338c-19,4 -35,21 -31,44 9,49 87,37 77,-14 -4,-19 -23,-35 -46,-30z"/>
     <path class="fil23" d="M7232 1220c12,-1 14,-18 0,-20l0 20z"/>
     <path class="fil23" d="M7224 1158c-10,2 -11,14 0,16l0 -16z"/>
    </g>
    <g>
     <path class="fil23" d="M6248 509c-31,16 -116,70 -153,92 -5,3 -15,8 -20,12l346 0 -173 -104zm-42 64l9 0c2,0 3,1 4,1 1,0 1,0 2,1 1,0 1,1 2,1 0,1 0,2 0,3 0,1 0,2 -1,3 0,0 -1,1 -2,2 2,0 3,1 3,1 1,1 1,2 1,4 0,1 0,2 0,3 -1,1 -1,1 -2,2 -1,0 -2,1 -3,1 -1,0 -3,0 -5,0l-8 0 0 -22zm5 4l0 5 3 0c1,0 2,0 3,0 0,0 1,0 1,-1 1,0 1,-1 1,-2 0,0 0,-1 0,-1 -1,-1 -1,-1 -2,-1 -1,0 -2,0 -4,0l-2 0zm0 9l0 5 4 0c1,0 2,0 3,0 0,0 1,0 1,-1 1,0 1,-1 1,-1 0,-1 0,-2 -1,-2 0,-1 0,-1 -1,-1 -1,0 -2,0 -4,0l-3 0zm36 9l-4 0 -2 -5 -9 0 -2 5 -4 0 8 -22 5 0 8 22zm-8 -9l-3 -8 -2 8 5 0zm11 9l0 -22 4 0 9 15 0 -15 4 0 0 22 -5 0 -8 -14 0 14 -4 0zm21 0l0 -22 5 0 0 10 9 -10 5 0 -8 9 9 13 -6 0 -6 -10 -3 3 0 7 -5 0z"/>
     <path class="fil23" d="M6180 663c1,0 1,0 2,0l6 1 0 148 43 -1 0 -148 10 0 0 -17 -63 0 0 16 2 1z"/>
     <polygon class="fil23" points="6257,663 6267,664 6267,812 6310,811 6310,666 6310,663 6320,663 6320,646 6257,647 "/>
     <path class="fil23" d="M6099 663l10 1 0 148 43 -1c0,-40 -1,-110 0,-147l10 -1 0 -17 -63 1 0 16z"/>
     <path class="fil23" d="M6336 662l10 1 1 148 41 0 0 -147c5,-3 5,-2 10,-2l0 -16 -62 1 0 15z"/>
     <polygon class="fil23" points="6076,862 6422,862 6422,844 6076,844 6076,846 "/>
     <polygon class="fil23" points="6087,639 6409,639 6409,621 6087,621 "/>
     <polygon class="fil23" points="6089,837 6409,837 6409,819 6407,819 6089,819 "/>
     <path class="fil23" d="M6157 556c-2,-4 -1,-3 -4,-7l-57 35 2 6 59 -34z"/>
     <path class="fil23" d="M6334 552l49 30c2,-3 2,-4 3,-6l-50 -31 -2 7z"/>
     <path class="fil23" d="M6398 662c-5,0 -5,-1 -10,2l0 147 -41 0 -1 -148 -10 -1c1,3 5,2 9,2l1 148 43 0 0 -148c7,0 6,1 9,-2z"/>
     <path class="fil23" d="M6311 537c3,4 9,7 13,9l3 -5 -13 -9 -3 5z"/>
     <path class="fil23" d="M6162 544l4 5 12 -7 -4 -5c-4,2 -9,4 -12,7z"/>
    </g>
    <g>
     <path class="fil23 str0" d="M8376 1061l0 -248 179 0 0 115c0,8 -1,32 0,38 9,4 29,-5 32,10 2,6 1,34 1,42 0,47 5,43 -42,43 -5,0 -165,1 -170,0zm238 -77c6,-1 23,2 27,-1 1,-3 0,-22 0,-26l54 -1 0 81 -81 0 0 -53zm5 -7c1,-3 5,-5 8,-8 2,-3 4,-6 8,-7l0 15 -16 0zm-56 -218l130 36 -42 155c-5,0 -13,-1 -16,1 -2,2 -5,6 -8,8 -21,21 -14,19 -29,15 -8,-2 -4,-3 -9,-8 -8,-8 -15,-5 -27,-6 -1,-11 -1,-26 -1,-38 0,-18 1,-111 0,-115 -4,-1 -8,-1 -11,-1l13 -47zm-143 -49c4,-1 27,-1 33,-1 16,0 93,0 102,1 0,8 0,50 -1,54 -1,7 -4,15 -5,21 -2,7 -4,15 -6,21l-123 0 0 -96zm-7 96c-7,0 -38,0 -43,1 -2,5 0,54 0,64 0,63 0,127 -1,189 0,6 0,6 2,7 3,2 164,1 193,1 10,0 22,1 28,-10 4,-7 3,-28 3,-37l0 -41 12 3c1,13 0,40 0,55 0,8 6,6 13,6 24,0 49,0 74,0l7 0c1,-5 1,-69 1,-83 0,-5 1,-9 -2,-11l-42 0c1,-7 7,-28 10,-37 9,-37 21,-76 30,-112 4,-13 7,-10 -25,-18 -7,-2 -109,-30 -111,-31 -2,-11 1,-42 -1,-49 -7,-1 -127,0 -141,0 -8,0 -7,1 -7,9 0,16 1,84 0,94z"/>
     <path class="fil23 str0" d="M8501 782l13 0 0 10 -13 0 0 -10zm-37 0l31 0 0 10 -31 0 0 -10zm-26 0l20 0 -1 10 -19 0 0 -10zm1 -17l75 0 0 10 -76 0 1 -10zm62 -18l13 0 0 11 -13 0 0 -11zm-29 0l23 0 0 4 0 4 0 3 -3 0 -3 0 -13 0 -4 0 0 -11zm-34 0l28 0 0 11 -28 0 0 -8 0 -3zm49 -17l27 0 0 11 -4 0 -9 0 -14 -1 0 -10zm-23 0l17 0 0 1 0 9 0 1 -17 0 0 -3 0 -5 0 -3zm-26 0l4 0 2 0 6 0 3 0 4 0 1 0 0 11 -20 0 0 -11zm-5 -6c-2,4 -1,51 -1,62 0,12 -2,13 7,13 12,0 75,1 81,-1 1,-5 1,-46 1,-57 0,-5 1,-14 -2,-17 -3,-1 -82,-1 -86,0z"/>
     <path class="fil23 str0" d="M8403 927l124 0 0 52 -124 0 0 -52zm-6 -1c0,13 -1,49 0,59 6,2 108,1 126,1 14,0 11,-1 11,-15 0,-9 1,-45 -1,-50 -14,-2 -106,0 -132,0 -4,0 -4,1 -4,5z"/>
     <path class="fil23 str0" d="M8594 871l26 -26 35 11c-2,10 -14,19 -25,23 -7,1 -14,2 -21,0 -5,-1 -13,-5 -15,-8zm32 -32c1,-3 20,-21 23,-24 3,2 7,11 8,15 2,8 2,12 0,20l-31 -11zm-37 27c-6,-5 -10,-18 -9,-27 0,-12 5,-21 11,-26 10,-10 26,-15 41,-10 6,2 9,5 12,7 -1,3 -36,37 -41,42 -4,3 -11,12 -14,14zm25 -71c-24,2 -44,24 -41,51 3,24 24,43 51,40 24,-2 44,-24 41,-51 -3,-24 -24,-43 -51,-40z"/>
     <path class="fil23 str0" d="M8520 939c-2,-1 -3,-1 -7,-1l-94 0c-8,0 -7,6 -3,7l94 0c6,0 12,2 10,-6z"/>
     <path class="fil23 str0" d="M8567 980c-1,5 -1,63 0,68 3,1 3,1 5,0l1 -5c1,-5 0,-56 0,-63 -2,-1 -4,-1 -6,0z"/>
     <path class="fil23 str0" d="M8501 961l0 -4c-4,-2 -43,-1 -53,-1 -4,0 -15,-2 -16,3 0,5 11,3 15,3 10,0 50,1 54,-1z"/>
     <path class="fil23 str0" d="M8648 918c1,-5 -2,-5 -12,-8l-34 -9c-4,-1 -14,-6 -17,-2 -3,5 9,6 13,8l33 9c5,1 13,4 17,2z"/>
     <path class="fil23 str0" d="M8635 934c2,-7 -4,-6 -9,-8 -5,-1 -10,-2 -15,-4 -5,-1 -9,-2 -14,-4 -4,-1 -13,-4 -15,-2 -4,5 6,7 9,7l29 8c4,2 11,4 15,3z"/>
    </g>
    <g>
     <path class="fil23" d="M9169 2077c23,0 39,-5 56,20 -10,0 -5,-2 -28,-2 -13,0 -16,-2 -28,-2l0 -16zm-33 0l4 0 21 0 0 16c-12,0 -19,-2 -33,-2 3,-5 5,-9 8,-14zm-36 51c0,6 3,8 8,10 0,-32 40,-33 40,0l89 0c0,-34 40,-31 41,0 11,0 14,2 14,-12 0,-36 -42,-29 -42,-29 -6,-1 -32,-30 -39,-30l-79 0c-11,0 -17,17 -22,25 -6,9 -10,21 -10,36z"/>
     <path class="fil23" d="M9029 2083c-7,-29 -16,-26 -16,-85 0,-29 13,-68 30,-91 29,-41 81,-76 132,-77l0 170 -55 31c-6,3 -12,6 -18,10l-18 11c-7,3 -11,6 -18,10 -6,4 -11,6 -18,10l-19 11zm-26 -79c0,57 18,76 22,91l70 -39c5,-3 5,-3 10,-6l40 -23c14,-7 26,-16 40,-23l0 -184c-37,0 -72,14 -102,34 -11,7 -22,16 -30,26 -7,9 -5,3 -16,19 -21,32 -34,66 -34,105z"/>
     <path class="fil23" d="M9043 2105c4,-2 5,-2 9,-5l99 -57c46,-25 24,-31 92,10l92 52c-17,25 -31,36 -55,53 -72,47 -184,26 -237,-53zm-12 -4c5,20 43,53 60,64 73,46 168,34 229,-28 8,-8 24,-23 27,-36l-158 -91 -68 40c-5,2 -5,3 -10,6l-49 28c-5,2 -6,3 -10,6 -8,4 -14,7 -21,11z"/>
     <path class="fil23" d="M9203 1830c20,1 49,11 63,18 19,9 35,21 49,34 5,5 5,6 9,11 4,5 5,6 9,12 30,45 40,92 26,146 -3,13 -8,21 -10,32 -4,-2 -5,-3 -9,-5 -34,-21 -85,-47 -117,-67 -5,-3 -15,-9 -20,-11l0 -170zm-10 170l160 95c1,-7 5,-12 8,-18 21,-46 17,-101 -3,-147 -1,-3 -1,-4 -3,-7 -14,-26 -32,-51 -58,-68 -31,-20 -64,-35 -104,-35l0 180z"/>
     <path class="fil23" d="M9088 1887l0 4c-20,11 -21,20 -21,36 0,20 28,30 41,39 0,12 2,14 -14,14 -5,-6 -4,-1 -4,-10l-25 0c0,17 9,29 23,32 0,18 -4,16 20,16 9,0 6,-9 6,-18 21,-5 27,-43 2,-58 0,0 -35,-14 -22,-27 2,-2 8,-2 12,-2 4,7 3,2 4,10l24 0c0,-16 -4,-24 -20,-32l0 -14 -26 0 0 10z"/>
     <path class="fil23" d="M9229 2006l23 0c0,-48 -3,-31 10,-50 30,0 26,5 26,50l16 0c0,-21 -2,-29 12,-26 0,23 -3,26 12,26 5,0 7,-1 7,-6l0 -60 -106 0 0 66z"/>
     <path class="fil23" d="M9252 1901l0 -12c-13,-3 -4,-3 -17,0l0 28c-15,10 -13,11 -14,16l120 0c-3,-9 -59,-56 -59,-56 -7,0 -23,19 -30,24z"/>
     <path class="fil23" d="M9120 2134l0 -4c5,-5 4,-4 12,-4 5,5 4,3 4,12 -5,4 -3,4 -12,4l-4 -8zm-8 0c0,21 32,21 32,0 0,-17 -14,-16 -24,-16 -4,5 -8,7 -8,16z"/>
     <path class="fil23" d="M9250 2134l0 -4c5,-5 3,-4 12,-4 4,5 4,3 4,12 -6,4 -4,4 -12,4l-4 -8zm-9 -4c0,30 33,24 33,4 0,-23 -33,-19 -33,-4z"/>
    </g>
    <g>
     <path class="fil23 str0" d="M9688 1032l0 -263c0,-4 7,-3 11,-3l0 250c0,5 5,10 10,10l148 0 0 8c0,3 0,0 1,2l-164 0c-4,0 -6,0 -6,-4zm177 -2l0 -102 132 0 0 102c0,8 -5,13 -13,13l-105 0c-9,0 -14,-5 -14,-13zm-158 -16l0 -262c0,-4 8,-3 14,-3l0 247c0,5 5,10 9,10l127 0 0 12 -145 0c-4,0 -5,-1 -5,-4zm158 -125c0,-9 5,-14 14,-14l105 0c8,0 13,5 13,14l0 31 -132 0 0 -31zm-8 33c-1,-1 -1,-2 -2,-2 -10,0 -20,-2 -20,4 0,6 10,4 20,4 1,0 1,0 2,-1l0 27 -28 0c-5,0 -5,8 0,8l28 0 0 36 -124 0c-2,0 -2,-1 -4,-1 0,-1 0,-1 0,-3l0 -264c0,-1 1,-3 3,-3l136 0 0 28c0,15 14,28 27,28l28 0 0 84 -47 0c-10,0 -18,8 -19,18 -1,11 0,25 0,37zm19 -190c2,2 39,39 41,43 -15,0 -27,2 -35,-7 -8,-8 -6,-20 -6,-36zm-155 -4l0 13c-6,0 -22,-2 -22,9l0 8 -10 0c-4,0 -9,5 -9,9l0 267c0,10 9,10 16,10 53,0 108,1 161,0 7,0 4,1 9,4 3,2 6,3 10,3l110 0c10,0 19,-9 19,-19l0 -146c0,-10 -9,-19 -19,-19l-55 0 0 -86c0,-6 -4,-9 -9,-14 -2,-1 -2,-2 -3,-4 -8,-8 -17,-16 -23,-23l-15 -15c-3,-3 -5,-6 -10,-6l-141 0c-4,0 -9,5 -9,9z"/>
     <path class="fil23 str0" d="M9794 779l22 33c2,2 6,10 9,10l51 0c0,10 -5,18 -9,24 -4,6 -9,11 -16,15 -30,18 -72,-2 -75,-38 -1,-10 0,-18 4,-26 2,-6 9,-15 14,-18zm70 5c11,16 8,12 12,30l-41 0 29 -30zm-64 -11c6,-1 21,-12 44,-3 6,3 10,5 14,9l-32 32 -20 -28c-2,-3 -4,-6 -6,-10zm-33 41c0,20 5,33 17,45 28,28 76,21 95,-16 13,-28 3,-63 -28,-78 -22,-12 -50,-6 -67,11 -8,8 -17,23 -17,38z"/>
     <path class="fil23 str0" d="M9884 891l94 0 0 15 -94 0 0 -15zm-8 -4l0 24c0,2 2,3 4,3l104 0c1,0 3,-1 3,-3l0 -24c0,-2 -2,-4 -3,-4l-104 0c-2,0 -4,2 -4,4z"/>
     <path class="fil23 str0" d="M9886 1020c0,-11 16,-12 16,0 0,9 -16,9 -16,0zm-8 -1c0,22 32,21 32,0 0,-14 -18,-21 -28,-11 -2,2 -4,7 -4,11z"/>
     <path class="fil23 str0" d="M9924 949c0,-11 15,-10 15,0 0,2 0,4 -2,5 -4,5 -13,3 -13,-5zm-9 0c0,4 3,9 5,11 14,16 38,-6 23,-22 -10,-11 -28,-3 -28,11z"/>
     <path class="fil23 str0" d="M9886 949c0,-10 16,-11 16,1 0,9 -16,9 -16,-1zm-8 0c0,4 2,9 4,11 9,10 28,4 28,-11 0,-14 -18,-21 -27,-12 -2,3 -5,7 -5,12z"/>
     <path class="fil23 str0" d="M9924 985c0,-12 15,-11 15,-1 0,2 0,4 -2,5 -4,5 -13,2 -13,-4zm-9 -1c0,13 16,22 28,12 15,-14 -6,-38 -22,-24 -3,3 -6,8 -6,12z"/>
     <path class="fil23 str0" d="M9924 1020c0,-11 15,-11 15,0 0,9 -15,9 -15,0zm-9 -1c0,14 17,22 28,12 15,-14 -7,-39 -23,-23 -2,2 -5,7 -5,11z"/>
     <path class="fil23 str0" d="M9886 985c0,-11 16,-12 16,0 0,9 -16,9 -16,0zm-8 -1c0,4 2,9 4,11 9,10 28,4 28,-11 0,-14 -18,-21 -27,-12 -2,3 -5,8 -5,12z"/>
     <path class="fil23 str0" d="M9970 957c-11,0 -12,-15 0,-15 9,0 9,15 0,15zm-17 -9c0,15 16,23 27,13 7,-6 7,-16 1,-23 -6,-6 -16,-7 -23,-1 -2,2 -5,8 -5,11z"/>
     <path class="fil23 str0" d="M9962 984c0,-10 15,-11 15,1 0,9 -15,10 -15,-1zm-9 -1c0,7 3,12 9,15 6,4 14,2 18,-2 11,-9 5,-28 -11,-28 -4,0 -9,2 -11,4 -2,2 -5,8 -5,11z"/>
     <path class="fil23 str0" d="M9962 1019c0,-9 15,-10 15,1 0,9 -15,10 -15,-1zm-9 -1c0,16 17,22 27,13 10,-9 5,-28 -11,-28 -4,0 -9,2 -11,5 -2,1 -5,7 -5,10z"/>
     <path class="fil23 str0" d="M9741 765c-2,6 -1,46 -1,56 0,4 8,4 8,0 0,-10 1,-50 -1,-56 -3,-2 -4,-2 -6,0z"/>
     <path class="fil23 str0" d="M9774 924c0,3 2,4 5,4l42 0c4,0 4,-8 0,-8l-42 0c-3,0 -5,2 -5,4z"/>
     <path class="fil23 str0" d="M9788 958c0,3 2,4 5,4l22 0c4,0 4,-8 0,-8l-22 0c-3,0 -5,2 -5,4z"/>
     <path class="fil23 str0" d="M9756 957c0,7 6,5 22,5 4,0 4,-8 0,-8l-19 0c-1,0 -3,2 -3,3z"/>
     <path class="fil23 str0" d="M9756 924c0,7 12,5 12,1 0,-7 -12,-6 -12,-1z"/>
     <path class="fil23 str0" d="M9741 748c-1,4 -1,3 0,7 4,1 2,1 6,0 1,-4 1,-3 0,-7 -2,-1 -3,-2 -6,0z"/>
    </g>
    <path class="fil22" d="M785 1136c0,5 0,9 0,12 -1,4 -1,7 -2,9 -1,2 -2,3 -3,4 -2,1 -3,2 -4,2l-106 0 0 86 99 0c2,0 3,1 4,1 1,1 2,3 3,5 1,2 2,4 2,8 1,3 1,7 1,12 0,5 0,9 -1,12 0,4 -1,6 -2,9 -1,2 -2,3 -3,4 -1,1 -2,2 -4,2l-99 0 0 120c0,1 0,3 -1,4 -1,2 -3,3 -6,4 -2,1 -6,1 -10,2 -4,0 -9,1 -16,1 -6,0 -11,-1 -15,-1 -5,-1 -8,-1 -11,-2 -2,-1 -4,-2 -5,-4 -1,-1 -2,-3 -2,-4l0 -292c0,-8 2,-13 6,-16 4,-3 8,-5 14,-5l152 0c1,0 2,0 4,1 1,1 2,3 3,5 1,2 1,5 2,8 0,4 0,8 0,13zm119 286c0,2 -1,3 -2,5 -1,1 -3,2 -5,3 -2,1 -6,1 -10,2 -4,0 -9,1 -16,1 -6,0 -11,-1 -16,-1 -4,-1 -7,-1 -10,-2 -2,-1 -4,-2 -5,-3 -1,-2 -2,-3 -2,-5l0 -304c0,-2 1,-3 2,-5 1,-1 3,-2 5,-3 3,-1 6,-1 10,-2 5,0 10,0 16,0 7,0 12,0 16,0 4,1 8,1 10,2 2,1 4,2 5,3 1,2 2,3 2,5l0 304zm336 -14c0,4 -1,7 -2,10 -2,3 -4,6 -6,8 -2,2 -5,3 -8,4 -3,1 -6,2 -9,2l-28 0c-6,0 -11,-1 -15,-2 -4,-1 -8,-4 -12,-7 -3,-3 -7,-7 -10,-12 -3,-5 -7,-12 -11,-20l-80 -151c-5,-9 -10,-19 -14,-29 -5,-10 -9,-20 -13,-30l-1 0c1,12 1,24 2,36 0,11 0,24 0,36l0 169c0,1 0,3 -1,4 -1,2 -3,3 -5,4 -2,1 -5,1 -9,2 -4,0 -9,1 -15,1 -6,0 -10,-1 -14,-1 -4,-1 -7,-1 -9,-2 -2,-1 -4,-2 -5,-4 0,-1 -1,-3 -1,-4l0 -290c0,-7 2,-13 7,-17 5,-4 10,-6 17,-6l35 0c6,0 12,1 16,2 4,1 8,3 11,5 4,2 7,6 10,10 3,5 6,10 9,17l63 117c3,8 7,15 11,21 3,7 7,14 10,21 3,7 6,14 9,20 4,7 7,14 10,20l0 0c-1,-11 -1,-23 -1,-36 0,-13 -1,-25 -1,-36l0 -151c0,-2 1,-3 2,-5 1,-1 3,-2 5,-3 2,-1 5,-2 9,-2 4,-1 9,-1 15,-1 6,0 10,0 14,1 4,0 7,1 9,2 2,1 4,2 4,3 1,2 2,3 2,5l0 289zm333 -1c2,6 4,10 4,14 1,3 0,6 -2,8 -2,1 -5,3 -10,3 -4,0 -11,1 -19,1 -8,0 -15,-1 -20,-1 -4,0 -8,-1 -10,-1 -3,-1 -5,-2 -6,-3 -1,-2 -1,-4 -2,-6l-21 -64 -122 0 -20 63c-1,2 -1,4 -3,5 -1,2 -2,3 -5,4 -2,1 -6,2 -10,2 -4,0 -10,1 -17,1 -8,0 -14,-1 -18,-1 -4,-1 -7,-2 -9,-4 -2,-2 -2,-4 -2,-8 1,-3 2,-8 4,-14l99 -286c1,-2 2,-5 4,-6 1,-2 3,-3 6,-4 3,-1 7,-2 12,-2 5,0 12,0 20,0 10,0 18,0 24,0 6,0 10,1 13,2 3,1 6,2 7,4 2,2 3,4 4,7l99 286zm-147 -237l-1 0 -45 137 91 0 -45 -137zm458 238c0,4 -1,7 -2,10 -1,3 -3,6 -6,8 -2,2 -4,3 -7,4 -4,1 -7,2 -10,2l-28 0c-6,0 -11,-1 -15,-2 -4,-1 -8,-4 -11,-7 -4,-3 -8,-7 -11,-12 -3,-5 -7,-12 -11,-20l-80 -151c-5,-9 -9,-19 -14,-29 -5,-10 -9,-20 -13,-30l-1 0c1,12 2,24 2,36 0,11 0,24 0,36l0 169c0,1 0,3 -1,4 -1,2 -2,3 -5,4 -2,1 -5,1 -9,2 -4,0 -8,1 -14,1 -6,0 -11,-1 -15,-1 -4,-1 -7,-1 -9,-2 -2,-1 -4,-2 -4,-4 -1,-1 -2,-3 -2,-4l0 -290c0,-7 3,-13 7,-17 5,-4 10,-6 17,-6l35 0c6,0 12,1 16,2 4,1 8,3 12,5 3,2 6,6 9,10 3,5 6,10 9,17l63 117c4,8 7,15 11,21 3,7 7,14 10,21 3,7 7,14 10,20 3,7 6,14 9,20l0 0c0,-11 -1,-23 -1,-36 0,-13 0,-25 0,-36l0 -151c0,-2 0,-3 1,-5 1,-1 3,-2 5,-3 3,-1 6,-2 9,-2 4,-1 9,-1 15,-1 6,0 11,0 14,1 4,0 7,1 9,2 2,1 4,2 5,3 0,2 1,3 1,5l0 289zm293 -26c0,5 -1,8 -1,11 0,3 0,5 -1,7 0,3 -1,4 -2,6 -1,1 -2,3 -4,5 -2,2 -5,4 -10,7 -6,3 -12,6 -20,9 -7,2 -16,5 -25,6 -10,2 -21,3 -32,3 -22,0 -42,-3 -60,-10 -17,-7 -32,-17 -45,-31 -12,-13 -22,-30 -28,-50 -7,-20 -10,-44 -10,-71 0,-27 3,-51 11,-73 7,-21 17,-39 30,-53 13,-15 29,-25 47,-33 19,-7 39,-11 61,-11 9,0 17,1 26,2 8,2 16,4 23,6 7,2 13,5 19,8 5,4 9,6 11,9 3,2 4,4 5,5 1,2 2,4 2,6 1,2 1,5 1,8 0,3 1,7 1,12 0,5 -1,9 -1,12 0,4 -1,7 -2,9 -1,2 -2,4 -3,4 -1,1 -2,2 -4,2 -2,0 -5,-1 -9,-4 -4,-3 -9,-6 -15,-10 -6,-4 -13,-7 -21,-10 -9,-3 -19,-4 -30,-4 -13,0 -24,3 -34,8 -11,5 -19,12 -26,22 -7,10 -12,22 -16,35 -4,14 -6,30 -6,47 0,19 2,35 6,49 4,14 10,25 17,34 7,9 16,16 26,20 10,4 22,7 34,7 12,0 22,-2 30,-5 9,-2 16,-5 22,-9 6,-3 11,-6 15,-8 4,-3 7,-4 9,-4 2,0 3,0 4,1 1,0 2,2 3,4 0,2 1,4 1,8 0,4 1,8 1,14zm237 23c0,5 0,9 0,12 -1,4 -1,6 -2,8 -1,2 -2,4 -3,5 -2,1 -3,1 -5,1l-161 0c-5,0 -10,-2 -14,-5 -4,-3 -5,-8 -5,-16l0 -280c0,-8 1,-13 5,-16 4,-3 9,-5 14,-5l161 0c1,0 2,0 4,1 1,1 2,3 3,5 0,2 1,4 2,8 0,3 0,7 0,12 0,5 0,9 0,12 -1,3 -1,6 -2,8 -1,2 -2,3 -3,4 -2,1 -3,1 -4,1l-115 0 0 79 97 0c1,0 2,0 4,1 1,1 2,3 3,5 1,1 1,4 2,7 0,3 0,7 0,12 0,5 0,9 0,12 -1,3 -1,6 -2,8 -1,1 -2,3 -3,4 -2,0 -3,1 -4,1l-97 0 0 91 115 0c2,0 3,0 5,1 1,1 2,2 3,4 1,2 1,5 2,8 0,3 0,7 0,12z"/>
   </g>
  </g>
  <polygon class="fil11" points="0,2540 10160,2540 10160,0 0,0 "/>
 </g>
</svg>
